<svg width="80" height="80" viewBox="0 0 80 80" fill="none" xmlns="http://www.w3.org/2000/svg">
<mask id="path-1-inside-1_97_13505" fill="white">
<path d="M1.11457 80C0.23546 79.5117 -0.0185047 78.7501 0.00103107 77.7931C0.0401026 75.6643 0.0205668 73.516 0.0205668 71.3872C0.0205668 69.942 0.587104 69.3952 1.99368 69.3756C2.87279 69.3756 3.7519 69.3756 4.67008 69.3756C4.67008 67.9109 4.67008 66.5047 4.67008 65.0009C3.79097 65.0009 2.91186 65.0009 2.05229 65.0009C0.567568 65.0009 0.0205668 64.4541 0.0205668 62.9698C0.0205668 60.7629 0.0205668 58.5365 0.0205668 56.3296C0.0205668 54.9625 0.587104 54.3961 1.97414 54.3766C2.99 54.3766 4.00586 54.3766 5.17801 54.3766C1.0755 50.6073 -0.702257 46.1153 0.313603 40.7055C0.958284 37.2487 2.73604 34.4168 5.54919 32.2881C11.5662 27.7571 19.6345 28.5774 24.6552 34.1825C29.3828 39.4751 29.6954 48.5175 23.0337 54.318C23.3267 54.3375 23.5416 54.3766 23.7565 54.3766C26.5697 54.3766 29.3828 54.3766 32.196 54.3766C33.9347 54.3766 34.4035 54.8648 34.4035 56.6225C34.4035 58.3412 34.4035 60.0598 34.4035 61.8761C35.3412 61.8761 36.2399 61.8761 37.1385 61.8761C38.506 61.8956 39.0726 62.4425 39.0726 63.8291C39.0726 66.0751 39.0726 68.3015 39.0726 70.5475C39.0726 71.9146 38.506 72.4809 37.119 72.4809C36.2399 72.4809 35.3608 72.4809 34.4426 72.4809C34.4426 73.9457 34.4426 75.3323 34.4426 76.7971C48.5474 76.7971 62.6718 76.7971 76.8547 76.7971C76.8547 57.0131 76.8547 37.2096 76.8547 17.328C76.5617 17.328 76.2882 17.328 75.9952 17.328C72.2443 17.328 68.4934 17.328 64.7426 17.328C63.2188 17.328 62.6718 16.7812 62.6718 15.2579C62.6718 11.2542 62.6718 7.25053 62.6718 3.16875C49.7196 3.16875 36.7869 3.16875 23.8151 3.16875C23.8151 4.8874 23.8151 6.60604 23.8151 8.42234C24.1082 8.42234 24.4012 8.42234 24.6747 8.42234C29.7735 8.42234 34.8919 8.42234 39.9907 8.42234C40.3033 8.42234 40.6159 8.42234 40.9285 8.50046C41.6513 8.67623 42.1006 9.2426 42.1006 9.96521C42.1201 10.7074 41.6513 11.3128 40.8894 11.4886C40.6159 11.5471 40.3229 11.5471 40.0298 11.5471C30.2033 11.5471 20.3964 11.5471 10.5699 11.5471C10.3941 11.5471 10.1987 11.5471 10.0229 11.5471C9.1047 11.469 8.46002 10.8441 8.46002 10.0043C8.44048 9.14495 9.1047 8.4614 10.062 8.44187C11.5271 8.40281 12.9728 8.42234 14.438 8.42234C16.4697 8.42234 18.5014 8.42234 20.5917 8.42234C20.6113 8.12939 20.6308 7.8755 20.6308 7.64114C20.6308 5.70766 20.6308 3.79371 20.6308 1.86024C20.6308 0.590784 21.2364 0.00488252 22.5062 0.00488252C36.318 0.00488252 50.1103 -0.0146475 63.9221 0.0244126C64.4495 0.0244126 65.1333 0.297833 65.5045 0.668904C70.1344 5.23894 74.7449 9.84803 79.3358 14.4571C79.5897 14.711 79.7851 15.0235 80 15.2969C80 36.8581 80 58.4193 80 79.9805C53.7244 80 27.4292 80 1.11457 80ZM25.0264 43.4007C25.0068 37.3854 20.0643 32.4834 14.0668 32.5029C8.04977 32.5224 3.14629 37.4635 3.16583 43.4593C3.18536 49.4745 8.12791 54.3766 14.1254 54.357C20.1229 54.357 25.0459 49.4159 25.0264 43.4007ZM31.2387 72.559C21.842 72.559 12.5235 72.559 3.2049 72.559C3.2049 74.0238 3.2049 75.4495 3.2049 76.8361C4.76776 76.8361 6.27201 76.8361 7.77627 76.8361C7.95209 75.2151 8.36234 74.5706 9.31959 74.5706C9.6517 74.5706 10.1596 74.6683 10.3159 74.9027C10.7066 75.469 10.9215 76.133 11.2341 76.8166C12.6016 76.8166 14.1254 76.8166 15.6296 76.8166C15.7078 75.2737 16.1962 74.5706 17.1925 74.5511C18.1498 74.5316 18.6186 75.1565 18.8726 76.8361C20.3964 76.8361 21.9202 76.8361 23.4244 76.8361C23.5612 75.2151 24.0496 74.5511 25.0459 74.5511C26.0227 74.5511 26.4915 75.1956 26.6674 76.8361C28.1911 76.8361 29.6954 76.8361 31.2583 76.8361C31.2387 75.4104 31.2387 74.0043 31.2387 72.559ZM31.3559 69.3366C32.8797 69.3366 34.384 69.3366 35.9273 69.3366C35.9273 67.8718 35.9273 66.4657 35.9273 65.0595C26.5501 65.0595 17.212 65.0595 7.89348 65.0595C7.89348 66.5047 7.89348 67.9109 7.89348 69.3366C9.45634 69.3366 10.9801 69.3366 12.4844 69.3366C12.6602 67.5593 13.0509 66.8953 14.0277 66.9149C15.6296 66.9539 15.6687 68.1843 15.7078 69.3561C17.2706 69.3561 18.7749 69.3561 20.2792 69.3561C20.5527 67.5008 20.9434 66.8953 21.9006 66.9149C22.2327 66.9344 22.7407 67.0516 22.8774 67.2859C23.2486 67.8914 23.444 68.5944 23.737 69.3366C25.1045 69.3366 26.6283 69.3366 28.1325 69.3366C28.2693 67.5984 28.6795 66.9539 29.6759 66.8953C30.6722 66.8367 31.1215 67.4617 31.3559 69.3366ZM10.9997 61.8175C12.5821 61.8175 14.0863 61.8175 15.6492 61.8175C15.6492 61.3683 15.6296 60.9777 15.6492 60.6067C15.7078 59.6692 16.3329 59.0638 17.173 59.0443C18.0521 59.0247 18.6968 59.6497 18.7554 60.6262C18.7749 61.0363 18.7554 61.4269 18.7554 61.837C20.3768 61.837 21.8616 61.837 23.4244 61.837C23.5026 60.6262 23.2095 59.181 25.0068 59.0443C26.0227 58.9661 26.3352 59.552 26.6478 61.8175C28.1716 61.8175 29.6759 61.8175 31.1997 61.8175C31.1997 60.3528 31.1997 58.9466 31.1997 57.5404C21.8225 57.5404 12.4844 57.5404 3.16583 57.5404C3.16583 58.9857 3.16583 60.3918 3.16583 61.8175C4.72869 61.8175 6.25248 61.8175 7.75673 61.8175C7.99116 59.5911 8.32327 59.0247 9.39774 59.0247C10.4917 59.0638 10.8434 59.6692 10.9997 61.8175ZM74.3932 14.1837C71.5605 11.3518 68.6888 8.48093 65.8756 5.64907C65.8756 8.42234 65.8756 11.2737 65.8756 14.1837C68.7669 14.1837 71.6192 14.1837 74.3932 14.1837Z"/>
</mask>
<path d="M1.11457 80C0.23546 79.5117 -0.0185047 78.7501 0.00103107 77.7931C0.0401026 75.6643 0.0205668 73.516 0.0205668 71.3872C0.0205668 69.942 0.587104 69.3952 1.99368 69.3756C2.87279 69.3756 3.7519 69.3756 4.67008 69.3756C4.67008 67.9109 4.67008 66.5047 4.67008 65.0009C3.79097 65.0009 2.91186 65.0009 2.05229 65.0009C0.567568 65.0009 0.0205668 64.4541 0.0205668 62.9698C0.0205668 60.7629 0.0205668 58.5365 0.0205668 56.3296C0.0205668 54.9625 0.587104 54.3961 1.97414 54.3766C2.99 54.3766 4.00586 54.3766 5.17801 54.3766C1.0755 50.6073 -0.702257 46.1153 0.313603 40.7055C0.958284 37.2487 2.73604 34.4168 5.54919 32.2881C11.5662 27.7571 19.6345 28.5774 24.6552 34.1825C29.3828 39.4751 29.6954 48.5175 23.0337 54.318C23.3267 54.3375 23.5416 54.3766 23.7565 54.3766C26.5697 54.3766 29.3828 54.3766 32.196 54.3766C33.9347 54.3766 34.4035 54.8648 34.4035 56.6225C34.4035 58.3412 34.4035 60.0598 34.4035 61.8761C35.3412 61.8761 36.2399 61.8761 37.1385 61.8761C38.506 61.8956 39.0726 62.4425 39.0726 63.8291C39.0726 66.0751 39.0726 68.3015 39.0726 70.5475C39.0726 71.9146 38.506 72.4809 37.119 72.4809C36.2399 72.4809 35.3608 72.4809 34.4426 72.4809C34.4426 73.9457 34.4426 75.3323 34.4426 76.7971C48.5474 76.7971 62.6718 76.7971 76.8547 76.7971C76.8547 57.0131 76.8547 37.2096 76.8547 17.328C76.5617 17.328 76.2882 17.328 75.9952 17.328C72.2443 17.328 68.4934 17.328 64.7426 17.328C63.2188 17.328 62.6718 16.7812 62.6718 15.2579C62.6718 11.2542 62.6718 7.25053 62.6718 3.16875C49.7196 3.16875 36.7869 3.16875 23.8151 3.16875C23.8151 4.8874 23.8151 6.60604 23.8151 8.42234C24.1082 8.42234 24.4012 8.42234 24.6747 8.42234C29.7735 8.42234 34.8919 8.42234 39.9907 8.42234C40.3033 8.42234 40.6159 8.42234 40.9285 8.50046C41.6513 8.67623 42.1006 9.2426 42.1006 9.96521C42.1201 10.7074 41.6513 11.3128 40.8894 11.4886C40.6159 11.5471 40.3229 11.5471 40.0298 11.5471C30.2033 11.5471 20.3964 11.5471 10.5699 11.5471C10.3941 11.5471 10.1987 11.5471 10.0229 11.5471C9.1047 11.469 8.46002 10.8441 8.46002 10.0043C8.44048 9.14495 9.1047 8.4614 10.062 8.44187C11.5271 8.40281 12.9728 8.42234 14.438 8.42234C16.4697 8.42234 18.5014 8.42234 20.5917 8.42234C20.6113 8.12939 20.6308 7.8755 20.6308 7.64114C20.6308 5.70766 20.6308 3.79371 20.6308 1.86024C20.6308 0.590784 21.2364 0.00488252 22.5062 0.00488252C36.318 0.00488252 50.1103 -0.0146475 63.9221 0.0244126C64.4495 0.0244126 65.1333 0.297833 65.5045 0.668904C70.1344 5.23894 74.7449 9.84803 79.3358 14.4571C79.5897 14.711 79.7851 15.0235 80 15.2969C80 36.8581 80 58.4193 80 79.9805C53.7244 80 27.4292 80 1.11457 80ZM25.0264 43.4007C25.0068 37.3854 20.0643 32.4834 14.0668 32.5029C8.04977 32.5224 3.14629 37.4635 3.16583 43.4593C3.18536 49.4745 8.12791 54.3766 14.1254 54.357C20.1229 54.357 25.0459 49.4159 25.0264 43.4007ZM31.2387 72.559C21.842 72.559 12.5235 72.559 3.2049 72.559C3.2049 74.0238 3.2049 75.4495 3.2049 76.8361C4.76776 76.8361 6.27201 76.8361 7.77627 76.8361C7.95209 75.2151 8.36234 74.5706 9.31959 74.5706C9.6517 74.5706 10.1596 74.6683 10.3159 74.9027C10.7066 75.469 10.9215 76.133 11.2341 76.8166C12.6016 76.8166 14.1254 76.8166 15.6296 76.8166C15.7078 75.2737 16.1962 74.5706 17.1925 74.5511C18.1498 74.5316 18.6186 75.1565 18.8726 76.8361C20.3964 76.8361 21.9202 76.8361 23.4244 76.8361C23.5612 75.2151 24.0496 74.5511 25.0459 74.5511C26.0227 74.5511 26.4915 75.1956 26.6674 76.8361C28.1911 76.8361 29.6954 76.8361 31.2583 76.8361C31.2387 75.4104 31.2387 74.0043 31.2387 72.559ZM31.3559 69.3366C32.8797 69.3366 34.384 69.3366 35.9273 69.3366C35.9273 67.8718 35.9273 66.4657 35.9273 65.0595C26.5501 65.0595 17.212 65.0595 7.89348 65.0595C7.89348 66.5047 7.89348 67.9109 7.89348 69.3366C9.45634 69.3366 10.9801 69.3366 12.4844 69.3366C12.6602 67.5593 13.0509 66.8953 14.0277 66.9149C15.6296 66.9539 15.6687 68.1843 15.7078 69.3561C17.2706 69.3561 18.7749 69.3561 20.2792 69.3561C20.5527 67.5008 20.9434 66.8953 21.9006 66.9149C22.2327 66.9344 22.7407 67.0516 22.8774 67.2859C23.2486 67.8914 23.444 68.5944 23.737 69.3366C25.1045 69.3366 26.6283 69.3366 28.1325 69.3366C28.2693 67.5984 28.6795 66.9539 29.6759 66.8953C30.6722 66.8367 31.1215 67.4617 31.3559 69.3366ZM10.9997 61.8175C12.5821 61.8175 14.0863 61.8175 15.6492 61.8175C15.6492 61.3683 15.6296 60.9777 15.6492 60.6067C15.7078 59.6692 16.3329 59.0638 17.173 59.0443C18.0521 59.0247 18.6968 59.6497 18.7554 60.6262C18.7749 61.0363 18.7554 61.4269 18.7554 61.837C20.3768 61.837 21.8616 61.837 23.4244 61.837C23.5026 60.6262 23.2095 59.181 25.0068 59.0443C26.0227 58.9661 26.3352 59.552 26.6478 61.8175C28.1716 61.8175 29.6759 61.8175 31.1997 61.8175C31.1997 60.3528 31.1997 58.9466 31.1997 57.5404C21.8225 57.5404 12.4844 57.5404 3.16583 57.5404C3.16583 58.9857 3.16583 60.3918 3.16583 61.8175C4.72869 61.8175 6.25248 61.8175 7.75673 61.8175C7.99116 59.5911 8.32327 59.0247 9.39774 59.0247C10.4917 59.0638 10.8434 59.6692 10.9997 61.8175ZM74.3932 14.1837C71.5605 11.3518 68.6888 8.48093 65.8756 5.64907C65.8756 8.42234 65.8756 11.2737 65.8756 14.1837C68.7669 14.1837 71.6192 14.1837 74.3932 14.1837Z" fill="#B5121B" stroke="white" stroke-width="0.5" mask="url(#path-1-inside-1_97_13505)"/>
<path d="M56.0593 38.6463L56.1476 38.7334L56.2353 38.6457L66.7456 28.1385L66.9344 27.9498L66.6685 27.9256C66.5974 27.9191 66.5207 27.9148 66.4403 27.9103C66.2589 27.9001 66.0587 27.8889 65.8612 27.8494L65.8612 27.8493L65.8552 27.8484C65.131 27.7398 64.6316 27.1828 64.6137 26.4845L64.6137 26.4843C64.5953 25.8043 65.0537 25.1455 65.7032 25.1284L65.7054 25.1283C67.4989 25.0503 69.273 25.0503 71.0665 25.1283C71.4276 25.146 71.6857 25.3065 71.8595 25.5497C72.0361 25.7969 72.1296 26.1363 72.139 26.5098C72.139 26.51 72.139 26.5102 72.139 26.5104L72.1392 26.5271C72.1587 28.0641 72.1779 29.5791 72.139 31.1132L72.139 31.1137C72.1298 31.5471 71.992 31.8924 71.769 32.1352C71.5463 32.3777 71.2306 32.5267 70.8488 32.554C70.4374 32.5814 70.0999 32.4717 69.8474 32.2544C69.5938 32.0362 69.4144 31.6994 69.3398 31.2527C69.3078 31.0447 69.2892 30.837 69.261 30.5219C69.2555 30.4602 69.2496 30.3945 69.2432 30.3238L69.2202 30.0704L69.0337 30.2435C68.9663 30.3061 68.9034 30.3641 68.8441 30.4188C68.6649 30.5842 68.5195 30.7184 68.3857 30.8521L63.0817 36.1546L57.7777 41.457C57.1642 42.0704 56.7177 42.338 56.2941 42.3358C55.8697 42.3337 55.4231 42.0608 54.8092 41.4569C54.1253 40.7635 53.4366 40.0749 52.7433 39.3819C52.0498 38.6885 51.3517 37.9906 50.6487 37.2782L50.5638 37.1921L50.475 37.2741C50.4381 37.3081 50.402 37.3413 50.3666 37.3739C50.1592 37.5649 49.976 37.7337 49.8071 37.9025L42.5203 45.1872C42.3448 45.3627 42.1526 45.5547 41.9609 45.7274C41.2816 46.2764 40.478 46.2481 39.944 45.6965C39.4278 45.1626 39.4179 44.3938 39.9333 43.7314L39.8346 43.6546L39.9333 43.7314C40.0636 43.5638 40.2334 43.3937 40.406 43.2403L40.4062 43.2404L40.4114 43.2352L49.0266 34.6225C49.6508 33.9985 50.1018 33.7219 50.5322 33.7241C50.9633 33.7262 51.4196 34.0081 52.0538 34.642C52.5041 35.0922 52.9546 35.5448 53.4038 35.996C54.2984 36.8947 55.1877 37.788 56.0593 38.6463Z" fill="#B5121B" stroke="white" stroke-width="0.25"/>
<path d="M42.8621 71.42L42.8621 71.42L42.8608 71.4198C42.0965 71.3106 41.5615 70.7143 41.5615 70.0006C41.5615 69.3073 42.0959 68.7092 42.8436 68.5812C43.0228 68.5537 43.2091 68.5572 43.4023 68.5607C43.4691 68.562 43.5366 68.5632 43.605 68.5632H43.6589H43.7128H43.7667H43.8206H43.8746H43.9285H43.9824H44.0363H44.0902H44.1441H44.198H44.2519H44.3058H44.3597H44.4137H44.4676H44.5215H44.5754H44.6293H44.6832H44.7371H44.791H44.8449H44.8988H44.9527H45.0066H45.0605H45.1144H45.1683H45.2222H45.2761H45.33H45.3839H45.4378H45.4917H45.5456H45.5995H45.6534H45.7073H45.7612H45.8151H45.869H45.9229H45.9768H46.0307H46.0846H46.1385H46.1924H46.2463H46.3002H46.3541H46.408H46.4619H46.5157H46.5696H46.6235H46.6774H46.7313H46.7852H46.8391H46.893H46.9469H47.0008H47.0547H47.1085H47.1624H47.2163H47.2702H47.3241H47.378H47.4319H47.4858H47.5396H47.5935H47.6474H47.7013H47.7552H47.8091H47.863H47.9168H47.9707H48.0246H48.0785H48.1324H48.1863H48.2401H48.294H48.3479H48.4018H48.4557H48.5095H48.5634H48.6173H48.6712H48.7251H48.7789H48.8328H48.8867H48.9406H48.9945H49.0483H49.1022H49.1561H49.21H49.2638H49.3177H49.3716H49.4255H49.4794H49.5332H49.5871H49.641H49.6949H49.7487H49.8026H49.8565H49.9104H49.9642H50.0181H50.072H50.1258H50.1797H50.2336H50.2875H50.3413H50.3952H50.4491H50.5029H50.5568H50.6107H50.6646H50.7184H50.7723H50.8262H50.88H50.9339H50.9878H51.0417H51.0955H51.1494H51.2033H51.2571H51.311H51.3649H51.4187H51.4726H51.5265H51.5803H51.6342H51.6881H51.7419H51.7958H51.8497H51.9035H51.9574H52.0113H52.0651H52.119H52.1729H52.2267H52.2806H52.3345H52.3883H52.4422H52.496H52.5499H52.6038H52.6576H52.7115H52.7654H52.8192H52.8731H52.927H52.9808H53.0347H53.0885H53.1424H53.1963H53.2501H53.304H53.3579H53.4117H53.4656H53.5194H53.5733H53.6272H53.681H53.7349H53.7887H53.8426H53.8965H53.9503H54.0042H54.058H54.1119H54.1658H54.2196H54.2735H54.3273H54.3812H54.4351H54.4889H54.5428H54.5966H54.6505H54.7044H54.7582H54.8121H54.8659H54.9198H54.9737H55.0275H55.0814H55.1352H55.1891H55.2429H55.2968H55.3507H55.4045H55.4584H55.5122H55.5661H55.62H55.6738H55.7277H55.7815H55.8354H55.8892H55.9431H55.997H56.0508H56.1047H56.1585H56.2124H56.2662H56.3201H56.374H56.4278H56.4817H56.5355H56.5894H56.6432H56.6971H56.751H56.8048H56.8587H56.9125H56.9664H57.0202H57.0741H57.128H57.1818H57.2357H57.2895H57.3434H57.3972H57.4511H57.505H57.5588H57.6127H57.6665H57.7204H57.7742H57.8281H57.882H57.9358H57.9897H58.0435H58.0974H58.1512H58.2051H58.259H58.3128H58.3667H58.4205H58.4744H58.5282H58.5821H58.636H58.6898H58.7437H58.7975H58.8514H58.9052H58.9591H59.013H59.0668H59.1207H59.1745H59.2284H59.2822H59.3361H59.39H59.4438H59.4977H59.5515H59.6054H59.6593H59.7131H59.767H59.8208H59.8747H59.9286H59.9824H60.0363H60.0901H60.144H60.1978H60.2517H60.3056H60.3594H60.4133H60.4671H60.521H60.5749H60.6287H60.6826H60.7364H60.7903H60.8442H60.898H60.9519H61.0057H61.0596H61.1135H61.1673H61.2212H61.2751H61.3289H61.3828H61.4366H61.4905H61.5444H61.5982H61.6521H61.7059H61.7598H61.8137H61.8675H61.9214H61.9753H62.0291H62.083H62.1369H62.1907H62.2446H62.2984H62.3523H62.4062H62.46H62.5139H62.5678H62.6216H62.6755H62.7294H62.7832H62.8371H62.891H62.9448H62.9987H63.0526H63.1064H63.1603H63.2142H63.268H63.3219H63.3758H63.4296H63.4835H63.5374H63.5912H63.6451H63.699H63.7528H63.8067H63.8606H63.9144H63.9683H64.0222H64.0761H64.1299H64.1838H64.2377H64.2915H64.3454H64.3993H64.4532H64.507H64.5609H64.6148H64.6686H64.7225H64.7764H64.8303H64.8841H64.938H64.9919H65.0458H65.0996H65.1535H65.2074H65.2613H65.3151H65.369H65.4229H65.4768H65.5306H65.5845H65.6384H65.6923H65.7462H65.8H65.8539H65.9078H65.9617H66.0155H66.0694H66.1233H66.1772H66.2311H66.2849H66.3388H66.3927H66.4466H66.5005H66.5543H66.6082H66.6621H66.716H66.7699H66.8238H66.8776H66.9315H66.9854H67.0393H67.0932H67.1471H67.201H67.2548H67.3087H67.3626H67.4165H67.4704H67.5243H67.5782H67.6321H67.6859H67.7398H67.7937H67.8476H67.9015H67.9554H68.0093H68.0632H68.1171H68.171H68.2248H68.2787H68.3326H68.3865H68.4404H68.4943H68.5482H68.6021H68.656H68.7099H68.7638H68.8177H68.8716H68.9255H68.9794H69.0333H69.0872H69.1411H69.195H69.2489H69.3028H69.3567H69.4106H69.4645H69.5184H69.5723H69.6262H69.6801H69.734H69.7879H69.8418H69.8957H69.9496H70.0035H70.0574H70.1113H70.1652H70.2191H70.273H70.3269H70.3808H70.4347H70.4887H70.5426H70.5965H70.6504H70.7043H70.7582H70.8121H70.866H70.9199H70.9738H71.0278H71.0817H71.1356H71.1895C71.5035 68.5632 71.8042 68.5636 72.1031 68.6195C72.805 68.7639 73.233 69.3169 73.233 70.0006C73.233 70.6846 72.8047 71.2378 72.1024 71.3819C71.8238 71.4376 71.5049 71.438 71.1895 71.438H71.1627H71.1359H71.1091H71.0824H71.0556H71.0288H71.002H70.9752H70.9484H70.9216H70.8949H70.8681H70.8413H70.8145H70.7877H70.7609H70.7341H70.7074H70.6806H70.6538H70.627H70.6002H70.5734H70.5466H70.5199H70.4931H70.4663H70.4395H70.4127H70.3859H70.3591H70.3324H70.3056H70.2788H70.252H70.2252H70.1984H70.1716H70.1449H70.1181H70.0913H70.0645H70.0377H70.0109H69.9841H69.9574H69.9306H69.9038H69.877H69.8502H69.8234H69.7966H69.7699H69.7431H69.7163H69.6895H69.6627H69.6359H69.6091H69.5823H69.5556H69.5288H69.502H69.4752H69.4484H69.4216H69.3948H69.368H69.3413H69.3145H69.2877H69.2609H69.2341H69.2073H69.1805H69.1537H69.127H69.1002H69.0734H69.0466H69.0198H68.993H68.9662H68.9394H68.9127H68.8859H68.8591H68.8323H68.8055H68.7787H68.7519H68.7251H68.6983H68.6716H68.6448H68.618H68.5912H68.5644H68.5376H68.5108H68.484H68.4572H68.4304H68.4037H68.3769H68.3501H68.3233H68.2965H68.2697H68.2429H68.2161H68.1893H68.1625H68.1358H68.109H68.0822H68.0554H68.0286H68.0018H67.975H67.9482H67.9214H67.8946H67.8678H67.841H67.8143H67.7875H67.7607H67.7339H67.7071H67.6803H67.6535H67.6267H67.5999H67.5731H67.5463H67.5195H67.4927H67.4659H67.4391H67.4124H67.3856H67.3588H67.332H67.3052H67.2784H67.2516H67.2248H67.198H67.1712H67.1444H67.1176H67.0908H67.064H67.0372H67.0104H66.9836H66.9568H66.93H66.9032H66.8764H66.8496H66.8229H66.7961H66.7693H66.7425H66.7157H66.6889H66.6621H66.6353H66.6085H66.5817H66.5549H66.5281H66.5013H66.4745H66.4477H66.4209H66.3941H66.3673H66.3405H66.3137H66.2869H66.2601H66.2333H66.2065H66.1797H66.1529H66.1261H66.0993H66.0725H66.0457H66.0189H65.9921H65.9653H65.9385H65.9117H65.8849H65.8581H65.8313H65.8045H65.7777H65.7509H65.724H65.6972H65.6704H65.6436H65.6168H65.59H65.5632H65.5364H65.5096H65.4828H65.456H65.4292H65.4024H65.3756H65.3488H65.322H65.2952H65.2684H65.2416H65.2147H65.1879H65.1611H65.1343H65.1075H65.0807H65.0539H65.0271H65.0003H64.9735H64.9467H64.9199H64.893H64.8662H64.8394H64.8126H64.7858H64.759H64.7322H64.7054H64.6786H64.6518H64.6249H64.5981H64.5713H64.5445H64.5177H64.4909H64.4641H64.4373H64.4104H64.3836H64.3568H64.33H64.3032H64.2764H64.2496H64.2227H64.1959H64.1691H64.1423H64.1155H64.0887H64.0618H64.035H64.0082H63.9814H63.9546H63.9278H63.9009H63.8741H63.8473H63.8205H63.7937H63.7669H63.74H63.7132H63.6864H63.6596H63.6328H63.6059H63.5791H63.5523H63.5255H63.4987H63.4718H63.445H63.4182H63.3914H63.3645H63.3377H63.3109H63.2841H63.2573H63.2304H63.2036H63.1768H63.15H63.1231H63.0963H63.0695H63.0427H63.0158H62.989H62.9622H62.9354H62.9085H62.8817H62.8549H62.828H62.8012H62.7744H62.7476H62.7207H62.6939H62.6671H62.6402H62.6134H62.5866H62.5597H62.5329H62.5061H62.4793H62.4524H62.4256H62.3988H62.3719H62.3451H62.3183H62.2914H62.2646H62.2378H62.2109H62.1841H62.1573H62.1304H62.1036H62.0767H62.0499H62.0231H61.9962H61.9694H61.9426H61.9157H61.8889H61.8621H61.8352H61.8084H61.7815H61.7547H61.7279H61.701H61.6742H61.6473H61.6205H61.5937H61.5668H61.54H61.5131H61.4863H61.4594H61.4326H61.4058H61.3789H61.3521H61.3252H61.2984H61.2715H61.2447H61.2178H61.191H61.1642H61.1373H61.1105H61.0836H61.0568H61.0299H61.0031H60.9762H60.9494H60.9225H60.8957H60.8688H60.842H60.8151H60.7883H60.7614H60.7346H60.7077H60.6809H60.654H60.6272H60.6003H60.5735H60.5466H60.5197H60.4929H60.466H60.4392H60.4123H60.3855H60.3586H60.3318H60.3049H60.278H60.2512H60.2243H60.1975H60.1706H60.1437H60.1169H60.09H60.0632H60.0363H60.0094H59.9826H59.9557H59.9289H59.902H59.8751H59.8483H59.8214H59.7945H59.7677H59.7408H59.7139H59.6871H59.6602H59.6333H59.6065H59.5796H59.5527H59.5259H59.499H59.4721H59.4453H59.4184H59.3915H59.3647H59.3378H59.3109H59.2841H59.2572H59.2303H59.2034H59.1766H59.1497H59.1228H59.0959H59.0691H59.0422H59.0153H58.9884H58.9616H58.9347H58.9078H58.8809H58.8541H58.8272H58.8003H58.7734H58.7465H58.7197H58.6928H58.6659H58.639H58.6121H58.5853H58.5584H58.5315H58.5046H58.4777H58.4508H58.424H58.3971H58.3702H58.3433H58.3164H58.2895H58.2626H58.2358H58.2089H58.182H58.1551H58.1282H58.1013H58.0744H58.0475H58.0206H57.9938H57.9669H57.94H57.9131H57.8862H57.8593H57.8324H57.8055H57.7786H57.7517H57.7248H57.6979H57.671H57.6441H57.6172H57.5903H57.5634H57.5365H57.5096H57.4827H57.4559H57.4288H57.4018H57.3748H57.3478H57.3208H57.2938H57.2668H57.2397H57.2127H57.1857H57.1587H57.1317H57.1047H57.0777H57.0506H57.0236H56.9966H56.9696H56.9426H56.9156H56.8885H56.8615H56.8345H56.8075H56.7805H56.7535H56.7265H56.6994H56.6724H56.6454H56.6184H56.5914H56.5644H56.5374H56.5104H56.4833H56.4563H56.4293H56.4023H56.3753H56.3483H56.3212H56.2942H56.2672H56.2402H56.2132H56.1862H56.1592H56.1321H56.1051H56.0781H56.0511H56.0241H55.9971H55.9701H55.943H55.916H55.889H55.862H55.835H55.808H55.781H55.7539H55.7269H55.6999H55.6729H55.6459H55.6189H55.5919H55.5648H55.5378H55.5108H55.4838H55.4568H55.4298H55.4028H55.3757H55.3487H55.3217H55.2947H55.2677H55.2407H55.2137H55.1866H55.1596H55.1326H55.1056H55.0786H55.0516H55.0246H54.9975H54.9705H54.9435H54.9165H54.8895H54.8625H54.8355H54.8084H54.7814H54.7544H54.7274H54.7004H54.6734H54.6464H54.6193H54.5923H54.5653H54.5383H54.5113H54.4843H54.4573H54.4302H54.4032H54.3762H54.3492H54.3222H54.2952H54.2682H54.2411H54.2141H54.1871H54.1601H54.1331H54.1061H54.0791H54.052H54.025H53.998H53.971H53.944H53.917H53.89H53.8629H53.8359H53.8089H53.7819H53.7549H53.7279H53.7009H53.6738H53.6468H53.6198H53.5928H53.5658H53.5388H53.5118H53.4847H53.4577H53.4307H53.4037H53.3767H53.3497H53.3227H53.2956H53.2686H53.2416H53.2146H53.1876H53.1606H53.1336H53.1065H53.0795H53.0525H53.0255H52.9985H52.9715H52.9445H52.9174H52.8904H52.8634H52.8364H52.8094H52.7824H52.7554H52.7283H52.7013H52.6743H52.6473H52.6203H52.5933H52.5663H52.5392H52.5122H52.4852H52.4582H52.4312H52.4042H52.3772H52.3501H52.3231H52.2961H52.2691H52.2421H52.2151H52.1881H52.161H52.134H52.107H52.08H52.053H52.026H51.999H51.9719H51.9449H51.9179H51.8909H51.8639H51.8369H51.8099H51.7828H51.7558H51.7288H51.7018H51.6748H51.6478H51.6208H51.5937H51.5667H51.5397H51.5127H51.4857H51.4587H51.4317H51.4046H51.3776H51.3506H51.3236H51.2966H51.2696H51.2426H51.2155H51.1885H51.1615H51.1345H51.1075H51.0805H51.0535H51.0264H50.9994H50.9724H50.9454H50.9184H50.8914H50.8644H50.8373H50.8103H50.7833H50.7563H50.7293H50.7023H50.6753H50.6482H50.6212H50.5942H50.5672H50.5402H50.5132H50.4862H50.4591H50.4321H50.4051H50.3781H50.3511H50.3241H50.2971H50.27H50.243H50.216H50.189H50.162H50.135H50.108H50.0809H50.0539H50.0269H49.9999H49.9729H49.9459H49.9189H49.8918H49.8648H49.8378H49.8108H49.7838H49.7568H49.7298H49.7027H49.6757H49.6487H49.6217H49.5947H49.5677H49.5407H49.5136H49.4866H49.4596H49.4326H49.4056H49.3786H49.3516H49.3245H49.2975H49.2705H49.2435H49.2165H49.1895H49.1625H49.1354H49.1084H49.0814H49.0544H49.0274H49.0004H48.9734H48.9463H48.9193H48.8923H48.8653H48.8383H48.8113H48.7843H48.7572H48.7302H48.7032H48.6762H48.6492H48.6222H48.5952H48.5681H48.5411H48.5141H48.4871H48.4601H48.4331H48.4061H48.379H48.352H48.325H48.298H48.271H48.244H48.217H48.1899H48.1629H48.1359H48.1089H48.0819H48.0549H48.0279H48.0008H47.9738H47.9468H47.9198H47.8928H47.8658H47.8388H47.8117H47.7847H47.7577H47.7307H47.7037H47.6767H47.6497H47.6226H47.5956H47.5686H47.5416H47.5146H47.4876H47.4606H47.4335H47.4065H47.3795H47.3525H47.3255H47.2985H47.2715H47.2444H47.2174H47.1904H47.1634H47.1364H47.1094H47.0824H47.0553H47.0283H47.0013H46.9743H46.9473H46.9203H46.8933H46.8662H46.8392H46.8122H46.7852H46.7582H46.7312H46.7042H46.6771H46.6501H46.6231H46.5961H46.5691H46.5421H46.5151H46.488H46.461H46.434H46.407H46.38H46.353H46.326H46.2989H46.2719H46.2449H46.2179H46.1909H46.1639H46.1369H46.1098H46.0828H46.0558H46.0288H46.0018H45.9748H45.9478H45.9207H45.8937H45.8667H45.8397H45.8127H45.7857H45.7587H45.7316H45.7046H45.6776H45.6506H45.6236H45.5966H45.5696H45.5425H45.5155H45.4885H45.4615H45.4345H45.4075H45.3805H45.3534H45.3264H45.2994H45.2724H45.2454H45.2184H45.1914H45.1643H45.1373H45.1103H45.0833H45.0563H45.0293H45.0023H44.9752H44.9482H44.9212H44.8942H44.8672H44.8402H44.8132H44.7861H44.7591H44.7321H44.7051H44.6781H44.6511H44.6241H44.597H44.57H44.543H44.516H44.489H44.462H44.435H44.4079H44.3809H44.3539H44.3269H44.2999H44.2729H44.2459H44.2188H44.1918H44.1648H44.1378H44.1108H44.0838H44.0568H44.0297H44.0027H43.9757H43.9487H43.9217H43.8947H43.8677H43.8406H43.8136H43.7866H43.7596H43.7326H43.7056H43.6786H43.6515H43.6245C43.5562 71.438 43.4886 71.4393 43.4219 71.4405C43.2283 71.4441 43.0416 71.4476 42.8621 71.42Z" fill="#B5121B" stroke="white" stroke-width="0.25"/>
<path d="M35.2605 15.571L35.2605 15.571L35.2636 15.5721C35.5732 15.6722 35.7979 15.8377 35.9463 16.0537C36.0952 16.2703 36.1734 16.5469 36.1734 16.8788C36.1734 17.2093 36.091 17.486 35.9395 17.7033C35.7882 17.9202 35.5626 18.0859 35.2626 18.1859C34.9316 18.2962 34.539 18.3162 34.1495 18.3162H34.1036H34.0577H34.0118H33.9659H33.92H33.8741H33.8282H33.7823H33.7364H33.6905H33.6446H33.5987H33.5528H33.5069H33.461H33.4151H33.3692H33.3233H33.2774H33.2315H33.1856H33.1397H33.0938H33.0479H33.002H32.9561H32.9102H32.8643H32.8183H32.7724H32.7265H32.6806H32.6347H32.5888H32.5429H32.497H32.4511H32.4052H32.3593H32.3134H32.2675H32.2216H32.1757H32.1298H32.0839H32.038H31.9921H31.9462H31.9003H31.8544H31.8085H31.7626H31.7167H31.6708H31.6249H31.579H31.5331H31.4872H31.4413H31.3954H31.3495H31.3036H31.2577H31.2118H31.1659H31.12H31.0741H31.0282H30.9823H30.9364H30.8905H30.8446H30.7987H30.7528H30.7069H30.661H30.6151H30.5692H30.5233H30.4774H30.4315H30.3856H30.3397H30.2938H30.2479H30.202H30.1561H30.1102H30.0643H30.0184H29.9725H29.9266H29.8807H29.8348H29.7889H29.743H29.6971H29.6512H29.6052H29.5593H29.5134H29.4675H29.4216H29.3757H29.3298H29.2839H29.238H29.1921H29.1462H29.1003H29.0544H29.0085H28.9626H28.9167H28.8708H28.8249H28.779H28.7331H28.6872H28.6413H28.5954H28.5495H28.5036H28.4577H28.4118H28.3659H28.32H28.2741H28.2282H28.1823H28.1364H28.0905H28.0446H27.9987H27.9528H27.9069H27.861H27.8151H27.7692H27.7233H27.6774H27.6315H27.5856H27.5397H27.4938H27.4479H27.402H27.3561H27.3102H27.2643H27.2184H27.1725H27.1266H27.0807H27.0348H26.9889H26.943H26.8971H26.8512H26.8053H26.7594H26.7135H26.6676H26.6217H26.5758H26.5299H26.484H26.4381H26.3922H26.3462H26.3003H26.2544H26.2085H26.1626H26.1167H26.0708H26.0249H25.979H25.9331H25.8872H25.8413H25.7954H25.7495H25.7036H25.6577H25.6118H25.5659H25.52H25.4741H25.4282H25.3823H25.3364H25.2905H25.2446H25.1987H25.1528H25.1069H25.061H25.0151H24.9692H24.9233H24.8774H24.8315H24.7856H24.7397H24.6938H24.6479H24.602H24.5561H24.5102H24.4643H24.4184H24.3725H24.3266H24.2807H24.2348H24.1889H24.143H24.0971H24.0512H24.0053H23.9594H23.9135H23.8676H23.8217H23.7758H23.7299H23.684H23.6381H23.5922H23.5463H23.5004H23.4545H23.4086H23.3627H23.3168H23.2709H23.225H23.1791H23.1331H23.0872H23.0413H22.9954H22.9495H22.9036H22.8577H22.8118H22.7659H22.72H22.6741H22.6282H22.5823H22.5364H22.4905H22.4446H22.3987H22.3528H22.3069H22.261H22.2151H22.1692H22.1233H22.0774H22.0315H21.9856H21.9397H21.8938H21.8479H21.802H21.7561H21.7102H21.6643H21.6184H21.5725H21.5266H21.4807H21.4348H21.3889H21.343H21.2971H21.2512H21.2053H21.1594H21.1135H21.0676H21.0217H20.9758H20.9299H20.884H20.8381H20.7922H20.7463H20.7004H20.6545H20.6086H20.5627H20.5168H20.4709H20.425H20.3791H20.3332H20.2873H20.2414H20.1955H20.1496H20.1037H20.0578H20.0119H19.966H19.92H19.8741H19.8282H19.7823H19.7364H19.6905H19.6446H19.5987H19.5528H19.5069H19.461H19.4151H19.3692H19.3233H19.2774H19.2315H19.1856H19.1397H19.0938H19.0479H19.002H18.9561H18.9102H18.8643H18.8184H18.7725H18.7266H18.6807H18.6348H18.5889H18.543H18.4971H18.4512H18.4053H18.3594H18.3135H18.2676H18.2217H18.1758H18.1299H18.084H18.0381H17.9922H17.9463H17.9004H17.8545H17.8086H17.7627H17.7168H17.6709H17.625H17.5791H17.5332H17.4873H17.4414H17.3955H17.3496H17.3037H17.2578H17.2119H17.166H17.1201H17.0742H17.0283H16.9824H16.9365H16.8906H16.8447H16.7988H16.7529H16.707H16.661H16.6151H16.5692H16.5233H16.4774H16.4315H16.3856H16.3397H16.2938H16.2479H16.202H16.1561H16.1102H16.0643H16.0184H15.9725H15.9266H15.8807H15.8348H15.7889H15.743H15.6971H15.6512H15.6053H15.5594H15.5135H15.4676H15.4217H15.3758H15.3299H15.284H15.2381H15.1922H15.1463H15.1004H15.0545H15.0086H14.9627H14.9168H14.8709H14.825H14.7791H14.7332H14.6873H14.6414H14.5955H14.5496H14.5037H14.4578H14.4119H14.366H14.3201H14.2742H14.2283H14.1824H14.1365H14.0906H14.0447H13.9988H13.9529H13.907H13.8611H13.8152H13.7693H13.7234H13.6775H13.6316H13.5857H13.5398H13.4939H13.4479H13.402H13.3561H13.3102H13.2643H13.2184H13.1725H13.1266H13.0807H13.0348H12.9889H12.943H12.8971H12.8512H12.8053H12.7594H12.7135H12.6676H12.6217H12.5758H12.5299H12.484H12.4381H12.3922H12.3463H12.3004H12.2545H12.2086H12.1627H12.1168H12.0709H12.025H11.9791H11.9332H11.8873H11.8414H11.7955H11.7496H11.7037H11.6578H11.6119H11.566H11.5201H11.4742H11.4283H11.3824H11.3365H11.2906H11.2447H11.1988H11.1529H11.107H11.0611H11.0152H10.9693H10.9234H10.8775H10.8316H10.7857H10.7398H10.6939H10.648H10.6475H10.647H10.6466H10.6461H10.6457H10.6452H10.6448H10.6443H10.6438H10.6434H10.6429H10.6425H10.642H10.6416H10.6411H10.6406H10.6402H10.6397H10.6393H10.6388H10.6383H10.6379H10.6374H10.637H10.6365H10.6361H10.6356H10.6351H10.6347H10.6342H10.6338H10.6333H10.6329H10.6324H10.6319H10.6315H10.631H10.6306H10.6301H10.6296H10.6292H10.6287H10.6283H10.6278H10.6274H10.6269H10.6264H10.626H10.6255H10.6251H10.6246H10.6242H10.6237H10.6232H10.6228H10.6223H10.6219H10.6214H10.6209H10.6205H10.62H10.6196H10.6191H10.6187H10.6182H10.6177H10.6173H10.6168H10.6164H10.6159H10.6155H10.615H10.6145H10.6141H10.6136H10.6132H10.6127H10.6122H10.6118H10.6113H10.6109H10.6104H10.61H10.6095H10.609H10.6086H10.6081H10.6077H10.6072H10.6068H10.6063H10.6058H10.6054H10.6049H10.6045H10.604H10.6035H10.6031H10.6026H10.6022H10.6017H10.6013H10.6008H10.6003H10.5999H10.5994H10.599H10.5985H10.5981H10.5976H10.5971H10.5967H10.5962H10.5958H10.5953H10.5949H10.5944H10.5939H10.5935H10.593H10.5926H10.5921H10.5916H10.5912H10.5907H10.5903H10.5898H10.5894H10.5889H10.5884H10.588H10.5875H10.5871H10.5866H10.5862H10.5857H10.5852H10.5848H10.5843H10.5839H10.5834H10.5829H10.5825H10.582H10.5816H10.5811H10.5807H10.5802H10.5797H10.5793H10.5788H10.5784H10.5779H10.5775H10.577H10.5765H10.5761H10.5756H10.5752H10.5747H10.5742H10.5738H10.5733H10.5729H10.5724H10.572H10.5715H10.571H10.5706H10.5701H10.5697H10.5692H10.5688H10.5683H10.5678H10.5674H10.5669H10.5665H10.566H10.5655H10.5651H10.5646H10.5642H10.5637H10.5633H10.5628H10.5623H10.5619H10.5614H10.561H10.5605H10.5601H10.5596H10.5591H10.5587H10.5582H10.5578H10.5573H10.5568H10.5564H10.5559H10.5555H10.555H10.5546H10.5541H10.5536H10.5532H10.5527H10.5523H10.5518H10.5514H10.5509H10.5504H10.55H10.5495H10.5491H10.5486H10.5481H10.5477H10.5472H10.5468H10.5463H10.5459H10.5454H10.5449H10.5445H10.544H10.5436H10.5431H10.5427H10.5422H10.5417H10.5413H10.5408H10.5404H10.5399H10.5394H10.539H10.5385H10.5381H10.5376H10.5372H10.5367H10.5362H10.5358H10.5353H10.5349H10.5344H10.534H10.5335H10.533H10.5326H10.5321H10.5317H10.5312H10.5307H10.5303H10.5298H10.5294H10.5289H10.5285H10.528H10.5275H10.5271H10.5266H10.5262H10.5257H10.5253H10.5248H10.5243H10.5239H10.5234H10.523H10.5225H10.522H10.5216H10.5211H10.5207H10.5202H10.5198H10.5193H10.5188H10.5184H10.5179H10.5175H10.517H10.5166H10.5161H10.5156H10.5152H10.5147H10.5143H10.5138H10.5133H10.5129H10.5124H10.512H10.5115H10.5111H10.5106H10.5101H10.5097H10.5092H10.5088H10.5083H10.5079H10.5074H10.5069H10.5065H10.506H10.5056H10.5051H10.5046H10.5042H10.5037H10.5033H10.5028H10.5024H10.5019H10.5014H10.501H10.5005H10.5001H10.4996H10.4992H10.4987H10.4982H10.4978H10.4973H10.4969H10.4964H10.496H10.4955H10.495H10.4946H10.4941H10.4937H10.4932H10.4927H10.4923H10.4918H10.4914H10.4909H10.4905H10.49H10.4895H10.4891H10.4886H10.4882H10.4877H10.4873H10.4868H10.4863H10.4859H10.4854H10.485H10.4845H10.484H10.4836H10.4831H10.4827H10.4822H10.4818H10.4813H10.4808H10.4804H10.4799H10.4795H10.479H10.4786H10.4781H10.4776H10.4772H10.4767H10.4763H10.4758H10.4753H10.4749H10.4744H10.474H10.4735H10.4731H10.4726H10.4721H10.4717H10.4712H10.4708H10.4703H10.4699H10.4694H10.4689H10.4685H10.468H10.4676H10.4671H10.4666H10.4662H10.4657H10.4653H10.4648H10.4644H10.4639H10.4634H10.463H10.4625H10.4621H10.4616H10.4612H10.4607H10.4602H10.4598H10.4593H10.4589H10.4584H10.4579H10.4575H10.457H10.4566H10.4561H10.4557H10.4552H10.4547H10.4543H10.4538H10.4534H10.4529H10.4525H10.452H10.4515H10.4511H10.4506H10.4502H10.4497H10.4492H10.4488H10.4483H10.4479H10.4474H10.447H10.4465H10.446H10.4456H10.4451H10.4447H10.4442H10.4438H10.4433H10.4428H10.4424H10.4419H10.4415H10.441H10.4405H10.4401H10.4396H10.4392H10.4387H10.4383H10.4378H10.4373H10.4369H10.4364H10.436H10.4355H10.4351H10.4346H10.4341H10.4337H10.4332H10.4328H10.4323H10.4318H10.4314H10.4309H10.4305H10.43H10.4296H10.4291H10.4286H10.4282H10.4277H10.4273H10.4268H10.4264H10.4259H10.4254H10.425H10.4245H10.4241H10.4236H10.4231H10.4227H10.4222H10.4218H10.4213H10.4209H10.4204H10.4199H10.4195H10.419H10.4186H10.4181H10.4177H10.4172H10.4167H10.4163H10.4158H10.4154H10.4149H10.4146C9.83767 18.3066 9.38433 18.1601 9.07788 17.9141C8.77461 17.6706 8.60449 17.3217 8.60449 16.8788C8.60449 16.4356 8.7749 16.0816 9.07831 15.8359C9.3846 15.5878 9.83752 15.4414 10.4135 15.4414H10.4369H10.4602H10.4836H10.5069H10.5303H10.5536H10.577H10.6003H10.6237H10.647H10.6704H10.6937H10.7171H10.7405H10.7638H10.7872H10.8105H10.8339H10.8572H10.8806H10.9039H10.9273H10.9506H10.974H10.9973H11.0207H11.044H11.0674H11.0907H11.1141H11.1374H11.1608H11.1841H11.2075H11.2308H11.2542H11.2775H11.3009H11.3242H11.3476H11.3709H11.3943H11.4176H11.441H11.4643H11.4877H11.511H11.5344H11.5577H11.5811H11.6045H11.6278H11.6512H11.6745H11.6979H11.7212H11.7446H11.7679H11.7913H11.8146H11.838H11.8613H11.8847H11.908H11.9314H11.9547H11.9781H12.0014H12.0248H12.0481H12.0715H12.0948H12.1182H12.1415H12.1649H12.1882H12.2116H12.2349H12.2583H12.2816H12.305H12.3283H12.3517H12.375H12.3984H12.4217H12.4451H12.4685H12.4918H12.5152H12.5385H12.5619H12.5852H12.6086H12.6319H12.6553H12.6786H12.702H12.7253H12.7487H12.772H12.7954H12.8187H12.8421H12.8654H12.8888H12.9121H12.9355H12.9588H12.9822H13.0055H13.0289H13.0522H13.0756H13.0989H13.1223H13.1456H13.169H13.1923H13.2157H13.239H13.2624H13.2857H13.3091H13.3325H13.3558H13.3792H13.4025H13.4259H13.4492H13.4726H13.4959H13.5193H13.5426H13.566H13.5893H13.6127H13.636H13.6594H13.6827H13.7061H13.7294H13.7528H13.7761H13.7995H13.8228H13.8462H13.8695H13.8929H13.9162H13.9396H13.9629H13.9863H14.0096H14.033H14.0563H14.0797H14.103H14.1264H14.1497H14.1731H14.1965H14.2198H14.2432H14.2665H14.2899H14.3132H14.3366H14.3599H14.3833H14.4066H14.43H14.4533H14.4767H14.5H14.5234H14.5467H14.5701H14.5934H14.6168H14.6401H14.6635H14.6868H14.7102H14.7335H14.7569H14.7802H14.8036H14.8269H14.8503H14.8736H14.897H14.9203H14.9437H14.967H14.9904H15.0137H15.0371H15.0605H15.0838H15.1072H15.1305H15.1539H15.1772H15.2006H15.2239H15.2473H15.2706H15.294H15.3173H15.3407H15.364H15.3874H15.4107H15.4341H15.4574H15.4808H15.5041H15.5275H15.5508H15.5742H15.5975H15.6209H15.6442H15.6676H15.6909H15.7143H15.7376H15.761H15.7843H15.8077H15.831H15.8544H15.8777H15.9011H15.9245H15.9478H15.9712H15.9945H16.0179H16.0412H16.0646H16.0879H16.1113H16.1346H16.158H16.1813H16.2047H16.228H16.2514H16.2747H16.2981H16.3214H16.3448H16.3681H16.3915H16.4148H16.4382H16.4615H16.4849H16.5082H16.5316H16.5549H16.5783H16.6016H16.625H16.6483H16.6717H16.695H16.7184H16.7417H16.7651H16.7885H16.8118H16.8352H16.8585H16.8819H16.9052H16.9286H16.9519H16.9753H16.9986H17.022H17.0453H17.0687H17.092H17.1154H17.1387H17.1621H17.1854H17.2088H17.2321H17.2555H17.2788H17.3022H17.3255H17.3489H17.3722H17.3956H17.4189H17.4423H17.4656H17.489H17.5123H17.5357H17.559H17.5824H17.6057H17.6291H17.6525H17.6758H17.6992H17.7225H17.7459H17.7692H17.7926H17.8159H17.8393H17.8626H17.886H17.9093H17.9327H17.956H17.9794H18.0027H18.0261H18.0494H18.0728H18.0961H18.1195H18.1428H18.1662H18.1895H18.2129H18.2362H18.2596H18.2829H18.3063H18.3296H18.353H18.3763H18.3997H18.423H18.4464H18.4697H18.4931H18.5165H18.5398H18.5632H18.5865H18.6099H18.6332H18.6566H18.6799H18.7033H18.7266H18.75H18.7733H18.7967H18.82H18.8434H18.8667H18.8901H18.9134H18.9368H18.9601H18.9835H19.0068H19.0302H19.0535H19.0769H19.1002H19.1236H19.1469H19.1703H19.1936H19.217H19.2403H19.2637H19.287H19.3104H19.3337H19.3571H19.3805H19.4038H19.4272H19.4505H19.4739H19.4972H19.5206H19.5439H19.5673H19.5906H19.614H19.6373H19.6607H19.684H19.7074H19.7307H19.7541H19.7774H19.8008H19.8241H19.8475H19.8708H19.8942H19.9175H19.9409H19.9642H19.9876H20.0109H20.0343H20.0576H20.081H20.1043H20.1277H20.151H20.1744H20.1977H20.2211H20.2445H20.2678H20.2912H20.3145H20.3379H20.3612H20.3846H20.4079H20.4313H20.4546H20.478H20.5013H20.5247H20.548H20.5714H20.5947H20.6181H20.6414H20.6648H20.6881H20.7115H20.7348H20.7582H20.7815H20.8049H20.8282H20.8516H20.8749H20.8983H20.9216H20.945H20.9683H20.9917H21.015H21.0384H21.0617H21.0851H21.1084H21.1318H21.1552H21.1785H21.2019H21.2252H21.2486H21.2719H21.2953H21.3186H21.342H21.3653H21.3887H21.412H21.4354H21.4587H21.4821H21.5054H21.5288H21.5521H21.5755H21.5988H21.6222H21.6455H21.6689H21.6922H21.7156H21.7389H21.7623H21.7856H21.809H21.8323H21.8557H21.879H21.9024H21.9257H21.9491H21.9725H21.9958H22.0192H22.0425H22.0659H22.0892H22.1126H22.1359H22.1593H22.1826H22.206H22.2293H22.2527H22.276H22.2994H22.3227H22.3461H22.3694H22.3925H22.4157H22.4388H22.4619H22.485H22.5082H22.5313H22.5544H22.5775H22.6007H22.6238H22.6469H22.6701H22.6932H22.7163H22.7394H22.7626H22.7857H22.8088H22.832H22.8551H22.8782H22.9014H22.9245H22.9476H22.9708H22.9939H23.017H23.0402H23.0633H23.0864H23.1096H23.1327H23.1558H23.179H23.2021H23.2252H23.2484H23.2715H23.2947H23.3178H23.3409H23.3641H23.3872H23.4104H23.4335H23.4566H23.4798H23.5029H23.5261H23.5492H23.5724H23.5955H23.6186H23.6418H23.6649H23.6881H23.7112H23.7344H23.7575H23.7807H23.8038H23.827H23.8501H23.8732H23.8964H23.9195H23.9427H23.9658H23.989H24.0121H24.0353H24.0584H24.0816H24.1047H24.1279H24.151H24.1742H24.1973H24.2205H24.2437H24.2668H24.29H24.3131H24.3363H24.3594H24.3826H24.4057H24.4289H24.452H24.4752H24.4984H24.5215H24.5447H24.5678H24.591H24.6141H24.6373H24.6604H24.6836H24.7068H24.7299H24.7531H24.7762H24.7994H24.8226H24.8457H24.8689H24.892H24.9152H24.9384H24.9615H24.9847H25.0079H25.031H25.0542H25.0773H25.1005H25.1237H25.1468H25.17H25.1932H25.2163H25.2395H25.2626H25.2858H25.309H25.3321H25.3553H25.3785H25.4016H25.4248H25.448H25.4711H25.4943H25.5175H25.5406H25.5638H25.587H25.6101H25.6333H25.6565H25.6796H25.7028H25.726H25.7492H25.7723H25.7955H25.8187H25.8418H25.865H25.8882H25.9113H25.9345H25.9577H25.9809H26.004H26.0272H26.0504H26.0735H26.0967H26.1199H26.1431H26.1662H26.1894H26.2126H26.2357H26.2589H26.2821H26.3053H26.3284H26.3516H26.3748H26.398H26.4211H26.4443H26.4675H26.4907H26.5138H26.537H26.5602H26.5834H26.6065H26.6297H26.6529H26.6761H26.6992H26.7224H26.7456H26.7688H26.7919H26.8151H26.8383H26.8615H26.8846H26.9078H26.931H26.9542H26.9773H27.0005H27.0237H27.0469H27.07H27.0932H27.1164H27.1396H27.1628H27.1859H27.2091H27.2323H27.2555H27.2786H27.3018H27.325H27.3482H27.3714H27.3945H27.4177H27.4409H27.4641H27.4873H27.5104H27.5336H27.5568H27.58H27.6031H27.6263H27.6495H27.6727H27.6959H27.719H27.7422H27.7654H27.7886H27.8118H27.8349H27.8581H27.8813H27.9045H27.9277H27.9508H27.974H27.9972H28.0204H28.0436H28.0667H28.0899H28.1131H28.1363H28.1595H28.1826H28.2058H28.229H28.2522H28.2753H28.2985H28.3217H28.3449H28.3681H28.3912H28.4144H28.4376H28.4608H28.484H28.5071H28.5303H28.5535H28.5767H28.5999H28.623H28.6462H28.6694H28.6926H28.7158H28.7389H28.7621H28.7853H28.8085H28.8317H28.8548H28.878H28.9012H28.9244H28.9476H28.9707H28.9939H29.0171H29.0403H29.0634H29.0866H29.1098H29.133H29.1562H29.1793H29.2025H29.2257H29.2489H29.2721H29.2952H29.3184H29.3416H29.3648H29.3879H29.4111H29.4343H29.4575H29.4806H29.5038H29.527H29.5502H29.5734H29.5965H29.6197H29.6429H29.6661H29.6892H29.7124H29.7356H29.7588H29.7819H29.8051H29.8283H29.8515H29.8747H29.8978H29.921H29.9442H29.9674H29.9905H30.0137H30.0369H30.0601H30.0832H30.1064H30.1296H30.1528H30.1759H30.1991H30.2223H30.2454H30.2686H30.2918H30.315H30.3381H30.3613H30.3845H30.4077H30.4308H30.454H30.4772H30.5003H30.5235H30.5467H30.5699H30.593H30.6162H30.6394H30.6625H30.6857H30.7089H30.7321H30.7552H30.7784H30.8016H30.8247H30.8479H30.8711H30.8942H30.9174H30.9406H30.9637H30.9869H31.0101H31.0332H31.0564H31.0796H31.1027H31.1259H31.1491H31.1722H31.1954H31.2186H31.2417H31.2649H31.2881H31.3112H31.3344H31.3576H31.3807H31.4039H31.4271H31.4502H31.4734H31.4966H31.5197H31.5429H31.566H31.5892H31.6124H31.6355H31.6587H31.6818H31.705H31.7282H31.7513H31.7745H31.7977H31.8208H31.844H31.8671H31.8903H31.9134H31.9366H31.9598H31.9829H32.0061H32.0292H32.0524H32.0755H32.0987H32.1219H32.145H32.1682H32.1913H32.2145H32.2376H32.2608H32.2839H32.3071H32.3303H32.3534H32.3766H32.3997H32.4229H32.446H32.4692H32.4923H32.5155H32.5386H32.5618H32.5849H32.6081H32.6312H32.6544H32.6775H32.7007H32.7238H32.747H32.7701H32.7933H32.8164H32.8395H32.8627H32.8858H32.909H32.9321H32.9553H32.9784H33.0016H33.0247H33.0478H33.071H33.0941H33.1173H33.1404H33.1636H33.1867H33.2098H33.233H33.2561H33.2793H33.3024H33.3255H33.3487H33.3718H33.3949H33.4181H33.4412H33.4644H33.4875H33.5106H33.5338H33.5569H33.58H33.6032H33.6263H33.6494H33.6726H33.6957H33.7188H33.742H33.7651H33.7882H33.8114H33.8345H33.8576H33.8807H33.9039H33.927H33.9501H33.9733H33.9964H34.0195H34.0426H34.0658H34.0889H34.112H34.1351H34.1583H34.1814H34.2045H34.2276C34.5778 15.4414 34.95 15.4614 35.2605 15.571Z" fill="#B5121B" stroke="white" stroke-width="0.25"/>
<path d="M10.2579 25.1907V25.1907H10.2571C9.62662 25.1907 9.13363 24.9365 8.85513 24.5667C8.57803 24.1988 8.50408 23.7054 8.73016 23.199C8.89399 22.8352 9.12647 22.6186 9.40583 22.49C9.68961 22.3594 10.03 22.3159 10.4134 22.3159H10.4343H10.4553H10.4762H10.4972H10.5181H10.5391H10.56H10.581H10.6019H10.6228H10.6438H10.6647H10.6857H10.7066H10.7275H10.7485H10.7694H10.7904H10.8113H10.8322H10.8532H10.8741H10.8951H10.916H10.9369H10.9579H10.9788H10.9997H11.0207H11.0416H11.0626H11.0835H11.1044H11.1254H11.1463H11.1672H11.1882H11.2091H11.23H11.2509H11.2719H11.2928H11.3137H11.3347H11.3556H11.3765H11.3975H11.4184H11.4393H11.4602H11.4812H11.5021H11.523H11.5439H11.5649H11.5858H11.6067H11.6276H11.6486H11.6695H11.6904H11.7113H11.7323H11.7532H11.7741H11.795H11.816H11.8369H11.8578H11.8787H11.8996H11.9206H11.9415H11.9624H11.9833H12.0042H12.0252H12.0461H12.067H12.0879H12.1088H12.1297H12.1507H12.1716H12.1925H12.2134H12.2343H12.2552H12.2761H12.2971H12.318H12.3389H12.3598H12.3807H12.4016H12.4225H12.4435H12.4644H12.4853H12.5062H12.5271H12.548H12.5689H12.5898H12.6107H12.6317H12.6526H12.6735H12.6944H12.7153H12.7362H12.7571H12.778H12.7989H12.8198H12.8407H12.8617H12.8826H12.9035H12.9244H12.9453H12.9662H12.9871H13.008H13.0289H13.0498H13.0707H13.0916H13.1125H13.1334H13.1543H13.1752H13.1961H13.217H13.2379H13.2588H13.2797H13.3007H13.3216H13.3425H13.3634H13.3843H13.4052H13.4261H13.447H13.4679H13.4888H13.5097H13.5306H13.5515H13.5724H13.5933H13.6142H13.6351H13.656H13.6769H13.6978H13.7187H13.7396H13.7605H13.7814H13.8023H13.8232H13.8441H13.8649H13.8858H13.9067H13.9276H13.9485H13.9694H13.9903H14.0112H14.0321H14.053H14.0739H14.0948H14.1157H14.1366H14.1575H14.1784H14.1993H14.2202H14.2411H14.262H14.2829H14.3038H14.3247H14.3456H14.3664H14.3873H14.4082H14.4291H14.45H14.4709H14.4918H14.5127H14.5336H14.5545H14.5754H14.5963H14.6172H14.6381H14.659H14.6798H14.7007H14.7216H14.7425H14.7634H14.7843H14.8052H14.8261H14.847H14.8679H14.8888H14.9097H14.9306H14.9514H14.9723H14.9932H15.0141H15.035H15.0559H15.0768H15.0977H15.1186H15.1395H15.1604H15.1813H15.2021H15.223H15.2439H15.2648H15.2857H15.3066H15.3275H15.3484H15.3693H15.3902H15.411H15.4319H15.4528H15.4737H15.4946H15.5155H15.5364H15.5573H15.5782H15.5991H15.62H15.6408H15.6617H15.6826H15.7035H15.7244H15.7453H15.7662H15.7871H15.808H15.8289H15.8497H15.8706H15.8915H15.9124H15.9333H15.9542H15.9751H15.996H16.0169H16.0378H16.0587H16.0795H16.1004H16.1213H16.1422H16.1631H16.184H16.2049H16.2258H16.2467H16.2676H16.2884H16.3093H16.3302H16.3511H16.372H16.3929H16.4138H16.4347H16.4556H16.4765H16.4974H16.5182H16.5391H16.56H16.5809H16.6018H16.6227H16.6436H16.6645H16.6854H16.7063H16.7272H16.7481H16.769H16.7898H16.8107H16.8316H16.8525H16.8734H16.8943H16.9152H16.9361H16.957H16.9779H16.9988H17.0197H17.0406H17.0615H17.0823H17.1032H17.1241H17.145H17.1659H17.1868H17.2077H17.2286H17.2495H17.2704H17.2913H17.3122H17.3331H17.354H17.3749H17.3958H17.4167H17.4376H17.4585H17.4794H17.5002H17.5211H17.542H17.5629H17.5838H17.6047H17.6256H17.6465H17.6674H17.6883H17.7092H17.7301H17.751H17.7719H17.7928H17.8137H17.8346H17.8555H17.8764H17.8973H17.9182H17.9391H17.96H17.9809H18.0018H18.0227H18.0436H18.0645H18.0854H18.1063H18.1272H18.1481H18.169H18.1899H18.2108H18.2317H18.2526H18.2735H18.2944H18.3153H18.3362H18.3571H18.378H18.3989H18.4198H18.4408H18.4617H18.4826H18.5035H18.5244H18.5453H18.5662H18.5871H18.608H18.6289H18.6498H18.6707H18.6916H18.7125H18.7334H18.7543H18.7753H18.7962H18.8171H18.838H18.8589H18.8798H18.9007H18.9216H18.9425H18.9634H18.9844H19.0053H19.0262H19.0471H19.068H19.0889H19.1098H19.1307H19.1517H19.1726H19.1935H19.2144H19.2353H19.2562H19.2771H19.2981H19.319H19.3399H19.3608H19.3817H19.4026H19.4235H19.4445H19.4654H19.4863H19.5072H19.5281H19.5491H19.57H19.5909H19.6118H19.6327H19.6537H19.6746H19.6955H19.7164H19.7373H19.7583H19.7792H19.8001H19.821H19.842H19.8629H19.8838H19.9047H19.9256H19.9466H19.9675H19.9884H20.0094H20.0303H20.0512H20.0721H20.0931H20.114H20.1349H20.1558H20.1768H20.1977H20.2186H20.2396H20.2605H20.2814H20.3024H20.3233H20.3442H20.3652H20.3861H20.407H20.4279H20.4489H20.4698H20.4908H20.5117H20.5326H20.5536H20.5745H20.5954H20.6164H20.6373H20.6582H20.6792H20.7001H20.7211H20.742H20.7629H20.7839H20.8048H20.8258H20.8467H20.8676H20.8886H20.9095H20.9305H20.9514H20.9724H20.9933H21.0143H21.0352H21.0561H21.0771H21.098H21.119H21.1313H21.1437H21.1561H21.1684H21.1808H21.1932H21.2055H21.2179H21.2302H21.2426H21.255H21.2673H21.2797H21.2921H21.3044H21.3168H21.3291H21.3415H21.3539H21.3662H21.3786H21.391H21.4033H21.4157H21.428H21.4404H21.4528H21.4651H21.4775H21.4899H21.5022H21.5146H21.5269H21.5393H21.5517H21.564H21.5764H21.5888H21.6011H21.6135H21.6258H21.6382H21.6506H21.6629H21.6753H21.6877H21.7H21.7124H21.7247H21.7371H21.7495H21.7618H21.7742H21.7866H21.7989H21.8113H21.8236H21.836H21.8484H21.8607H21.8731H21.8855H21.8978H21.9102H21.9225H21.9349H21.9473H21.9596H21.972H21.9844H21.9967H22.0091H22.0214H22.0338H22.0462H22.0585H22.0709H22.0833H22.0956H22.108H22.1203H22.1327H22.1451H22.1574H22.1698H22.1822H22.1945H22.2069H22.2192H22.2316H22.244H22.2563H22.2687H22.2811H22.2934H22.3058H22.3181H22.3305H22.3429H22.3552H22.3676H22.38H22.3923H22.4047H22.417H22.4294H22.4418H22.4541H22.4665H22.4789H22.4912H22.5036H22.5159H22.5283H22.5407H22.553H22.5654H22.5778H22.5901H22.6025H22.6148H22.6272H22.6396H22.6519H22.6643H22.6767H22.689H22.7014H22.7137H22.7261H22.7385H22.7508H22.7632H22.7756H22.7879H22.8003H22.8126H22.825H22.8374H22.8497H22.8621H22.8745H22.8868H22.8992H22.9115H22.9239H22.9363H22.9486H22.961H22.9734H22.9857H22.9981H23.0104H23.0228H23.0352H23.0475H23.0599H23.0723H23.0846H23.097H23.1093H23.1217H23.1341H23.1464H23.1588H23.1712H23.1835H23.1959H23.2082H23.2206H23.233H23.2453H23.2577H23.2701H23.2824H23.2948H23.3071H23.3195H23.3319H23.3442H23.3566H23.369H23.3813H23.3937H23.406H23.4184H23.4308H23.4431H23.4555H23.4679H23.4802H23.4926H23.5049H23.5173H23.5297H23.542H23.5544H23.5668H23.5791H23.5915H23.6038H23.6162H23.6286H23.6409H23.6533H23.6657H23.678H23.6904H23.7027H23.7151H23.7275H23.7398H23.7522H23.7646H23.7769H23.7893H23.8016H23.814H23.8264H23.8387H23.8511H23.8635H23.8758H23.8882H23.9005H23.9129H23.9253H23.9376H23.95H23.9624H23.9747H23.9871H23.9994H24.0118H24.0242H24.0365H24.0489H24.0613H24.0736H24.086H24.0983H24.1107H24.1231H24.1354H24.1478H24.1602H24.1725H24.1849H24.1972H24.2096H24.222H24.2343H24.2467H24.2591H24.2714H24.2838H24.2961H24.3085H24.3209H24.3332H24.3456H24.358H24.3703H24.3827H24.395H24.4074H24.4198H24.4321H24.4445H24.4569H24.4692H24.4816H24.4939H24.5063H24.5187H24.531H24.5434H24.5558H24.5681H24.5805H24.5928H24.6052H24.6176H24.6299H24.6423H24.6547H24.667H24.6794H24.6917H24.7041H24.7165H24.7288H24.7412H24.7536H24.7659H24.7783H24.7906H24.803H24.8154H24.8277H24.8401H24.8525H24.8648H24.8772H24.8895H24.9019H24.9143H24.9266H24.939H24.9514H24.9637H24.9761H24.9884H25.0008H25.0132H25.0255H25.0379H25.0503H25.0626H25.075H25.0873H25.0997H25.1121H25.1244H25.1368H25.1492H25.1615H25.1739H25.1862H25.1986H25.211H25.2233H25.2357H25.2481H25.2604H25.2728H25.2851H25.2975H25.3099H25.3222H25.3346H25.347H25.3593H25.3717H25.384H25.3964H25.4088H25.4211H25.4335H25.4459H25.4582H25.4706H25.4829H25.4953H25.5077H25.52H25.5324H25.5448H25.5571H25.5695H25.5818H25.5942H25.6066H25.6189H25.6313H25.6437H25.656H25.6684H25.6807H25.6931H25.7055H25.7178H25.7302H25.7425H25.7549H25.7673H25.7796H25.792H25.8044H25.8167H25.8291H25.8414H25.8538H25.8662H25.8785H25.8909H25.9033H25.9156H25.928H25.9403H25.9527H25.9651H25.9774H25.9898H26.0022H26.0145H26.0269H26.0392H26.0516H26.064H26.0763H26.0887H26.1011H26.1134H26.1258H26.1381H26.1505H26.1629H26.1752H26.1876H26.2H26.2123H26.2247H26.237H26.2494H26.2618H26.2741H26.2865H26.2989H26.3112H26.3236H26.3359H26.3483H26.3607H26.373H26.3854H26.3978H26.4101H26.4225H26.4348H26.4472H26.4596H26.4719H26.4843H26.4967H26.509H26.5214H26.5337H26.5461H26.5585H26.5708H26.5832H26.5956H26.6079H26.6203H26.6326H26.645H26.6574H26.6697H26.6821H26.6945H26.7068H26.7192H26.7315H26.7439H26.7563H26.7686H26.781H26.7934H26.8057H26.8181H26.8304H26.8428H26.8552H26.8675H26.8799H26.8923H26.9046H26.917H26.9293H26.9417H26.9541H26.9664H26.9788H26.9912H27.0035H27.0159H27.0282H27.0406H27.053H27.0653H27.0777H27.0901H27.1024H27.1148H27.1271H27.1395H27.1519H27.1642H27.1766H27.189H27.2013H27.2137H27.226H27.2384H27.2508H27.2631H27.2755H27.2879H27.3002H27.3126H27.3249H27.3373H27.3497H27.362H27.3744H27.3868H27.3991H27.4115H27.4238H27.4362H27.4486C27.7974 22.3159 28.1084 22.3726 28.3687 22.505C28.6267 22.6361 28.8418 22.8451 28.9964 23.1628C29.4395 24.103 28.7568 25.1529 27.5834 25.1712L27.5822 25.1712C26.412 25.2005 25.2424 25.1968 24.0707 25.1932C23.6796 25.1919 23.2884 25.1907 22.8967 25.1907H22.889H22.8812H22.8734H22.8656H22.8578H22.85H22.8423H22.8345H22.8267H22.8189H22.8111H22.8034H22.7956H22.7878H22.78H22.7723H22.7645H22.7567H22.7489H22.7412H22.7334H22.7256H22.7178H22.7101H22.7023H22.6945H22.6867H22.679H22.6712H22.6634H22.6556H22.6479H22.6401H22.6323H22.6246H22.6168H22.609H22.6013H22.5935H22.5857H22.578H22.5702H22.5624H22.5547H22.5469H22.5391H22.5314H22.5236H22.5158H22.5081H22.5003H22.4925H22.4848H22.477H22.4693H22.4615H22.4537H22.446H22.4382H22.4305H22.4227H22.4149H22.4072H22.3994H22.3917H22.3839H22.3761H22.3684H22.3606H22.3529H22.3451H22.3374H22.3296H22.3218H22.3141H22.3063H22.2986H22.2908H22.2831H22.2753H22.2676H22.2598H22.2521H22.2443H22.2366H22.2288H22.2211H22.2133H22.2055H22.1978H22.19H22.1823H22.1745H22.1668H22.159H22.1513H22.1436H22.1358H22.1281H22.1203H22.1126H22.1048H22.0971H22.0893H22.0816H22.0738H22.0661H22.0583H22.0506H22.0428H22.0351H22.0274H22.0196H22.0119H22.0041H21.9964H21.9886H21.9809H21.9731H21.9654H21.9577H21.9499H21.9422H21.9344H21.9267H21.919H21.9112H21.9035H21.8957H21.888H21.8802H21.8725H21.8648H21.857H21.8493H21.8415H21.8338H21.8261H21.8183H21.8106H21.8029H21.7951H21.7874H21.7796H21.7719H21.7642H21.7564H21.7487H21.741H21.7332H21.7255H21.7177H21.71H21.7023H21.6945H21.6868H21.6791H21.6713H21.6636H21.6559H21.6481H21.6404H21.6327H21.6249H21.6172H21.6095H21.6017H21.594H21.5863H21.5785H21.5708H21.5631H21.5553H21.5476H21.5399H21.5321H21.5244H21.5167H21.5089H21.5012H21.4935H21.4857H21.478H21.4703H21.4625H21.4548H21.4471H21.4394H21.4316H21.4239H21.4162H21.4084H21.4007H21.393H21.3852H21.3775H21.3698H21.3621H21.3543H21.3466H21.3389H21.3311H21.3234H21.3157H21.308H21.3002H21.2925H21.2848H21.277H21.2693H21.2616H21.2539H21.2461H21.2384H21.2307H21.2229H21.2152H21.2075H21.1998H21.192H21.1843H21.1766H21.1688H21.1611H21.1534H21.1457H21.1379H21.1302H21.1225H21.1148H21.107H21.0993H21.0916H21.0838H21.0761H21.0684H21.0607H21.0529H21.0452H21.0375H21.0298H21.022H21.0143H21.0066H20.9989H20.9911H20.9834H20.9757H20.9679H20.9602H20.9525H20.9448H20.937H20.9293H20.9216H20.9139H20.9061H20.8984H20.8907H20.883H20.8752H20.8675H20.8598H20.852H20.8443H20.8366H20.8289H20.8211H20.8134H20.8057H20.798H20.7902H20.7825H20.7748H20.7671H20.7593H20.7516H20.7439H20.7361H20.7284H20.7207H20.713H20.7052H20.6975H20.6898H20.6821H20.6743H20.6666H20.6589H20.6511H20.6434H20.6357H20.628H20.6202H20.6125H20.6048H20.5971H20.5893H20.5816H20.5739H20.5661H20.5584H20.5507H20.543H20.5352H20.5275H20.5198H20.512H20.5043H20.4966H20.4889H20.4811H20.4734H20.4657H20.4579H20.4502H20.4425H20.4347H20.427H20.4193H20.4116H20.4038H20.3961H20.3884H20.3806H20.3729H20.3652H20.3574H20.3497H20.342H20.3342H20.3265H20.3188H20.3111H20.3033H20.2956H20.2879H20.2801H20.2724H20.2647H20.2569H20.2492H20.2415H20.2337H20.226H20.2183H20.2105H20.2028H20.1951H20.1873H20.1796H20.1719H20.1641H20.1564H20.1486H20.1409H20.1332H20.1254H20.1177H20.11H20.1022H20.0945H20.0868H20.079H20.0713H20.0636H20.0558H20.0481H20.0403H20.0326H20.0249H20.0171H20.0094H20.0016H19.9939H19.9862H19.9784H19.9707H19.963H19.9552H19.9475H19.9397H19.932H19.9243H19.9165H19.9088H19.901H19.8933H19.8855H19.8778H19.8701H19.8623H19.8546H19.8468H19.8391H19.8313H19.8236H19.8159H19.8081H19.8004H19.7926H19.7849H19.7771H19.7694H19.7616H19.7539H19.7461H19.7384H19.7307H19.7229H19.7152H19.7074H19.6997H19.6919H19.6842H19.6764H19.6687H19.6609H19.6532H19.6454H19.6377H19.6299H19.6222H19.6144H19.6067H19.5989H19.5912H19.5834H19.5757H19.5679H19.5602H19.5524H19.5446H19.5369H19.5291H19.5214H19.5136H19.5059H19.4981H19.4904H19.4826H19.4748H19.4671H19.4593H19.4516H19.4438H19.4361H19.4283H19.4205H19.4128H19.405H19.3973H19.3895H19.3817H19.374H19.3662H19.3585H19.3507H19.3429H19.3352H19.3274H19.3196H19.3119H19.3041H19.2964H19.2886H19.2808H19.2731H19.2653H19.2575H19.2498H19.242H19.2342H19.2265H19.2187H19.2109H19.2031H19.1954H19.1876H19.1798H19.1721H19.1643H19.1565H19.1488H19.141H19.1332H19.1254H19.1177H19.1099H19.1021H19.0943H19.0866H19.0788H19.071H19.0632H19.0555H19.0477H19.0399H19.0321H19.0244H19.0166H19.0088H19.001H18.9932H18.9855H18.9777H18.9699H18.9621H18.9543H18.9465H18.9388H18.931C17.9666 25.1907 17.0025 25.1929 16.0386 25.1951C14.1115 25.1994 12.1849 25.2037 10.2579 25.1907Z" fill="#B5121B" stroke="white" stroke-width="0.25"/>
<path d="M64.3402 45.2921L64.3404 45.2922L62.3281 62.9122C62.3281 62.912 62.3281 62.9119 62.3281 62.9117C62.3477 60.2552 62.3477 57.6184 62.3477 55.0016C62.3477 54.0895 62.3455 53.1778 62.3433 52.2662C62.339 50.444 62.3346 48.6224 62.3477 46.8003C62.3571 46.1691 62.6117 45.6811 62.9787 45.4076C63.3437 45.1355 63.8326 45.0656 64.3402 45.2921Z" fill="#B5121B" stroke="white" stroke-width="0.25"/>
<path d="M71.4557 63.4468L71.4557 63.4475C71.3824 64.308 70.7666 64.8742 70.0203 64.8565C69.2703 64.8386 68.6719 64.2697 68.5986 63.4084L68.5986 63.4084L68.5982 63.4052C68.5895 63.3261 68.5892 63.2403 68.5916 63.1489C68.5924 63.1197 68.5935 63.0893 68.5946 63.0584C68.5968 62.9963 68.599 62.9322 68.599 62.8722V62.8415V62.8109V62.7802V62.7495V62.7189V62.6882V62.6575V62.6269V62.5962V62.5655V62.5349V62.5042V62.4735V62.4428V62.4122V62.3815V62.3508V62.3202V62.2895V62.2588V62.2282V62.1975V62.1668V62.1362V62.1055V62.0748V62.0442V62.0135V61.9828V61.9522V61.9215V61.8908V61.8601V61.8295V61.7988V61.7681V61.7375V61.7068V61.6761V61.6455V61.6148V61.5841V61.5535V61.5228V61.4921V61.4615V61.4308V61.4001V61.3695V61.3388V61.3081V61.2775V61.2468V61.2161V61.1854V61.1548V61.1241V61.0934V61.0628V61.0321V61.0014V60.9708V60.9401V60.9094V60.8788V60.8481V60.8174V60.7868V60.7561V60.7254V60.6948V60.6641V60.6334V60.6027V60.5721V60.5414V60.5107V60.4801V60.4494V60.4187V60.3881V60.3574V60.3267V60.2961V60.2654V60.2347V60.2041V60.1734V60.1427V60.1121V60.0814V60.0507V60.0201V59.9894V59.9587V59.928V59.8974V59.8667V59.836V59.8054V59.7747V59.744V59.7134V59.6827V59.652V59.6214V59.5907V59.56V59.5294V59.4987V59.468V59.4374V59.4067V59.376V59.3454V59.3147V59.284V59.2533V59.2227V59.192V59.1613V59.1307V59.1V59.0693V59.0387V59.008V58.9773V58.9467V58.916V58.8853V58.8547V58.824V58.7933V58.7627V58.732V58.7013V58.6706V58.64V58.6093V58.5786V58.548V58.5173V58.4866V58.456V58.4253V58.3946V58.364V58.3333V58.3026V58.272V58.2413V58.2106V58.18V58.1493V58.1186V58.0879V58.0573V58.0266V57.9959V57.9653V57.9346V57.9039V57.8733V57.8426V57.8119V57.7813V57.7506V57.7199V57.6893V57.6586V57.6279V57.5973V57.5666V57.5359V57.5053V57.4746V57.4439V57.4132V57.3826V57.3519V57.3212V57.2906V57.2599V57.2292V57.1986V57.1679V57.1372V57.1066V57.0759V57.0452V57.0146V56.9839V56.9532V56.9226V56.8919V56.8612V56.8305V56.7999V56.7692V56.7385V56.7079V56.6772V56.6465V56.6159V56.5852V56.5545V56.5239V56.4932V56.4625V56.4319V56.4012V56.3705V56.3399V56.3092V56.2785V56.2479V56.2172V56.1865V56.1558V56.1252V56.0945V56.0638V56.0332V56.0025V55.9718V55.9412V55.9105V55.8798V55.8492V55.8185V55.7878V55.7572V55.7265V55.6958V55.6652V55.6345V55.6038V55.5731V55.5425V55.5118V55.4811V55.4505V55.4198V55.3891V55.3585V55.3278V55.2971V55.2665V55.2358V55.2051V55.1745V55.1438V55.1131V55.0825V55.0518V55.0211V54.9905V54.9598V54.9291V54.8984V54.8678V54.8371V54.8064V54.7758V54.7451V54.7144V54.6838V54.6531V54.6224V54.5918V54.5611V54.5304V54.4998V54.4691V54.4384V54.4078V54.3771V54.3464V54.3157V54.2851V54.2544V54.2237V54.1931V54.1624V54.1317V54.1011V54.0704V54.0397V54.0091V53.9784V53.9477V53.9171V53.8864V53.8557V53.8251V53.7944V53.7637V53.7331V53.7024V53.6717V53.641V53.6104V53.5797V53.549V53.5184V53.4877V53.457V53.4264V53.3957V53.365V53.3344V53.3037V53.273V53.2424V53.2117V53.181V53.1504V53.1197V53.089V53.0583V53.0277V52.997V52.9663V52.9357V52.905V52.8743V52.8437V52.813V52.7823V52.7517V52.721V52.6903V52.6597V52.629V52.5983V52.5677V52.537V52.5063V52.4757V52.445V52.4143V52.3836V52.353V52.3223V52.2916V52.261V52.2303V52.1996V52.169V52.1383V52.1076V52.077V52.0463V52.0156V51.985V51.9543V51.9236V51.893V51.8623V51.8316V51.8009V51.7703V51.7396V51.7089V51.6783V51.6476V51.6169V51.5863V51.5556V51.5249V51.4943V51.4636V51.4329V51.4023V51.3716V51.3409V51.3103V51.2796V51.2489V51.2183V51.1876V51.1569V51.1262V51.0956V51.0649V51.0342V51.0036V50.9729V50.9422V50.9116V50.8809V50.8502V50.8196V50.7889V50.7582V50.7276V50.6969V50.6662V50.6356V50.6049V50.5742V50.5435V50.5129V50.4822V50.4515V50.4209V50.3902V50.3595V50.3289V50.2982V50.2675V50.2369V50.2062V50.1755V50.1449V50.1142V50.0835V50.0529V50.0222V49.9915V49.9609V49.9302V49.8995V49.8688V49.8382V49.8075V49.7768V49.7462V49.7155V49.6848V49.6542V49.6235V49.5928V49.5622V49.5315V49.5008V49.4702V49.4395V49.4088V49.3782V49.3475V49.3168V49.2861V49.2555V49.2248V49.1941V49.1635V49.1328V49.1021V49.0715V49.0408V49.0101V48.9795V48.9488V48.9181V48.8875V48.8568V48.8261V48.7955V48.7648V48.7341V48.7034V48.6728V48.6421V48.6114V48.5808V48.5501V48.5194V48.4888V48.4581V48.4274V48.3968V48.3661V48.3354V48.3048V48.2741V48.2434V48.2128V48.1821V48.1514V48.1208V48.0901V48.0594V48.0287V47.9981V47.9674V47.9367V47.9061V47.8754V47.8447V47.8141V47.7834V47.7527V47.7221V47.6914V47.6607V47.6301V47.5994V47.5687V47.5381V47.5074V47.4767V47.446V47.4154V47.3847V47.354V47.3234V47.2927V47.262V47.2314V47.2007V47.17V47.1695V47.1689V47.1683V47.1677V47.1672V47.1666V47.166V47.1654V47.1649V47.1643V47.1637V47.1631V47.1626V47.162V47.1614V47.1608V47.1602V47.1597V47.1591V47.1585V47.1579V47.1573V47.1568V47.1562V47.1556V47.155V47.1544V47.1538V47.1533V47.1527V47.1521V47.1515V47.1509V47.1503V47.1497V47.1492V47.1486V47.148V47.1474V47.1468V47.1462V47.1456V47.145V47.1445V47.1439V47.1433V47.1427V47.1421V47.1415V47.1409V47.1403V47.1397V47.1391V47.1385V47.1379V47.1373V47.1367V47.1362V47.1356V47.135V47.1344V47.1338V47.1332V47.1326V47.132V47.1314V47.1308V47.1302V47.1296V47.129V47.1284V47.1278V47.1272V47.1266V47.126V47.1254V47.1248V47.1242V47.1236V47.123V47.1224V47.1218V47.1212V47.1206V47.12V47.1194V47.1188V47.1182V47.1175V47.1169V47.1163V47.1157V47.1151V47.1145V47.1139V47.1133V47.1127V47.1121V47.1115V47.1109V47.1103V47.1097V47.109V47.1084V47.1078V47.1072V47.1066V47.106V47.1054V47.1048V47.1042V47.1036V47.1029V47.1023V47.1017V47.1011V47.1005V47.0999V47.0993V47.0987V47.098V47.0974V47.0968V47.0962V47.0956V47.095V47.0944V47.0937V47.0931V47.0925V47.0919V47.0913V47.0907V47.0901V47.0894V47.0888V47.0882V47.0876V47.087V47.0863V47.0857V47.0851V47.0845V47.0839V47.0833V47.0826V47.082V47.0814V47.0808V47.0802V47.0795V47.0789V47.0783V47.0777V47.0771V47.0764V47.0758V47.0752V47.0746V47.074V47.0733V47.0727V47.0721V47.0715V47.0708V47.0702V47.0696V47.069V47.0684V47.0677V47.0671V47.0665V47.0659V47.0652V47.0646V47.064V47.0634V47.0627V47.0621V47.0615V47.0609V47.0603V47.0596V47.059V47.0584V47.0578V47.0571V47.0565V47.0559V47.0553V47.0546V47.054V47.0534V47.0527V47.0521V47.0515V47.0509V47.0502V47.0496V47.049V47.0484V47.0477V47.0471V47.0465V47.0459V47.0452V47.0446V47.044V47.0433V47.0427V47.0421V47.0415V47.0408V47.0402V47.0396V47.039V47.0383V47.0377V47.0371V47.0364V47.0358V47.0352V47.0346V47.0339V47.0333V47.0327V47.032V47.0314V47.0308V47.0302V47.0295V47.0289V47.0283V47.0276V47.027V47.0264V47.0258V47.0251V47.0245V47.0239V47.0232V47.0226V47.022V47.0213V47.0207V47.0201V47.0195V47.0188V47.0182V47.0176V47.0169V47.0163V47.0157V47.0151V47.0144V47.0138V47.0132V47.0125V47.0119V47.0113V47.0106V47.01V47.0094V47.0088V47.0081V47.0075V47.0069V47.0062V47.0056V47.005V47.0044V47.0037V47.0031V47.0025V47.0018V47.0012V47.0006V47V46.9993V46.9987V46.9981V46.9974V46.9968V46.9962V46.9955V46.9949V46.9943V46.9937V46.993V46.9924V46.9918V46.9911V46.9905V46.9899V46.9893V46.9886V46.988V46.9874V46.9868V46.9861V46.9855V46.9849V46.9842V46.9836V46.983V46.9824V46.9817V46.9811V46.9805V46.9799V46.9792V46.9786V46.978V46.9773V46.9767V46.9761V46.9755V46.9748V46.9742V46.9736V46.973V46.9723V46.9717V46.9711V46.9705V46.9698V46.9692V46.9686V46.968V46.9673V46.9667V46.9661V46.9655V46.9648V46.9642V46.9636V46.963V46.9623V46.9617V46.9611V46.9605V46.9599V46.9592V46.9586V46.958V46.9574V46.9567V46.9561V46.9555V46.9549V46.9543V46.9536V46.953V46.9524V46.9518V46.9511V46.9505V46.9499V46.9493V46.9487V46.948V46.9474V46.9468V46.9462V46.9456V46.9449V46.9443V46.9437V46.9431V46.9425V46.9419V46.9412V46.9406V46.94V46.9394V46.9388V46.9382V46.9375V46.9369V46.9363V46.9357V46.9351V46.9345V46.9338V46.9332V46.9326V46.932V46.9314V46.9308V46.9302V46.9295V46.9289V46.9283V46.9277V46.9271V46.9265V46.9259V46.9253V46.9246V46.924V46.9234V46.9228V46.9222V46.9216V46.921V46.9204V46.9198V46.9191V46.9185V46.9179V46.9173V46.9167V46.9161V46.9155V46.9149V46.9143V46.9137V46.9131V46.9125V46.9119V46.9113V46.9106V46.91V46.9094V46.9088V46.9082V46.9076V46.907V46.9064V46.9058V46.9052V46.9046V46.904V46.9034V46.9028V46.9022V46.9016V46.901V46.9004V46.8998V46.8992V46.8986V46.898V46.8974V46.8968V46.8962V46.8956V46.895V46.8944V46.8938V46.8932V46.8926V46.892V46.8914V46.8908V46.8902V46.8896V46.8891V46.8885V46.8879V46.8873V46.8867V46.8861V46.8855V46.8849V46.8843V46.8837V46.8831V46.8825V46.882V46.8814V46.8808V46.8802V46.8796V46.879V46.8784V46.8778V46.8773V46.8767V46.8761V46.8755V46.8749V46.8743V46.8737V46.8732V46.8726V46.872V46.8714V46.8708V46.8702V46.8697V46.8691V46.8685V46.8679V46.8673V46.8668V46.8662V46.8656V46.865V46.8645V46.8639V46.8633V46.8627V46.8621V46.8616V46.861V46.8604V46.8598V46.8593V46.8587V46.8586C68.6086 46.3144 68.7633 45.8813 69.0158 45.5864C69.2666 45.2936 69.6215 45.1275 70.0551 45.1272C70.4894 45.1366 70.8397 45.3073 71.0834 45.6019C71.3291 45.8988 71.4747 46.3321 71.4747 46.8771V46.8931V46.9091V46.9251V46.9412V46.9572V46.9732V46.9892V47.0052V47.0213V47.0373V47.0533V47.0693V47.0853V47.1013V47.1173V47.1334V47.1494V47.1654V47.1814V47.1974V47.2134V47.2294V47.2454V47.2615V47.2775V47.2935V47.3095V47.3255V47.3415V47.3575V47.3735V47.3895V47.4055V47.4215V47.4375V47.4535V47.4695V47.4855V47.5016V47.5176V47.5336V47.5496V47.5656V47.5816V47.5976V47.6136V47.6296V47.6456V47.6616V47.6776V47.6936V47.7096V47.7256V47.7416V47.7575V47.7735V47.7895V47.8055V47.8215V47.8375V47.8535V47.8695V47.8855V47.9015V47.9175V47.9335V47.9495V47.9655V47.9815V47.9974V48.0134V48.0294V48.0454V48.0614V48.0774V48.0934V48.1094V48.1253V48.1413V48.1573V48.1733V48.1893V48.2053V48.2213V48.2372V48.2532V48.2692V48.2852V48.3012V48.3171V48.3331V48.3491V48.3651V48.3811V48.397V48.413V48.429V48.445V48.4609V48.4769V48.4929V48.5089V48.5249V48.5408V48.5568V48.5728V48.5887V48.6047V48.6207V48.6367V48.6526V48.6686V48.6846V48.7005V48.7165V48.7325V48.7485V48.7644V48.7804V48.7964V48.8123V48.8283V48.8443V48.8602V48.8762V48.8922V48.9081V48.9241V48.94V48.956V48.972V48.9879V49.0039V49.0199V49.0358V49.0518V49.0677V49.0837V49.0997V49.1156V49.1316V49.1475V49.1635V49.1794V49.1954V49.2113V49.2273V49.2433V49.2592V49.2752V49.2911V49.3071V49.323V49.339V49.3549V49.3709V49.3868V49.4028V49.4187V49.4347V49.4506V49.4666V49.4825V49.4985V49.5144V49.5304V49.5463V49.5623V49.5782V49.5942V49.6101V49.626V49.642V49.6579V49.6739V49.6898V49.7058V49.7217V49.7376V49.7536V49.7695V49.7855V49.8014V49.8173V49.8333V49.8492V49.8651V49.8811V49.897V49.913V49.9289V49.9448V49.9608V49.9767V49.9926V50.0086V50.0245V50.0404V50.0564V50.0723V50.0882V50.1042V50.1201V50.136V50.1519V50.1679V50.1838V50.1997V50.2157V50.2316V50.2475V50.2634V50.2794V50.2953V50.3112V50.3271V50.3431V50.359V50.3749V50.3908V50.4068V50.4227V50.4386V50.4545V50.4704V50.4864V50.5023V50.5182V50.5341V50.55V50.566V50.5819V50.5978V50.6137V50.6296V50.6455V50.6614V50.6774V50.6933V50.7092V50.7251V50.741V50.7569V50.7728V50.7888V50.8047V50.8206V50.8365V50.8524V50.8683V50.8842V50.9001V50.916V50.9319V50.9478V50.9637V50.9797V50.9956V51.0115V51.0274V51.0433V51.0592V51.0751V51.091V51.1069V51.1228V51.1387V51.1546V51.1705V51.1864V51.2023V51.2182V51.2341V51.25V51.2659V51.2818V51.2977V51.3136V51.3295V51.3454V51.3613V51.3772V51.3931V51.409V51.4248V51.4407V51.4566V51.4725V51.4884V51.5043V51.5202V51.5361V51.552V51.5679V51.5838V51.5996V51.6155V51.6314V51.6473V51.6632V51.6791V51.695V51.7109V51.7267V51.7426V51.7585V51.7744V51.7903V51.8062V51.822V51.8379V51.8538V51.8697V51.8856V51.9014V51.9173V51.9332V51.9491V51.965V51.9808V51.9967V52.0126V52.0285V52.0443V52.0602V52.0761V52.092V52.1078V52.1237V52.1396V52.1555V52.1713V52.1872V52.2031V52.219V52.2348V52.2507V52.2666V52.2824V52.2983V52.3142V52.33V52.3459V52.3618V52.3776V52.3935V52.4094V52.4252V52.4411V52.457V52.4728V52.4887V52.5046V52.5204V52.5363V52.5521V52.568V52.5839V52.5997V52.6156V52.6314V52.6473V52.6632V52.679V52.6949V52.7107V52.7266V52.7425V52.7583V52.7742V52.79V52.8059V52.8217V52.8376V52.8534V52.8693V52.8851V52.901V52.9168V52.9327V52.9485V52.9644V52.9802V52.9961V53.0119V53.0278V53.0436V53.0595V53.0753V53.0912V53.107V53.1229V53.1387V53.1546V53.1704V53.1863V53.2021V53.2179V53.2338V53.2496V53.2655V53.2813V53.2971V53.313V53.3288V53.3447V53.3605V53.3763V53.3922V53.408V53.4239V53.4397V53.4555V53.4714V53.4872V53.503V53.5189V53.5347V53.5505V53.5664V53.5822V53.598V53.6139V53.6297V53.6455V53.6614V53.6772V53.693V53.7089V53.7247V53.7405V53.7563V53.7722V53.788V53.8038V53.8196V53.8355V53.8513V53.8671V53.8829V53.8988V53.9146V53.9304V53.9462V53.9621V53.9779V53.9937V54.0095V54.0253V54.0412V54.057V54.0728V54.0886V54.1044V54.1203V54.1361V54.1519V54.1677V54.1835V54.1993V54.2152V54.231V54.2468V54.2626V54.2784V54.2942V54.31V54.3258V54.3417V54.3575V54.3733V54.3891V54.4049V54.4207V54.4365V54.4523V54.4681V54.4839V54.4997V54.5155V54.5314V54.5472V54.563V54.5788V54.5946V54.6104V54.6262V54.642V54.6578V54.6736V54.6894V54.7052V54.721V54.7368V54.7526V54.7684V54.7842V54.8V54.8158V54.8316V54.8474V54.8632V54.879V54.8948V54.9106V54.9264V54.9422V54.9579V54.9737V54.9895V55.0053V55.0211V55.0363V55.0516V55.0668V55.082V55.0972V55.1124V55.1277V55.1429V55.1581V55.1733V55.1886V55.2038V55.219V55.2342V55.2495V55.2647V55.2799V55.2951V55.3104V55.3256V55.3408V55.3561V55.3713V55.3865V55.4017V55.417V55.4322V55.4474V55.4627V55.4779V55.4931V55.5084V55.5236V55.5388V55.5541V55.5693V55.5845V55.5998V55.615V55.6302V55.6455V55.6607V55.676V55.6912V55.7064V55.7217V55.7369V55.7521V55.7674V55.7826V55.7979V55.8131V55.8283V55.8436V55.8588V55.8741V55.8893V55.9046V55.9198V55.935V55.9503V55.9655V55.9808V55.996V56.0113V56.0265V56.0418V56.057V56.0722V56.0875V56.1027V56.118V56.1332V56.1485V56.1637V56.179V56.1942V56.2095V56.2247V56.24V56.2552V56.2705V56.2857V56.301V56.3162V56.3315V56.3467V56.362V56.3772V56.3925V56.4077V56.423V56.4383V56.4535V56.4688V56.484V56.4993V56.5145V56.5298V56.545V56.5603V56.5755V56.5908V56.6061V56.6213V56.6366V56.6518V56.6671V56.6823V56.6976V56.7129V56.7281V56.7434V56.7586V56.7739V56.7892V56.8044V56.8197V56.8349V56.8502V56.8655V56.8807V56.896V56.9112V56.9265V56.9418V56.957V56.9723V56.9876V57.0028V57.0181V57.0333V57.0486V57.0639V57.0791V57.0944V57.1097V57.1249V57.1402V57.1555V57.1707V57.186V57.2013V57.2165V57.2318V57.2471V57.2623V57.2776V57.2929V57.3081V57.3234V57.3387V57.3539V57.3692V57.3845V57.3997V57.415V57.4303V57.4455V57.4608V57.4761V57.4913V57.5066V57.5219V57.5371V57.5524V57.5677V57.583V57.5982V57.6135V57.6288V57.644V57.6593V57.6746V57.6899V57.7051V57.7204V57.7357V57.7509V57.7662V57.7815V57.7968V57.812V57.8273V57.8426V57.8578V57.8731V57.8884V57.9037V57.9189V57.9342V57.9495V57.9648V57.98V57.9953V58.0106V58.0259V58.0411V58.0564V58.0717V58.0869V58.1022V58.1175V58.1328V58.148V58.1633V58.1786V58.1939V58.2091V58.2244V58.2397V58.255V58.2702V58.2855V58.3008V58.3161V58.3313V58.3466V58.3619V58.3772V58.3925V58.4077V58.423V58.4383V58.4536V58.4688V58.4841V58.4994V58.5147V58.5299V58.5452V58.5605V58.5758V58.591V58.6063V58.6216V58.6369V58.6521V58.6674V58.6827V58.698V58.7133V58.7285V58.7438V58.7591V58.7744V58.7896V58.8049V58.8202V58.8355V58.8507V58.866V58.8813V58.8966V58.9119V58.9271V58.9424V58.9577V58.973V58.9882V59.0035V59.0188V59.0341V59.0493V59.0646V59.0799V59.0952V59.1105V59.1257V59.141V59.1563V59.1716V59.1868V59.2021V59.2174V59.2327V59.2479V59.2632V59.2785V59.2938V59.309V59.3243V59.3396V59.3549V59.3702V59.3854V59.4007V59.416V59.4313V59.4465V59.4618V59.4771V59.4924V59.5076V59.5229V59.5382V59.5535V59.5687V59.584V59.5993V59.6146V59.6298V59.6451V59.6604V59.6757V59.6909V59.7062V59.7215V59.7368V59.752V59.7673V59.7826V59.7979V59.8131V59.8284V59.8437V59.859V59.8742V59.8895V59.9048V59.9201V59.9353V59.9506V59.9659V59.9811V59.9964V60.0117V60.027V60.0422V60.0575V60.0728V60.088V60.1033V60.1186V60.1339V60.1491V60.1644V60.1797V60.1949V60.2102V60.2255V60.2408V60.256V60.2713V60.2866V60.3018V60.3171V60.3324V60.3477V60.3629V60.3782V60.3935V60.4087V60.424V60.4393V60.4545V60.4698V60.4851V60.5003V60.5156V60.5309V60.5461V60.5614V60.5767V60.5919V60.6072V60.6225V60.6377V60.653V60.6683V60.6835V60.6988V60.7141V60.7293V60.7446V60.7599V60.7751V60.7904V60.8057V60.8209V60.8362V60.8514V60.8667V60.882V60.8972V60.9125V60.9278V60.943V60.9583V60.9735V60.9888V61.0041V61.0193V61.0346V61.0498V61.0651V61.0804V61.0956V61.1109V61.1261V61.1414V61.1567V61.1719V61.1872V61.2024V61.2177V61.2329V61.2482V61.2635V61.2787V61.294V61.3092V61.3245V61.3397V61.355V61.3702V61.3855V61.4008V61.416V61.4313V61.4465V61.4618V61.477V61.4923V61.5075V61.5228V61.538V61.5533V61.5685V61.5838V61.599V61.6143V61.6295V61.6448V61.66V61.6753V61.6905V61.7058V61.721V61.7363V61.7515V61.7668V61.782V61.7973V61.8125V61.8278V61.843V61.8582V61.8735V61.8887V61.904V61.9192V61.9345V61.9497V61.9649V61.9802V61.9954V62.0107V62.0259V62.0412V62.0564V62.0716V62.0869V62.1021V62.1174V62.1326V62.1478V62.1631V62.1783V62.1935V62.2088V62.224V62.2393V62.2545V62.2697V62.285V62.3002V62.3154V62.3307V62.3459V62.3611V62.3764V62.3916V62.4068V62.4221V62.4373V62.4525V62.4677V62.483V62.4982V62.5134V62.5287V62.5439V62.5591V62.5743V62.5896V62.6048V62.62V62.6352V62.6505V62.6657V62.6809V62.6961V62.7114V62.7266V62.7418V62.757V62.7723V62.7875V62.8027V62.8179V62.8331C71.4747 63.0486 71.4747 63.2384 71.4557 63.4468Z" fill="#B5121B" stroke="white" stroke-width="0.25"/>
<path d="M49.8642 47.7578L49.8643 47.7578V47.7558C49.8643 47.5457 49.8787 47.316 49.9226 47.1079C49.967 46.8978 50.0387 46.7235 50.1431 46.6109C50.2987 46.4462 50.5211 46.2792 50.7553 46.161C50.9926 46.0412 51.2242 45.9805 51.4025 46.0048L51.4038 46.005C51.6034 46.0299 51.8154 46.149 52.0256 46.3237C52.2338 46.4968 52.4281 46.7142 52.592 46.9166L52.592 46.9166L52.5931 46.918C52.6644 47.0035 52.7016 47.1452 52.7159 47.3309C52.726 47.4622 52.724 47.5982 52.722 47.7322C52.7212 47.7861 52.7205 47.8397 52.7205 47.8925V47.922V47.9514V47.9808V48.0102V48.0396V48.069V48.0984V48.1278V48.1572V48.1866V48.216V48.2455V48.2749V48.3043V48.3337V48.3631V48.3925V48.4219V48.4513V48.4807V48.5101V48.5396V48.569V48.5984V48.6278V48.6572V48.6866V48.716V48.7454V48.7748V48.8042V48.8336V48.8631V48.8925V48.9219V48.9513V48.9807V49.0101V49.0395V49.0689V49.0983V49.1277V49.1572V49.1866V49.216V49.2454V49.2748V49.3042V49.3336V49.363V49.3924V49.4218V49.4512V49.4807V49.5101V49.5395V49.5689V49.5983V49.6277V49.6571V49.6865V49.7159V49.7453V49.7748V49.8042V49.8336V49.863V49.8924V49.9218V49.9512V49.9806V50.01V50.0394V50.0688V50.0983V50.1277V50.1571V50.1865V50.2159V50.2453V50.2747V50.3041V50.3335V50.3629V50.3924V50.4218V50.4512V50.4806V50.51V50.5394V50.5688V50.5982V50.6276V50.657V50.6864V50.7159V50.7453V50.7747V50.8041V50.8335V50.8629V50.8923V50.9217V50.9511V50.9805V51.01V51.0394V51.0688V51.0982V51.1276V51.157V51.1864V51.2158V51.2452V51.2746V51.304V51.3335V51.3629V51.3923V51.4217V51.4511V51.4805V51.5099V51.5393V51.5687V51.5981V51.6276V51.657V51.6864V51.7158V51.7452V51.7746V51.804V51.8334V51.8628V51.8922V51.9216V51.9511V51.9805V52.0099V52.0393V52.0687V52.0981V52.1275V52.1569V52.1863V52.2157V52.2452V52.2746V52.304V52.3334V52.3628V52.3922V52.4216V52.451V52.4804V52.5098V52.5392V52.5687V52.5981V52.6275V52.6569V52.6863V52.7157V52.7451V52.7745V52.8039V52.8333V52.8628V52.8922V52.9216V52.951V52.9804V53.0098V53.0392V53.0686V53.098V53.1274V53.1568V53.1863V53.2157V53.2451V53.2745V53.3039V53.3333V53.3627V53.3921V53.4215V53.4509V53.4804V53.5098V53.5392V53.5686V53.598V53.6274V53.6568V53.6862V53.7156V53.745V53.7744V53.8039V53.8333V53.8627V53.8921V53.9215V53.9509V53.9803V54.0097V54.0391V54.0685V54.098V54.1274V54.1568V54.1862V54.2156V54.245V54.2744V54.3038V54.3332V54.3626V54.392V54.4215V54.4509V54.4803V54.5097V54.5391V54.5685V54.5979V54.6273V54.6567V54.6861V54.7156V54.745V54.7744V54.8038V54.8332V54.8626V54.892V54.9214V54.9508V54.9802V55.0096V55.0391V55.0685V55.0979V55.1273V55.1567V55.1861V55.2155V55.2449V55.2743V55.3037V55.3332V55.3626V55.392V55.4214V55.4508V55.4802V55.5096V55.539V55.5684V55.5978V55.6272V55.6567V55.6861V55.7155V55.7449V55.7743V55.8037V55.8331V55.8625V55.8919V55.9213V55.9508V55.9802V56.0096V56.039V56.0684V56.0978V56.1272V56.1566V56.186V56.2154V56.2448V56.2743V56.3037V56.3331V56.3625V56.3919V56.4213V56.4507V56.4801V56.5095V56.5389V56.5684V56.5978V56.6272V56.6566V56.686V56.7154V56.7448V56.7742V56.8036V56.833V56.8624V56.8919V56.9213V56.9507V56.9801V57.0095V57.0389V57.0683V57.0977V57.1271V57.1565V57.186V57.2154V57.2448V57.2742V57.3036V57.333V57.3624V57.3918V57.4212V57.4506V57.48V57.5095V57.5389V57.5683V57.5977V57.6271V57.6565V57.6859V57.7153V57.7447V57.7741V57.8036V57.833V57.8624V57.8918V57.9212V57.9506V57.98V58.0094V58.0388V58.0682V58.0976V58.1271V58.1565V58.1859V58.2153V58.2447V58.2741V58.3035V58.3329V58.3623V58.3917V58.4212V58.4506V58.48V58.5094V58.5388V58.5682V58.5976V58.627V58.6564V58.6858V58.7152V58.7447V58.7741V58.8035V58.8329V58.8623V58.8917V58.9211V58.9505V58.9799V59.0093V59.0388V59.0682V59.0976V59.127V59.1564V59.1858V59.2152V59.2446V59.274V59.3034V59.3328V59.3623V59.3917V59.4211V59.4505V59.4799V59.5093V59.5387V59.5681V59.5975V59.6269V59.6564V59.6858V59.7152V59.7446V59.774V59.8034V59.8328V59.8622V59.8916V59.921V59.9504V59.9799V60.0093V60.0387V60.0681V60.0975V60.1269V60.1563V60.1857V60.2151V60.2445V60.274V60.3034V60.3328V60.3622V60.3916V60.421V60.4504V60.4798V60.5092V60.5386V60.568V60.5975V60.6269V60.6563V60.6857V60.7151V60.7445V60.7739V60.8033V60.8327V60.8621V60.8916V60.921V60.9504V60.9798V61.0092V61.0386V61.068V61.0974V61.1268V61.1562V61.1856V61.2151V61.2445V61.2739V61.3033V61.3327V61.3621V61.3915V61.4209V61.4503V61.4797V61.5092V61.5386V61.568V61.5974V61.6268V61.6562V61.6856V61.715V61.7444V61.7738V61.8032V61.8327V61.8621V61.8915V61.9209V61.9503V61.9797V62.0091V62.0385V62.0679V62.0973V62.1268V62.1562V62.1856V62.215V62.2444V62.2738V62.3032V62.3326V62.362V62.3914V62.4208V62.4503V62.4797V62.5091V62.5385V62.5679V62.5973V62.6267V62.6561V62.6855V62.7149V62.7444V62.7738V62.8032V62.8326V62.862V62.8914V62.9208V62.9502V62.9507V62.9511V62.9516V62.9521V62.9525V62.953V62.9534V62.9539V62.9543V62.9548V62.9553V62.9557V62.9562V62.9566V62.9571V62.9575V62.958V62.9585V62.9589V62.9594V62.9598V62.9603V62.9607V62.9612V62.9617V62.9621V62.9626V62.963V62.9635V62.964V62.9644V62.9649V62.9653V62.9658V62.9662V62.9667V62.9672V62.9676V62.9681V62.9685V62.969V62.9694V62.9699V62.9704V62.9708V62.9713V62.9717V62.9722V62.9726V62.9731V62.9736V62.974V62.9745V62.9749V62.9754V62.9759V62.9763V62.9768V62.9772V62.9777V62.9781V62.9786V62.9791V62.9795V62.98V62.9804V62.9809V62.9813V62.9818V62.9823V62.9827V62.9832V62.9836V62.9841V62.9846V62.985V62.9855V62.9859V62.9864V62.9868V62.9873V62.9878V62.9882V62.9887V62.9891V62.9896V62.99V62.9905V62.991V62.9914V62.9919V62.9923V62.9928V62.9932V62.9937V62.9942V62.9946V62.9951V62.9955V62.996V62.9965V62.9969V62.9974V62.9978V62.9983V62.9987V62.9992V62.9997V63.0001V63.0006V63.001V63.0015V63.0019V63.0024V63.0029V63.0033V63.0038V63.0042V63.0047V63.0051V63.0056V63.0061V63.0065V63.007V63.0074V63.0079V63.0084V63.0088V63.0093V63.0097V63.0102V63.0106V63.0111V63.0116V63.012V63.0125V63.0129V63.0134V63.0138V63.0143V63.0148V63.0152V63.0157V63.0161V63.0166V63.017V63.0175V63.018V63.0184V63.0189V63.0193V63.0198V63.0203V63.0207V63.0212V63.0216V63.0221V63.0225V63.023V63.0235V63.0239V63.0244V63.0248V63.0253V63.0257V63.0262V63.0267V63.0271V63.0276V63.028V63.0285V63.0289V63.0294V63.0299V63.0303V63.0308V63.0312V63.0317V63.0322V63.0326V63.0331V63.0335V63.034V63.0344V63.0349V63.0354V63.0358V63.0363V63.0367V63.0372V63.0376V63.0381V63.0386V63.039V63.0395V63.0399V63.0404V63.0408V63.0413V63.0418V63.0422V63.0427V63.0431V63.0436V63.0441V63.0445V63.045V63.0454V63.0459V63.0463V63.0468V63.0473V63.0477V63.0482V63.0486V63.0491V63.0495V63.05V63.0505V63.0509V63.0514V63.0518V63.0523V63.0528V63.0532V63.0537V63.0541V63.0546V63.055V63.0555V63.056V63.0564V63.0569V63.0573V63.0578V63.0582V63.0587V63.0592V63.0596V63.0601V63.0605V63.061V63.0614V63.0619V63.0624V63.0628V63.0633V63.0637V63.0642V63.0647V63.0651V63.0656V63.066V63.0665V63.0669V63.0674V63.0679V63.0683V63.0688V63.0692V63.0697V63.0701V63.0706V63.0711V63.0715V63.072V63.0724V63.0729V63.0733V63.0738V63.0743V63.0747V63.0752V63.0756V63.0761V63.0766V63.077V63.0775V63.0779V63.0784V63.0788V63.0793V63.0798V63.0802V63.0807V63.0811V63.0816V63.082V63.0825V63.083V63.0834V63.0839V63.0843V63.0848V63.0852V63.0857V63.0862V63.0866V63.0871V63.0875V63.088V63.0885V63.0889V63.0894V63.0898V63.0903V63.0907V63.0912V63.0917V63.0921V63.0926V63.093V63.0935V63.0939V63.0944V63.0949V63.0953V63.0958V63.0962V63.0967V63.0972V63.0976V63.0981V63.0985V63.099V63.0994V63.0999V63.1004V63.1008V63.1013V63.1017V63.1022V63.1026V63.1031V63.1036V63.104V63.1045V63.1049V63.1054V63.1058V63.1063V63.1068V63.1072V63.1077V63.1081V63.1086V63.1091V63.1095V63.11V63.1104V63.1109V63.1113V63.1118V63.1123V63.1127V63.1132V63.1136V63.1141V63.1145V63.115V63.1155V63.1159V63.1164V63.1168V63.1173V63.1177V63.1182V63.1187V63.1191V63.1196V63.12V63.1205V63.121V63.1214V63.1219V63.1223V63.1228V63.1232V63.1237V63.1242V63.1246V63.1251V63.1255V63.126V63.1264V63.1269V63.1274V63.1278V63.1283V63.1287V63.1292V63.1296V63.1301V63.1306V63.131V63.1315V63.1319V63.1324V63.1329V63.1333V63.1338V63.1342V63.1347V63.1351V63.1356V63.1361V63.1365V63.137V63.1374V63.1379V63.1383V63.1388V63.1393V63.1397V63.1402V63.1406V63.1411V63.1416V63.142V63.1425V63.1429V63.1434V63.1438V63.1443V63.1448V63.1452V63.1457V63.1461V63.1466V63.147V63.1475V63.148V63.1484V63.1489V63.1493V63.1498V63.1502V63.1507V63.1512V63.1516V63.1521V63.1525V63.153V63.1535V63.1539V63.1544V63.1548V63.1553V63.1557V63.1562V63.1567V63.1571V63.1576V63.158V63.1585V63.1589V63.1594V63.1599V63.1603V63.1608V63.1612V63.1617V63.1621V63.1626V63.1631V63.1635V63.164V63.1644V63.1649V63.1654V63.1658V63.1663V63.1667V63.1672V63.1676V63.1681V63.1686V63.169V63.1695V63.1699V63.1704V63.1708V63.1713V63.1718V63.1722V63.1727V63.1731V63.1736V63.174V63.1745V63.175V63.1754V63.1759V63.1763V63.1768V63.1773V63.1777V63.1782V63.1786V63.1791V63.1795V63.18V63.1805V63.1809V63.1814V63.1818V63.1823V63.1827V63.1832V63.1835C52.7109 63.7167 52.552 64.15 52.2967 64.4456C52.0428 64.7395 51.6878 64.9044 51.2658 64.8954C50.8504 64.8864 50.5037 64.7205 50.2593 64.4339C50.0137 64.146 49.8643 63.7276 49.8643 63.2041L49.8643 63.2032C49.8447 60.5867 49.8447 57.9897 49.8447 55.3921C49.8447 54.7574 49.8435 54.1218 49.8423 53.4857C49.8386 51.5756 49.835 49.6614 49.8642 47.7578Z" fill="#B5121B" stroke="white" stroke-width="0.25"/>
<path d="M45.2644 64.8387L45.2644 64.8387L45.2628 64.839C44.814 64.9197 44.4051 64.7856 44.1067 64.4984C43.8073 64.2102 43.6127 63.7611 43.6127 63.2043L43.6127 63.2033C43.5997 61.5757 43.604 59.94 43.6083 58.3064C43.6105 57.4903 43.6127 56.6747 43.6127 55.861C43.6127 55.4112 43.6105 54.9599 43.6083 54.5082C43.604 53.6042 43.5997 52.6986 43.6127 51.8008C43.6221 51.2869 43.776 50.8677 44.0244 50.5791C44.2715 50.292 44.6177 50.127 45.031 50.127C45.446 50.127 45.8025 50.2885 46.0564 50.5713C46.311 50.8548 46.4689 51.2678 46.4689 51.7792L46.4689 51.7805C46.4819 53.0571 46.4775 54.333 46.4732 55.604C46.471 56.2379 46.4689 56.8705 46.4689 57.5015V57.5126V57.5237V57.5348V57.5459V57.557V57.5681V57.5792V57.5903V57.6014V57.6125V57.6236V57.6347V57.6458V57.6569V57.6681V57.6792V57.6903V57.7014V57.7125V57.7236V57.7347V57.7458V57.7569V57.768V57.7791V57.7902V57.8014V57.8125V57.8236V57.8347V57.8458V57.8569V57.868V57.8792V57.8903V57.9014V57.9125V57.9236V57.9347V57.9458V57.957V57.9681V57.9792V57.9903V58.0014V58.0125V58.0237V58.0348V58.0459V58.057V58.0681V58.0793V58.0904V58.1015V58.1126V58.1238V58.1349V58.146V58.1571V58.1682V58.1794V58.1905V58.2016V58.2127V58.2239V58.235V58.2461V58.2572V58.2684V58.2795V58.2906V58.3018V58.3129V58.324V58.3351V58.3463V58.3574V58.3685V58.3797V58.3908V58.4019V58.413V58.4242V58.4353V58.4464V58.4576V58.4687V58.4798V58.491V58.5021V58.5132V58.5244V58.5355V58.5466V58.5578V58.5689V58.58V58.5912V58.6023V58.6135V58.6246V58.6357V58.6469V58.658V58.6691V58.6803V58.6914V58.7025V58.7137V58.7248V58.736V58.7471V58.7582V58.7694V58.7805V58.7917V58.8028V58.8139V58.8251V58.8362V58.8474V58.8585V58.8697V58.8808V58.8919V58.9031V58.9142V58.9254V58.9365V58.9476V58.9588V58.9699V58.9811V58.9922V59.0034V59.0145V59.0257V59.0368V59.0479V59.0591V59.0702V59.0814V59.0925V59.1037V59.1148V59.126V59.1371V59.1483V59.1594V59.1706V59.1817V59.1929V59.204V59.2152V59.2263V59.2374V59.2486V59.2597V59.2709V59.282V59.2932V59.3043V59.3155V59.3266V59.3378V59.3489V59.3601V59.3712V59.3824V59.3935V59.4047V59.4158V59.427V59.4381V59.4493V59.4605V59.4716V59.4828V59.4939V59.5051V59.5162V59.5274V59.5385V59.5497V59.5608V59.572V59.5831V59.5943V59.6054V59.6166V59.6277V59.6389V59.6501V59.6612V59.6724V59.6835V59.6947V59.7058V59.717V59.7281V59.7393V59.7504V59.7616V59.7727V59.7839V59.7951V59.8062V59.8174V59.8285V59.8397V59.8508V59.862V59.8731V59.8843V59.8955V59.9066V59.9178V59.9289V59.9401V59.9512V59.9624V59.9736V59.9847V59.9959V60.007V60.0182V60.0293V60.0405V60.0516V60.0628V60.074V60.0851V60.0963V60.1074V60.1186V60.1297V60.1409V60.1521V60.1632V60.1744V60.1855V60.1967V60.2078V60.219V60.2302V60.2413V60.2525V60.2636V60.2748V60.2859V60.2971V60.3083V60.3194V60.3306V60.3417V60.3529V60.364V60.3752V60.3864V60.3975V60.4087V60.4198V60.431V60.4421V60.4533V60.4645V60.4756V60.4868V60.4979V60.5091V60.5202V60.5314V60.5426V60.5537V60.5649V60.576V60.5872V60.5983V60.6095V60.6207V60.6318V60.643V60.6541V60.6653V60.6764V60.6876V60.6988V60.7099V60.7211V60.7322V60.7434V60.7545V60.7657V60.7768V60.788V60.7992V60.8103V60.8215V60.8326V60.8438V60.8549V60.8661V60.8772V60.8884V60.8996V60.9107V60.9219V60.933V60.9442V60.9553V60.9665V60.9776V60.9888V61V61.0111V61.0223V61.0334V61.0446V61.0557V61.0669V61.078V61.0892V61.1003V61.1115V61.1226V61.1338V61.145V61.1561V61.1673V61.1784V61.1896V61.2007V61.2119V61.223V61.2342V61.2453V61.2565V61.2676V61.2788V61.2899V61.3011V61.3122V61.3234V61.3345V61.3457V61.3568V61.368V61.3791V61.3903V61.4014V61.4126V61.4237V61.4349V61.446V61.4572V61.4683V61.4795V61.4906V61.5018V61.5129V61.5241V61.5352V61.5464V61.5575V61.5687V61.5798V61.5909V61.6021V61.6132V61.6244V61.6355V61.6467V61.6578V61.669V61.6801V61.6913V61.7024V61.7135V61.7247V61.7358V61.747V61.7581V61.7693V61.7804V61.7916V61.8027V61.8138V61.825V61.8361V61.8473V61.8584V61.8695V61.8807V61.8918V61.903V61.9141V61.9253V61.9364V61.9475V61.9587V61.9698V61.9809V61.9921V62.0032V62.0144V62.0255V62.0366V62.0478V62.0589V62.07V62.0812V62.0923V62.1035V62.1146V62.1257V62.1369V62.148V62.1591V62.1703V62.1814V62.1925V62.2037V62.2148V62.2259V62.2371V62.2482V62.2593V62.2705V62.2816V62.2927V62.3039V62.315V62.3261V62.3372V62.3484V62.3595V62.3706V62.3818V62.3929V62.404V62.4151V62.4263V62.4374V62.4485V62.4597V62.4708V62.4819V62.493V62.5042V62.5153V62.5264V62.5375V62.5486V62.5598V62.5709V62.582V62.5931V62.6043V62.6154V62.6265V62.6376V62.6487V62.6599V62.671V62.6821V62.6932V62.7043V62.7155V62.7266V62.7377V62.7488V62.7599V62.771V62.7822V62.7933V62.8044V62.8155V62.8266V62.8377V62.8489V62.86V62.8711V62.8822V62.8933V62.9044V62.9155V62.9266V62.9377V62.9489V62.96V62.9711V62.9822V62.9933V63.0044V63.0155V63.0266V63.0377V63.0488V63.0599V63.071V63.0821V63.0933V63.1044V63.1155V63.1266V63.1377V63.1488V63.1599V63.171V63.1821V63.1932V63.2043C46.4689 63.6824 46.3517 64.0591 46.1473 64.3301C45.944 64.5996 45.6467 64.775 45.2644 64.8387Z" fill="#B5121B" stroke="white" stroke-width="0.25"/>
<path d="M56.1156 52.9712H56.1156C56.1026 55.2891 56.1069 57.5978 56.1113 59.9043C56.1134 61.0567 56.1156 62.2085 56.1156 63.3605C56.1156 63.9624 56.3667 64.4256 56.9083 64.7146C57.3948 64.9665 57.9029 64.9159 58.2927 64.6576C58.6835 64.3986 58.9626 63.9256 58.9718 63.3198C58.9848 62.175 58.9805 61.031 58.9762 59.8859C58.974 59.3128 58.9718 58.7394 58.9718 58.1655C58.9718 57.5916 58.974 57.0182 58.9762 56.4451C58.9805 55.2999 58.9848 54.1559 58.9718 53.011L58.9718 53.0096C58.9718 52.5292 58.8151 52.1365 58.5614 51.8674C58.3083 51.5988 57.9522 51.446 57.5367 51.455L56.1156 52.9712ZM56.1156 52.9712V52.9705M56.1156 52.9712V52.9705M56.1156 52.9705C56.1156 52.5114 56.2712 52.1383 56.5225 51.8782M56.1156 52.9705L56.5225 51.8782M56.5225 51.8782C56.7739 51.618 57.1276 51.4641 57.5367 51.455L56.5225 51.8782Z" fill="#B5121B" stroke="white" stroke-width="0.25"/>
<path d="M42.4548 18.3162L42.4556 18.3163C42.9745 18.3292 43.4918 18.3249 44.0114 18.3206C44.2724 18.3184 44.534 18.3162 44.7968 18.3162C45.0603 18.3162 45.3226 18.3184 45.5836 18.3206C46.101 18.3249 46.6131 18.3292 47.1183 18.3163L47.1192 18.3162C48.122 18.2977 48.7724 17.6753 48.7548 16.8621L42.4548 18.3162ZM42.4548 18.3162C41.9615 18.3069 41.562 18.1538 41.2851 17.9083C41.0092 17.6636 40.8478 17.321 40.8387 16.9151L40.7138 16.9179L40.8387 16.9152C40.8297 16.4906 40.9871 16.1301 41.2648 15.8747C41.5434 15.6184 41.9511 15.4609 42.4525 15.4609L42.454 15.4609M42.4548 18.3162L42.454 15.4609M42.454 15.4609C44.0158 15.4414 45.5777 15.4414 47.1395 15.4609M42.454 15.4609H47.1395M47.1395 15.4609L47.141 15.3359M47.1395 15.4609L47.141 15.3359M47.141 15.3359L47.1386 15.4609C48.1023 15.4794 48.737 16.0641 48.7548 16.862L47.141 15.3359Z" fill="#B5121B" stroke="white" stroke-width="0.25"/>
<path d="M71.4553 40.0025L71.4553 40.0055C71.4731 40.7517 70.8105 41.421 70.0355 41.4399C69.2805 41.4391 68.5991 40.7882 68.5991 40.0415C68.5991 39.29 69.2865 38.6025 70.0205 38.5846C70.3815 38.5758 70.7408 38.7391 71.0116 39.0053C71.2823 39.2713 71.4553 39.6311 71.4553 40.0025Z" fill="#B5121B" stroke="white" stroke-width="0.25"/>
<path d="M48.4226 10.0043C48.4226 10.774 47.7568 11.4222 47.0043 11.4222C46.2558 11.4222 45.6055 10.7586 45.6055 9.98477C45.6055 9.21454 46.2519 8.56773 47.0223 8.5669C47.7741 8.58565 48.4226 9.25219 48.4226 10.0043Z" fill="#B5121B" stroke="white" stroke-width="0.25"/>
<path d="M34.7582 25.1712L34.7581 25.1712C33.9878 25.1533 33.3573 24.4883 33.3564 23.7352C33.3752 22.9638 34.042 22.3168 34.7929 22.3159C35.5646 22.3347 36.1915 22.9815 36.1736 23.7504L36.1736 23.7504V23.7533C36.1736 24.5442 35.5068 25.1891 34.7582 25.1712Z" fill="#B5121B" stroke="white" stroke-width="0.25"/>
<path d="M42.2928 22.3356L42.2929 22.3356C43.0633 22.3535 43.693 23.0182 43.6751 23.7896C43.657 24.5649 43.0067 25.2087 42.2597 25.1909L42.2596 25.1909C41.4902 25.173 40.8587 24.509 40.8579 23.7354C40.8767 22.9628 41.5442 22.3177 42.2928 22.3356Z" fill="#B5121B" stroke="white" stroke-width="0.25"/>
<path d="M49.7947 25.1909L49.7947 25.1909C49.0456 25.2087 48.3777 24.5628 48.3597 23.7896C48.3418 23.0193 48.99 22.3535 49.742 22.3356C50.491 22.3177 51.1589 22.9636 51.1769 23.7369C51.1949 24.5083 50.5651 25.173 49.7947 25.1909Z" fill="#B5121B" stroke="white" stroke-width="0.25"/>
<path d="M17.7239 41.7338L17.7225 41.734C16.9328 41.8416 16.2352 41.3451 16.1446 40.4392L16.1445 40.4381C15.9978 39.0979 14.658 38.3581 13.3621 38.81C12.6831 39.0366 12.1873 39.5213 12.1446 40.2688L12.1445 40.269C12.1235 40.648 12.2238 40.9751 12.4206 41.2392C12.6165 41.502 12.9024 41.6954 13.2425 41.8191L13.2425 41.8192L13.2471 41.8207C13.6231 41.9409 14.0253 41.9944 14.4116 42.0457C14.54 42.0628 14.6667 42.0796 14.79 42.0986L14.7909 42.0987C17.0078 42.4235 18.6403 43.9669 18.9441 46.0553L18.9441 46.0553C19.2276 48.0017 18.1353 49.7903 16.0837 50.7679L16.0837 50.7679L16.0815 50.7689C15.8126 50.9034 15.5815 51.2043 15.4575 51.4725C15.3177 51.7706 15.1396 52.0005 14.922 52.1559C14.7054 52.3105 14.4431 52.3963 14.1252 52.3963C13.8074 52.3963 13.5451 52.3105 13.3285 52.1559C13.1108 52.0004 12.9326 51.7704 12.7928 51.4722L12.7928 51.4721L12.7914 51.4693C12.6451 51.1767 12.3728 50.8795 12.0876 50.7478C10.5778 50.0408 9.6297 48.9009 9.32513 47.2643L9.32512 47.2643C9.22148 46.7086 9.28533 46.2472 9.47956 45.9035C9.67239 45.5622 10.0016 45.3228 10.4594 45.222C10.8852 45.1315 11.2452 45.2183 11.5273 45.4545C11.8134 45.6939 12.033 46.0985 12.1468 46.6672L12.147 46.6685C12.2286 47.056 12.3783 47.3802 12.606 47.6343C12.8341 47.8887 13.1341 48.066 13.5051 48.1691C14.286 48.395 14.9952 48.2504 15.5954 47.7126C16.0505 47.3103 16.1966 46.7547 16.0707 46.2488C15.9451 45.744 15.5515 45.2971 14.9468 45.0986C14.5988 44.9771 14.2208 44.9442 13.8691 44.9136C13.8078 44.9082 13.7472 44.9029 13.6878 44.8973L13.6877 44.8973C11.4722 44.6872 9.70551 43.1428 9.34492 41.0747L9.34481 41.0741C8.98555 39.0704 10.0774 37.2063 12.1852 36.2099C12.3116 36.1523 12.4365 36.0528 12.5392 35.9423C12.6415 35.8322 12.7302 35.7018 12.7768 35.5748C12.9082 35.247 13.0778 34.9949 13.2921 34.8249C13.5048 34.656 13.7698 34.5614 14.1057 34.5614V34.5615L14.1089 34.5614C14.4637 34.5523 14.7426 34.6472 14.9669 34.8209C15.1934 34.9963 15.3728 35.2587 15.5141 35.5977C15.5723 35.7374 15.6788 35.8689 15.7992 35.9789C15.9205 36.0896 16.063 36.1848 16.2023 36.249L16.2025 36.2492C17.8258 36.9937 18.9623 38.6136 18.9623 40.2173C18.9623 41.0399 18.4362 41.6448 17.7239 41.7338Z" fill="#B5121B" stroke="white" stroke-width="0.25"/>
</svg>
