<svg width="80" height="80" viewBox="0 0 80 80" fill="none" xmlns="http://www.w3.org/2000/svg">
<path d="M0.0208388 47.5667C0.229226 47.0826 0.375098 46.5775 0.646002 46.1355C1.52123 44.6412 2.83407 43.8414 4.54285 43.7782C5.29305 43.7572 6.04324 43.7782 6.7726 43.7782C6.16827 40.8317 6.18911 37.9061 6.75176 34.9174C6.54337 34.8964 6.25163 34.8543 5.93905 34.8122C3.64678 34.5176 1.95884 32.6654 1.89633 30.3292C1.85465 28.8138 1.85465 27.2774 1.89633 25.762C1.95884 23.2574 3.91769 21.3 6.3975 21.2369C7.21021 21.2158 8.02292 21.1948 8.8148 21.2369C9.33576 21.279 9.58583 21.0685 9.83589 20.6265C12.7325 15.5121 15.6499 10.4187 18.5673 5.32533C21.2139 0.716034 26.8195 0.716034 29.4452 5.30428C32.3418 10.3766 35.2592 15.4489 38.1349 20.5423C38.4475 21.0896 38.7809 21.2579 39.3644 21.2369C40.7189 21.1948 42.0735 21.2158 43.428 21.2158C46.137 21.2369 48.0959 23.2153 48.1167 25.9514C48.1375 27.2984 48.1584 28.6454 48.0959 29.9714C48.0542 30.7712 47.8666 31.571 47.7416 32.476C47.8875 32.497 48.1375 32.4549 48.3668 32.5391C49.1795 32.8338 50.0547 33.0653 50.7841 33.5073C51.2217 33.7599 51.5759 33.8861 52.0761 33.7809C58.3694 32.497 64.2251 33.6125 69.6223 37.1274C69.8098 37.2537 70.0182 37.3799 70.1641 37.5694C70.56 38.0114 70.5809 38.5375 70.2475 39.0216C69.914 39.5057 69.4139 39.653 68.8721 39.4215C68.6429 39.3163 68.4137 39.1689 68.2053 39.0216C55.4728 30.687 38.4475 38.4954 36.2803 53.6493C34.634 65.2041 42.6778 75.896 54.2016 77.4324C65.7463 78.9899 76.3949 70.4869 77.5202 58.7848C78.1245 52.5969 76.3115 47.1668 72.248 42.4944C71.8104 41.9892 71.477 41.4841 71.852 40.8106C72.2688 40.0529 73.1857 40.0529 73.8734 40.7896C76.9992 44.2413 78.9372 48.2613 79.6874 52.8706C79.7916 53.523 79.8958 54.1544 80 54.8069C80 56.0066 80 57.2273 80 58.448C79.8958 59.0373 79.7916 59.6267 79.7083 60.237C77.6869 73.8334 64.0375 82.8415 50.9508 79.1793C49.4295 78.7584 47.9708 78.148 46.4496 77.6219C45.3868 79.3898 43.7614 80.0002 41.7192 80.0002C29.8411 79.9581 17.963 79.9791 6.08492 79.9791C5.79318 79.9791 5.50143 79.9791 5.23053 79.9791C3.00078 79.8739 1.12529 78.4216 0.896067 76.1907C0.66684 74.1912 0.708518 72.1496 0.896067 70.1291C1.04194 68.4033 2.25059 67.2878 3.68846 66.6353C2.79239 63.5203 2.91743 60.4685 3.56343 57.3536C1.292 56.3854 0.958583 56.0276 0 53.5651C0.0208388 51.5656 0.0208388 49.5662 0.0208388 47.5667ZM16.0458 31.4447C15.3582 31.4447 14.7538 31.4868 14.1704 31.4236C13.4618 31.3395 12.7325 31.2342 12.0448 31.0027C11.4196 30.7922 11.1696 30.245 11.378 29.5926C11.5864 28.9401 12.0656 28.7086 12.7116 28.7717C13.7953 28.8769 14.8789 29.0243 15.9625 29.0453C18.3798 29.0874 18.4215 29.1085 18.4215 31.592C18.4215 37.0432 18.4215 42.4733 18.4215 47.9245C18.4215 49.7766 19.0258 50.4081 20.8388 50.4081C22.9435 50.4081 25.0482 50.4081 27.1737 50.4081C29.0909 50.4081 29.7161 49.7977 29.7161 47.8824C29.7161 42.1155 29.7161 36.3697 29.7161 30.6028C29.7161 29.4663 30.0912 29.0874 31.1956 29.0664C32.1125 29.0664 33.0086 29.0874 33.9255 29.0664C35.5718 29.0243 36.8638 28.0982 37.4264 26.6249C37.8849 25.3831 37.6348 24.2677 37.0096 23.1522C33.8421 17.6168 30.6121 12.1446 27.5488 6.54606C25.8817 3.49424 22.1099 3.66262 20.5679 6.52501C17.6921 11.8499 14.608 17.0696 11.5864 22.3103C10.857 23.5731 10.2527 24.7938 10.5236 26.3092C10.6278 26.9617 10.2318 27.4247 9.56499 27.5299C8.89815 27.6141 8.46054 27.3195 8.27299 26.667C8.18963 26.3934 8.14795 26.0987 8.14795 25.8041C8.14795 25.0885 8.21047 24.3518 8.25215 23.5731C7.73118 23.5731 7.21021 23.5731 6.68924 23.5731C5.18885 23.6152 4.27195 24.5202 4.27195 26.0566C4.25111 27.2563 4.27195 28.4771 4.27195 29.6767C4.27195 31.6341 5.1055 32.476 7.02266 32.497C9.77338 32.497 12.5449 32.497 15.2957 32.497C15.5457 32.497 15.7958 32.476 16.0667 32.4549C16.0458 32.0971 16.0458 31.8235 16.0458 31.4447ZM44.4491 76.4011C44.3657 76.2959 44.3449 76.2538 44.3032 76.2117C41.4691 74.2964 39.1144 71.9181 37.2805 69.0136C37.1555 68.8242 36.8221 68.6979 36.572 68.6979C26.2152 68.6769 15.8375 68.6769 5.48059 68.6979C4.06356 68.6979 3.16749 69.645 3.14665 71.0973C3.12581 72.2759 3.14665 73.4545 3.14665 74.6542C3.14665 76.8431 3.89685 77.6008 6.04324 77.6008C17.963 77.6008 29.9036 77.6008 41.8234 77.6008C42.0526 77.6008 42.2818 77.6008 42.5319 77.6008C43.3655 77.5587 44.0115 77.1588 44.4491 76.4011ZM35.8635 66.3407C34.5715 63.4572 33.9255 60.5106 33.7588 57.4167C33.4462 57.4167 33.1753 57.4167 32.9252 57.4167C24.7148 57.4167 16.5251 57.4167 8.31466 57.4167C8.10628 57.4167 7.89789 57.4167 7.6895 57.4378C6.33498 57.564 5.50143 58.448 5.48059 59.8161C5.45976 61.0789 5.48059 62.3417 5.48059 63.6045C5.48059 65.4777 6.33498 66.3407 8.21047 66.3407C16.6502 66.3407 25.0899 66.3407 33.5296 66.3407C34.2589 66.3407 34.9883 66.3407 35.8635 66.3407ZM16.0667 46.1566C12.1282 46.1566 8.29383 46.1355 4.45949 46.1776C3.23001 46.1987 2.37562 47.1879 2.35478 48.4717C2.33394 49.7346 2.35478 50.9974 2.35478 52.2602C2.35478 54.2176 3.16749 55.0384 5.1055 55.0384C14.3787 55.0384 23.652 55.0384 32.9252 55.0384C33.1961 55.0384 33.4879 55.0384 33.8213 55.0384C34.0505 51.8813 34.8632 48.9769 36.1969 46.1776C34.7591 46.1776 33.4462 46.1776 32.0709 46.1776C32.0709 46.9353 32.0709 47.6298 32.0709 48.3454C32.0292 50.9342 30.237 52.7443 27.6739 52.7653C25.2774 52.7864 22.881 52.7864 20.4845 52.7653C17.9005 52.7443 16.15 50.9763 16.1084 48.3454C16.0667 47.6509 16.0667 46.9563 16.0667 46.1566ZM32.1125 34.9174C32.1125 37.8851 32.1125 40.8106 32.1125 43.7782C33.8421 43.7782 35.5092 43.7993 37.1555 43.7572C37.4264 43.7572 37.7598 43.4836 37.9265 43.2521C40.4064 39.7162 43.5947 37.0642 47.4915 35.2752C47.6582 35.1911 47.8041 35.1069 48.1167 34.9385C42.6778 34.9174 37.4056 34.9174 32.1125 34.9174ZM32.0709 32.5181C32.4043 32.5181 32.696 32.5181 32.9669 32.5181C36.1761 32.5181 39.3644 32.5181 42.5736 32.5181C42.8862 32.5181 43.1987 32.5391 43.5113 32.5181C44.9492 32.4129 45.7828 31.5289 45.8036 30.0556C45.8036 28.6665 45.8244 27.2563 45.8036 25.8672C45.7828 24.6886 45.0117 23.7204 43.8864 23.6362C42.5527 23.531 41.1982 23.6152 39.802 23.6152C39.8229 23.8678 39.8437 24.0782 39.8854 24.2887C40.4272 27.7615 38.2391 30.8343 34.8007 31.3605C33.9047 31.4868 32.9878 31.4657 32.0709 31.5078C32.0709 31.8025 32.0709 32.0971 32.0709 32.5181ZM16.025 43.7572C16.025 40.7475 16.025 37.843 16.025 34.9174C14.1495 34.9174 12.3365 34.8543 10.5236 34.9385C9.54415 34.9806 8.79396 35.9067 8.75228 36.938C8.7106 38.5165 8.7106 40.095 8.75228 41.6735C8.79396 42.8101 9.66918 43.7151 10.8153 43.7572C12.5241 43.7993 14.2537 43.7572 16.025 43.7572Z" fill="#B5121B"/>
<path d="M40.9067 56.6168C40.9067 47.6928 48.0753 40.4526 56.8901 40.4526C65.7257 40.4526 72.8734 47.6928 72.8734 56.6168C72.8734 65.5407 65.7049 72.7809 56.8901 72.7809C48.0961 72.7809 40.9276 65.5196 40.9067 56.6168ZM43.2615 56.6168C43.2615 64.2358 49.409 70.4236 56.9317 70.4236C64.4545 70.4236 70.5811 64.1937 70.5603 56.5747C70.5395 48.9767 64.4545 42.831 56.9317 42.831C49.3673 42.8099 43.2615 48.9977 43.2615 56.6168Z" fill="#B5121B"/>
<path d="M64.121 19.8477C64.5586 19.9529 64.9962 20.016 65.3922 20.1634C67.1009 20.8158 67.8095 22.668 67.7678 24.499C67.7261 26.1828 66.6008 27.3614 64.8712 27.7403C63.7251 27.9929 62.5789 28.2244 61.4328 28.4348C59.3698 28.7926 57.7235 27.7192 57.1817 25.6777C56.6607 23.6993 57.5985 21.9524 59.5573 21.2578C60.6409 20.879 61.7245 20.5001 62.8082 20.1423C63.2249 19.995 63.6626 19.9529 64.121 19.8477ZM60.891 26.1197C62.0163 25.8882 63.3708 25.6566 64.6836 25.2988C65.4547 25.0884 65.5797 24.4359 65.2255 23.3204C64.9754 22.4785 64.4753 22.0997 63.7459 22.3102C62.4956 22.689 61.2869 23.131 60.0574 23.594C59.4323 23.8255 59.2656 24.3938 59.4114 25.0252C59.5782 25.6777 59.9116 26.1197 60.891 26.1197Z" fill="#B5121B"/>
<path d="M50.4087 13.4913C50.7421 12.7547 50.9922 11.9339 51.4715 11.2814C52.2217 10.2501 53.0969 9.30299 53.9513 8.35588C55.3266 6.84049 57.4522 6.77735 58.9734 8.16645C60.1821 9.2609 61.0365 10.5237 60.4947 12.2496C60.2863 12.902 59.8695 13.5334 59.3902 14.0175C58.5358 14.9015 57.5772 15.6802 56.6395 16.459C55.4934 17.4271 54.2013 17.6587 52.8468 17.0062C51.4923 16.3327 50.6588 15.1962 50.4087 13.4913ZM54.1597 15.0909C54.5556 14.9225 54.8473 14.8805 55.0141 14.7121C56.0143 13.8702 57.0146 13.0283 57.9523 12.1233C58.5775 11.534 58.4108 10.9026 57.5355 10.0607C56.8687 9.40823 56.2644 9.34509 55.7017 9.95545C54.8473 10.8815 54.0138 11.8076 53.2636 12.8178C53.0344 13.1336 52.9719 13.765 53.1177 14.1017C53.3261 14.5227 53.8262 14.7752 54.1597 15.0909Z" fill="#B5121B"/>
<path d="M39.5516 6.69322C39.8016 5.49354 40.0517 3.80978 40.531 2.21021C40.9686 0.821102 42.0939 0.0213147 43.5526 0.000267649C45.9907 -0.0207794 47.8871 1.19995 48.0329 3.49407C48.0538 3.85187 48.0538 4.25177 47.9496 4.58852C47.512 5.97762 47.0743 7.38777 46.5117 8.75583C45.8657 10.3554 44.1569 11.1341 42.4273 10.7132C40.656 10.3133 39.5307 8.90316 39.5516 6.69322ZM43.886 2.37858C43.1358 2.33649 42.719 2.73638 42.594 3.45198C42.3648 4.58852 42.1356 5.70401 41.9272 6.84055C41.7813 7.66138 42.1147 8.18756 42.8649 8.39803C43.6776 8.6085 44.2194 8.33489 44.5112 7.51406C44.8446 6.58799 45.1572 5.64087 45.4698 4.69375C45.9907 3.19942 45.4906 2.46277 43.886 2.37858Z" fill="#B5121B"/>
<path d="M57.9945 47.1878C59.1406 47.6509 60.1617 47.9876 61.1411 48.4717C61.9121 48.8505 62.0789 49.5661 61.7246 50.1765C61.3495 50.7869 60.7243 50.8921 59.9533 50.4922C59.349 50.1975 58.7238 49.966 57.9736 49.6503C57.9736 51.4393 57.9528 53.0599 57.9945 54.6806C57.9945 54.8279 58.2445 55.0384 58.4112 55.1226C59.0156 55.3751 59.6616 55.5014 60.245 55.775C63.6626 57.3535 64.3503 61.2893 61.5579 63.836C60.7243 64.5937 59.5782 65.0357 58.5154 65.4777C58.0987 65.6461 57.9319 65.7723 57.9528 66.2143C57.9736 66.5511 57.9528 66.9089 57.8486 67.2246C57.6819 67.7929 57.2234 68.0875 56.6608 68.0244C56.0981 67.9612 55.7022 67.6245 55.6397 67.0141C55.598 66.5932 55.6397 66.1933 55.6397 66.0039C54.1393 65.4987 52.7848 65.0988 51.4511 64.5727C50.5759 64.2359 50.3466 63.5624 50.6592 62.8889C50.9926 62.1944 51.6178 62.0891 52.5347 62.468C53.4724 62.8468 54.4727 63.1415 55.6188 63.5414C55.6188 62.7626 55.6188 62.2575 55.6188 61.7313C55.6188 60.258 55.598 58.7847 55.6188 57.3114C55.6188 56.8484 55.5146 56.5958 55.0562 56.4485C54.4519 56.238 53.8475 55.9434 53.2849 55.6277C50.8468 54.2596 50.3675 51.4183 52.1596 49.2715C52.889 48.3875 53.8059 47.7982 54.9103 47.5877C55.5355 47.4614 55.6814 47.1878 55.6188 46.6406C55.598 46.5143 55.6188 46.367 55.6188 46.2407C55.6814 45.6093 56.0356 45.2094 56.6608 45.1673C57.3276 45.1042 57.7652 45.462 57.8903 46.1144C57.9945 46.5143 57.9736 46.9142 57.9945 47.1878ZM58.0153 57.543C58.0153 59.4372 58.0153 61.2893 58.0153 63.1415C59.6616 62.8258 60.891 61.5419 60.9327 60.1738C60.9744 58.911 59.9116 57.9429 58.0153 57.543ZM55.5772 49.945C54.306 50.1555 53.4516 51.0605 53.4516 52.1339C53.4516 53.0599 54.2018 53.7335 55.5772 53.986C55.5772 52.6601 55.5772 51.3341 55.5772 49.945Z" fill="#B5121B"/>
</svg>
