<svg width="80" height="80" viewBox="0 0 80 80" fill="none" xmlns="http://www.w3.org/2000/svg">
<path d="M80 53.5463C79.3543 55.1084 78.1463 55.5874 76.5217 55.5666C72.4603 55.5041 68.3988 55.5457 64.3374 55.5457C64.025 55.5457 63.7126 55.5457 63.3793 55.5457C63.3377 55.6915 63.296 55.7748 63.296 55.879C63.6501 61.2526 62.2338 66.2513 60.0469 71.0417C58.8597 73.666 57.4017 76.1654 56.0271 78.7064C55.5897 79.5395 54.8607 79.7478 54.215 79.3729C53.5694 78.998 53.4652 78.269 53.9651 77.4775C56.4645 73.3536 58.6306 69.0631 59.9427 64.3976C60.7342 61.5442 61.1507 58.6491 60.88 55.6291C55.7563 55.6291 50.6326 55.6291 45.4048 55.6291C45.5298 56.2955 45.5715 56.962 45.8006 57.5869C46.3629 59.1906 46.9461 60.8152 47.6543 62.3565C47.9042 62.9188 48.4457 63.377 48.9039 63.8144C49.4455 64.3351 49.5704 65.0224 49.1747 65.5431C48.779 66.043 48.0083 66.2513 47.5293 65.7514C46.6337 64.8558 45.7381 63.9186 45.1133 62.8355C43.7178 60.3778 43.1971 57.6285 42.8222 54.8584C42.2182 50.2971 42.3848 45.715 42.6764 41.1537C42.8222 38.9875 41.8433 37.5088 39.8646 36.8214C37.9901 36.155 35.8448 36.8006 34.6993 38.3835C34.1161 39.175 33.9287 40.0706 34.012 41.0287C34.2619 44.3195 34.5535 47.6103 34.6993 50.9219C34.8243 53.9836 34.5743 57.0245 33.4288 59.8988C32.9289 61.1901 32.2833 62.5023 31.4085 63.5645C28.5551 67.0427 27.8261 71.0417 28.201 75.3531C28.2843 76.2487 28.4718 77.1443 28.6175 78.0399C28.7425 78.8313 28.4093 79.4562 27.7219 79.602C27.0763 79.7478 26.4306 79.352 26.2848 78.6022C25.056 72.7912 25.4309 67.2719 29.284 62.3981C30.8253 60.4403 31.7209 58.1909 32.0125 55.5666C31.6793 55.5666 31.3877 55.5666 31.0961 55.5666C27.0138 55.5666 22.9315 55.5666 18.8284 55.5666C16.7665 55.5666 15.7667 54.546 15.7667 52.484C15.7667 48.5059 15.7459 44.5278 15.7876 40.5288C15.7876 39.9665 15.6209 39.7165 15.0794 39.5707C11.6011 38.6126 8.14371 37.5296 4.64462 36.634C2.3119 36.03 0.645665 34.8428 0 32.4684C0 31.8852 0 31.3229 0 30.7397C0.0416558 30.6772 0.10414 30.6147 0.124967 30.5522C2.08279 23.7623 4.01979 16.9516 5.95678 10.1617C6.56079 8.01645 7.18563 5.87117 7.81047 3.7259C8.66441 0.830821 11.1638 -0.585477 14.038 0.226812C22.0568 2.51788 30.0755 4.80895 38.0942 7.10002C44.3218 8.87039 50.5285 10.6408 56.7561 12.4528C59.7969 13.3276 61.1507 15.8061 60.2968 18.8678C60.1718 19.3052 60.0469 19.7634 59.9011 20.2841C60.2551 20.2841 60.5467 20.2841 60.8175 20.2841C66.0661 20.2841 71.3356 20.3257 76.5842 20.2633C78.2088 20.2424 79.3543 20.784 79.9583 22.3044C80 32.7183 80 43.1323 80 53.5463ZM31.5543 41.7577C31.5959 40.9662 31.5543 40.258 31.6793 39.5707C32.3041 36.0716 35.699 33.6973 39.2814 34.1763C42.9888 34.6762 45.4465 37.7795 45.1133 41.4661C44.9883 42.7991 44.9466 44.1529 44.8633 45.5483C45.6339 45.7774 46.3629 45.9857 47.0919 46.1732C48.8831 46.673 50.0078 46.0482 50.5285 44.257C51.4241 41.1953 52.2989 38.1128 53.1737 35.0511C53.4652 34.0097 53.7568 32.9683 54.0693 31.8852C38.0734 27.3031 22.1817 22.7626 6.24837 18.2013C6.16506 18.4721 6.06092 18.6803 5.99844 18.8886C4.89456 22.7626 3.76985 26.6366 2.66597 30.5106C2.14527 32.3434 2.77011 33.489 4.58214 34.0097C12.0177 36.155 19.4741 38.2794 26.9097 40.4038C28.4301 40.8829 29.9714 41.3203 31.5543 41.7577ZM45.0299 53.0464C45.2799 53.0672 45.4257 53.1089 45.5715 53.1089C53.2778 53.1089 60.9841 53.1089 68.6696 53.1089C69.1487 53.1089 69.2528 52.9006 69.3569 52.484C70.2942 48.3601 72.856 45.7983 76.9591 44.7985C77.459 44.6736 77.584 44.4861 77.584 44.0071C77.5631 39.9456 77.5631 35.8842 77.584 31.8227C77.584 31.2604 77.3757 31.1146 76.855 30.9688C72.8352 29.9274 70.2942 27.4072 69.3778 23.3458C69.2528 22.7626 69.0029 22.6793 68.4822 22.6793C65.7329 22.7001 62.9628 22.721 60.2135 22.6585C59.4012 22.6376 59.1096 22.8876 58.9013 23.6582C56.9019 30.7814 54.8607 37.9045 52.8196 45.0068C51.9656 47.9852 49.4663 49.3598 46.4671 48.5267C45.9464 48.3809 45.4257 48.256 44.8008 48.0893C44.8841 49.8181 44.9466 51.4218 45.0299 53.0464ZM6.85238 15.8894C22.8482 20.4715 38.7607 25.012 54.7149 29.5942C55.3606 27.3447 55.9646 25.1995 56.6103 22.9709C40.6561 18.4096 24.7227 13.8483 8.74772 9.26612C8.10206 11.4947 7.49805 13.64 6.85238 15.8894ZM9.41421 6.9334C25.41 11.5155 41.3226 16.0769 57.2767 20.6382C57.5059 19.8675 57.6933 19.201 57.8808 18.5137C58.5264 16.2851 57.9641 15.2646 55.7147 14.6397C47.196 12.2029 38.6774 9.76599 30.1588 7.32913C24.5978 5.72538 19.0159 4.14246 13.4548 2.55954C11.8094 2.10132 10.6431 2.74699 10.1432 4.37157C9.91408 5.18385 9.68498 6.01697 9.41421 6.9334ZM32.4082 53.088C32.2624 50.3388 32.0958 47.6936 31.9708 45.0485C31.95 44.5069 31.7001 44.2987 31.2002 44.1737C27.0971 43.0282 22.994 41.841 18.9117 40.6746C18.7035 40.6121 18.4952 40.5913 18.2452 40.5496C18.2452 41.9659 18.2452 43.2781 18.2452 44.5694C18.3077 44.6111 18.3286 44.6527 18.3494 44.6527C22.8274 45.5692 25.6392 48.1935 26.5972 52.7131C26.6389 52.8589 26.8888 53.0672 27.0555 53.088C28.7842 53.088 30.4712 53.088 32.4082 53.088ZM24.1604 53.0464C23.6813 50.0055 20.8904 47.2562 18.2452 47.1937C18.2452 49.1307 18.2452 51.0677 18.2452 53.0464C20.2447 53.0464 22.1817 53.0464 24.1604 53.0464ZM77.5215 47.2146C74.6889 47.5478 71.7938 50.5262 71.8146 53.0672C73.71 53.0672 75.5845 53.0672 77.5215 53.0672C77.5215 51.0886 77.5215 49.1516 77.5215 47.2146ZM77.5215 28.5944C77.5215 26.6574 77.5215 24.7204 77.5215 22.7834C75.5637 22.7834 73.6683 22.7834 71.7521 22.7834C72.2937 25.7618 74.7514 28.2612 77.5215 28.5944Z" fill="#B5121B"/>
<path d="M25.5351 31.9269C25.5142 32.8017 24.7644 33.2807 23.8063 33.0099C22.1818 32.5517 20.5572 32.0935 18.9326 31.6353C15.6835 30.698 12.4551 29.7816 9.20598 28.8444C9.10184 28.8235 9.01853 28.7819 8.91439 28.7402C8.12293 28.4695 7.76885 27.9071 7.97713 27.2198C8.16458 26.5325 8.81025 26.1992 9.60171 26.4283C11.3513 26.9074 13.1008 27.4281 14.8503 27.9279C18.0162 28.8235 21.182 29.74 24.3479 30.6356C24.9935 30.823 25.5351 31.1146 25.5351 31.9269Z" fill="#B5121B"/>
<path d="M65.2333 33.0724C67.9201 33.0932 70.0445 35.301 70.0028 38.0086C69.9612 40.6329 67.7534 42.7782 65.1083 42.7574C62.4631 42.7157 60.3179 40.5496 60.3179 37.9045C60.3387 35.2177 62.5465 33.0516 65.2333 33.0724ZM65.1499 40.2997C66.4621 40.3205 67.5452 39.2583 67.5868 37.967C67.6285 36.634 66.5246 35.5093 65.1916 35.4885C63.8794 35.4676 62.7964 36.5298 62.7756 37.842C62.7339 39.2167 63.7753 40.2997 65.1499 40.2997Z" fill="#B5121B"/>
</svg>
