<svg width="86" height="86" viewBox="0 0 86 86" fill="none" xmlns="http://www.w3.org/2000/svg">
<path d="M42.5024 81.5207C21.4993 81.5207 4.42773 64.249 4.42773 42.9998C4.42773 21.7507 21.4993 4.479 42.5024 4.479C63.5054 4.479 80.577 21.7507 80.577 42.9998C80.577 64.249 63.5054 81.5207 42.5024 81.5207ZM42.5024 9.854C24.4391 9.854 9.74048 24.7248 9.74048 42.9998C9.74048 61.2748 24.4391 76.1457 42.5024 76.1457C60.5657 76.1457 75.2643 61.2748 75.2643 42.9998C75.2643 24.7248 60.5657 9.854 42.5024 9.854Z" fill="white"/>
<path d="M42.5021 49.2707C41.0499 49.2707 39.8457 48.0523 39.8457 46.5832V28.6665C39.8457 27.1973 41.0499 25.979 42.5021 25.979C43.9542 25.979 45.1584 27.1973 45.1584 28.6665V46.5832C45.1584 48.0523 43.9542 49.2707 42.5021 49.2707Z" fill="white"/>
<path d="M42.5018 60.9166C42.0414 60.9166 41.5809 60.8091 41.1559 60.6299C40.7309 60.4507 40.3413 60.1999 39.9871 59.8774C39.6683 59.5191 39.4204 59.1607 39.2433 58.6949C39.0662 58.2649 38.96 57.7991 38.96 57.3332C38.96 56.8674 39.0662 56.4016 39.2433 55.9716C39.4204 55.5416 39.6683 55.1474 39.9871 54.7891C40.3413 54.4666 40.7309 54.2157 41.1559 54.0366C42.0059 53.6782 42.9976 53.6782 43.8477 54.0366C44.2727 54.2157 44.6623 54.4666 45.0165 54.7891C45.3353 55.1474 45.5832 55.5416 45.7603 55.9716C45.9374 56.4016 46.0436 56.8674 46.0436 57.3332C46.0436 57.7991 45.9374 58.2649 45.7603 58.6949C45.5832 59.1607 45.3353 59.5191 45.0165 59.8774C44.6623 60.1999 44.2727 60.4507 43.8477 60.6299C43.4227 60.8091 42.9622 60.9166 42.5018 60.9166Z" fill="white"/>
</svg>
