<svg width="40" height="40" viewBox="0 0 40 40" fill="none" xmlns="http://www.w3.org/2000/svg">
<path d="M24.6172 32.9166H15.4339C14.7005 32.9166 13.7672 32.8333 13.1505 32.2C12.5505 31.5833 12.5672 30.8166 12.5839 30.3V28.8166C8.38385 26.0166 5.61719 21.15 5.61719 16.5166C5.61719 12.1333 7.58385 8.03331 11.0005 5.28331C14.4172 2.53331 18.9005 1.49998 23.2839 2.46664C27.4505 3.38331 31.0505 6.16664 32.9172 9.91664C36.5339 17.2 33.0505 25.0833 27.4839 28.8333V30.0833C27.5005 30.5666 27.5172 31.45 26.8339 32.15C26.3172 32.65 25.5839 32.9166 24.6172 32.9166ZM15.0672 30.4C15.1505 30.4 15.2672 30.4166 15.4172 30.4166H24.6172C24.7839 30.4166 24.9005 30.4 24.9672 30.3833C24.9672 30.3333 24.9672 30.2666 24.9672 30.2166V28.1166C24.9672 27.6833 25.2005 27.2666 25.5672 27.05C30.5005 24.0666 33.7672 17.25 30.6505 11C29.1172 7.91664 26.1505 5.63331 22.7172 4.88331C19.0839 4.08331 15.3672 4.93331 12.5339 7.21664C9.70052 9.49998 8.08385 12.8833 8.08385 16.5166C8.08385 21.15 11.2839 25.15 14.4505 27.0666C14.8339 27.3 15.0505 27.7 15.0505 28.1333V30.3833C15.0672 30.3833 15.0672 30.3833 15.0672 30.4Z" fill="white"/>
<path d="M25.8334 37.9167C25.7168 37.9167 25.6001 37.9 25.4834 37.8667C21.8834 36.8334 18.1001 36.8334 14.5001 37.8667C13.8334 38.05 13.1501 37.6667 12.9501 37C12.7501 36.3334 13.1501 35.65 13.8168 35.45C17.8501 34.3 22.1334 34.3 26.1668 35.45C26.8334 35.6334 27.2168 36.3334 27.0334 37C26.8834 37.5667 26.3834 37.9167 25.8334 37.9167Z" fill="white"/>
</svg>
