<svg width="80" height="80" viewBox="0 0 80 80" fill="none" xmlns="http://www.w3.org/2000/svg">
<path d="M0 0C4.40092 0 8.80183 0 13.3028 0C13.3028 0.849469 13.3028 1.66563 13.3028 2.49844C14.553 2.73163 15.6866 2.69831 16.7368 2.14866C21.7045 -0.383094 20.621 0.0333125 26.2721 0.0166563C30.5397 3.72296e-09 34.8072 0.0166563 39.0748 0.0166563C42.5589 3.72296e-09 45.5261 1.21591 47.9767 3.68103C50.1271 5.84635 52.2942 7.97835 54.428 10.1437C54.8114 10.5268 55.1948 10.6767 55.7283 10.6767C63.4632 10.66 71.1982 10.66 78.9331 10.66C79.2498 10.66 79.5499 10.66 79.9333 10.66C79.9333 22.2028 79.9333 33.7123 79.9333 45.2551C61.3294 45.2551 42.7256 45.2551 24.0217 45.2551C24.0217 39.6252 24.0217 33.9954 24.0217 28.5821C22.0879 28.0325 20.2876 27.5494 18.5205 26.9831C17.9037 26.7833 17.3536 26.4168 16.8035 26.0837C15.3699 25.2176 15.1532 25.1676 13.3361 25.3841C13.3361 26.65 13.3361 27.9492 13.3361 29.365C8.8185 29.365 4.41759 29.365 0 29.365C0 19.5711 0 9.79388 0 0ZM51.2273 10.66C49.4603 8.89444 47.8433 7.3121 46.2596 5.69644C44.2425 3.63106 41.8087 2.64834 38.9081 2.665C33.857 2.69831 28.806 2.69831 23.7549 2.64834C22.3046 2.63169 20.9877 2.91484 19.7208 3.61441C18.3872 4.34728 17.0369 5.14678 15.4532 5.24672C14.7697 5.29669 14.0696 5.24672 13.3694 5.24672C13.3694 11.0931 13.3694 16.8395 13.3694 22.5859C13.5695 22.6025 13.7195 22.6359 13.8696 22.6192C15.5866 22.386 17.0869 22.8191 18.4205 23.9184C18.7372 24.1849 19.1373 24.3348 19.5207 24.5014C20.921 25.1343 22.388 25.534 24.005 25.5674C24.005 23.6019 23.9883 21.7031 24.0217 19.8209C24.0217 19.3213 23.8216 19.1214 23.4049 18.8882C22.4047 18.3552 21.4711 17.7223 20.4209 17.0893C21.0877 16.2732 21.6045 15.6236 22.1379 14.974C26.5889 17.9388 28.2059 17.8888 33.0069 14.5909C33.1569 14.7908 33.3069 15.0406 33.507 15.2405C35.8575 17.6057 38.2246 19.9542 40.5751 22.3027C41.3586 23.0856 42.2588 23.4354 43.3424 23.1355C45.3761 22.5692 45.9596 20.1541 44.4259 18.605C41.542 15.6735 38.6247 12.7753 35.7074 9.89382C35.5074 9.69394 35.2073 9.61066 34.9739 9.49407C35.7908 8.66125 36.3742 8.06163 37.041 7.37872C37.9579 8.32813 38.8414 9.27753 39.7916 10.1603C40.0583 10.4102 40.4918 10.5934 40.8585 10.61C43.0423 10.6433 45.2261 10.6267 47.4265 10.6267C48.6101 10.66 49.7937 10.66 51.2273 10.66ZM77.3161 13.375C65.8804 13.375 54.4947 13.375 42.8423 13.375C43.6758 14.1745 44.3759 14.7908 45.0094 15.4737C45.3761 15.8734 45.7762 16.0067 46.3096 16.0067C53.2111 15.99 60.1125 15.99 67.014 15.99C67.314 15.99 67.6307 15.99 67.9975 15.99C67.8808 17.9721 68.1642 19.721 69.5812 21.1201C70.9814 22.5026 72.7318 22.8024 74.6155 22.6359C74.6155 26.2503 74.6155 29.7481 74.6155 33.3125C72.6985 33.2126 70.9314 33.4957 69.5311 34.8949C68.1475 36.294 67.8808 38.0595 67.9808 39.925C57.2619 39.925 46.6597 39.925 35.9575 39.925C36.1075 38.0096 35.8075 36.2607 34.4072 34.8615C33.0069 33.4624 31.2398 33.2292 29.3895 33.2959C29.3895 29.6814 29.3895 26.2003 29.3895 22.6359C31.5899 22.8024 33.507 22.3527 34.9406 20.4206C34.2405 19.7543 33.5903 19.1214 32.9068 18.5051C32.7902 18.4052 32.5068 18.3219 32.3901 18.3885C30.6397 19.4212 28.7393 19.8376 26.6889 19.7876C26.6889 27.4162 26.6889 34.9948 26.6889 42.59C43.5757 42.59 60.3959 42.59 77.2661 42.59C77.3161 32.8461 77.3161 23.1522 77.3161 13.375ZM47.4099 23.0523C51.3274 20.6371 54.6614 20.8703 57.0952 23.5686C59.229 25.9504 59.379 29.5815 57.4453 32.1299C55.4615 34.7449 51.8941 35.5445 48.9769 34.0454C45.7095 32.3631 44.7426 29.265 46.0929 24.7845C46.0096 24.8178 45.9429 24.8345 45.8929 24.8678C43.2757 26.5501 40.7752 26.3002 38.558 24.0849C38.0079 23.5353 37.5245 22.9357 36.9577 22.3027C35.5574 23.9684 33.9571 24.8511 32.0567 25.2509C32.0567 27.1164 32.0567 28.9319 32.0567 30.7641C35.6074 31.5969 37.7912 33.7955 38.608 37.31C47.5932 37.31 56.5118 37.31 65.447 37.31C66.2805 33.7456 68.4809 31.5803 71.9983 30.7474C71.9983 28.8986 71.9983 27.0831 71.9983 25.2509C68.4309 24.4181 66.2638 22.2028 65.447 18.7383C59.4957 18.7383 53.6112 18.7383 47.6432 18.7383C48.1434 20.1874 48.06 21.5532 47.4099 23.0523ZM2.71723 2.69831C2.71723 10.71 2.71723 18.6383 2.71723 26.6167C5.38445 26.6167 7.985 26.6167 10.6189 26.6167C10.6189 18.6217 10.6189 10.6767 10.6189 2.69831C7.96833 2.69831 5.36778 2.69831 2.71723 2.69831ZM55.9783 27.9992C55.9783 25.7839 54.2446 24.035 52.0442 24.0183C49.8104 24.0017 47.9933 25.7839 47.9933 27.9992C47.9933 30.1645 49.777 31.98 51.9608 32.0133C54.1613 32.03 55.9783 30.2144 55.9783 27.9992Z" fill="#B5121B"/>
<path d="M40.4751 79.95C37.3078 78.9673 34.7073 76.9019 31.89 75.2696C25.8221 71.7218 19.8208 68.0907 13.8029 64.4763C10.5689 62.5275 10.1688 58.1969 12.9694 55.7984C14.6698 54.3327 16.9869 54.0995 19.0874 55.2321C23.4383 57.564 27.7892 59.9292 32.1234 62.2777C32.2568 62.3443 32.3901 62.4109 32.5735 62.5109C32.6735 62.311 32.7735 62.1278 32.8736 61.9612C33.6237 60.5454 34.7406 59.6127 36.2909 59.1963C41.4587 57.7972 46.6264 56.398 51.8108 55.0489C52.761 54.799 53.7612 54.7324 54.7448 54.6991C56.3118 54.6491 57.8621 54.7157 59.4291 54.6824C60.9961 54.6325 62.3964 55.0489 63.7133 55.8817C64.6302 56.4647 65.5804 56.9977 66.6473 57.6472C66.6473 56.1648 66.6473 54.8157 66.6473 53.3999C71.1315 53.3999 75.5324 53.3999 80 53.3999C80 62.2777 80 71.1388 80 79.9999C75.5658 79.9999 71.1482 79.9999 66.7139 79.9999C66.6806 79.367 66.6639 78.7507 66.6306 78.0678C64.7635 78.7341 63.0132 79.367 61.2461 79.9999C54.328 79.95 47.3933 79.95 40.4751 79.95ZM53.6446 65.4424C53.5445 65.5257 53.5112 65.5756 53.4612 65.5756C48.5935 66.8748 43.7425 68.2573 38.8415 69.4399C35.8408 70.1561 33.557 68.6903 32.4901 65.7922C32.4068 65.5756 32.2068 65.3591 32.0067 65.2425C27.2557 62.6608 22.5047 60.0791 17.7204 57.5473C17.2203 57.2808 16.5702 57.1809 16.0034 57.2475C14.8531 57.3641 14.0196 58.2469 13.7863 59.3628C13.5695 60.4455 14.053 61.5282 15.1532 62.1944C23.2382 67.0247 31.3066 71.8717 39.4083 76.6687C40.0917 77.0684 40.9753 77.285 41.7754 77.285C47.86 77.3349 53.9613 77.3183 60.0459 77.3016C60.5627 77.3016 61.0961 77.2517 61.5795 77.0684C63.1465 76.5021 64.6969 75.8858 66.2305 75.2529C66.4305 75.1696 66.6473 74.8532 66.6473 74.6366C66.6639 70.1561 66.6639 65.6922 66.6473 61.2117C66.6473 60.9785 66.4806 60.662 66.2805 60.5288C64.7802 59.596 63.2632 58.6799 61.7296 57.8138C61.3295 57.5806 60.8627 57.3807 60.4126 57.3807C58.0788 57.3641 55.695 57.1309 53.3945 57.4973C50.4772 57.9637 47.6433 58.9131 44.776 59.6627C42.1922 60.3456 39.5916 61.0285 37.0078 61.728C35.6741 62.0945 34.9073 63.1438 34.9573 64.493C35.0073 65.6922 35.8575 66.7249 37.0911 66.9248C37.6246 67.0081 38.2247 66.9081 38.7748 66.7582C42.6756 65.7422 46.5597 64.7095 50.4606 63.6768C51.2774 63.4603 52.0942 63.2437 52.9611 63.0272C53.2278 63.8767 53.4445 64.6762 53.6446 65.4424ZM69.4145 55.9983C69.4145 63.1272 69.4145 70.1894 69.4145 77.2517C72.0651 77.2517 74.6656 77.2517 77.2995 77.2517C77.2995 70.1561 77.2995 63.0938 77.2995 55.9983C74.6489 55.9983 72.0651 55.9983 69.4145 55.9983Z" fill="#B5121B"/>
</svg>
