<svg width="25" height="25" viewBox="0 0 25 25" fill="none" xmlns="http://www.w3.org/2000/svg">
<path d="M19.6385 22.5541H5.67625C4.57466 22.5541 3.68164 21.6362 3.68164 20.5038V6.15145C3.68164 5.01908 4.57466 4.10112 5.67625 4.10112H7.67086V2.05078H9.66547V4.10112H15.6493V2.05078H17.6439V4.10112H19.6385C20.7401 4.10112 21.6331 5.01908 21.6331 6.15145V20.5038C21.6331 21.6362 20.7401 22.5541 19.6385 22.5541ZM5.67625 10.2521V20.5038H19.6385V10.2521H5.67625ZM5.67625 6.15145V8.20179H19.6385V6.15145H5.67625ZM17.6439 18.4535H15.6493V16.4031H17.6439V18.4535ZM13.6547 18.4535H11.6601V16.4031H13.6547V18.4535ZM9.66547 18.4535H7.67086V16.4031H9.66547V18.4535ZM17.6439 14.3528H15.6493V12.3025H17.6439V14.3528ZM13.6547 14.3528H11.6601V12.3025H13.6547V14.3528ZM9.66547 14.3528H7.67086V12.3025H9.66547V14.3528Z" fill="#626262"/>
</svg>
