<svg width="616" height="412" viewBox="0 0 616 412" fill="none" xmlns="http://www.w3.org/2000/svg">
<g clip-path="url(#clip0_9_5)">
<path d="M371.098 180.199C371.098 180.199 371.098 180.106 371.098 180.012C371.098 179.824 371.098 179.636 371.098 179.355C371.098 178.792 371.098 177.947 371.098 177.008C371.098 174.944 371.098 171.94 371.004 168.186L371.192 168.374C360.774 168.374 344.162 168.468 325.579 168.468C325.673 168.374 325.297 168.655 325.767 168.28V168.374V168.468V168.655V169.031V169.782C325.767 170.251 325.767 170.814 325.767 171.283C325.767 172.316 325.767 173.348 325.767 174.287C325.767 176.258 325.767 178.322 325.767 180.199L325.579 180.012C338.625 180.012 349.981 180.106 358.146 180.106C362.182 180.106 365.467 180.199 367.719 180.199C368.846 180.199 369.69 180.199 370.347 180.199C370.629 180.199 370.817 180.199 371.004 180.199C371.004 180.199 371.098 180.199 371.098 180.199C371.098 180.199 371.004 180.199 370.91 180.199C370.723 180.199 370.535 180.199 370.253 180.199C369.69 180.199 368.752 180.199 367.719 180.199C365.467 180.199 362.182 180.199 358.146 180.293C349.981 180.293 338.531 180.387 325.485 180.387H325.297V180.199C325.297 178.228 325.297 176.258 325.297 174.287C325.297 173.254 325.297 172.222 325.297 171.283C325.297 170.814 325.297 170.251 325.297 169.782V169.031V168.655V168.468V168.374V168.28C325.767 167.811 325.391 168.186 325.579 168.092C344.256 168.092 360.774 168.186 371.192 168.186H371.38V168.374C371.38 172.222 371.286 175.225 371.286 177.29C371.286 178.322 371.286 179.073 371.286 179.636C371.286 179.918 371.286 180.106 371.286 180.199C371.098 180.106 371.098 180.199 371.098 180.199Z" fill="#E0E0E0"/>
<path d="M196.999 62.7882H151.292V74.8954H196.999V62.7882Z" fill="#F5F5F5"/>
<path d="M177.572 87.5657C177.572 87.5657 177.572 87.4718 177.572 87.378C177.572 87.1902 177.572 87.0025 177.572 86.721C177.572 86.1579 177.572 85.3132 177.572 84.3746C177.572 82.3098 177.572 79.3065 177.478 75.5524L177.665 75.7401C167.248 75.7401 150.635 75.8339 132.052 75.8339C132.146 75.7401 131.771 76.0216 132.24 75.6462V75.7401V75.8339V76.0216V76.3971V77.1479C132.24 77.6171 132.24 78.1803 132.24 78.6495C132.24 79.6819 132.24 80.7143 132.24 81.6529C132.24 83.6238 132.24 85.6886 132.24 87.5657L132.052 87.378C145.098 87.378 156.454 87.4718 164.62 87.4718C168.655 87.4718 171.94 87.5657 174.193 87.5657C175.319 87.5657 176.164 87.5657 176.821 87.5657C177.102 87.5657 177.29 87.5657 177.478 87.5657C177.478 87.5657 177.572 87.5657 177.572 87.5657C177.572 87.5657 177.478 87.5657 177.384 87.5657C177.196 87.5657 177.008 87.5657 176.727 87.5657C176.164 87.5657 175.225 87.5657 174.193 87.5657C171.94 87.5657 168.655 87.5657 164.62 87.6595C156.454 87.6595 145.004 87.7534 131.959 87.7534H131.771V87.5657C131.771 85.5947 131.771 83.6238 131.771 81.6529C131.771 80.6205 131.771 79.5881 131.771 78.6495C131.771 78.1803 131.771 77.6171 131.771 77.1479V76.3971V76.0216V75.8339V75.7401V75.6462C132.24 75.1769 131.865 75.5524 132.052 75.4585C150.729 75.4585 167.248 75.5524 177.665 75.5524H177.853V75.7401C177.853 79.5881 177.759 82.5914 177.759 84.6562C177.759 85.6886 177.759 86.4394 177.759 87.0025C177.759 87.2841 177.759 87.4718 177.759 87.5657C177.572 87.4718 177.572 87.5657 177.572 87.5657Z" fill="#E0E0E0"/>
<path d="M361.15 271.332H315.443V283.439H361.15V271.332Z" fill="#F5F5F5"/>
<path d="M341.816 296.203C341.816 296.203 341.816 296.109 341.816 296.015C341.816 295.827 341.816 295.64 341.816 295.358C341.816 294.795 341.816 293.95 341.816 293.012C341.816 290.947 341.816 287.944 341.722 284.19L341.91 284.377C331.492 284.377 314.88 284.471 296.297 284.471C296.391 284.377 296.015 284.659 296.484 284.283V284.377V284.471V284.659V285.034V285.785C296.484 286.254 296.484 286.817 296.484 287.287C296.484 288.319 296.484 289.351 296.484 290.29C296.484 292.261 296.484 294.326 296.484 296.203L296.297 296.015C309.342 296.015 320.699 296.109 328.864 296.109C332.9 296.109 336.185 296.203 338.437 296.203C339.563 296.203 340.408 296.203 341.065 296.203C341.346 296.203 341.534 296.203 341.722 296.203C341.722 296.203 341.816 296.203 341.816 296.203C341.816 296.203 341.722 296.203 341.628 296.203C341.44 296.203 341.253 296.203 340.971 296.203C340.408 296.203 339.469 296.203 338.437 296.203C336.185 296.203 332.9 296.203 328.864 296.297C320.699 296.297 309.248 296.391 296.203 296.391H296.015V296.203C296.015 294.232 296.015 292.261 296.015 290.29C296.015 289.258 296.015 288.225 296.015 287.287C296.015 286.817 296.015 286.254 296.015 285.785V285.034V284.659V284.471V284.377V284.283C296.484 283.814 296.109 284.19 296.297 284.096C314.974 284.096 331.492 284.19 341.91 284.19H342.097V284.377C342.097 288.225 342.003 291.229 342.003 293.293C342.003 294.326 342.003 295.077 342.003 295.64C342.003 295.921 342.003 296.109 342.003 296.203C341.816 296.109 341.816 296.203 341.816 296.203Z" fill="#E0E0E0"/>
<path d="M61.7559 43.8298C61.7559 43.8298 61.7559 43.7359 61.7559 43.6421C61.7559 43.4543 61.7559 43.2666 61.7559 42.9851C61.7559 42.422 61.7559 41.5773 61.7559 40.6387C61.7559 38.5739 61.7559 35.5706 61.662 31.8165L61.8497 32.0042C51.432 32.0042 34.8198 32.098 16.2368 32.098C16.3306 32.0042 15.9552 32.2857 16.4245 31.9103V32.0042V32.098V32.2857V32.6611V33.412C16.4245 33.8812 16.4245 34.4444 16.4245 34.9136C16.4245 35.946 16.4245 36.9784 16.4245 37.917C16.4245 39.8879 16.4245 41.9527 16.4245 43.8298L16.2368 43.6421C29.2824 43.6421 40.6388 43.7359 48.8041 43.7359C52.8398 43.7359 56.1247 43.8298 58.3771 43.8298C59.5034 43.8298 60.3481 43.8298 61.0051 43.8298C61.2866 43.8298 61.4743 43.8298 61.662 43.8298H61.7559C61.7559 43.8298 61.662 43.8298 61.5682 43.8298C61.3805 43.8298 61.1928 43.8298 60.9112 43.8298C60.3481 43.8298 59.4095 43.8298 58.3771 43.8298C56.1247 43.8298 52.8398 43.8298 48.8041 43.9236C40.6388 43.9236 29.1886 44.0175 16.1429 44.0175H15.9552V43.8298C15.9552 41.8588 15.9552 39.8879 15.9552 37.917C15.9552 36.8846 15.9552 35.8522 15.9552 34.9136C15.9552 34.4444 15.9552 33.8812 15.9552 33.412V32.6611V32.2857V32.098V32.0042V31.9103C16.4245 31.441 16.0491 31.8165 16.2368 31.7226C34.9137 31.7226 51.432 31.8165 61.8497 31.8165H62.0374V32.0042C62.0374 35.8522 61.9436 38.8555 61.9436 40.9203C61.9436 41.9527 61.9436 42.7035 61.9436 43.2666C61.9436 43.5482 61.9436 43.7359 61.9436 43.8298C61.7559 43.8298 61.7559 43.8298 61.7559 43.8298Z" fill="#E0E0E0"/>
<path d="M334.026 26.4668C334.026 26.4668 334.026 26.373 334.026 26.2791C334.026 26.0914 334.026 25.9037 334.026 25.6221C334.026 25.059 334.026 24.2143 334.026 23.2758C334.026 21.211 334.026 18.2077 333.932 14.4535L334.12 14.6412C323.702 14.6412 307.09 14.7351 288.507 14.7351C288.601 14.6412 288.225 14.9228 288.695 14.5474V14.6412V14.7351V14.9228V15.2982V15.9552C288.695 16.4245 288.695 16.9876 288.695 17.4568C288.695 18.4892 288.695 19.5216 288.695 20.4602C288.695 22.4311 288.695 24.4959 288.695 26.373L288.507 26.1853C301.553 26.1853 312.909 26.2791 321.074 26.2791C325.11 26.2791 328.395 26.373 330.647 26.373C331.773 26.373 332.618 26.373 333.275 26.373C333.557 26.373 333.744 26.373 333.932 26.373C333.932 26.4668 334.026 26.4668 334.026 26.4668C334.026 26.4668 333.932 26.4668 333.838 26.4668C333.651 26.4668 333.463 26.4668 333.181 26.4668C332.618 26.4668 331.68 26.4668 330.647 26.4668C328.395 26.4668 325.11 26.4668 321.074 26.5607C312.909 26.5607 301.459 26.6545 288.413 26.6545H288.225V26.4668C288.225 24.4959 288.225 22.525 288.225 20.554C288.225 19.5216 288.225 18.4892 288.225 17.5507C288.225 17.0814 288.225 16.5183 288.225 16.049V15.2982V14.9228V14.7351V14.6412V14.5474C288.695 14.0781 288.319 14.4535 288.507 14.3597C307.184 14.3597 323.702 14.4535 334.12 14.4535H334.308V14.6412C334.308 18.4892 334.214 21.4926 334.214 23.5573C334.214 24.5897 334.214 25.3406 334.214 25.9037C334.214 26.1853 334.214 26.373 334.214 26.4668C334.026 26.4668 334.026 26.4668 334.026 26.4668Z" fill="#E0E0E0"/>
<path d="M340.22 14.4535C340.22 14.4535 340.22 14.3596 340.22 14.2658C340.22 14.0781 340.22 13.8904 340.22 13.6088C340.22 13.0457 340.22 12.201 340.22 11.1686C340.22 9.00995 340.126 6.10048 340.126 2.34633L340.314 2.53403C333.181 2.53403 323.514 2.53403 312.909 2.62789C312.721 2.81559 313.19 2.34633 313.096 2.44018V2.53403V2.62789V2.81559V3.19101V3.94184C313.096 4.50496 313.096 4.97423 313.096 5.53736C313.096 6.56975 313.096 7.60214 313.096 8.63453C313.096 10.6993 313.096 12.5764 313.096 14.4535L312.909 14.2658C320.792 14.2658 327.644 14.3596 332.524 14.3596C334.964 14.3596 336.842 14.3596 338.249 14.4535C338.906 14.4535 339.376 14.4535 339.751 14.4535C340.033 14.3596 340.22 14.4535 340.22 14.4535C340.22 14.4535 340.033 14.4535 339.751 14.4535C339.376 14.4535 338.906 14.4535 338.249 14.4535C336.842 14.4535 334.964 14.4535 332.618 14.5473C327.738 14.5473 320.792 14.6412 312.815 14.6412H312.627V14.4535C312.627 12.5764 312.627 10.6055 312.627 8.63453C312.627 7.60214 312.627 6.56975 312.627 5.53736C312.627 4.97423 312.627 4.50496 312.627 3.94184V3.19101V2.72174V2.53403V2.44018V2.34633C312.533 2.44018 313.096 1.87706 312.909 2.15862C323.608 2.15862 333.275 2.25247 340.314 2.25247H340.502V2.44018C340.502 6.19433 340.408 9.19766 340.408 11.3563C340.408 12.3887 340.408 13.1395 340.408 13.7026C340.22 14.1719 340.22 14.4535 340.22 14.4535Z" fill="#E0E0E0"/>
<path d="M45.8946 314.504C45.8946 314.504 45.8946 314.41 45.8946 314.317C45.8946 314.129 45.8946 313.941 45.8946 313.66C45.8946 313.097 45.8946 312.252 45.8946 311.313C45.8946 309.249 45.8946 306.245 45.8007 302.491L45.9884 302.679C35.5707 302.679 18.9585 302.773 0.375464 302.773C0.469318 302.679 0.0939026 302.96 0.563172 302.585V302.679V302.773V302.96V303.336V304.087C0.563172 304.556 0.563172 305.119 0.563172 305.588C0.563172 306.621 0.563172 307.653 0.563172 308.592C0.563172 310.562 0.563172 312.627 0.563172 314.504L0.375464 314.317C13.4211 314.317 24.7775 314.41 32.9428 314.41C36.9785 314.41 40.2634 314.504 42.5158 314.504C43.6421 314.504 44.4868 314.504 45.1438 314.504C45.4253 314.504 45.613 314.504 45.8007 314.504C45.8007 314.504 45.8946 314.504 45.8946 314.504C45.8946 314.504 45.8007 314.504 45.7069 314.504C45.5192 314.504 45.3315 314.504 45.0499 314.504C44.4868 314.504 43.5482 314.504 42.5158 314.504C40.2634 314.504 36.9785 314.504 32.9428 314.598C24.7775 314.598 13.3273 314.692 0.28161 314.692H0.0939026V314.504C0.0939026 312.533 0.0939026 310.562 0.0939026 308.592C0.0939026 307.559 0.0939026 306.527 0.0939026 305.588C0.0939026 305.119 0.0939026 304.556 0.0939026 304.087V303.336V302.96V302.773V302.679V302.585C0.563172 302.116 0.187756 302.491 0.375464 302.397C19.0524 302.397 35.5707 302.491 45.9884 302.491H46.1761V302.679C46.1761 306.527 46.0823 309.53 46.0823 311.595C46.0823 312.627 46.0823 313.378 46.0823 313.941C46.0823 314.223 46.0823 314.41 46.0823 314.504C45.8946 314.504 45.8946 314.504 45.8946 314.504Z" fill="#E0E0E0"/>
<path d="M52.089 302.491C52.089 302.491 52.089 302.397 52.089 302.303C52.089 302.116 52.089 301.928 52.089 301.646C52.089 301.083 52.089 300.239 52.089 299.206C52.089 297.048 51.9951 294.138 51.9951 290.384L52.1828 290.572C45.0499 290.572 35.383 290.572 24.7775 290.665C24.5898 290.853 25.0591 290.384 24.9652 290.478V290.572V290.665V290.853V291.229V291.979C24.9652 292.543 24.9652 293.012 24.9652 293.575C24.9652 294.607 24.9652 295.64 24.9652 296.672C24.9652 298.737 24.9652 300.614 24.9652 302.491L24.7775 302.303C32.6612 302.303 39.5125 302.397 44.3929 302.397C46.8331 302.397 48.7102 302.397 50.118 302.491C50.775 302.491 51.2443 302.491 51.6197 302.491C51.9013 302.397 52.089 302.491 52.089 302.491C52.089 302.491 51.9013 302.491 51.6197 302.491C51.2443 302.491 50.775 302.491 50.118 302.491C48.7102 302.491 46.8331 302.491 44.4868 302.585C39.6064 302.585 32.6612 302.679 24.6836 302.679H24.4959V302.491C24.4959 300.614 24.4959 298.643 24.4959 296.672C24.4959 295.64 24.4959 294.607 24.4959 293.575C24.4959 293.012 24.4959 292.543 24.4959 291.979V291.229V290.853V290.665V290.572V290.478C24.4021 290.572 24.9652 290.008 24.7775 290.29C35.4768 290.29 45.1438 290.384 52.1828 290.384H52.3705V290.572C52.3705 294.326 52.2767 297.329 52.2767 299.488C52.2767 300.52 52.2767 301.271 52.2767 301.834C52.089 302.21 52.089 302.491 52.089 302.491Z" fill="#E0E0E0"/>
<path d="M189.679 215.207C189.679 215.207 189.679 215.113 189.679 215.019C189.679 214.832 189.679 214.644 189.679 214.362C189.679 213.799 189.679 212.954 189.679 212.016C189.679 209.951 189.679 206.948 189.585 203.194L189.773 203.381C179.355 203.381 162.743 203.475 144.16 203.475C144.253 203.381 143.878 203.663 144.347 203.288V203.381V203.475V203.663V204.038V204.789C144.347 205.258 144.347 205.822 144.347 206.291C144.347 207.323 144.347 208.356 144.347 209.294C144.347 211.265 144.347 213.33 144.347 215.207L144.16 215.019C157.205 215.019 168.562 215.113 176.727 215.113C180.763 215.113 184.047 215.207 186.3 215.207C187.426 215.207 188.271 215.207 188.928 215.207C189.209 215.207 189.397 215.207 189.585 215.207H189.679C189.679 215.207 189.585 215.207 189.491 215.207C189.303 215.207 189.116 215.207 188.834 215.207C188.271 215.207 187.332 215.207 186.3 215.207C184.047 215.207 180.763 215.207 176.727 215.301C168.562 215.301 157.111 215.395 144.066 215.395H143.878V215.207C143.878 213.236 143.878 211.265 143.878 209.294C143.878 208.262 143.878 207.229 143.878 206.291C143.878 205.822 143.878 205.258 143.878 204.789V204.038V203.663V203.475V203.381V203.288C144.347 202.818 143.972 203.194 144.16 203.1C162.836 203.1 179.355 203.194 189.773 203.194H189.96V203.381C189.96 207.229 189.866 210.233 189.866 212.297C189.866 213.33 189.866 214.081 189.866 214.644C189.866 214.925 189.866 215.113 189.866 215.207C189.679 215.113 189.679 215.207 189.679 215.207Z" fill="#E0E0E0"/>
<path d="M195.873 203.1C195.873 203.1 195.873 203.006 195.873 202.912C195.873 202.724 195.873 202.537 195.873 202.255C195.873 201.692 195.873 200.847 195.873 199.815C195.873 197.656 195.779 194.747 195.779 190.993L195.967 191.18C188.834 191.18 179.167 191.18 168.562 191.274C168.374 191.462 168.843 190.993 168.749 191.086V191.18V191.274V191.462V191.837V192.588C168.749 193.151 168.749 193.621 168.749 194.184C168.749 195.216 168.749 196.248 168.749 197.281C168.749 199.346 168.749 201.223 168.749 203.1L168.562 202.912C176.445 202.912 183.297 203.006 188.177 203.006C190.617 203.006 192.494 203.006 193.902 203.1C194.559 203.1 195.028 203.1 195.404 203.1C195.685 203.1 195.873 203.1 195.873 203.1C195.873 203.1 195.685 203.1 195.404 203.1C195.028 203.1 194.559 203.1 193.902 203.1C192.494 203.1 190.617 203.1 188.271 203.194C183.39 203.194 176.445 203.287 168.468 203.287H168.28V203.1C168.28 201.223 168.28 199.252 168.28 197.281C168.28 196.248 168.28 195.216 168.28 194.184C168.28 193.621 168.28 193.151 168.28 192.588V191.837V191.462V191.274V191.18V191.086C168.186 191.18 168.749 190.617 168.562 190.899C179.261 190.899 188.928 190.993 195.967 190.993H196.155V191.18C196.155 194.934 196.061 197.938 196.061 200.096C196.061 201.129 196.061 201.88 196.061 202.443C195.873 202.818 195.873 203.1 195.873 203.1Z" fill="#E0E0E0"/>
<path d="M255.284 142.632C255.937 142.697 282.74 142.538 282.74 142.538C282.74 142.538 286.051 132.022 286.237 129.211C286.423 126.4 286.304 107.713 286.304 107.713L296.669 104.029C296.669 104.029 305.473 150.085 302.206 153.532C298.938 156.98 293.196 159.709 292.72 159.755C292.253 159.709 265.92 168.403 248.94 160.864C232.071 153.147 255.284 142.632 255.284 142.632Z" fill="#FFBF9D"/>
<path d="M225.437 168.562C229.379 172.41 236.136 175.694 247.399 172.879C269.736 167.341 286.442 162.555 293.106 158.988C299.769 155.422 297.141 139.467 297.704 138.81C299.394 136.651 297.517 131.959 295.17 131.208C288.319 129.143 276.494 129.988 275.837 130.551C272.364 134.211 275.555 138.716 275.555 138.716L246.179 142.564C246.179 142.564 241.017 142.189 235.386 143.221" fill="#BAA2A3"/>
<path d="M235.292 143.315C235.292 143.315 235.573 143.221 236.042 143.127C236.512 143.033 237.169 142.939 238.107 142.846C239.984 142.658 242.612 142.376 246.085 142.47C253.124 141.532 263.26 140.124 275.461 138.528L275.273 138.81C274.335 137.402 273.772 135.713 273.959 134.023C274.053 133.179 274.335 132.24 274.804 131.489C274.992 131.114 275.367 130.738 275.649 130.457C275.743 130.363 275.93 130.269 276.024 130.269L276.4 130.175C276.587 130.081 276.869 130.081 277.057 130.081C280.623 129.612 284.283 129.612 288.037 129.894C289.915 129.988 291.792 130.269 293.763 130.645C294.232 130.738 294.701 130.926 295.17 131.02C295.64 131.208 296.109 131.489 296.484 131.771C297.235 132.428 297.798 133.366 298.174 134.305C298.549 135.243 298.737 136.276 298.549 137.402C298.455 137.965 298.268 138.434 297.986 138.904C297.892 138.998 297.892 139.279 297.892 139.467V140.218C297.986 142.189 298.08 144.253 297.986 146.318C297.892 149.228 297.611 152.231 296.578 154.953C296.015 156.267 295.264 157.581 294.138 158.519C293.575 158.988 292.918 159.27 292.261 159.645C291.604 160.021 290.947 160.209 290.384 160.49C287.85 161.616 285.222 162.461 282.688 163.306C280.154 164.15 277.62 164.901 275.18 165.652C265.325 168.468 256.409 170.72 248.994 172.597C247.117 173.067 245.334 173.442 243.551 173.724C241.861 173.911 240.172 174.099 238.67 174.005C235.573 173.911 232.945 173.254 230.974 172.316C229.003 171.471 227.596 170.439 226.751 169.688C225.906 168.937 225.531 168.468 225.531 168.468C225.531 168.468 226 168.843 226.845 169.594C227.689 170.251 229.097 171.283 231.068 172.128C233.039 172.973 235.667 173.63 238.67 173.724C240.172 173.817 241.861 173.63 243.551 173.442C245.24 173.16 247.023 172.785 248.9 172.316C256.409 170.439 265.325 168.092 275.086 165.277C277.526 164.526 280.06 163.775 282.594 162.93C285.128 162.086 287.662 161.147 290.196 160.115C290.853 159.833 291.51 159.552 292.073 159.27C292.73 158.988 293.293 158.707 293.856 158.238C294.889 157.393 295.64 156.173 296.109 154.859C297.141 152.231 297.423 149.322 297.517 146.412C297.611 144.347 297.517 142.282 297.423 140.312V139.561C297.423 139.467 297.423 139.279 297.423 139.185C297.423 139.091 297.423 139.091 297.423 138.998C297.423 138.904 297.423 138.904 297.517 138.81V138.716C297.798 138.341 297.892 137.871 297.986 137.402C298.08 136.464 297.986 135.525 297.611 134.586C297.235 133.742 296.766 132.803 296.109 132.24C295.734 131.959 295.358 131.677 294.983 131.583C294.513 131.489 294.044 131.302 293.575 131.208C291.698 130.832 289.821 130.551 287.944 130.457C284.189 130.175 280.529 130.269 277.057 130.645C276.869 130.645 276.587 130.738 276.4 130.738L276.118 130.832C276.024 130.832 276.024 130.832 275.93 130.926C275.649 131.208 275.367 131.583 275.18 131.959C274.71 132.616 274.429 133.46 274.429 134.305C274.335 135.9 274.804 137.59 275.649 138.81L275.836 139.091H275.555C263.354 140.687 253.124 142.001 246.179 142.846C242.706 142.658 239.984 142.846 238.201 143.033C237.263 143.127 236.606 143.221 236.136 143.315C235.479 143.221 235.292 143.315 235.292 143.315Z" fill="#263238"/>
<path d="M20.6479 360.117L3.75421 383.017L32.1919 404.135C34.069 401.319 23.3697 384.894 23.3697 384.894L34.726 370.723L20.6479 360.117Z" fill="#C6B1B2"/>
<path d="M15.4859 377.198C14.829 376.917 13.9843 377.292 13.7027 377.949C13.4211 378.606 13.7966 379.451 14.4535 379.733C15.1105 380.014 16.1429 379.639 16.3306 378.982C16.5183 378.325 16.0491 377.292 15.3921 377.198" fill="white"/>
<path d="M3.66034 383.111L5.44356 380.671L32.0042 402.07C32.0042 402.07 32.8489 403.571 32.0042 404.322L3.66034 383.111Z" fill="#170203"/>
<path d="M23.9328 385.176C23.839 385.27 23.0881 384.895 22.0557 384.801C21.0233 384.707 20.2725 385.082 20.1787 384.895C20.0848 384.801 20.9295 384.144 22.1496 384.238C23.3697 384.238 24.0267 385.082 23.9328 385.176Z" fill="#170203"/>
<path d="M25.9976 388.555C25.9037 388.742 25.1529 388.461 24.2143 388.742C23.2758 388.93 22.7127 389.493 22.6188 389.399C22.4311 389.306 22.9942 388.461 24.1205 388.179C25.2467 387.898 26.0914 388.461 25.9976 388.555Z" fill="#170203"/>
<path d="M25.059 393.435C24.8713 393.341 25.2467 392.497 26.1853 392.027C27.1238 391.558 27.9685 391.746 27.9685 391.84C27.9685 392.027 27.2177 392.121 26.4669 392.497C25.6222 392.966 25.1529 393.529 25.059 393.435Z" fill="#170203"/>
<path d="M26.1853 381.61C25.9976 381.704 25.5283 381.047 24.6836 380.483C23.839 379.92 23.0881 379.733 23.0881 379.545C23.0881 379.357 24.0267 379.357 25.0591 379.92C25.9976 380.671 26.2792 381.516 26.1853 381.61Z" fill="#170203"/>
<path d="M89.2551 264.292C89.7244 267.202 90.569 291.604 91.1322 304.462C91.6953 317.32 90.3813 323.702 88.8797 326.611C87.378 329.521 31.8165 370.441 27.5931 380.296L13.515 368.939C13.515 368.939 34.1629 331.867 42.9851 325.11C51.8074 318.352 68.7011 312.158 68.7011 312.158L63.9145 241.58L87.0026 240.36L89.2551 264.292Z" fill="#170203"/>
<path d="M37.6354 382.736L37.3539 411.174L72.7368 411.643C72.549 408.264 54.3414 401.225 54.3414 401.225L55.2799 383.017L37.6354 382.736Z" fill="#C6B1B2"/>
<path d="M43.4543 399.63C42.7973 399.817 42.3281 400.568 42.4219 401.225C42.6096 401.882 43.3605 402.445 44.0174 402.258C44.6744 402.07 45.3314 401.225 45.0498 400.474C44.8621 399.817 43.9236 399.254 43.2666 399.63" fill="white"/>
<path d="M37.3539 411.267V408.264L71.3289 410.047C71.3289 410.047 72.9245 410.798 72.7368 411.831L37.3539 411.267Z" fill="#170203"/>
<path d="M54.9984 401.131C54.9984 401.319 54.1537 401.413 53.309 401.882C52.4643 402.445 51.995 403.102 51.8073 403.102C51.6196 403.102 51.9012 402.07 52.9336 401.413C53.966 400.756 54.9984 400.944 54.9984 401.131Z" fill="#170203"/>
<path d="M58.6586 402.727C58.6586 402.914 57.9078 403.196 57.3447 403.947C56.6877 404.698 56.5939 405.449 56.4061 405.449C56.2184 405.449 56.1246 404.416 56.8754 403.571C57.6262 402.633 58.6586 402.539 58.6586 402.727Z" fill="#170203"/>
<path d="M60.7234 407.138C60.5357 407.138 60.348 406.293 60.8173 405.355C61.2866 404.416 62.1312 404.041 62.1312 404.228C62.2251 404.416 61.662 404.885 61.2866 405.636C60.9111 406.387 60.9111 407.138 60.7234 407.138Z" fill="#170203"/>
<path d="M54.7168 396.908C54.6229 397.095 53.8721 396.814 52.8397 396.908C51.9012 396.908 51.0565 397.283 50.9626 397.095C50.8688 397.002 51.6196 396.345 52.7459 396.251C53.966 396.251 54.8107 396.814 54.7168 396.908Z" fill="#170203"/>
<path d="M91.7891 237.356C91.7891 239.046 94.5109 281.092 80.7143 311.501C80.7143 311.501 75.9278 320.98 75.0831 325.204C74.2384 329.333 56.4062 398.316 56.4062 398.316L35.8522 397.565C35.8522 397.565 32.5673 363.027 35.8522 343.036C39.2309 323.045 45.2376 325.391 45.2376 312.439C45.2376 299.488 42.1404 272.739 42.1404 272.739C42.1404 272.739 37.6354 265.419 36.1338 251.247C34.9137 239.703 40.2633 227.408 40.2633 227.408L45.613 217.929L90.9444 215.582L91.7891 237.356Z" fill="#170203"/>
<path d="M91.7891 237.356C91.7891 237.356 91.7891 236.887 91.7891 235.948C91.7891 235.01 91.6952 233.602 91.6952 231.725C91.6014 227.971 91.5075 222.527 91.3198 215.488V215.394H91.226C80.0574 215.958 64.5715 216.708 45.8946 217.741H45.8007L45.7069 217.835C44.0175 220.744 42.2343 224.029 40.3572 227.314C39.0432 230.599 37.917 234.071 37.1662 237.732C36.3215 241.392 35.9461 245.24 36.0399 249.182C36.3215 253.124 36.8846 257.066 37.917 261.101C38.9494 265.043 40.1695 269.079 42.2343 272.927V272.833C42.9851 279.872 43.7359 287.099 44.299 294.607C44.5806 298.361 44.8622 302.115 45.0499 305.963C45.1437 307.841 45.2376 309.811 45.2376 311.782C45.2376 312.721 45.2376 313.753 45.1437 314.692C45.0499 315.63 44.956 316.663 44.7683 317.601C44.3929 319.478 43.7359 321.355 42.7974 323.139C41.8588 324.922 40.8265 326.611 39.9818 328.488C38.1985 332.149 37.0723 336.091 36.3215 340.126C34.726 348.198 34.3505 356.551 34.2567 364.998C34.2567 376.166 34.8198 387.147 35.6645 397.752V397.94H35.8522C42.8912 398.222 49.7426 398.409 56.4062 398.691H56.5939L56.6878 398.503C62.6005 375.415 68.2318 353.829 73.1122 334.401C73.6753 331.961 74.3323 329.615 74.8954 327.174C75.177 325.954 75.3647 324.828 75.7401 323.702C76.1155 322.576 76.4909 321.449 76.9602 320.417C77.8049 318.258 78.8373 316.1 79.7758 314.035C80.0574 313.566 80.2451 313.002 80.5266 312.533C80.8082 312.064 80.9959 311.501 81.1836 311.032C81.6529 309.999 82.0283 308.967 82.4037 307.934C85.6886 299.769 87.5657 291.792 88.8796 284.565C91.5075 270.017 91.883 258.192 91.9768 250.12C92.1645 241.767 91.7891 237.356 91.7891 237.356C91.7891 237.356 91.7891 237.638 91.7891 238.201C91.7891 238.764 91.7891 239.515 91.883 240.641C91.9768 242.706 91.9768 245.897 91.883 249.933C91.6952 258.004 91.3198 269.83 88.6919 284.377C87.378 291.604 85.407 299.581 82.1221 307.653C81.7467 308.685 81.2775 309.718 80.902 310.75C80.7143 311.313 80.4328 311.782 80.2451 312.252C79.9635 312.721 79.7758 313.284 79.4942 313.753C78.5557 315.818 77.5233 317.883 76.6786 320.135C76.2094 321.262 75.8339 322.388 75.4585 323.514C75.0831 324.64 74.8954 325.86 74.6138 327.081C74.0507 329.427 73.3937 331.867 72.8306 334.213C67.8564 353.641 62.319 375.228 56.3123 398.316L56.5939 398.128C49.9303 397.846 43.0789 397.659 36.0399 397.377L36.3215 397.565C35.3829 386.959 34.8198 376.072 34.9137 364.904C35.0075 356.457 35.2891 348.104 36.9784 340.126C37.8231 336.091 38.9494 332.243 40.6387 328.582C41.4834 326.799 42.5158 325.016 43.4544 323.233C44.3929 321.449 45.1437 319.572 45.4253 317.601C45.613 316.663 45.7069 315.63 45.8007 314.692C45.8007 313.753 45.8946 312.721 45.8946 311.782C45.8946 309.811 45.8007 307.934 45.7069 305.963C45.5191 302.115 45.2376 298.361 44.956 294.607C44.299 287.099 43.6421 279.872 42.7974 272.833V272.739C40.7326 269.079 39.5125 265.043 38.4801 261.101C37.5416 257.159 36.8846 253.124 36.603 249.276C36.5092 245.428 36.8846 241.58 37.7293 237.919C38.4801 234.259 39.6064 230.787 40.9203 227.595C42.7974 224.311 44.5806 221.026 46.27 218.116L46.0823 218.21C64.7592 217.178 80.2451 216.333 91.4137 215.77L91.3198 215.676C91.5075 222.715 91.6952 228.159 91.7891 231.913C91.883 233.79 91.883 235.198 91.9768 236.136C91.7891 236.887 91.7891 237.356 91.7891 237.356Z" fill="#C6B1B2"/>
<path d="M77.0541 151.292C77.0541 151.292 64.8531 149.134 65.9793 164.807C66.7301 174.193 69.4519 190.336 70.9536 200.566C71.5167 204.132 72.6429 210.514 77.3356 214.174L111.029 237.45L121.635 224.78L91.6014 196.155L86.9087 167.811L77.0541 151.292Z" fill="#C6B1B2"/>
<path d="M78.5557 94.6985C82.4037 97.7957 84.6562 102.864 84.2808 107.744C84.0931 110.184 83.4361 112.906 85.0317 114.689C86.5333 116.473 89.6305 116.473 91.1322 118.35C92.9154 120.508 91.4137 123.793 92.0707 126.515C92.6338 129.049 95.3556 130.926 97.9835 130.645C94.8863 133.179 91.1322 134.774 87.2842 135.337C86.2518 134.023 85.3132 132.803 84.2808 131.489C85.4071 132.803 85.1255 134.962 83.9993 136.37C82.873 137.777 81.1836 138.528 79.4943 138.998C71.4228 141.532 62.2252 140.03 55.3738 135.056" fill="#170203"/>
<path d="M33.412 115.909C33.9752 114.032 35.0076 112.343 35.383 110.466C36.2277 106.43 34.2567 101.831 36.2277 98.1711C37.6355 95.5431 40.6388 94.323 43.4544 93.3845C46.27 92.5398 49.2733 91.789 51.432 89.7242C52.9336 88.2225 53.8722 86.0639 55.3738 84.5622C57.5325 82.4036 60.8174 81.6528 63.9145 81.4651C67.1056 81.2774 70.3905 81.5589 73.2061 82.9667C76.0217 84.3745 78.4619 87.0024 78.9312 90.0996C79.2127 91.6013 79.025 93.1968 79.4943 94.6985C80.0574 96.294 81.2775 97.6079 82.1222 99.1096C83.8116 102.301 82.873 106.618 80.0574 108.87L58.2833 136.933C53.6845 138.622 42.6097 136.557 39.1371 133.179C35.6645 129.894 31.9104 120.508 33.412 115.909Z" fill="#170203"/>
<path d="M79.4942 105.304C78.5557 98.9219 73.7692 91.4136 67.3871 92.5398L47.8655 99.1096C45.8946 99.485 47.3024 102.582 47.4901 104.553L51.7135 148.664C51.7135 148.664 49.0856 150.541 48.1471 150.166C47.8655 150.072 47.6778 150.354 47.8655 150.541C50.2119 153.92 61.2866 168.843 72.7368 164.338C75.2708 163.306 72.4552 155.234 72.7368 152.325L72.3614 144.723C72.0798 140.875 71.9859 139.279 71.9859 139.279C71.9859 139.279 80.0574 137.308 80.9021 126.515C81.4652 121.071 80.5266 112.343 79.4942 105.304Z" fill="#FFBF9D"/>
<path d="M78.1803 115.159C78.2742 115.909 77.7111 116.566 76.9602 116.66C76.2094 116.754 75.5524 116.285 75.4586 115.534C75.3647 114.783 75.9278 114.126 76.6787 114.032C77.4295 113.938 78.0865 114.408 78.1803 115.159Z" fill="#170203"/>
<path d="M64.8531 115.909C64.9469 116.66 64.3838 117.317 63.633 117.411C62.8822 117.505 62.2252 117.036 62.1313 116.285C62.0375 115.534 62.6006 114.877 63.3514 114.783C64.1023 114.689 64.7592 115.252 64.8531 115.909Z" fill="#170203"/>
<path d="M78.6496 110.56C78.4619 110.841 77.2418 109.997 75.6463 110.278C74.0507 110.466 73.0184 111.592 72.8306 111.404C72.7368 111.311 72.8306 110.841 73.2999 110.372C73.7692 109.903 74.52 109.34 75.5524 109.152C76.5848 109.058 77.4295 109.34 77.9926 109.715C78.4619 110.091 78.7434 110.466 78.6496 110.56Z" fill="#170203"/>
<path d="M64.29 111.78C64.1022 111.968 62.8821 111.123 61.0989 111.217C59.4096 111.217 58.1895 112.249 58.0017 112.061C57.9079 111.968 58.0956 111.592 58.6587 111.123C59.2218 110.654 60.0665 110.184 61.1928 110.184C62.2252 110.184 63.1637 110.56 63.7268 110.935C64.1961 111.311 64.3838 111.686 64.29 111.78Z" fill="#170203"/>
<path d="M69.7335 121.916C69.7335 121.822 70.5781 121.635 72.0798 121.259C72.4552 121.165 72.8306 121.071 72.8306 120.79C72.9245 120.508 72.7368 120.133 72.4552 119.664C71.986 118.819 71.6105 117.88 71.1413 116.848C69.2642 112.906 67.9502 109.621 68.0441 109.527C68.2318 109.434 69.8273 112.625 71.7044 116.566C72.1737 117.505 72.5491 118.443 73.0183 119.382C73.2061 119.757 73.4876 120.227 73.2999 120.884C73.2061 121.165 72.9245 121.353 72.7368 121.447C72.4552 121.541 72.2675 121.541 72.0798 121.541C70.672 121.916 69.7335 122.01 69.7335 121.916Z" fill="#170203"/>
<path d="M72.0798 139.279C72.0798 139.279 64.9469 140.311 57.4386 136.557C57.4386 136.557 61.5682 143.784 72.2675 142.001L72.0798 139.279Z" fill="#FF9A6C"/>
<path d="M65.2285 126.233C65.4162 125.858 65.6039 125.576 65.9793 125.295C66.3548 125.107 66.824 125.107 67.2933 125.201C67.9503 125.295 68.5134 125.576 68.9827 126.046C69.4519 126.515 69.6396 127.172 69.3581 127.829C69.1704 128.486 68.2318 128.767 67.6687 128.861C67.0117 128.955 66.3548 128.767 65.7916 128.486C65.3224 128.204 64.8531 127.829 64.8531 127.266C64.8531 126.89 65.0408 126.515 65.2285 126.233Z" fill="#FF9A6C"/>
<path d="M69.4673 128.952C69.1884 128.99 68.8784 127.422 67.3432 126.591C65.7151 125.772 64.0797 126.281 64.0542 126.095C64.0414 126.002 64.3751 125.672 65.0259 125.583C65.757 125.388 66.8054 125.433 67.7188 125.876C68.645 126.412 69.2248 127.185 69.4071 127.823C69.6825 128.449 69.5603 128.939 69.4673 128.952Z" fill="#170203"/>
<path d="M64.1961 106.055C64.1023 106.43 62.6006 106.43 60.9112 106.712C59.2219 106.993 57.8141 107.65 57.5325 107.275C57.4387 107.087 57.6264 106.712 58.1895 106.242C58.7526 105.773 59.5973 105.398 60.6297 105.21C61.6621 105.022 62.6006 105.116 63.2576 105.304C63.9146 105.492 64.1961 105.773 64.1961 106.055Z" fill="#170203"/>
<path d="M77.711 105.21C77.4295 105.585 76.2094 105.304 74.8954 105.398C73.4876 105.492 72.3614 105.867 72.0798 105.492C71.9859 105.304 72.0798 105.022 72.6429 104.647C73.1122 104.272 73.9569 103.99 74.8954 103.896C75.834 103.802 76.6786 104.084 77.2418 104.365C77.711 104.741 77.8987 105.022 77.711 105.21Z" fill="#170203"/>
<path d="M43.5482 100.611C44.5806 99.1095 46.27 98.2649 47.9594 97.7017C55.28 94.8861 62.8821 92.9152 70.5781 91.9767C71.5167 93.5722 70.672 95.7308 69.1703 96.8571C67.6687 97.9833 65.8855 98.4526 64.1022 99.1095C62.319 99.7665 60.5358 100.799 59.8788 102.488C59.128 104.272 59.785 106.43 59.128 108.307C58.0017 111.498 53.4967 112.531 52.3705 115.722C51.5258 118.162 52.9336 120.696 53.309 123.324C53.6845 126.233 52.6521 129.237 50.4934 131.301C48.8041 132.897 46.5516 133.742 44.2052 133.835C43.6421 124.638 43.1728 115.44 42.6097 106.242C42.6097 104.365 42.5159 102.301 43.5482 100.611Z" fill="#170203"/>
<path d="M25.059 123.887C26.4668 122.573 28.3439 121.447 28.907 119.57C29.7517 116.848 27.5931 113.657 29.0009 111.217C30.3148 108.964 34.069 109.058 35.1953 106.806C36.1338 105.022 35.1014 103.427 35.383 101.831C35.7584 100.236 38.0109 98.8281 39.6064 99.0158L52.1828 117.223C53.309 123.324 54.5291 126.609 53.2152 130.175C52.4644 132.146 51.5258 134.023 51.2443 136.088C50.9627 138.153 51.5258 140.499 53.2152 141.719C45.7069 142.282 38.6678 138.341 32.1919 134.586C29.9394 133.272 27.5931 131.865 25.3406 130.551C24.5898 130.175 23.8389 129.706 23.4635 128.955C22.4311 127.266 23.5574 125.201 25.059 123.887Z" fill="#170203"/>
<path d="M32.0042 132.709C32.0042 132.709 32.2858 132.803 32.8489 132.897C33.412 132.991 34.1629 132.991 35.1952 132.709C36.2276 132.428 37.3539 131.958 38.4801 130.926C39.5125 129.894 40.4511 128.392 40.6388 126.515C40.7326 125.576 40.6388 124.638 40.3572 123.605C40.0756 122.667 39.5125 121.728 38.9494 120.79C38.3863 119.851 37.8232 118.913 37.5416 117.88C37.26 116.848 37.26 115.628 37.917 114.689C38.574 113.751 39.8879 113.563 41.0142 113.094C41.5773 112.812 42.2343 112.531 42.6097 111.874C42.9851 111.311 43.1728 110.56 43.079 109.903C43.079 108.495 42.5158 107.275 42.2343 105.961C42.1404 105.304 42.0466 104.647 42.2343 104.084C42.422 103.427 42.7974 102.958 43.3605 102.582C44.4868 101.831 45.8007 101.644 47.1147 101.55C48.4286 101.456 49.8364 101.174 50.9627 100.424C52.0889 99.6727 53.0275 98.7342 53.5906 97.5141C54.1537 96.3878 54.3414 95.0739 54.5291 93.9476C54.7168 92.7275 54.9046 91.6013 55.28 90.5689C55.6554 89.5365 56.3124 88.5979 57.0632 87.941C58.5649 86.5331 60.4419 85.7823 62.2252 85.5946C64.0084 85.4069 65.6039 85.8762 66.824 86.5331C68.0441 87.1901 69.0765 88.0348 69.7335 88.6918C71.0474 90.1935 71.4228 91.3197 71.5167 91.2258C71.5167 91.2258 71.5167 91.132 71.4228 91.0381C71.329 90.9443 71.329 90.7566 71.1413 90.475C70.8597 90.0057 70.4843 89.3488 69.8273 88.5041C69.1703 87.7533 68.2318 86.9086 66.9178 86.1577C65.6039 85.5008 64.0084 84.9376 62.1313 85.1253C60.2542 85.2192 58.2833 86.0639 56.6878 87.5655C55.9369 88.3164 55.28 89.2549 54.8107 90.3812C54.4353 91.5074 54.2476 92.6337 54.0599 93.8538C53.8722 95.0739 53.6845 96.2001 53.1213 97.3263C52.5582 98.3587 51.7135 99.3911 50.5873 100.048C49.5549 100.705 48.2409 100.987 46.927 101.08C45.613 101.174 44.1114 101.268 42.8913 102.207C42.3281 102.582 41.8589 103.239 41.6712 103.99C41.4835 104.741 41.5773 105.398 41.6712 106.055C41.9527 107.369 42.5158 108.589 42.5158 109.903C42.5158 110.56 42.422 111.123 42.0466 111.592C41.6712 112.061 41.2019 112.437 40.6388 112.625C40.0756 112.906 39.5125 113 38.8555 113.281C38.2924 113.563 37.7293 113.845 37.3539 114.408C36.6031 115.44 36.6031 116.848 36.8846 117.974C37.1662 119.1 37.8232 120.039 38.3863 120.978C38.9494 121.916 39.5125 122.761 39.7941 123.699C40.0756 124.638 40.1695 125.576 40.0756 126.421C39.8879 128.204 39.0433 129.706 38.1047 130.644C37.0723 131.677 35.9461 132.146 35.0075 132.428C33.1305 133.085 32.0042 132.615 32.0042 132.709Z" fill="#C6B1B2"/>
<path d="M21.9618 119.757C21.9618 119.757 21.7741 119.945 21.6803 120.414C21.5864 120.79 21.5864 121.541 21.9618 122.291C22.1496 122.667 22.525 123.042 22.9004 123.324C23.3697 123.605 23.9328 123.793 24.4959 123.793C25.716 123.793 27.1238 123.042 27.7808 121.728C28.1562 121.071 28.3439 120.227 28.3439 119.476C28.3439 118.631 28.1562 117.786 27.7808 117.036C27.2177 115.44 26.0914 113.845 26.0914 111.968C26.0914 111.029 26.2791 110.09 26.9361 109.433C27.5931 108.777 28.6255 108.589 29.6579 108.589C30.6903 108.589 31.8165 108.683 32.9427 108.213C33.5059 108.026 33.9751 107.556 34.2567 107.087C34.5383 106.618 34.726 105.961 34.8198 105.398C34.9137 104.272 34.726 103.145 34.5383 102.019C34.3506 100.987 34.4444 99.9543 34.726 98.9219C35.2891 96.9509 36.603 95.2616 38.1986 94.323C39.7941 93.3845 41.6712 93.1968 43.3605 93.1029C45.0499 93.0091 46.7393 92.9152 48.1471 92.3521C49.5549 91.789 50.6811 91.0381 51.5258 90.1935C52.3705 89.3488 52.9336 88.5041 53.4029 87.8471C54.1537 86.4393 54.3414 85.5008 54.3414 85.5008C54.2476 85.5008 54.1537 86.4393 53.309 87.7533C52.9336 88.4102 52.2766 89.2549 51.432 90.0058C50.5873 90.7566 49.461 91.5074 48.1471 91.9767C46.8331 92.446 45.2376 92.5398 43.4544 92.6337C41.765 92.7275 39.7941 92.8214 38.1047 93.8538C36.4153 94.8862 35.0075 96.5755 34.4444 98.6403C34.1628 99.6727 34.069 100.799 34.2567 101.925C34.4444 103.051 34.6321 104.084 34.5383 105.116C34.4444 106.149 33.8813 107.181 32.9427 107.556C32.0042 107.932 30.878 107.838 29.8456 107.838C28.8132 107.838 27.5931 108.026 26.8422 108.777C26.0914 109.527 25.8099 110.654 25.9037 111.686C25.9037 112.718 26.1853 113.657 26.5607 114.502C26.9361 115.346 27.3115 116.097 27.5931 116.942C27.8746 117.693 28.1562 118.537 28.1562 119.288C28.1562 120.039 27.9685 120.79 27.6869 121.447C27.03 122.761 25.8099 123.418 24.6836 123.418C24.1205 123.418 23.6512 123.324 23.1819 123.042C22.8065 122.761 22.4311 122.479 22.2434 122.104C21.868 121.447 21.7741 120.79 21.868 120.321C21.868 120.039 21.9618 119.851 21.9618 119.757Z" fill="#170203"/>
<path d="M100.987 124.262C100.893 124.262 101.362 125.013 100.987 126.233C100.799 126.796 100.236 127.547 99.3913 127.829C98.5466 128.11 97.4204 127.923 96.6695 127.078C96.2941 126.703 96.1064 126.139 96.0126 125.483C96.0126 124.826 96.1064 124.262 96.2941 123.605C96.6695 122.291 97.5142 120.978 97.4204 119.288C97.3265 117.693 96.4818 116.003 95.1679 114.971C94.5109 114.408 93.6662 114.032 92.8215 113.751C91.9768 113.469 91.0383 113.375 90.1936 113.375C89.2551 113.375 88.4104 113.282 87.5657 113.094C86.721 112.906 85.9702 112.437 85.5009 111.874C85.0317 111.217 84.844 110.466 84.7501 109.621C84.6562 108.87 84.7501 108.026 84.9378 107.275C85.2194 105.773 85.6886 104.365 85.5948 102.864C85.5009 101.456 84.9378 100.142 84.2808 99.2034C83.53 98.2649 82.5915 97.6079 81.8406 97.1387C81.0898 96.6694 80.339 96.2001 79.8697 95.8247C78.8373 94.98 78.6496 94.2292 78.6496 94.2292V94.323C78.6496 94.4169 78.7434 94.5107 78.8373 94.6985C79.025 94.98 79.3066 95.4493 79.7758 95.9186C80.2451 96.3878 80.9021 96.8571 81.7468 97.3264C82.4976 97.8895 83.4361 98.4526 84.0931 99.3911C84.7501 100.33 85.2194 101.55 85.3132 102.864C85.4071 104.178 84.9378 105.586 84.5624 107.181C84.3747 107.932 84.2808 108.777 84.3747 109.621C84.4685 110.466 84.6562 111.311 85.2194 112.061C85.7825 112.812 86.6272 113.282 87.4719 113.469C88.3165 113.657 89.2551 113.751 90.1936 113.751C91.0383 113.751 91.9768 113.845 92.7277 114.126C93.5724 114.408 94.3232 114.783 94.8863 115.252C96.2003 116.285 96.9511 117.787 97.045 119.288C97.1388 120.79 96.388 122.104 96.0126 123.418C95.8249 124.075 95.6371 124.732 95.731 125.483C95.8249 126.139 96.0126 126.796 96.4818 127.266C97.3265 128.204 98.6405 128.392 99.579 128.017C100.518 127.641 100.987 126.89 101.175 126.233C101.362 125.576 101.362 125.013 101.268 124.732C101.081 124.45 100.987 124.262 100.987 124.262Z" fill="#170203"/>
<path d="M92.0707 197.844V187.426C93.1969 181.607 92.7277 174.662 90.0059 169.406C88.4104 166.309 84.844 161.335 83.53 159.458L73.2061 146.037C67.481 150.166 58.6587 147.163 50.9627 144.441C50.9627 144.441 43.4544 148.571 39.888 152.512C36.2277 156.642 48.8041 208.262 48.8041 208.262C43.079 219.712 35.7584 229.848 34.6321 240.266L94.3232 242.612L91.7891 215.207L92.0707 197.844Z" fill="#C6B1B2"/>
<path d="M91.226 215.488C91.226 215.488 91.1321 215.113 91.226 214.362C91.226 213.517 91.226 212.485 91.226 211.171C91.226 208.355 91.3198 204.695 91.4137 200.659C91.5075 196.53 91.6014 192.87 91.6952 190.148C91.7891 188.834 91.7891 187.708 91.883 186.957C91.9768 186.206 91.9768 185.831 92.0707 185.831C92.0707 185.831 92.1645 186.206 92.0707 186.957C92.0707 187.801 92.0707 188.834 92.0707 190.148C92.0707 192.963 91.9768 196.624 91.883 200.659C91.7891 204.789 91.6952 208.449 91.6014 211.171C91.5075 212.485 91.5075 213.611 91.4137 214.362C91.3198 215.113 91.226 215.488 91.226 215.488Z" fill="#170203"/>
<path d="M118.444 224.968C118.444 224.968 124.263 225.249 127.829 227.502C131.395 229.754 137.214 233.227 139.655 237.638C140.781 239.609 137.59 240.078 136.088 238.858C134.586 237.732 132.146 235.479 131.02 235.292C129.894 235.104 129.8 235.01 129.8 235.01C129.8 235.01 132.146 240.266 133.366 242.143C134.587 244.02 135.619 247.117 131.959 247.305C131.959 247.305 129.518 250.496 126.984 248.149C126.984 248.149 125.013 251.059 121.916 247.023C121.916 247.023 120.133 249.276 119.382 248.431C118.631 247.586 116.191 246.179 115.44 243.269C114.689 240.36 111.686 233.414 111.686 233.414L118.444 224.968Z" fill="#FFBF9D"/>
<path d="M273.772 83.9992C275.93 84.2807 278.183 82.6852 278.652 80.5266C279.121 78.3679 277.807 76.0216 275.743 75.3646C277.057 73.9568 277.432 71.7043 276.587 70.0149C275.743 68.3256 273.678 67.2932 271.801 67.5747C271.707 65.6977 270.581 63.8206 268.891 62.9759C267.202 62.0374 265.043 62.1312 263.448 63.0698C261.383 61.2865 258.004 61.1927 255.846 62.882C253.969 62.5066 251.998 63.539 251.153 65.1345C250.308 66.8239 250.59 68.9826 251.998 70.2965" fill="#170203"/>
<path d="M254.719 67.1993H255.658C265.513 67.1993 273.584 74.8015 274.335 84.5623C275.086 93.6661 275.743 103.708 275.649 108.589C275.461 118.725 265.419 120.227 265.419 120.227L266.263 132.334L241.768 131.489L239.703 87.4718C238.858 77.054 244.208 67.8563 254.719 67.1993Z" fill="#FFBF9D"/>
<path d="M265.513 120.227C265.513 120.227 259.037 120.602 252.279 116.285C252.279 116.285 255.564 123.887 265.606 123.042L265.513 120.227Z" fill="#FF9A6C"/>
<path d="M268.797 94.1354C268.797 94.8862 268.234 95.5432 267.39 95.5432C266.639 95.5432 265.888 94.9801 265.888 94.2293C265.888 93.4784 266.451 92.8214 267.296 92.8214C268.14 92.7276 268.797 93.2907 268.797 94.1354Z" fill="#170203"/>
<path d="M272.176 89.5366C271.989 89.7243 270.862 88.8797 269.361 88.8797C267.765 88.8797 266.639 89.6305 266.545 89.4428C266.451 89.3489 266.639 88.9735 267.108 88.6919C267.577 88.3165 268.422 87.9411 269.361 88.035C270.299 88.035 271.144 88.4104 271.613 88.7858C272.082 89.0674 272.27 89.4428 272.176 89.5366Z" fill="#170203"/>
<path d="M254.813 93.3846C254.813 94.1354 254.25 94.7924 253.405 94.7924C252.655 94.7924 251.904 94.2293 251.904 93.4785C251.904 92.7276 252.467 92.0706 253.312 92.0706C254.156 92.0706 254.813 92.6338 254.813 93.3846Z" fill="#170203"/>
<path d="M256.972 89.8182C256.784 90.0059 255.658 89.1612 254.156 89.1612C252.561 89.1612 251.434 89.912 251.341 89.7243C251.247 89.6305 251.434 89.2551 251.904 88.9735C252.373 88.5981 253.218 88.2227 254.156 88.3165C255.095 88.3165 255.939 88.6919 256.409 89.0674C256.878 89.3489 257.066 89.7243 256.972 89.8182Z" fill="#170203"/>
<path d="M262.509 101.268C262.509 101.175 263.448 100.987 265.043 100.799C265.419 100.799 265.794 100.705 265.888 100.424C265.982 100.142 265.794 99.6728 265.606 99.2036C265.231 98.265 264.856 97.2326 264.48 96.2003C262.885 91.883 261.665 88.3165 261.852 88.3165C262.04 88.2227 263.448 91.6953 265.137 96.0125C265.513 97.0449 265.888 98.0773 266.263 99.0159C266.451 99.4851 266.639 99.9544 266.451 100.611C266.357 100.893 266.076 101.081 265.794 101.175C265.513 101.268 265.325 101.268 265.137 101.268C263.542 101.362 262.509 101.362 262.509 101.268Z" fill="#170203"/>
<path d="M258.286 83.8115C258.098 84.1869 256.784 83.8115 255.095 83.7176C253.499 83.6238 252.091 83.9054 251.904 83.5299C251.81 83.3422 252.091 82.9668 252.748 82.6852C253.312 82.4037 254.25 82.1221 255.189 82.216C256.127 82.216 257.066 82.5914 257.535 82.9668C258.192 83.2484 258.38 83.6238 258.286 83.8115Z" fill="#170203"/>
<path d="M272.27 83.1546C271.988 83.53 270.675 83.1546 269.079 83.1546C267.577 83.0607 266.263 83.3423 265.888 82.9669C265.794 82.7792 265.982 82.4037 266.545 82.1222C267.108 81.7468 268.047 81.5591 269.079 81.5591C270.111 81.5591 271.05 81.9345 271.613 82.3099C272.27 82.5914 272.458 82.9669 272.27 83.1546Z" fill="#170203"/>
<path d="M273.396 79.9635C273.396 79.9635 270.768 73.6753 267.671 72.1736C264.011 70.3904 262.415 74.4261 258.849 73.3937C255.376 72.3613 251.81 70.6719 248.243 73.3937C244.302 76.397 246.179 78.4618 245.897 82.9668C244.865 101.174 241.486 106.243 240.641 97.7019C240.547 96.7633 237.92 96.0125 237.544 92.0706C237.075 86.9087 236.887 80.7143 238.013 77.054C238.952 73.9568 240.735 71.892 243.926 69.5457C248.9 65.8854 255.752 65.7915 260.351 66.2608C264.949 66.7301 273.866 72.0797 273.396 79.9635Z" fill="#170203"/>
<path d="M241.298 97.4203C241.204 95.8248 239.891 94.6047 238.389 94.7924C236.512 94.9801 234.447 96.0125 234.541 99.9544C234.729 106.9 241.674 105.21 241.674 105.023C241.58 104.835 241.392 100.33 241.298 97.4203Z" fill="#FFBF9D"/>
<path d="M239.984 102.395C239.984 102.395 239.89 102.488 239.703 102.582C239.515 102.676 239.14 102.77 238.764 102.582C238.013 102.301 237.356 101.175 237.356 99.9544C237.356 99.2974 237.45 98.7343 237.638 98.265C237.826 97.7958 238.107 97.4203 238.483 97.3265C238.858 97.2326 239.14 97.4203 239.233 97.6081C239.327 97.7958 239.327 97.9835 239.327 97.9835C239.327 97.9835 239.515 97.8896 239.421 97.6081C239.421 97.5142 239.327 97.3265 239.14 97.1388C238.952 97.0449 238.764 96.9511 238.483 96.9511C237.92 97.0449 237.45 97.5142 237.263 98.0773C236.981 98.6404 236.887 99.2974 236.887 100.048C236.981 101.456 237.732 102.676 238.764 102.958C239.233 103.052 239.609 102.958 239.89 102.77C239.984 102.582 239.984 102.395 239.984 102.395Z" fill="#FF9A6C"/>
<path d="M241.486 83.9991C242.425 84.6561 243.363 85.2192 244.396 85.3131C245.522 85.4069 246.742 84.8438 246.93 83.7176C247.023 83.2483 246.93 82.6852 247.211 82.3098C247.587 81.8405 248.244 82.0282 248.901 82.0282C250.871 82.2159 253.218 80.0573 253.781 78.0863C254.25 78.8372 255.376 79.1187 256.221 78.5556C256.972 78.0863 257.253 77.8048 257.91 77.054C258.474 76.397 259.412 75.74 260.257 75.8339C260.726 75.9277 261.289 76.2093 261.758 76.2093C262.697 76.1154 263.072 75.083 263.26 74.1445C263.354 73.2059 263.542 72.1736 264.293 71.7043C265.043 71.235 265.888 71.5166 266.733 71.6104C267.577 71.7043 268.61 71.5166 268.891 70.7657C268.985 70.2965 268.798 69.9211 268.61 69.5456C267.577 67.8563 265.231 67.1054 263.354 67.8563C262.697 65.6038 260.538 63.8206 258.192 63.539C255.846 63.2574 253.406 64.5714 252.185 66.6362C250.684 65.3222 248.619 64.7591 246.648 65.1345C244.771 65.6038 243.082 67.0116 242.331 68.7948C240.641 68.3255 238.764 68.9825 237.638 70.3903C236.606 71.7981 236.418 73.7691 237.263 75.2707C236.043 76.0216 234.916 77.2417 234.916 78.6495C234.916 80.0573 236.23 81.4651 237.638 81.0897C237.075 82.2159 237.544 83.7176 238.577 84.3746C239.609 85.0315 241.205 84.6561 241.861 83.6237" fill="#170203"/>
<path d="M263.635 70.0149C263.635 70.0149 263.635 70.0149 263.635 70.1087C263.635 70.2026 263.635 70.2965 263.635 70.4842C263.542 70.7657 263.448 71.235 263.166 71.7981C262.885 72.3612 262.322 72.9244 261.665 73.3936C260.914 73.8629 259.975 74.2383 258.849 74.2383L258.943 74.0506C259.131 74.6137 259.131 75.3646 258.755 75.9277C258.474 76.5847 258.004 77.0539 257.535 77.6171C257.253 77.8986 257.066 78.1802 256.784 78.3679C256.503 78.5556 256.127 78.7433 255.658 78.7433C254.907 78.8372 253.969 78.5556 253.405 77.8986L253.687 77.8048C253.499 79.2126 252.748 80.5265 251.434 81.3712C250.778 81.8405 249.933 82.122 249.182 82.122C248.337 82.122 247.68 81.8405 246.93 81.6528L247.117 81.5589C246.742 82.4036 246.179 83.1544 245.522 83.7176C244.865 84.2807 243.926 84.5622 243.082 84.3745C241.486 83.9991 240.36 82.6852 240.172 81.3712L240.36 81.4651C239.515 81.9343 238.67 81.9343 238.013 81.8405C237.263 81.7466 236.793 81.3712 236.324 81.0897C235.949 80.8081 235.667 80.4327 235.573 80.245C235.479 80.0573 235.385 79.8695 235.385 79.8695C235.385 79.8695 235.573 80.4327 236.418 80.9958C236.793 81.2774 237.356 81.5589 238.013 81.6528C238.67 81.7466 239.515 81.7466 240.266 81.2774L240.36 81.1835V81.3712C240.547 82.5913 241.58 83.8114 243.082 84.093C243.832 84.2807 244.583 83.9991 245.24 83.436C245.897 82.9667 246.46 82.2159 246.742 81.4651L246.836 81.3712H246.93C247.587 81.6528 248.337 81.8405 249.088 81.8405C249.839 81.8405 250.59 81.5589 251.153 81.1835C252.373 80.4327 253.03 79.1187 253.218 77.8048V77.5232L253.405 77.8048C253.875 78.3679 254.626 78.5556 255.376 78.5556C255.752 78.5556 256.033 78.3679 256.315 78.1802C256.596 77.9925 256.784 77.7109 257.066 77.4293C257.535 76.8662 258.004 76.397 258.192 75.8338C258.474 75.2707 258.567 74.6137 258.38 74.1445L258.286 73.9568H258.474C259.506 74.0506 260.444 73.6752 261.195 73.2059C261.946 72.7367 262.415 72.1735 262.697 71.7043C263.635 70.7657 263.635 70.0149 263.635 70.0149Z" fill="#C6B1B2"/>
<path d="M257.111 105.61C257.256 105.868 258.734 105.107 260.514 105.912C262.293 106.717 262.831 108.524 263.09 108.379C263.182 108.361 263.186 107.883 262.952 107.163C262.626 106.461 261.971 105.536 260.925 105.068C259.879 104.6 258.738 104.628 258.11 104.844C257.391 105.078 257.075 105.425 257.111 105.61Z" fill="#170203"/>
<path d="M314.598 369.033L321.262 391.746C321.262 391.746 346.602 392.591 348.198 396.626L304.65 411.174L292.824 376.26L314.598 369.033Z" fill="#C6B1B2"/>
<path d="M307.09 394.374C306.339 394.843 306.057 396.063 306.527 396.814C306.996 397.565 308.122 397.846 308.967 397.377C309.718 396.908 310.093 395.5 309.53 394.749C308.967 393.998 307.559 393.811 306.996 394.468" fill="#E0E0E0"/>
<path d="M345.758 395.031C345.758 395.031 348.01 395.219 348.198 396.626L304.65 411.174L303.617 407.607L345.758 395.031Z" fill="#170203"/>
<path d="M321.825 391.277C321.919 391.464 320.886 391.934 320.042 392.966C319.197 393.998 319.009 395.125 318.728 395.031C318.54 395.031 318.446 393.717 319.385 392.403C320.511 391.277 321.825 391.089 321.825 391.277Z" fill="white"/>
<path d="M327.081 391.652C327.175 391.84 326.424 392.497 325.954 393.623C325.485 394.749 325.673 395.782 325.391 395.876C325.204 395.969 324.64 394.749 325.204 393.341C325.767 391.934 326.987 391.464 327.081 391.652Z" fill="white"/>
<path d="M331.492 396.251C331.304 396.345 330.647 395.406 330.835 394.092C331.023 392.778 331.867 391.934 331.961 392.121C332.149 392.215 331.68 393.06 331.586 394.186C331.492 395.312 331.68 396.157 331.492 396.251Z" fill="white"/>
<path d="M319.76 386.302C319.76 386.49 318.634 386.584 317.508 387.053C316.288 387.523 315.537 388.18 315.349 388.086C315.161 387.992 315.818 386.866 317.226 386.302C318.634 385.739 319.854 386.115 319.76 386.302Z" fill="white"/>
<path d="M212.861 369.221L203.381 390.901C203.381 390.901 222.246 407.795 220.838 412.018L178.135 395.125L191.556 360.774L212.861 369.221Z" fill="#C6B1B2"/>
<path d="M190.899 383.862C189.96 383.768 189.022 384.425 188.928 385.364C188.834 386.302 189.491 387.241 190.429 387.335C191.368 387.429 192.494 386.678 192.494 385.739C192.494 384.801 191.65 383.768 190.711 383.862" fill="#E0E0E0"/>
<path d="M220.087 409.203C220.087 409.203 221.683 410.798 220.932 412.018L178.228 395.125L179.73 391.746L220.087 409.203Z" fill="#170203"/>
<path d="M204.226 390.995C204.132 391.183 203.1 390.901 201.786 391.183C200.472 391.37 199.627 392.121 199.439 391.934C199.252 391.84 200.096 390.713 201.598 390.432C203.1 390.056 204.32 390.807 204.226 390.995Z" fill="white"/>
<path d="M207.886 394.655C207.886 394.843 206.854 394.843 205.728 395.5C204.695 396.063 204.132 396.908 203.851 396.908C203.663 396.908 203.944 395.594 205.352 394.843C206.76 393.998 207.98 394.374 207.886 394.655Z" fill="white"/>
<path d="M208.356 400.944C208.168 400.944 208.262 399.723 209.294 398.785C210.233 397.846 211.453 397.753 211.453 398.034C211.547 398.222 210.608 398.597 209.857 399.348C209.013 400.193 208.543 401.037 208.356 400.944Z" fill="white"/>
<path d="M205.822 385.833C205.634 386.021 204.789 385.364 203.569 384.895C202.349 384.519 201.317 384.519 201.223 384.331C201.129 384.144 202.349 383.674 203.757 384.144C205.258 384.613 205.915 385.645 205.822 385.833Z" fill="white"/>
<path d="M228.91 250.12L213.987 310.844C213.987 310.844 186.957 356.269 182.452 378.982L207.135 388.649C207.135 388.649 225.062 344.913 230.317 336.841C233.227 332.43 236.23 329.052 238.483 326.799C240.454 324.828 241.861 322.388 242.612 319.666L253.969 276.4L228.91 250.12Z" fill="#170203"/>
<path d="M222.528 240.454C222.528 240.454 224.592 256.69 240.266 263.917L273.209 317.601C273.209 317.601 275.837 335.058 280.811 349.793C285.785 364.435 295.734 392.872 295.734 392.872L322.857 382.736L305.588 323.702L302.773 303.242L275.837 234.729L252.748 220.838L222.528 240.454Z" fill="#170203"/>
<path d="M222.528 240.454C222.528 240.454 222.715 240.36 222.997 240.078C223.372 239.89 223.841 239.515 224.498 239.046C225.812 238.201 227.783 236.887 230.317 235.198C235.479 231.819 242.988 226.845 252.561 220.65H252.655H252.748C259.506 224.686 267.296 229.285 275.837 234.447H275.93V234.541C283.439 253.687 292.636 276.963 302.866 302.96C303.805 309.436 304.744 316.381 305.682 323.42C310.375 339.376 315.349 356.457 320.511 374.008C321.356 376.823 322.2 379.639 322.951 382.454L323.045 382.642L322.857 382.924C313.66 386.396 304.556 389.775 295.734 393.06L295.546 393.154L295.452 392.966C290.759 379.357 286.254 366.218 281.937 353.829C280.905 350.732 279.778 347.635 278.934 344.537C278.089 341.44 277.244 338.437 276.493 335.34C275.086 329.333 273.959 323.42 273.021 317.695V317.789C259.506 295.733 248.337 277.432 240.078 264.105L240.172 264.199C235.667 262.134 232.288 259.224 229.848 256.315C227.408 253.405 225.812 250.59 224.78 248.15C223.748 245.803 223.184 243.832 222.903 242.518C222.715 241.861 222.621 241.392 222.621 241.017C222.528 240.641 222.528 240.454 222.528 240.454C222.528 240.454 222.528 240.641 222.621 240.923C222.715 241.298 222.809 241.767 222.997 242.424C223.372 243.738 223.841 245.616 224.968 247.962C226 250.308 227.596 253.124 230.036 256.033C232.476 258.849 235.949 261.758 240.36 263.823C248.619 277.15 259.881 295.452 273.396 317.508C274.335 323.233 275.461 329.145 276.869 335.152C277.62 338.155 278.371 341.253 279.309 344.256C280.154 347.353 281.28 350.356 282.312 353.454C286.63 365.936 291.135 378.982 295.827 392.591L295.546 392.403C304.368 389.118 313.378 385.739 322.67 382.267L322.482 382.548C321.637 379.733 320.793 376.917 320.042 374.101C314.88 356.551 309.905 339.469 305.213 323.514C304.274 316.475 303.242 309.53 302.397 303.054V303.148C292.167 277.15 283.063 253.781 275.555 234.635L275.649 234.728C267.014 229.567 259.318 224.874 252.561 220.838H252.748C243.175 227.032 235.667 231.913 230.505 235.292C227.971 236.981 225.906 238.201 224.592 239.14C223.935 239.609 223.372 239.89 223.091 240.078C222.715 240.36 222.528 240.454 222.528 240.454Z" fill="#C6B1B2"/>
<path d="M236.981 124.45C236.981 124.45 229.097 130.551 225.249 137.308C220.65 145.473 220.181 157.487 219.993 176.258C219.9 193.62 222.434 198.407 221.495 204.883C219.524 217.647 218.116 260.444 218.116 260.444C218.116 260.444 243.457 250.684 248.337 246.366C253.312 242.049 253.312 242.049 253.312 242.049L285.034 252.561L278.652 213.611L274.241 164.995L268.61 139.185L267.671 129.049L240.36 118.256L236.981 124.45Z" fill="#C6B1B2"/>
<path d="M266.639 128.674C267.014 128.767 265.888 130.926 263.917 134.211L263.823 134.305L263.635 134.211C260.914 133.179 257.253 131.771 253.218 130.363C248.713 128.767 244.677 127.172 241.768 126.046C240.36 125.483 239.14 124.919 238.389 124.638C237.638 124.262 237.169 124.075 237.169 124.075C237.169 124.075 237.638 124.169 238.483 124.544C239.421 124.919 240.547 125.295 241.955 125.858C244.959 126.984 248.994 128.392 253.405 130.081C257.347 131.489 261.008 132.897 263.729 134.023L263.542 134.117C265.606 130.832 266.827 128.767 266.639 128.674Z" fill="#170203"/>
<path d="M345.27 101.228L340.481 107.354L320.399 69.959C318.123 65.4243 315.095 64.6434 313.235 63.9613C296.854 58.07 286.404 74.6621 292.689 86.3386L310.576 119.748L304.453 123.047L285.947 87.9751C283.84 84.0156 283.124 75.5786 284.85 71.4369C294.413 48.6547 319.43 52.9793 327.351 67.7613L345.27 101.228Z" fill="#F5F5F5"/>
<path d="M345.27 101.228C345.27 101.228 345.144 101 344.893 100.545C344.642 100.089 344.297 99.4631 343.827 98.6092C342.886 96.9013 341.594 94.4219 339.806 91.1769C338.05 87.9888 335.943 84.0293 333.49 79.4435C332.236 77.1664 330.944 74.687 329.533 72.1251C328.121 69.5633 326.843 66.7052 324.763 64.141C322.713 61.6337 320.007 59.4145 316.805 57.9133C316.42 57.7541 316.004 57.538 315.588 57.3219C315.147 57.194 314.762 57.0348 314.29 56.8501C313.432 56.5061 312.524 56.3388 311.672 56.1401C311.231 56.0122 310.764 55.9727 310.297 55.9332C309.829 55.8937 309.388 55.7658 308.921 55.7263C308.018 55.7042 307.053 55.5682 306.068 55.6657C304.148 55.6842 302.215 56.0814 300.345 56.5925C299.915 56.7551 299.428 56.9491 298.91 57.0861L298.221 57.3173C297.993 57.4428 297.734 57.5113 297.506 57.6367C297.051 57.8877 296.621 58.0503 296.165 58.3012C295.71 58.5521 295.286 58.86 294.887 59.0795C291.364 61.1694 288.467 64.3978 286.465 68.1724C285.492 70.044 284.822 72.1944 284.354 74.3077C283.917 76.4779 283.89 78.719 284.065 80.9229C284.272 83.1838 284.883 85.3703 285.753 87.4883C286.68 89.575 287.866 91.5931 288.938 93.6739C293.372 101.992 298.02 110.562 302.705 119.335C303.332 120.474 303.991 121.67 304.561 122.839L304.353 122.731C306.403 121.602 308.484 120.53 310.476 119.432L310.368 119.64C306.787 113.005 303.356 106.509 299.932 100.159C298.264 96.9961 296.57 93.9219 294.933 90.8163C294.086 89.2792 293.328 87.7676 292.512 86.2875C291.722 84.719 291.134 83.1134 290.837 81.4961C290.268 78.1734 290.684 74.753 292.077 71.7592C292.237 71.3746 292.396 70.9901 292.586 70.6625L293.215 69.6483C293.684 69.0186 294.122 68.332 294.68 67.7279C295.149 67.0983 295.77 66.608 296.359 66.0608C296.669 65.8157 296.979 65.5706 297.29 65.3255L297.771 64.9863L298.283 64.704C299.587 63.8374 300.99 63.2868 302.456 62.85C303.923 62.4133 305.4 62.267 306.884 62.2659C309.794 62.2951 312.677 63.0818 315.09 64.4982C316.337 65.1466 317.363 66.0656 318.358 66.9277C319.269 67.9095 320.124 68.9227 320.809 70.0299C320.966 70.3145 321.122 70.5992 321.336 70.8525C321.493 71.1371 321.65 71.4218 321.807 71.7064C322.12 72.2757 322.403 72.7881 322.716 73.3574C323.312 74.4391 323.908 75.5207 324.416 76.5768C326.68 80.821 328.724 84.6667 330.581 88.1708C334.293 95.179 337.216 100.619 339.166 104.294L339.078 104.268C341.159 103.196 342.696 102.349 343.721 101.784C344.233 101.502 344.575 101.314 344.859 101.157C345.156 101.291 345.27 101.228 345.27 101.228C345.27 101.228 345.156 101.291 344.928 101.416C344.7 101.542 344.302 101.761 343.789 102.043C342.765 102.608 341.228 103.455 339.178 104.584L339.121 104.615L339.09 104.558C337.171 100.94 334.16 95.4752 330.447 88.467C328.591 84.9629 326.458 81.0917 324.225 76.9044C323.661 75.8797 323.065 74.798 322.526 73.685C322.212 73.1157 321.93 72.6033 321.616 72.034C321.459 71.7494 321.302 71.4647 321.146 71.1801C320.989 70.8954 320.832 70.6108 320.618 70.3575C319.991 69.2189 319.11 68.2941 318.198 67.3123C317.204 66.4502 316.178 65.5311 315.019 64.9083C312.694 63.5175 309.843 62.7877 306.933 62.7585C305.48 62.8165 304.003 62.9628 302.593 63.3682C301.215 63.8305 299.724 64.3555 298.477 65.1908L297.965 65.4731L297.484 65.8123C297.173 66.0574 296.832 66.2456 296.553 66.5476C295.964 67.0948 295.4 67.5537 294.931 68.1834C294.43 68.7561 293.961 69.3858 293.523 70.0723L292.894 71.0866C292.704 71.4142 292.544 71.7987 292.385 72.1833C291.018 75.0888 290.627 78.4208 291.196 81.7436C291.493 83.3608 292.081 84.9665 292.84 86.478C293.655 87.9582 294.445 89.5267 295.261 91.0068C296.866 94.0555 298.591 97.1866 300.259 100.349C303.653 106.643 307.114 113.196 310.696 119.831L310.79 120.002L310.619 120.096C308.626 121.193 306.546 122.266 304.496 123.395L304.325 123.489L304.231 123.318C303.604 122.18 302.945 120.984 302.375 119.814C297.69 111.041 293.042 102.47 288.608 94.1526C287.536 92.0717 286.35 90.0536 285.391 87.91C284.521 85.792 283.936 83.5172 283.729 81.2564C283.523 78.9955 283.606 76.723 284.043 74.5528C284.48 72.3826 285.182 70.2891 286.18 68.3292C288.208 64.4664 291.161 61.2065 294.685 59.1167C295.141 58.8658 295.565 58.5579 296.02 58.307L297.62 57.574C297.936 57.4741 298.221 57.3173 298.537 57.2174L299.915 56.7551C300.117 56.7179 300.345 56.5925 300.547 56.5553C302.36 56.0756 304.18 55.7411 306.011 55.6971C306.996 55.5995 307.961 55.7355 308.864 55.7577C309.331 55.7972 309.829 55.8937 310.297 55.9332C310.795 56.0296 311.262 56.0692 311.672 56.1401C312.555 56.3957 313.464 56.5631 314.321 56.907C314.762 57.0348 315.178 57.251 315.62 57.3788C316.004 57.538 316.42 57.7541 316.836 57.9702C320.069 59.5284 322.833 61.7162 324.914 64.2804C326.994 66.8446 328.272 69.7027 329.715 72.3215C331.069 74.9147 332.418 77.3627 333.616 79.6713C336.068 84.257 338.175 88.2165 339.875 91.436C341.574 94.6554 342.954 97.1603 343.807 98.8427C344.277 99.6966 344.622 100.323 344.816 100.81C345.175 101.057 345.27 101.228 345.27 101.228Z" fill="#E0E0E0"/>
<path d="M366.508 122.402L310.77 152.294L285.532 105.272L341.099 75.4742C342.295 74.8155 343.739 75.2815 344.397 76.477L367.377 119.4C368.03 120.45 367.59 121.806 366.508 122.402Z" fill="#E0E0E0"/>
<path d="M358.848 126.548L310.6 152.388C309.29 153.109 307.613 152.623 306.891 151.314L284.199 109.049C283.509 107.796 284.026 106.176 285.279 105.486L334.154 79.3007C335.406 78.6107 337.027 79.1278 337.717 80.3802L360.158 122.19C361.005 123.727 360.385 125.701 358.848 126.548Z" fill="#EBEBEB"/>
<path d="M327.551 107.725C325.6 104.05 320.921 102.695 317.251 104.791C313.81 106.761 312.563 111.232 314.388 114.68C315.994 117.728 319.366 119.135 322.569 118.484L323.11 129.837L334.513 124L326.13 116.596C328.424 114.294 329.125 110.716 327.551 107.725Z" fill="#E0E0E0"/>
<path d="M359.336 120.565C359.28 120.596 354.851 112.424 349.445 102.341C344.095 92.2274 339.781 83.9924 339.838 83.961C339.895 83.9296 344.323 92.102 349.73 102.184C355.136 112.267 359.45 120.502 359.336 120.565Z" fill="#FAFAFA"/>
<path d="M324.881 86.042C324.912 86.099 317.802 90.1648 308.978 95.0264C300.154 99.8879 292.949 103.783 292.918 103.726C292.886 103.669 299.997 99.6033 308.821 94.7417C317.645 89.8801 324.818 85.9282 324.881 86.042Z" fill="white"/>
<path d="M316.079 118.423C316.079 118.423 315.903 118.372 315.575 118.181C315.248 117.991 314.857 117.686 314.373 117.211C313.435 116.318 312.412 114.729 312.072 112.765C311.731 110.8 312.154 109.009 312.689 107.824C312.956 107.231 313.229 106.784 313.451 106.513C313.673 106.243 313.812 106.092 313.812 106.092C313.844 106.149 313.343 106.721 312.897 107.932C312.419 109.085 312.053 110.846 312.362 112.753C312.728 114.63 313.632 116.135 314.512 117.06C315.45 117.954 316.105 118.335 316.079 118.423Z" fill="white"/>
<path d="M320.335 120.086C320.309 120.174 319.874 120.192 319.293 120.215C318.681 120.181 318.271 120.11 318.265 119.965C318.29 119.877 318.726 119.859 319.307 119.836C319.894 119.958 320.361 119.998 320.335 120.086Z" fill="white"/>
<path d="M294.969 61.1127C294.969 61.1127 294.601 61.3892 293.981 61.8794C293.361 62.3696 292.43 63.105 291.366 64.1366C289.294 66.1685 286.959 69.6072 285.996 73.9221C285.034 78.2369 285.752 82.3683 286.702 85.0358C287.164 86.4138 287.672 87.4699 288.08 88.21C288.456 88.8931 288.676 89.2916 288.676 89.2916C288.676 89.2916 288.613 89.1778 288.462 89.0383C288.368 88.8676 288.154 88.6143 287.966 88.2727C287.501 87.564 286.994 86.5079 286.474 85.1613C285.436 82.4682 284.687 78.2799 285.675 73.8767C286.662 69.4736 289.055 66.0035 291.215 63.9972C292.279 62.9656 293.21 62.2302 293.861 61.7969C294.172 61.5518 294.456 61.3949 294.627 61.3008C294.855 61.1754 294.969 61.1127 294.969 61.1127Z" fill="white"/>
<path d="M291.151 94.4583C291.094 94.4897 290.629 93.781 290.096 92.8132C289.594 91.9023 289.269 91.0425 289.326 91.0112C289.383 90.9798 289.848 91.6885 290.381 92.6563C290.914 93.6241 291.208 94.427 291.151 94.4583Z" fill="white"/>
<path d="M157.017 290.463L150.46 294.641L144 252.689C143.368 247.655 140.774 245.909 139.248 244.645C125.77 233.627 110.384 245.784 112.414 258.888L118.133 296.35L111.26 297.418L105.512 258.182C104.846 253.746 106.986 245.554 109.994 242.225C126.609 223.937 148.75 236.358 151.288 252.936L157.017 290.463Z" fill="#F5F5F5"/>
<path d="M157.017 290.463C157.017 290.463 156.975 290.206 156.89 289.693C156.806 289.18 156.689 288.475 156.531 287.513C156.213 285.589 155.822 282.82 155.219 279.165C154.627 275.574 153.961 271.138 153.179 265.997C152.755 263.432 152.365 260.663 151.889 257.777C151.413 254.891 151.161 251.771 150.055 248.66C148.959 245.612 147.148 242.617 144.63 240.134C144.321 239.856 144.001 239.513 143.681 239.171C143.307 238.903 142.998 238.625 142.614 238.293C141.92 237.683 141.119 237.222 140.383 236.75C140.009 236.483 139.582 236.29 139.155 236.097C138.728 235.903 138.354 235.636 137.927 235.443C137.084 235.121 136.219 234.671 135.258 234.434C133.442 233.811 131.487 233.541 129.553 233.399C129.094 233.409 128.57 233.429 128.036 233.385L127.309 233.374C127.053 233.416 126.785 233.394 126.529 233.436C126.016 233.521 125.556 233.531 125.043 233.616C124.53 233.7 124.028 233.849 123.579 233.923C119.56 234.718 115.752 236.795 112.606 239.686C111.065 241.126 109.715 242.93 108.569 244.766C107.433 246.666 106.66 248.77 106.09 250.906C105.531 253.106 105.378 255.371 105.492 257.658C105.67 259.934 106.115 262.233 106.431 264.552C107.837 273.872 109.36 283.502 110.85 293.336C111.062 294.618 111.284 295.965 111.432 297.258L111.272 297.087C113.58 296.706 115.9 296.389 118.144 296.019L117.973 296.179C116.81 288.729 115.743 281.461 114.632 274.332C114.115 270.794 113.543 267.331 113.036 263.858C112.751 262.126 112.54 260.448 112.265 258.781C112.043 257.038 112.024 255.329 112.284 253.705C112.855 250.383 114.389 247.297 116.701 244.939C116.979 244.63 117.257 244.32 117.546 244.075L118.477 243.329C119.13 242.892 119.772 242.39 120.499 242.007C121.151 241.57 121.9 241.315 122.638 240.995C123.012 240.868 123.386 240.74 123.76 240.613L124.327 240.453L124.904 240.358C126.422 239.976 127.929 239.925 129.457 240.002C130.985 240.079 132.427 240.435 133.826 240.928C136.559 241.927 139.014 243.63 140.817 245.77C141.777 246.797 142.437 248.006 143.087 249.15C143.619 250.38 144.088 251.62 144.363 252.892C144.416 253.213 144.469 253.534 144.586 253.844C144.639 254.164 144.692 254.485 144.745 254.806C144.851 255.447 144.946 256.024 145.052 256.665C145.253 257.884 145.454 259.102 145.58 260.267C146.299 265.024 146.943 269.331 147.525 273.254C148.687 281.099 149.628 287.202 150.241 291.317L150.166 291.263C152.486 290.947 154.217 290.661 155.372 290.471C155.949 290.375 156.334 290.312 156.654 290.259C156.889 290.484 157.017 290.463 157.017 290.463C157.017 290.463 156.889 290.484 156.632 290.526C156.376 290.568 155.927 290.643 155.35 290.738C154.195 290.928 152.464 291.214 150.155 291.595L150.091 291.605L150.08 291.541C149.478 287.49 148.462 281.334 147.3 273.488C146.719 269.566 145.999 265.205 145.291 260.513C145.101 259.358 144.9 258.14 144.763 256.911C144.657 256.269 144.562 255.692 144.456 255.051C144.403 254.73 144.35 254.41 144.297 254.089C144.244 253.768 144.191 253.448 144.074 253.138C143.863 251.855 143.341 250.689 142.809 249.46C142.159 248.315 141.498 247.107 140.613 246.133C138.885 244.046 136.441 242.407 133.707 241.409C132.319 240.979 130.877 240.624 129.413 240.536C127.96 240.513 126.378 240.51 124.925 240.882L124.347 240.977L123.781 241.136C123.407 241.264 123.022 241.327 122.658 241.519C121.92 241.838 121.236 242.083 120.583 242.52C119.92 242.893 119.268 243.33 118.626 243.831L117.695 244.578C117.406 244.823 117.128 245.132 116.849 245.442C114.591 247.725 113.111 250.736 112.539 254.058C112.28 255.682 112.299 257.391 112.51 259.069C112.785 260.737 113.006 262.479 113.281 264.146C113.778 267.556 114.36 271.083 114.878 274.621C115.977 281.686 117.055 289.018 118.218 296.468L118.25 296.66L118.058 296.692C115.813 297.062 113.494 297.379 111.185 297.76L110.993 297.792L110.961 297.599C110.749 296.317 110.527 294.97 110.38 293.677C108.889 283.844 107.366 274.213 105.961 264.893C105.644 262.574 105.199 260.276 105.01 257.935C104.897 255.648 105.103 253.308 105.663 251.108C106.222 248.908 107.059 246.793 108.195 244.893C109.331 242.993 110.691 241.253 112.285 239.739C115.485 236.773 119.357 234.685 123.376 233.891C123.889 233.806 124.391 233.657 124.905 233.573L126.657 233.415C126.988 233.426 127.309 233.374 127.64 233.385L129.094 233.409C129.297 233.441 129.553 233.399 129.756 233.431C131.626 233.584 133.453 233.875 135.193 234.444C136.155 234.681 137.019 235.131 137.863 235.453C138.29 235.646 138.728 235.903 139.155 236.097C139.593 236.354 140.02 236.547 140.383 236.75C141.13 237.286 141.931 237.747 142.624 238.357C142.998 238.625 143.318 238.967 143.691 239.235C144.001 239.513 144.321 239.856 144.641 240.198C147.169 242.746 149.045 245.73 150.151 248.841C151.257 251.953 151.508 255.073 151.995 258.023C152.407 260.92 152.862 263.677 153.221 266.253C154.003 271.394 154.669 275.83 155.197 279.432C155.726 283.034 156.191 285.856 156.434 287.726C156.593 288.688 156.709 289.394 156.73 289.917C156.985 290.27 157.017 290.463 157.017 290.463Z" fill="#E0E0E0"/>
<path d="M169.977 317.508L107.461 327.097L99.3518 274.35L161.676 264.793C163.022 264.571 164.228 265.492 164.451 266.838L171.798 314.968C172.063 316.176 171.195 317.307 169.977 317.508Z" fill="#E0E0E0"/>
<path d="M161.373 318.862L107.268 327.129C105.793 327.372 104.374 326.354 104.13 324.879L96.8355 277.466C96.6028 276.055 97.6308 274.699 99.0417 274.467L153.852 266.083C155.263 265.851 156.618 266.879 156.851 268.29L164.061 315.19C164.347 316.922 163.104 318.576 161.373 318.862Z" fill="#EBEBEB"/>
<path d="M138.146 290.677C137.533 286.562 133.573 283.724 129.415 284.476C125.514 285.185 122.847 288.985 123.418 292.844C123.914 296.253 126.624 298.705 129.861 299.159L126.584 310.042L139.281 308.343L133.848 298.567C136.778 297.161 138.632 294.023 138.146 290.677Z" fill="#E0E0E0"/>
<path d="M163.829 313.384C163.765 313.395 162.316 304.213 160.582 292.905C158.912 281.586 157.592 272.384 157.656 272.373C157.72 272.362 159.169 281.544 160.903 292.852C162.637 304.16 163.957 313.363 163.829 313.384Z" fill="#FAFAFA"/>
<path d="M142.861 269.346C142.872 269.41 134.813 270.871 124.872 272.511C114.932 274.151 106.841 275.42 106.83 275.356C106.82 275.292 114.879 273.83 124.819 272.19C134.76 270.551 142.84 269.218 142.861 269.346Z" fill="white"/>
<path d="M123.763 296.937C123.763 296.937 123.614 296.83 123.369 296.541C123.123 296.252 122.857 295.835 122.559 295.225C121.973 294.07 121.538 292.231 121.872 290.266C122.207 288.3 123.203 286.752 124.102 285.813C124.552 285.344 124.958 285.013 125.258 284.832C125.557 284.651 125.739 284.555 125.739 284.555C125.75 284.619 125.087 284.992 124.262 285.985C123.427 286.913 122.495 288.45 122.15 290.352C121.869 292.243 122.219 293.964 122.74 295.129C123.326 296.284 123.817 296.862 123.763 296.937Z" fill="white"/>
<path d="M127.221 299.924C127.167 299.998 126.75 299.87 126.195 299.698C125.629 299.462 125.266 299.258 125.309 299.119C125.363 299.044 125.779 299.173 126.335 299.345C126.847 299.656 127.274 299.849 127.221 299.924Z" fill="white"/>
<path d="M122.977 235.867C122.977 235.867 122.539 236.005 121.791 236.26C121.042 236.515 119.919 236.898 118.572 237.516C115.941 238.74 112.593 241.203 110.246 244.95C107.9 248.697 107.199 252.831 107.205 255.663C107.181 257.116 107.307 258.281 107.445 259.115C107.572 259.884 107.646 260.333 107.646 260.333C107.646 260.333 107.625 260.205 107.529 260.023C107.497 259.831 107.38 259.52 107.316 259.136C107.115 258.313 106.988 257.148 106.948 255.705C106.867 252.82 107.558 248.621 109.958 244.8C112.358 240.978 115.771 238.505 118.476 237.334C119.824 236.716 120.946 236.334 121.705 236.143C122.079 236.015 122.4 235.962 122.592 235.93C122.849 235.888 122.977 235.867 122.977 235.867Z" fill="white"/>
<path d="M108.256 266.03C108.192 266.04 107.99 265.217 107.81 264.127C107.641 263.101 107.621 262.182 107.685 262.171C107.749 262.161 107.951 262.984 108.131 264.074C108.311 265.164 108.32 266.019 108.256 266.03Z" fill="white"/>
<path d="M299.394 108.401C299.394 108.401 297.423 105.304 295.452 102.395C293.575 99.4851 290.665 98.0773 290.196 96.5756C289.727 95.074 287.193 88.4104 286.817 86.721C286.254 84.3746 286.348 81.8406 286.348 81.8406C286.348 81.8406 288.413 80.9959 289.445 83.9054C290.008 85.6886 291.979 91.7891 292.355 92.0707C292.73 92.3522 293.293 91.9768 293.293 91.9768C293.293 91.9768 291.135 86.1579 291.041 85.0316C290.947 83.9054 291.322 76.6786 291.322 76.6786C291.322 76.6786 292.824 76.2094 293.856 78.0864C294.795 79.9635 294.889 84.6562 294.889 84.6562L296.39 89.912L295.827 84.7501L296.578 75.2708C296.578 75.2708 298.925 75.4585 299.582 78.0864C300.239 80.6205 299.394 84.2808 299.769 85.0316C300.239 85.7824 300.614 90.3813 300.614 90.3813C300.614 90.3813 301.083 79.2127 302.303 78.9311C303.523 78.6496 304.462 79.7758 304.274 82.0283C304.087 84.2808 304.087 89.0673 304.65 91.1321C305.307 93.1969 311.595 101.456 311.126 105.022C310.562 108.683 310.562 111.592 310.562 111.592H299.675L299.394 108.401Z" fill="#FFBF9D"/>
<path d="M261.195 136.557C261.758 136.745 287.85 143.221 287.85 143.221C287.85 143.221 293.669 133.836 294.513 131.114C295.358 128.392 299.957 110.278 299.957 110.278L310.938 109.246C310.938 109.246 308.122 156.079 304.18 158.613C300.145 161.147 293.856 162.461 293.481 162.273C293.012 162.086 265.419 164.057 250.778 152.606C236.136 141.156 261.195 136.557 261.195 136.557Z" fill="#FFBF9D"/>
<g opacity="0.3">
<path d="M242.518 161.335C242.518 161.335 246.273 166.028 253.124 167.623C260.069 169.125 274.71 171.846 274.71 171.846L273.959 164.62L242.049 161.241" fill="black"/>
</g>
<path d="M230.974 151.48C233.321 156.454 238.577 161.804 250.121 163.024C273.021 165.371 290.29 166.684 297.798 165.558C305.307 164.432 308.216 148.571 309.061 148.101C311.407 146.6 311.219 141.625 309.248 140.124C303.523 135.9 292.073 132.616 291.322 132.991C286.817 135.243 288.225 140.499 288.225 140.499L259.224 134.117C259.224 134.117 254.532 132.052 248.807 131.114" fill="#C6B1B2"/>
<path d="M248.9 131.02C248.9 131.02 249.182 131.02 249.651 131.114C250.121 131.208 250.778 131.302 251.716 131.489C253.499 131.865 256.127 132.616 259.412 133.93C266.357 135.431 276.306 137.59 288.413 140.218L288.131 140.499C287.756 138.904 287.756 137.121 288.507 135.525C288.882 134.68 289.445 134.023 290.102 133.46C290.478 133.179 290.853 132.991 291.229 132.709C291.322 132.709 291.51 132.616 291.698 132.616H292.073C292.261 132.616 292.543 132.709 292.73 132.709C296.203 133.46 299.675 134.68 303.148 136.182C304.837 136.933 306.621 137.778 308.216 138.904C308.592 139.185 309.061 139.467 309.436 139.748C309.812 140.03 310.187 140.499 310.469 140.969C310.938 141.907 311.126 142.939 311.126 143.972C311.126 145.004 310.938 146.037 310.469 146.975C310.187 147.444 309.906 147.914 309.436 148.195C309.342 148.289 309.249 148.477 309.155 148.758L308.873 149.509C308.216 151.386 307.653 153.357 306.902 155.328C305.776 158.05 304.556 160.772 302.679 163.024C301.74 164.15 300.52 165.089 299.112 165.558C298.455 165.84 297.704 165.84 296.954 165.934C296.297 166.028 295.546 166.028 294.889 166.121C292.073 166.309 289.352 166.215 286.724 166.215C284.002 166.121 281.468 166.028 278.84 165.84C268.61 165.183 259.506 164.244 251.81 163.493C249.933 163.306 248.056 163.024 246.366 162.743C244.677 162.367 243.082 161.898 241.674 161.335C238.764 160.209 236.606 158.613 235.01 157.111C233.415 155.61 232.476 154.202 231.913 153.17C231.35 152.137 231.162 151.574 231.162 151.574C231.162 151.574 231.444 152.137 232.007 153.076C232.57 154.014 233.602 155.422 235.104 156.924C236.699 158.425 238.858 159.927 241.768 160.959C243.175 161.523 244.771 161.992 246.46 162.367C248.15 162.743 249.933 162.93 251.904 163.118C259.6 163.869 268.704 164.807 278.934 165.371C281.468 165.558 284.096 165.652 286.724 165.746C289.352 165.84 292.073 165.84 294.889 165.652C295.546 165.558 296.297 165.558 296.954 165.464C297.611 165.371 298.361 165.371 298.925 165.089C300.239 164.62 301.365 163.775 302.209 162.649C304.087 160.49 305.307 157.862 306.339 155.14C307.09 153.263 307.653 151.292 308.31 149.322L308.592 148.571C308.592 148.477 308.685 148.289 308.779 148.195C308.779 148.101 308.873 148.101 308.873 148.008L308.967 147.914L309.061 147.82C309.436 147.538 309.718 147.163 309.999 146.787C310.469 145.943 310.656 145.004 310.656 143.972C310.656 143.033 310.469 142.095 309.999 141.25C309.812 140.875 309.53 140.499 309.155 140.218C308.779 139.936 308.404 139.655 307.935 139.373C306.339 138.341 304.65 137.496 302.866 136.745C299.394 135.243 296.015 134.023 292.543 133.273C292.355 133.273 292.073 133.179 291.886 133.179H291.604C291.51 133.179 291.51 133.179 291.416 133.179C291.041 133.366 290.665 133.554 290.384 133.836C289.727 134.305 289.164 134.962 288.882 135.713C288.225 137.214 288.131 138.904 288.507 140.405L288.601 140.781L288.319 140.687C276.306 137.965 266.263 135.713 259.412 134.211C256.221 132.897 253.593 132.146 251.81 131.677C250.871 131.489 250.214 131.302 249.745 131.208C249.088 131.114 248.9 131.02 248.9 131.02Z" fill="#170203"/>
<path d="M297.798 149.509C297.798 149.603 297.047 149.322 295.921 148.665C294.795 148.102 293.387 147.069 291.979 145.755C290.572 144.441 289.539 142.94 288.882 141.907C288.225 140.781 287.944 140.124 288.037 140.03C288.131 139.936 289.633 142.752 292.355 145.38C295.077 148.008 297.892 149.322 297.798 149.509Z" fill="#170203"/>
<path d="M93.6662 226.751C93.6662 226.751 99.4851 227.032 103.052 229.285C106.618 231.537 112.437 235.01 114.877 239.421C116.003 241.392 112.812 241.861 111.311 240.641C109.809 239.515 107.369 237.262 106.243 237.075C105.022 236.793 105.022 236.793 105.022 236.793C105.022 236.793 107.369 242.049 108.589 243.926C109.809 245.803 110.841 248.9 107.181 249.088C107.181 249.088 104.741 252.279 102.207 249.933C102.207 249.933 100.236 252.842 97.1388 248.807C97.1388 248.807 95.3555 251.059 94.6047 250.214C93.8539 249.37 91.4137 247.962 90.6628 245.052C89.912 242.143 86.9087 235.198 86.9087 235.198L93.6662 226.751Z" fill="#FFBF9D"/>
<path d="M44.1113 150.26C44.1113 150.26 39.6063 151.48 36.7907 155.797C34.5382 159.27 33.8812 165.183 34.5382 169.594C35.8522 178.885 40.1694 194.653 42.6097 204.789C43.4543 208.262 45.1437 214.55 50.118 217.835L85.6886 239.14L95.1678 225.061L62.7882 198.689L56.3123 162.367L44.1113 150.26Z" fill="#C6B1B2"/>
<path d="M37.917 185.831C37.917 185.831 37.917 185.924 38.0108 186.206C38.1047 186.488 38.1985 186.863 38.2924 187.332C38.5739 188.365 38.9494 189.772 39.4186 191.556C40.3572 195.31 41.6711 200.66 43.3605 207.229C44.2052 210.514 46.1761 213.893 49.1794 216.521C50.6811 217.835 52.5582 218.867 54.3414 219.993C56.2185 221.12 58.0955 222.246 60.0665 223.466C67.8563 228.159 76.5848 233.415 85.6886 238.952L85.407 239.046C86.5333 237.45 87.6595 235.667 88.7857 233.978C90.8505 230.88 92.9153 227.877 94.8862 224.968L94.9801 225.249C82.7791 215.207 71.7043 206.103 62.8821 198.782H62.7882V198.689C60.6296 189.772 59.1279 182.452 58.1894 177.384C57.7201 174.85 57.3447 172.879 57.157 171.471C57.0631 170.814 56.9693 170.345 56.9693 169.969C56.8754 169.594 56.8754 169.406 56.8754 169.406C56.8754 169.406 56.9693 169.594 56.9693 169.969C57.0631 170.345 57.157 170.814 57.2509 171.471C57.5324 172.785 57.9078 174.756 58.3771 177.29C59.4095 182.358 61.005 189.679 63.1637 198.595L63.0698 198.501C71.9859 205.728 83.0607 214.831 95.2617 224.874L95.4494 224.968L95.3555 225.155C93.3846 228.065 91.3198 231.162 89.255 234.165C88.1288 235.949 86.9087 237.638 85.8763 239.233L85.7824 239.421L85.5947 239.327C76.4909 233.79 67.8563 228.534 59.9726 223.841C58.0017 222.621 56.1246 221.495 54.2475 220.369C52.4643 219.243 50.4934 218.21 48.9917 216.896C45.8945 214.174 43.9236 210.796 43.0789 207.417C41.4834 200.753 40.1695 195.404 39.3248 191.65C38.8555 189.772 38.5739 188.365 38.2924 187.332C38.1985 186.863 38.1047 186.488 38.0108 186.206C38.0108 186.018 37.917 185.831 37.917 185.831Z" fill="#263238"/>
<path d="M38.5739 155.234C38.5739 155.234 38.8555 155.047 39.3248 154.953C39.794 154.765 40.5449 154.577 41.3896 154.483C43.1728 154.202 45.8007 154.202 48.3347 155.422C50.8688 156.736 52.5582 158.613 53.4967 160.115C53.966 160.865 54.2475 161.522 54.4352 161.992C54.623 162.461 54.623 162.743 54.623 162.743C54.5291 162.743 54.2475 161.71 53.2151 160.208C52.1828 158.801 50.4934 156.924 48.147 155.703C45.7068 154.577 43.1728 154.483 41.4834 154.671C39.6063 155.047 38.5739 155.328 38.5739 155.234Z" fill="#263238"/>
</g>
<defs>
<clipPath id="clip0_9_5">
<rect width="615.587" height="412.3" fill="white"/>
</clipPath>
</defs>
</svg>
