<svg width="252" height="231" viewBox="0 0 252 231" fill="none" xmlns="http://www.w3.org/2000/svg">
<g clip-path="url(#clip0_92_11322)">
<g opacity="0.5">
<path d="M113.875 0.672515C183.365 -5.49197 183.477 33.6805 214.804 70.2191C246.131 106.758 252.8 123.346 241.031 165.432C229.207 207.519 189.418 240.583 140.214 221.865C91.0102 203.148 62.8217 221.137 31.7751 204.493C0.728527 187.905 -10.8159 155.793 11.9367 117.966C34.6892 80.1383 28.1885 8.29406 113.875 0.672515Z" fill="#B5121B"/>
<path opacity="0.7" d="M113.875 0.672515C183.365 -5.49197 183.477 33.6805 214.804 70.2191C246.131 106.758 252.8 123.346 241.031 165.432C229.207 207.519 189.418 240.583 140.214 221.865C91.0102 203.148 62.8217 221.137 31.7751 204.493C0.728527 187.905 -10.8159 155.793 11.9367 117.966C34.6892 80.1383 28.1885 8.29406 113.875 0.672515Z" fill="white"/>
</g>
<g opacity="0.3">
<path d="M55.156 23.0145C110.688 -19.2128 131.646 13.8822 177.62 28.1233C223.594 42.3644 238.073 52.8524 250.527 94.7412C262.934 136.66 246.867 185.836 195.253 196.199C143.64 206.562 129.362 236.8 94.2209 239.248C59.1093 241.743 32.2363 220.714 31.3471 176.58C30.4578 132.446 -13.3076 75.1006 55.156 23.0145Z" fill="#B5121B"/>
<path opacity="0.7" d="M55.156 23.0145C110.688 -19.2128 131.646 13.8822 177.62 28.1233C223.594 42.3644 238.073 52.8524 250.527 94.7412C262.934 136.66 246.867 185.836 195.253 196.199C143.64 206.562 129.362 236.8 94.2209 239.248C59.1093 241.743 32.2363 220.714 31.3471 176.58C30.4578 132.446 -13.3076 75.1006 55.156 23.0145Z" fill="white"/>
</g>
<path d="M133.265 20.2307L121.833 22.6405C120.264 22.9767 118.75 21.968 118.47 20.4549L116.004 9.02257C115.668 7.45343 116.677 5.94033 118.19 5.66012L129.622 3.25037C131.192 2.91412 132.705 3.92286 132.985 5.43596L135.395 16.8683C135.787 18.3814 134.778 19.8945 133.265 20.2307Z" stroke="#170203" stroke-width="0.560408" stroke-miterlimit="10" stroke-linecap="round" stroke-linejoin="round"/>
<path d="M124.971 9.47092L126.484 16.42" stroke="#170203" stroke-width="0.560408" stroke-miterlimit="10" stroke-linecap="round" stroke-linejoin="round"/>
<path d="M129.174 12.2169L122.281 13.6739" stroke="#170203" stroke-width="0.560408" stroke-miterlimit="10" stroke-linecap="round" stroke-linejoin="round"/>
<path d="M248.485 142.456L237.052 144.865C235.483 145.202 233.97 144.193 233.69 142.68L231.28 131.247C230.944 129.678 231.953 128.165 233.466 127.885L244.898 125.475C246.467 125.139 247.98 126.148 248.261 127.661L250.67 139.093C251.007 140.662 250.054 142.175 248.485 142.456Z" stroke="#170203" stroke-width="0.560408" stroke-miterlimit="10" stroke-linecap="round" stroke-linejoin="round"/>
<path d="M242.937 132.2L239.07 138.14" stroke="#170203" stroke-width="0.560408" stroke-miterlimit="10" stroke-linecap="round" stroke-linejoin="round"/>
<path d="M243.945 137.132L238.005 133.265" stroke="#170203" stroke-width="0.560408" stroke-miterlimit="10" stroke-linecap="round" stroke-linejoin="round"/>
<path d="M89.8894 216.654L78.2329 215.981C76.6638 215.869 75.4309 214.524 75.543 212.955L76.2155 201.298C76.3275 199.729 77.6725 198.496 79.2417 198.608L90.8981 199.281C92.4673 199.393 93.7002 200.738 93.5881 202.307L92.9156 213.964C92.8035 215.533 91.4585 216.71 89.8894 216.654Z" stroke="#170203" stroke-width="0.560408" stroke-miterlimit="10" stroke-linecap="round" stroke-linejoin="round"/>
<path d="M88.096 207.799L81.0349 207.407" stroke="#170203" stroke-width="0.560408" stroke-miterlimit="10" stroke-linecap="round" stroke-linejoin="round"/>
<path d="M15.3556 135.058L4.25954 131.36C2.74644 130.855 1.96186 129.23 2.46623 127.773L6.16492 116.677C6.66929 115.164 8.29447 114.379 9.75153 114.884L20.8476 118.582C22.3607 119.087 23.1453 120.712 22.6409 122.169L18.9422 133.265C18.4378 134.778 16.8687 135.563 15.3556 135.058Z" stroke="#170203" stroke-width="0.560408" stroke-miterlimit="10" stroke-linecap="round" stroke-linejoin="round"/>
<path d="M16.9809 122.785L8.12646 127.213" stroke="#170203" stroke-width="0.560408" stroke-miterlimit="10" stroke-linecap="round" stroke-linejoin="round"/>
<path d="M11.8812 120.936C12.1614 121.552 11.9372 122.281 11.3208 122.617C10.7043 122.897 9.97578 122.673 9.63954 122.057C9.35933 121.44 9.5835 120.712 10.1999 120.376C10.8164 120.095 11.601 120.32 11.8812 120.936Z" stroke="#170203" stroke-width="0.560408" stroke-miterlimit="10" stroke-linecap="round" stroke-linejoin="round"/>
<path d="M15.4116 127.941C15.6918 128.558 15.4676 129.286 14.8512 129.622C14.2347 129.902 13.5062 129.678 13.1699 129.062C12.8897 128.445 13.1139 127.717 13.7303 127.381C14.3468 127.1 15.0753 127.325 15.4116 127.941Z" stroke="#170203" stroke-width="0.560408" stroke-miterlimit="10" stroke-linecap="round" stroke-linejoin="round"/>
<path d="M130.351 196.479C127.1 201.186 120.656 202.363 116.004 199.113C114.211 197.88 112.922 196.143 112.194 194.237C111.073 191.155 111.409 187.624 113.37 184.766C114.771 182.749 116.733 181.404 118.918 180.731C121.833 179.835 125.083 180.283 127.773 182.132C132.424 185.383 133.601 191.828 130.351 196.479Z" fill="#B5121B"/>
<path opacity="0.3" d="M129.006 195.582C126.26 199.505 120.88 200.514 116.901 197.768C112.978 195.022 111.97 189.642 114.716 185.663C117.462 181.74 122.841 180.731 126.82 183.477C130.743 186.223 131.752 191.603 129.006 195.582Z" fill="black" fill-opacity="0.7"/>
<path d="M129.006 195.582C126.26 199.505 120.88 200.514 116.901 197.768C112.978 195.022 111.97 189.642 114.716 185.663C117.462 181.74 122.841 180.731 126.82 183.477C130.743 186.223 131.752 191.603 129.006 195.582Z" stroke="#170203" stroke-width="0.560408" stroke-miterlimit="10" stroke-linecap="round" stroke-linejoin="round"/>
<path d="M124.13 186.279L124.523 185.663L125.587 186.392L125.195 187.008C125.98 187.793 125.98 188.857 125.195 189.922L125.027 190.202L123.794 189.362L124.018 189.025C124.41 188.465 124.354 188.073 123.906 187.793C123.514 187.512 123.122 187.568 122.729 188.129C122.337 188.689 122.281 189.25 122.673 190.539C123.121 192.108 123.065 193.004 122.393 193.901C121.608 195.022 120.656 195.358 119.647 194.966L119.255 195.582L118.19 194.854L118.582 194.237C117.798 193.397 117.798 192.388 118.582 191.267L118.974 190.707L120.207 191.547L119.759 192.164C119.367 192.724 119.479 193.116 119.871 193.397C120.263 193.677 120.656 193.621 121.104 193.06C121.496 192.5 121.552 191.884 121.16 190.651C120.712 189.082 120.768 188.185 121.44 187.288C122.169 186.223 123.065 185.887 124.13 186.279Z" fill="#B5121B" stroke="#170203" stroke-width="0.560408" stroke-miterlimit="10" stroke-linecap="round" stroke-linejoin="round"/>
<path opacity="0.2" d="M119.03 182.245C119.03 187.344 116.284 191.771 112.25 194.237C111.129 191.155 111.465 187.624 113.426 184.766C114.827 182.749 116.789 181.404 118.974 180.731C118.974 181.236 119.03 181.74 119.03 182.245Z" fill="black" fill-opacity="0.7"/>
<path d="M130.351 196.479C127.1 201.186 120.656 202.363 116.004 199.113C114.211 197.88 112.922 196.143 112.194 194.237C111.073 191.155 111.409 187.624 113.37 184.766C114.771 182.749 116.733 181.404 118.918 180.731C121.833 179.835 125.083 180.283 127.773 182.132C132.424 185.383 133.601 191.828 130.351 196.479Z" stroke="#170203" stroke-width="0.560408" stroke-miterlimit="10" stroke-linecap="round" stroke-linejoin="round"/>
<path d="M107.15 192.22C112.845 192.22 117.462 187.603 117.462 181.908C117.462 176.213 112.845 171.597 107.15 171.597C101.455 171.597 96.8386 176.213 96.8386 181.908C96.8386 187.603 101.455 192.22 107.15 192.22Z" fill="#B5121B" stroke="#170203" stroke-width="0.560408" stroke-miterlimit="10" stroke-linecap="round" stroke-linejoin="round"/>
<path opacity="0.3" d="M107.15 190.595C111.947 190.595 115.836 186.706 115.836 181.908C115.836 177.111 111.947 173.222 107.15 173.222C102.352 173.222 98.4634 177.111 98.4634 181.908C98.4634 186.706 102.352 190.595 107.15 190.595Z" fill="black" fill-opacity="0.7"/>
<path d="M107.15 190.595C111.947 190.595 115.836 186.706 115.836 181.908C115.836 177.111 111.947 173.222 107.15 173.222C102.352 173.222 98.4634 177.111 98.4634 181.908C98.4634 186.706 102.352 190.595 107.15 190.595Z" stroke="#170203" stroke-width="0.560408" stroke-miterlimit="10" stroke-linecap="round" stroke-linejoin="round"/>
<path d="M106.478 177.089V176.36H107.767V177.089C108.887 177.313 109.448 178.154 109.448 179.499V179.835H107.991V179.443C107.991 178.714 107.711 178.49 107.206 178.49C106.702 178.49 106.422 178.77 106.422 179.443C106.422 180.171 106.702 180.619 107.767 181.46C109.055 182.469 109.448 183.253 109.448 184.374C109.448 185.719 108.887 186.56 107.767 186.784V187.512H106.478V186.784C105.357 186.56 104.796 185.719 104.796 184.374V183.702H106.253V184.486C106.253 185.215 106.59 185.439 107.038 185.439C107.542 185.439 107.823 185.159 107.823 184.486C107.823 183.758 107.542 183.253 106.478 182.469C105.189 181.46 104.796 180.675 104.796 179.555C104.852 178.21 105.413 177.313 106.478 177.089Z" fill="#B5121B" stroke="#170203" stroke-width="0.560408" stroke-miterlimit="10" stroke-linecap="round" stroke-linejoin="round"/>
<path d="M165.097 190.595C168.169 185.799 166.772 179.422 161.977 176.349C157.182 173.277 150.804 174.673 147.732 179.468C144.66 184.264 146.056 190.641 150.851 193.714C155.646 196.786 162.024 195.39 165.097 190.595Z" fill="#B5121B" stroke="#170203" stroke-width="0.560408" stroke-miterlimit="10" stroke-linecap="round" stroke-linejoin="round"/>
<path opacity="0.3" d="M162.799 179.106C166.049 182.637 165.881 188.129 162.35 191.379C158.82 194.63 153.328 194.461 150.077 190.931C146.827 187.4 146.995 181.908 150.526 178.658C154 175.408 159.492 175.632 162.799 179.106Z" fill="black" fill-opacity="0.7"/>
<path d="M162.799 179.106C166.049 182.637 165.881 188.129 162.35 191.379C158.82 194.63 153.328 194.461 150.077 190.931C146.827 187.4 146.995 181.908 150.526 178.658C154 175.408 159.492 175.632 162.799 179.106Z" stroke="#170203" stroke-width="0.560408" stroke-miterlimit="10" stroke-linecap="round" stroke-linejoin="round"/>
<path d="M152.656 181.908L152.151 181.348L153.104 180.507L153.609 181.068C154.561 180.507 155.57 180.731 156.467 181.684L156.691 181.908L155.626 182.917L155.346 182.637C154.841 182.132 154.505 182.132 154.113 182.469C153.777 182.805 153.721 183.197 154.225 183.702C154.729 184.206 155.234 184.374 156.579 184.262C158.204 184.15 159.045 184.43 159.829 185.215C160.726 186.223 160.894 187.232 160.221 188.129L160.726 188.633L159.773 189.474L159.269 188.969C158.316 189.586 157.307 189.306 156.411 188.353L155.962 187.849L157.027 186.84L157.531 187.4C158.036 187.905 158.428 187.905 158.764 187.568C159.101 187.232 159.157 186.84 158.708 186.336C158.204 185.831 157.7 185.663 156.355 185.775C154.729 185.887 153.889 185.607 153.104 184.822C152.208 183.814 152.039 182.861 152.656 181.908Z" fill="#B5121B" stroke="#170203" stroke-width="0.560408" stroke-miterlimit="10" stroke-linecap="round" stroke-linejoin="round"/>
<path opacity="0.2" d="M152.15 140.158C152.15 140.158 152.094 161.565 152.15 162.854C152.206 164.087 153.832 171.653 153.832 171.653L148.62 181.236L153.103 184.822L161.845 176.248C161.845 176.248 169.243 180.844 170.644 187.4C171.989 193.957 180.059 198.721 188.465 216.878C196.871 235.035 206.398 176.248 206.398 176.248L180.563 143.688L152.15 140.158Z" fill="black" fill-opacity="0.7"/>
<path d="M231.168 24.9942L223.266 102.274L218.391 149.797L150.357 142.848L137.076 141.503L128.614 140.606L136.123 67.2489L141.391 15.8035L231.168 24.9942Z" fill="white"/>
<path d="M205.109 27.9083L166.329 23.9294C165.6 23.8734 164.928 24.3777 164.872 25.1063C164.816 25.8348 165.32 26.5073 166.049 26.5633L204.829 30.5422C205.557 30.5983 206.23 30.0939 206.286 29.3654C206.342 28.6368 205.837 27.9644 205.109 27.9083Z" fill="#170203"/>
<path d="M194.853 32.3355L175.463 30.3741C175.127 30.318 174.791 30.5982 174.735 30.9905C174.679 31.3268 174.959 31.663 175.351 31.7191L194.741 33.6805C195.078 33.7365 195.414 33.4563 195.47 33.064C195.47 32.6718 195.246 32.3916 194.853 32.3355Z" fill="#170203"/>
<path d="M216.206 89.3289L153.328 82.8842C152.992 82.8282 152.655 83.1084 152.599 83.5007C152.543 83.8369 152.824 84.1732 153.216 84.2292L216.094 90.6739C216.43 90.73 216.766 90.4498 216.822 90.0575C216.878 89.6652 216.542 89.385 216.206 89.3289Z" fill="#170203"/>
<path d="M215.701 94.0924L142.568 86.583C142.232 86.5269 141.895 86.8071 141.839 87.1994C141.783 87.5357 142.063 87.8719 142.456 87.928L215.589 95.4374C215.925 95.4935 216.261 95.2133 216.317 94.821C216.317 94.4287 216.093 94.1485 215.701 94.0924Z" fill="#170203"/>
<path d="M194.741 96.7264L142.063 91.3465C141.727 91.2904 141.391 91.5706 141.335 91.9629C141.279 92.2992 141.559 92.6354 141.951 92.6914L194.629 98.0714C194.966 98.1274 195.302 97.8472 195.358 97.4549C195.414 97.0626 195.078 96.7824 194.741 96.7264Z" fill="#170203"/>
<path d="M141.228 96.4159L139.086 117.322L212.843 124.877L214.984 103.971L141.228 96.4159Z" fill="#C8C8C8" stroke="#170203" stroke-width="0.560408" stroke-miterlimit="10"/>
<path d="M175.052 72.3045C182.019 66.4998 182.962 56.146 177.157 49.1788C171.352 42.2115 160.999 41.269 154.031 47.0737C147.064 52.8784 146.122 63.2322 151.926 70.1994C157.731 77.1667 168.085 78.1092 175.052 72.3045Z" fill="#B5121B"/>
<path opacity="0.5" d="M175.052 72.3045C182.019 66.4998 182.962 56.146 177.157 49.1787C171.352 42.2114 160.999 41.2689 154.031 47.0737C147.064 52.8784 146.122 63.2322 151.926 70.1995C157.731 77.1668 168.085 78.1093 175.052 72.3045Z" fill="white"/>
<path d="M175.052 72.3045C182.019 66.4998 182.962 56.146 177.157 49.1788C171.352 42.2115 160.999 41.269 154.031 47.0737C147.064 52.8784 146.122 63.2322 151.926 70.1994C157.731 77.1667 168.085 78.1092 175.052 72.3045Z" stroke="#170203" stroke-width="0.560411" stroke-miterlimit="10"/>
<path d="M165.04 59.6274L178.714 66.5204C179.498 64.9512 180.003 63.1579 180.171 61.3086C180.619 57.1055 179.33 53.1266 176.864 49.9883L165.04 59.6274Z" fill="white"/>
<path d="M165.096 58.8988L176.528 49.5961C174.847 47.5786 172.661 46.0095 170.139 45.0568L168.122 50.7169L165.096 58.8988Z" fill="#B5121B"/>
<path d="M166.441 44.1041L165.04 57.6099L169.691 44.8326C168.626 44.4964 167.562 44.2722 166.441 44.1041Z" fill="#626262"/>
<path d="M164.312 59.5153L165.881 44.048C157.363 43.3195 149.797 49.54 148.956 58.0582C148.676 60.8602 149.125 63.4942 150.189 65.9039L164.312 59.5153Z" fill="#C6B1B2"/>
<path d="M162.966 75.2627C169.523 75.9352 175.575 72.4607 178.433 66.9687L164.535 59.9636L150.357 66.4083C152.654 71.1718 157.306 74.7023 162.966 75.2627Z" fill="#C8C8C8"/>
<path d="M190.651 51.6135L188.801 51.4454C188.633 51.4454 188.465 51.2773 188.465 51.0531L188.633 49.2038C188.633 49.0356 188.801 48.8675 189.026 48.8675L190.875 49.0356C191.043 49.0356 191.211 49.2038 191.211 49.4279L191.043 51.2773C190.987 51.4454 190.819 51.6135 190.651 51.6135Z" fill="#B5121B" stroke="#170203" stroke-width="0.560408" stroke-miterlimit="10"/>
<path d="M216.933 52.6223L192.78 50.1565C192.611 50.1565 192.499 49.9884 192.499 49.8202C192.499 49.6521 192.668 49.54 192.836 49.54L216.989 52.0058C217.157 52.0058 217.269 52.174 217.269 52.3421C217.213 52.5102 217.101 52.6223 216.933 52.6223Z" fill="#170203"/>
<path d="M214.411 53.6871L192.668 51.4454C192.499 51.4454 192.387 51.2773 192.387 51.1092C192.387 50.9411 192.555 50.829 192.724 50.829L214.467 53.0706C214.636 53.0706 214.748 53.2387 214.748 53.4069C214.748 53.575 214.579 53.6871 214.411 53.6871Z" fill="#170203"/>
<path d="M190.034 57.3297L188.185 57.1616C188.017 57.1616 187.849 56.9935 187.849 56.7693L188.017 54.92C188.017 54.7518 188.185 54.5837 188.409 54.5837L190.258 54.7518C190.426 54.7518 190.595 54.92 190.595 55.1441L190.426 56.9935C190.426 57.2176 190.258 57.3857 190.034 57.3297Z" fill="#626262" stroke="#170203" stroke-width="0.560408" stroke-miterlimit="10" stroke-linecap="round" stroke-linejoin="round"/>
<path d="M216.318 58.3945L192.22 55.9287C192.052 55.9287 191.94 55.7606 191.94 55.5924C191.94 55.4243 192.108 55.3122 192.276 55.3122L216.43 57.778C216.598 57.778 216.71 57.9461 216.71 58.1143C216.654 58.2824 216.486 58.3945 216.318 58.3945Z" fill="#170203"/>
<path d="M213.852 59.4592L192.108 57.2176C191.94 57.2176 191.828 57.0495 191.828 56.8814C191.828 56.7132 191.996 56.6012 192.164 56.6012L213.908 58.8428C214.076 58.8428 214.188 59.0109 214.188 59.179C214.132 59.3472 214.02 59.4592 213.852 59.4592Z" fill="#170203"/>
<path d="M189.474 63.1019L187.624 62.9338C187.456 62.9338 187.288 62.7656 187.288 62.5415L187.456 60.6921C187.456 60.524 187.624 60.3559 187.849 60.3559L189.698 60.524C189.866 60.524 190.034 60.6921 190.034 60.9163L189.866 62.7657C189.81 62.9898 189.642 63.1019 189.474 63.1019Z" fill="#C6B1B2" stroke="#170203" stroke-width="0.560408" stroke-miterlimit="10" stroke-linecap="round" stroke-linejoin="round"/>
<path d="M215.757 64.1667L191.604 61.7009C191.436 61.7009 191.323 61.5327 191.323 61.3646C191.323 61.1965 191.492 61.0844 191.66 61.0844L215.813 63.5502C215.981 63.5502 216.094 63.7183 216.094 63.8864C216.037 64.0546 215.925 64.1667 215.757 64.1667Z" fill="#170203"/>
<path d="M213.235 65.1754L191.492 62.9338C191.323 62.9338 191.211 62.7656 191.211 62.5975C191.211 62.4294 191.379 62.3173 191.548 62.3173L213.291 64.559C213.459 64.559 213.572 64.7271 213.572 64.8952C213.572 65.0633 213.403 65.2314 213.235 65.1754Z" fill="#170203"/>
<path d="M188.857 68.8741L187.008 68.706C186.84 68.706 186.672 68.5378 186.672 68.3137L186.84 66.4643C186.84 66.2962 187.008 66.1281 187.232 66.1281L189.081 66.2962C189.249 66.2962 189.418 66.4643 189.418 66.6885L189.249 68.5378C189.249 68.762 189.081 68.8741 188.857 68.8741Z" fill="#C8C8C8" stroke="#170203" stroke-width="0.560408" stroke-miterlimit="10"/>
<path d="M215.14 69.8828L190.987 67.417C190.819 67.417 190.707 67.2489 190.707 67.0808C190.707 66.9126 190.875 66.8006 191.043 66.8006L215.196 69.2664C215.364 69.2664 215.477 69.4345 215.477 69.6026C215.477 69.8268 215.308 69.9389 215.14 69.8828Z" fill="#170203"/>
<path d="M212.675 70.9476L190.931 68.706C190.763 68.706 190.651 68.5378 190.651 68.3697C190.651 68.2016 190.819 68.0895 190.987 68.0895L212.731 70.3311C212.899 70.3311 213.011 70.4993 213.011 70.6674C212.955 70.8355 212.843 70.9476 212.675 70.9476Z" fill="#170203"/>
<path d="M188.296 74.5902L186.447 74.4221C186.279 74.4221 186.111 74.254 186.111 74.0298L186.279 72.1805C186.279 72.0124 186.447 71.8442 186.671 71.8442L188.52 72.0124C188.689 72.0124 188.857 72.1805 188.857 72.4046L188.689 74.254C188.633 74.4782 188.464 74.6463 188.296 74.5902Z" fill="white" stroke="#170203" stroke-width="0.560408" stroke-miterlimit="10" stroke-linecap="round" stroke-linejoin="round"/>
<path d="M214.58 75.655L190.426 73.1892C190.258 73.1892 190.146 73.0211 190.146 72.853C190.146 72.6848 190.314 72.5728 190.482 72.5728L214.636 75.0946C214.804 75.0946 214.916 75.2627 214.916 75.4308C214.86 75.5429 214.748 75.655 214.58 75.655Z" fill="#170203"/>
<path d="M212.057 76.7198L190.314 74.4781C190.145 74.4781 190.033 74.31 190.033 74.1419C190.033 73.9738 190.201 73.8617 190.37 73.8617L212.113 76.1033C212.282 76.1033 212.394 76.2714 212.394 76.4396C212.394 76.6077 212.225 76.7198 212.057 76.7198Z" fill="#170203"/>
<path d="M203.823 117.817L205.216 117.96L206.022 110.099L204.629 109.956L203.823 117.817Z" fill="#626262" stroke="#170203" stroke-width="0.560408" stroke-miterlimit="10" stroke-linecap="round" stroke-linejoin="round"/>
<path d="M203.901 116.662L205.295 116.805L205.677 113.07L204.283 112.927L203.901 116.662Z" fill="#B5121B" stroke="#170203" stroke-width="0.560408" stroke-miterlimit="10"/>
<path d="M207.12 116.171L208.514 116.314L209.319 108.453L207.925 108.31L207.12 116.171Z" fill="#626262" stroke="#170203" stroke-width="0.560408" stroke-miterlimit="10" stroke-linecap="round" stroke-linejoin="round"/>
<path d="M207.757 110.368L207.374 114.104L208.767 114.247L209.15 110.511L207.757 110.368Z" fill="#B5121B" stroke="#170203" stroke-width="0.560408" stroke-miterlimit="10"/>
<path d="M210.045 117.977L211.439 118.119L212.244 110.259L210.851 110.116L210.045 117.977Z" fill="#626262" stroke="#170203" stroke-width="0.560408" stroke-miterlimit="10" stroke-linecap="round" stroke-linejoin="round"/>
<path d="M210.386 115.036L211.78 115.179L212.163 111.444L210.769 111.301L210.386 115.036Z" fill="#B5121B" stroke="#170203" stroke-width="0.560408" stroke-miterlimit="10"/>
<path d="M200.851 115.971L202.244 116.114L203.05 108.254L201.657 108.111L200.851 115.971Z" fill="#626262" stroke="#170203" stroke-width="0.560408" stroke-miterlimit="10" stroke-linecap="round" stroke-linejoin="round"/>
<path d="M200.99 114.767L202.383 114.909L202.766 111.174L201.372 111.031L200.99 114.767Z" fill="#B5121B" stroke="#170203" stroke-width="0.560408" stroke-miterlimit="10"/>
<path d="M197.528 117.994L198.921 118.136L199.726 110.276L198.333 110.133L197.528 117.994Z" fill="#626262" stroke="#170203" stroke-width="0.560408" stroke-miterlimit="10" stroke-linecap="round" stroke-linejoin="round"/>
<path d="M197.617 117.073L199.01 117.216L199.393 113.481L198 113.338L197.617 117.073Z" fill="#B5121B" stroke="#170203" stroke-width="0.560408" stroke-miterlimit="10"/>
<path d="M194.601 115.64L195.994 115.783L196.799 107.922L195.406 107.78L194.601 115.64Z" fill="#626262" stroke="#170203" stroke-width="0.560408" stroke-miterlimit="10" stroke-linecap="round" stroke-linejoin="round"/>
<path d="M194.681 115.296L196.075 115.439L196.458 111.703L195.064 111.561L194.681 115.296Z" fill="#B5121B" stroke="#170203" stroke-width="0.560408" stroke-miterlimit="10"/>
<path d="M191.09 119.419L192.484 119.562L193.29 111.701L191.896 111.558L191.09 119.419Z" fill="#626262" stroke="#170203" stroke-width="0.560408" stroke-miterlimit="10" stroke-linecap="round" stroke-linejoin="round"/>
<path d="M191.166 119.086L192.56 119.229L192.943 115.494L191.549 115.351L191.166 119.086Z" fill="#B5121B" stroke="#170203" stroke-width="0.560408" stroke-miterlimit="10"/>
<path d="M188.532 114.147L189.926 114.29L190.731 106.429L189.338 106.287L188.532 114.147Z" fill="#626262" stroke="#170203" stroke-width="0.560408" stroke-miterlimit="10" stroke-linecap="round" stroke-linejoin="round"/>
<path d="M188.617 112.979L190.01 113.122L190.393 109.387L188.999 109.244L188.617 112.979Z" fill="#B5121B" stroke="#170203" stroke-width="0.560408" stroke-miterlimit="10"/>
<path d="M185.457 113.362L186.85 113.505L187.656 105.644L186.263 105.501L185.457 113.362Z" fill="#626262" stroke="#170203" stroke-width="0.560408" stroke-miterlimit="10" stroke-linecap="round" stroke-linejoin="round"/>
<path d="M185.792 110.391L187.185 110.534L187.568 106.799L186.174 106.656L185.792 110.391Z" fill="#B5121B" stroke="#170203" stroke-width="0.560408" stroke-miterlimit="10"/>
<path d="M181.88 117.977L183.274 118.119L184.079 110.259L182.686 110.116L181.88 117.977Z" fill="#626262" stroke="#170203" stroke-width="0.560408" stroke-miterlimit="10" stroke-linecap="round" stroke-linejoin="round"/>
<path d="M182.165 114.729L183.559 114.872L183.941 111.137L182.548 110.994L182.165 114.729Z" fill="#B5121B" stroke="#170203" stroke-width="0.560408" stroke-miterlimit="10"/>
<path d="M179.13 114.228L180.524 114.371L181.329 106.51L179.935 106.367L179.13 114.228Z" fill="#626262" stroke="#170203" stroke-width="0.560408" stroke-miterlimit="10" stroke-linecap="round" stroke-linejoin="round"/>
<path d="M179.275 112.751L180.669 112.894L181.051 109.159L179.657 109.016L179.275 112.751Z" fill="#B5121B" stroke="#170203" stroke-width="0.560408" stroke-miterlimit="10"/>
<path d="M175.818 115.954L177.211 116.097L178.017 108.236L176.624 108.093L175.818 115.954Z" fill="#626262" stroke="#170203" stroke-width="0.560408" stroke-miterlimit="10" stroke-linecap="round" stroke-linejoin="round"/>
<path d="M175.902 114.742L177.295 114.885L177.678 111.15L176.284 111.007L175.902 114.742Z" fill="#B5121B" stroke="#170203" stroke-width="0.560408" stroke-miterlimit="10"/>
<path d="M172.312 119.136L173.706 119.279L174.512 111.418L173.118 111.275L172.312 119.136Z" fill="#626262" stroke="#170203" stroke-width="0.560408" stroke-miterlimit="10" stroke-linecap="round" stroke-linejoin="round"/>
<path d="M172.314 119.18L173.708 119.323L174.09 115.588L172.697 115.445L172.314 119.18Z" fill="#B5121B" stroke="#170203" stroke-width="0.560408" stroke-miterlimit="10"/>
<path d="M169.759 113.862L171.153 114.005L171.958 106.144L170.564 106.002L169.759 113.862Z" fill="#626262" stroke="#170203" stroke-width="0.560408" stroke-miterlimit="10" stroke-linecap="round" stroke-linejoin="round"/>
<path d="M169.841 112.955L171.235 113.098L171.617 109.363L170.224 109.22L169.841 112.955Z" fill="#B5121B" stroke="#170203" stroke-width="0.560408" stroke-miterlimit="10"/>
<path d="M167.019 110.048L168.413 110.191L169.219 102.33L167.825 102.188L167.019 110.048Z" fill="#626262" stroke="#170203" stroke-width="0.560408" stroke-miterlimit="10" stroke-linecap="round" stroke-linejoin="round"/>
<path d="M167.091 109.208L168.484 109.35L168.867 105.615L167.473 105.472L167.091 109.208Z" fill="#B5121B" stroke="#170203" stroke-width="0.560408" stroke-miterlimit="10"/>
<path d="M163.483 113.951L164.876 114.093L165.682 106.233L164.288 106.09L163.483 113.951Z" fill="#626262" stroke="#170203" stroke-width="0.560408" stroke-miterlimit="10" stroke-linecap="round" stroke-linejoin="round"/>
<path d="M163.773 110.951L165.166 111.094L165.549 107.359L164.156 107.216L163.773 110.951Z" fill="#B5121B" stroke="#170203" stroke-width="0.560408" stroke-miterlimit="10"/>
<path d="M159.9 118.07L161.293 118.212L162.099 110.352L160.705 110.209L159.9 118.07Z" fill="#626262" stroke="#170203" stroke-width="0.560408" stroke-miterlimit="10" stroke-linecap="round" stroke-linejoin="round"/>
<path d="M160.248 114.512L161.641 114.654L162.024 110.919L160.63 110.776L160.248 114.512Z" fill="#B5121B" stroke="#170203" stroke-width="0.560408" stroke-miterlimit="10"/>
<path d="M157.245 113.292L158.638 113.435L159.444 105.574L158.05 105.431L157.245 113.292Z" fill="#626262" stroke="#170203" stroke-width="0.560408" stroke-miterlimit="10" stroke-linecap="round" stroke-linejoin="round"/>
<path d="M157.389 112.12L158.783 112.263L159.166 108.528L157.772 108.385L157.389 112.12Z" fill="#B5121B" stroke="#170203" stroke-width="0.560408" stroke-miterlimit="10"/>
<path d="M154.286 111.65L155.68 111.793L156.486 103.933L155.092 103.79L154.286 111.65Z" fill="#626262" stroke="#170203" stroke-width="0.560408" stroke-miterlimit="10" stroke-linecap="round" stroke-linejoin="round"/>
<path d="M154.621 108.419L156.015 108.561L156.398 104.826L155.004 104.683L154.621 108.419Z" fill="#B5121B" stroke="#170203" stroke-width="0.560408" stroke-miterlimit="10"/>
<path d="M150.942 113.8L152.335 113.943L153.141 106.083L151.748 105.94L150.942 113.8Z" fill="#626262" stroke="#170203" stroke-width="0.560408" stroke-miterlimit="10" stroke-linecap="round" stroke-linejoin="round"/>
<path d="M150.949 113.787L152.343 113.93L152.726 110.195L151.332 110.052L150.949 113.787Z" fill="#B5121B" stroke="#170203" stroke-width="0.560408" stroke-miterlimit="10"/>
<path d="M148.097 111.007L149.491 111.15L150.296 103.289L148.903 103.147L148.097 111.007Z" fill="#626262" stroke="#170203" stroke-width="0.560408" stroke-miterlimit="10" stroke-linecap="round" stroke-linejoin="round"/>
<path d="M148.179 110.406L149.573 110.549L149.956 106.814L148.562 106.671L148.179 110.406Z" fill="#B5121B" stroke="#170203" stroke-width="0.560408" stroke-miterlimit="10"/>
<path d="M144.87 111.767L146.264 111.91L147.069 104.049L145.675 103.906L144.87 111.767Z" fill="#626262" stroke="#170203" stroke-width="0.560408" stroke-miterlimit="10" stroke-linecap="round" stroke-linejoin="round"/>
<path d="M144.885 111.484L146.278 111.627L146.661 107.892L145.267 107.749L144.885 111.484Z" fill="#B5121B" stroke="#170203" stroke-width="0.560408" stroke-miterlimit="10"/>
<path d="M141.899 110.455L143.293 110.598L144.098 102.737L142.704 102.595L141.899 110.455Z" fill="#626262" stroke="#170203" stroke-width="0.560408" stroke-miterlimit="10" stroke-linecap="round" stroke-linejoin="round"/>
<path d="M142.253 106.582L143.647 106.725L144.03 102.989L142.636 102.847L142.253 106.582Z" fill="#B5121B" stroke="#170203" stroke-width="0.560408" stroke-miterlimit="10"/>
<path d="M212.283 127.493L149.405 121.048C149.069 120.992 148.732 121.272 148.676 121.664C148.62 122.001 148.9 122.337 149.293 122.393L212.171 128.838C212.507 128.894 212.843 128.614 212.899 128.221C212.955 127.829 212.619 127.549 212.283 127.493Z" fill="#170203"/>
<path d="M211.778 132.256L138.645 124.747C138.308 124.691 137.972 124.971 137.916 125.363C137.86 125.699 138.14 126.036 138.533 126.092L211.666 133.601C212.002 133.657 212.338 133.377 212.394 132.985C212.394 132.592 212.17 132.256 211.778 132.256Z" fill="#170203"/>
<path d="M180.563 133.825L138.14 129.454C137.804 129.398 137.468 129.678 137.412 130.071C137.356 130.407 137.636 130.743 138.028 130.799L180.451 135.17C180.787 135.226 181.123 134.946 181.179 134.554C181.235 134.162 180.955 133.881 180.563 133.825Z" fill="#170203"/>
<path opacity="0.2" d="M219.231 91.5146C217.046 91.3465 216.317 94.821 216.317 94.821C216.317 94.821 212.899 90.3377 213.459 79.746C213.459 79.746 211.778 75.0386 207.295 77.8967C202.811 80.6987 198.16 90.674 199.281 101.546L190.539 72.5728C187.512 73.1893 181.404 77.2802 183.029 96.8385L173.502 86.7511C173.502 86.7511 170.924 85.9105 169.467 88.2082C168.01 90.5058 168.683 106.814 169.916 112.922C171.148 119.031 168.066 131.304 168.066 131.304C168.066 131.304 164.76 117.405 158.819 113.875L136.123 67.2489L128.614 140.606L137.076 141.503L150.694 134.89C150.638 137.972 150.525 140.774 150.301 142.848L218.335 149.797L223.21 102.274C221.641 96.3901 220.016 91.5706 219.231 91.5146Z" fill="black" fill-opacity="0.7"/>
<path d="M231.168 24.9942L223.266 102.274L218.391 149.797L150.357 142.848L137.076 141.503L128.614 140.606L136.123 67.2489L141.391 15.8035L231.168 24.9942Z" stroke="#170203" stroke-width="0.560408" stroke-miterlimit="10" stroke-linecap="round" stroke-linejoin="round"/>
<path d="M230.048 223.939L190.259 230.72C190.259 230.72 183.31 193.957 179.219 188.129C175.072 182.357 175.856 179.947 173.839 176.024C172.606 173.67 166.554 169.243 161.79 164.928C161.398 164.536 160.95 164.199 160.557 163.807C160.389 163.639 160.221 163.471 160.053 163.359C159.436 162.742 158.82 162.126 158.316 161.51C158.148 161.285 157.923 161.061 157.755 160.893C156.746 159.66 156.074 158.539 155.85 157.475C155.85 157.419 155.85 157.362 155.794 157.306C155.794 157.25 155.794 157.138 155.738 157.082C155.626 156.186 155.514 155.233 155.402 154.168C155.402 153.944 155.345 153.72 155.345 153.496C155.345 153.384 155.345 153.328 155.289 153.215C155.177 152.319 155.065 151.366 154.953 150.413C154.841 149.405 154.673 148.34 154.561 147.275C154.505 146.883 154.449 146.547 154.393 146.154C154.337 145.762 154.281 145.314 154.169 144.921C154.113 144.585 154.057 144.193 154 143.857C154 143.801 153.944 143.745 153.944 143.689C153.888 143.24 153.776 142.848 153.72 142.456C153.72 142.4 153.72 142.344 153.72 142.288C153.664 141.951 153.552 141.559 153.496 141.223C153.328 140.382 153.104 139.598 152.936 138.813C152.487 137.244 152.039 135.843 151.479 134.554C148.621 128.165 152.319 130.463 150.078 113.987C150.078 113.987 151.759 110.176 156.466 113.202C156.803 113.427 157.195 113.707 157.531 113.987C158.484 114.771 159.324 115.668 160.053 116.677C161.006 118.022 161.734 119.479 162.238 121.16C162.967 123.626 163.247 126.316 162.855 129.174C162.855 129.174 166.386 141.335 168.235 144.081C170.084 146.827 177.818 130.967 177.313 129.118C177.201 128.726 177.089 127.829 176.921 126.596C176.865 126.316 176.865 126.036 176.809 125.699C176.753 125.363 176.753 125.083 176.697 124.747C176.697 124.579 176.641 124.411 176.641 124.242C176.641 124.186 176.641 124.13 176.641 124.018C176.585 123.402 176.473 122.729 176.417 122.001C176.417 121.777 176.361 121.608 176.361 121.44C176.305 121.104 176.305 120.768 176.249 120.432C176.249 120.376 176.249 120.32 176.249 120.264C176.249 120.095 176.193 119.871 176.193 119.703C176.137 119.311 176.137 118.919 176.081 118.526C176.025 118.19 176.025 117.854 175.968 117.517C175.912 116.901 175.856 116.229 175.8 115.612C175.744 115.164 175.688 114.659 175.688 114.211C175.688 114.099 175.688 113.987 175.632 113.931C175.408 111.465 175.184 109.448 175.128 108.551C175.128 108.551 169.524 100.257 168.963 96.3341C168.403 92.4112 168.459 88.3203 170.813 86.639C176.361 82.6602 174.736 89.0488 177.257 91.6827C179.723 94.3166 183.59 98.6318 185.72 99.9767C187.737 101.266 189.474 106.141 189.755 106.87C189.474 105.805 186.616 95.2133 186.56 93.0837C186.504 90.8421 184.767 78.9615 187.681 74.7024C190.595 70.4433 194.462 73.7497 194.854 74.5903C195.19 75.4309 195.303 86.9192 196.367 90.1136C197.376 93.3079 201.691 106.646 201.691 106.646C201.691 106.646 201.859 93.7002 202.812 87.8719C203.765 82.0997 206.287 77.5604 208.752 77.2802C211.218 77 213.516 79.746 213.516 79.746C213.516 79.746 212.563 88.9928 212.843 91.1223C213.123 93.2519 212.451 100.985 213.628 105.132C213.628 105.132 213.516 94.0925 215.197 92.6914C216.934 91.2904 218.391 90.6179 219.344 91.5706C220.297 92.5233 220.521 99.0801 221.474 103.003C222.482 106.926 222.314 112.306 222.987 118.414C223.659 124.523 226.181 133.041 225.677 137.916C225.172 142.792 223.603 154.841 222.37 161.958C221.137 169.075 217.943 178.77 217.943 178.77C217.943 178.77 219.4 183.982 219.12 188.577C218.672 193.173 230.048 223.939 230.048 223.939Z" fill="white"/>
<path opacity="0.4" d="M196.255 90.1135C197.04 92.4672 199.562 100.369 200.851 104.348C200.851 104.348 195.303 108.439 195.415 112.25C195.583 116.06 194.406 123.738 191.884 123.514C189.418 123.29 189.586 107.318 188.802 104.684C189.306 105.861 189.642 106.758 189.699 106.982C189.53 106.309 186.56 95.3253 186.504 93.1397C186.504 92.6354 186.392 91.6266 186.28 90.2817C186.28 90.2817 191.828 85.0138 195.863 88.2081C195.975 88.9367 196.087 89.6092 196.255 90.1135Z" fill="#B5121B"/>
<path opacity="0.4" d="M212.787 94.7089C210.209 97.1747 206.287 101.49 205.782 105.693C205.782 105.693 207.239 117.405 206.623 122.449L201.579 106.646C201.579 106.646 201.747 93.7001 202.756 87.8719C202.756 87.7038 202.812 87.5356 202.868 87.3675C205.334 86.0786 208.752 84.9578 213.012 84.9017C212.843 87.4236 212.675 90.0575 212.787 91.1223C212.787 91.8508 212.787 93.1397 212.787 94.7089Z" fill="#B5121B"/>
<path opacity="0.4" d="M215.085 92.6914C215.029 92.6914 215.029 92.6914 215.085 92.6914C215.029 92.7474 214.861 92.8595 214.637 93.0837C214.749 92.8035 214.917 92.5793 215.085 92.3552V92.6914Z" fill="#B5121B"/>
<path opacity="0.4" d="M216.374 124.971C216.374 124.971 213.067 112.474 213.011 102.443C213.011 98.7438 213.403 95.3253 214.636 93.0277C214.748 92.7475 214.916 92.5233 215.085 92.2991V92.6354C215.813 92.075 216.486 91.5706 217.046 91.3464C216.093 92.8035 215.029 95.6616 216.261 100.313C218.223 107.542 216.542 116.453 216.374 124.971Z" fill="#B5121B"/>
<path opacity="0.4" d="M170.476 148.788C170.476 148.788 171.373 160.669 161.79 164.928C161.398 164.536 160.949 164.199 160.613 163.807C160.445 163.639 160.277 163.471 160.109 163.359C159.492 162.742 158.876 162.126 158.371 161.509C158.203 161.285 157.979 161.061 157.811 160.893C156.802 159.66 156.13 158.539 155.906 157.475C155.906 157.418 155.85 157.362 155.85 157.306C155.85 157.25 155.85 157.138 155.793 157.082C155.681 156.242 155.569 155.233 155.457 154.168C155.457 153.944 155.401 153.72 155.401 153.496C155.401 153.384 155.401 153.328 155.345 153.215C155.233 152.319 155.121 151.366 155.009 150.357C154.897 149.349 154.729 148.284 154.617 147.219C154.561 146.827 154.505 146.491 154.449 146.098C154.392 145.706 154.336 145.258 154.224 144.865C154.168 144.529 154.112 144.137 154.056 143.801C154.056 143.745 154.056 143.688 154 143.632C153.944 143.24 153.832 142.792 153.776 142.4C153.776 142.344 153.776 142.287 153.776 142.231C153.72 141.839 153.608 141.503 153.552 141.167C153.384 140.382 153.16 139.541 152.991 138.757C156.802 135.114 165.489 137.412 161.285 128.95C161.285 128.95 163.415 121.721 157.531 113.931C161.566 117.181 163.583 122.841 162.855 129.062C162.855 129.062 166.385 141.223 168.235 143.969C170.084 146.715 177.818 130.855 177.313 129.006C177.201 128.614 177.089 127.717 176.921 126.484C176.865 126.204 176.865 125.924 176.809 125.587C176.753 125.307 176.753 124.971 176.697 124.635C176.697 124.467 176.641 124.298 176.641 124.13C176.641 124.074 176.641 124.018 176.641 123.906C176.585 123.29 176.473 122.617 176.416 121.889C176.416 121.721 176.36 121.496 176.36 121.328C176.304 120.992 176.304 120.656 176.248 120.32C176.248 120.263 176.248 120.207 176.248 120.151C176.248 119.983 176.192 119.759 176.192 119.535C176.136 119.143 176.136 118.75 176.08 118.358C176.024 118.022 176.024 117.686 175.968 117.349C175.912 116.733 175.856 116.06 175.8 115.444C175.744 114.996 175.688 114.491 175.688 114.099C175.688 113.987 175.688 113.875 175.688 113.819C175.856 114.547 178.658 128.053 180.283 131.247C181.908 134.498 174.847 151.59 170.476 148.788Z" fill="#B5121B"/>
<path opacity="0.4" d="M222.258 161.958C221.025 169.075 217.831 178.77 217.831 178.77C217.831 178.77 219.288 183.982 219.008 188.577C218.952 189.81 219.68 192.948 220.857 196.871C220.521 196.031 216.934 186.728 216.99 183.533C217.046 180.171 216.094 179.218 214.188 175.071C212.283 170.924 209.425 171.373 209.425 171.373C209.425 171.373 208.304 181.74 205.726 174.959C203.092 168.122 202.588 160.164 209.201 132.592C209.201 132.592 210.209 136.067 209.369 146.322C208.528 156.578 210.994 159.716 210.994 159.716C210.994 159.716 216.318 150.974 219.736 139.317C219.736 139.317 218.896 151.31 218.111 156.746C217.326 162.182 220.801 150.413 223.211 143.128C225.452 136.291 225.564 133.713 224.724 128.838C225.34 132.256 225.845 135.507 225.621 137.916C225.06 142.736 223.491 154.841 222.258 161.958Z" fill="#B5121B"/>
<path opacity="0.4" d="M177.257 185.047C179.219 188.129 183.926 192.22 186.784 203.484C189.586 214.748 187.849 227.077 187.849 227.077L177.257 185.047Z" fill="#B5121B"/>
<path opacity="0.2" d="M162.238 121.048C162.238 121.048 152.319 126.092 151.534 134.498C148.676 128.109 152.375 130.407 150.133 113.931C150.133 113.931 151.815 110.12 156.522 113.146C156.858 113.37 157.25 113.651 157.587 113.931C158.539 114.715 159.38 115.612 160.109 116.621L162.238 121.048Z" fill="black" fill-opacity="0.7"/>
<path d="M190.258 230.72C190.258 230.72 183.309 193.901 179.218 188.129C175.071 182.357 175.856 179.947 173.839 176.024C171.821 172.101 156.522 162.63 155.849 157.082C155.177 151.534 154.392 140.886 151.534 134.498C148.676 128.109 152.375 130.407 150.133 113.931C150.133 113.931 151.815 110.12 156.522 113.146C161.229 116.173 163.695 122.281 162.911 129.062C162.911 129.062 166.441 141.167 168.347 143.969C170.196 146.715 177.93 130.855 177.425 129.006C176.921 127.157 175.464 111.353 175.24 108.495C175.24 108.495 169.635 100.201 169.075 96.2781C168.515 92.3552 168.571 88.2642 170.868 86.583C176.416 82.6041 174.791 88.9928 177.313 91.6267C179.779 94.2606 183.646 98.5757 185.775 99.9207C187.905 101.266 189.81 106.926 189.81 106.926C189.81 106.926 186.672 95.3254 186.56 93.0277C186.504 90.7861 184.766 78.9054 187.681 74.7024C190.595 70.4433 194.462 73.7497 194.854 74.5903C195.19 75.4309 195.302 86.9192 196.367 90.1136C197.376 93.3079 201.691 106.646 201.691 106.646C201.691 106.646 201.859 93.7002 202.868 87.8719C203.82 82.0997 206.342 77.5604 208.808 77.2802C211.274 77 213.571 79.746 213.571 79.746C213.571 79.746 212.619 88.9928 212.899 91.1223C213.179 93.2519 212.507 100.985 213.684 105.132C213.684 105.132 213.571 94.0925 215.253 92.6914C216.99 91.2904 218.447 90.6179 219.4 91.5706C220.352 92.5233 220.577 99.0801 221.529 103.003C222.538 106.926 222.37 112.306 223.042 118.414C223.659 124.523 226.237 133.097 225.732 137.916C225.228 142.792 223.659 154.841 222.426 161.958C221.193 169.075 217.999 178.77 217.999 178.77C217.999 178.77 219.456 183.926 219.176 188.577C218.895 193.173 230.272 223.995 230.272 223.995" stroke="#170203" stroke-width="0.560408" stroke-miterlimit="10" stroke-linecap="round" stroke-linejoin="round"/>
<path d="M201.579 106.646C202.755 109.392 205.614 120.88 206.622 122.449C207.631 124.018 208.808 124.523 208.808 124.523" stroke="#170203" stroke-width="0.560408" stroke-miterlimit="10" stroke-linecap="round" stroke-linejoin="round"/>
<path d="M213.459 105.133C213.459 105.133 213.235 107.486 214.468 114.996C215.757 122.505 216.374 125.699 217.102 127.381" stroke="#170203" stroke-width="0.560408" stroke-miterlimit="10" stroke-linecap="round" stroke-linejoin="round"/>
<path d="M189.698 106.926C191.267 111.521 192.108 118.806 193.005 120.992C193.901 123.178 194.686 123.626 194.686 123.626" stroke="#170203" stroke-width="0.560408" stroke-miterlimit="10" stroke-linecap="round" stroke-linejoin="round"/>
<path d="M192.22 117.91C192.22 117.91 193.846 119.143 194.35 120.6" stroke="#170203" stroke-width="0.560408" stroke-miterlimit="10" stroke-linecap="round" stroke-linejoin="round"/>
<path d="M168.235 143.969C168.235 143.969 169.075 150.021 172.886 149.573" stroke="#170203" stroke-width="0.560408" stroke-miterlimit="10" stroke-linecap="round" stroke-linejoin="round"/>
<path d="M177.313 129.006C177.313 129.006 178.322 136.235 176.697 139.261" stroke="#170203" stroke-width="0.560408" stroke-miterlimit="10" stroke-linecap="round" stroke-linejoin="round"/>
<path d="M207.743 129.062C207.743 129.062 210.321 130.631 208.584 135.226C206.847 139.822 203.876 158.315 203.876 158.315" stroke="#170203" stroke-width="0.560408" stroke-miterlimit="10" stroke-linecap="round" stroke-linejoin="round"/>
<path d="M218.84 133.937C219.904 138.084 220.017 138.197 218.279 143.296C216.542 148.396 213.74 160.893 213.74 160.893" stroke="#170203" stroke-width="0.560408" stroke-miterlimit="10" stroke-linecap="round" stroke-linejoin="round"/>
<path d="M217.831 178.714C217.831 178.714 216.149 175.352 217.55 172.549" stroke="#170203" stroke-width="0.560408" stroke-miterlimit="10" stroke-linecap="round" stroke-linejoin="round"/>
<path d="M179.218 188.129C179.218 188.129 183.421 194.069 185.271 200.682" stroke="#170203" stroke-width="0.560408" stroke-miterlimit="10" stroke-linecap="round" stroke-linejoin="round"/>
<path d="M210.321 84.1172L211.442 82.9964L211.946 82.8283V83.3887L210.881 84.7337L210.321 84.1172Z" fill="#626262" stroke="#170203" stroke-width="0.560408" stroke-miterlimit="10" stroke-linecap="round" stroke-linejoin="round"/>
<path d="M211.218 84.7337L209.368 88.9367L159.38 155.569L153.832 152.039L161.397 142.568L206.286 86.2468L210.265 83.7249C210.265 83.7249 211.105 83.9491 211.218 84.7337Z" fill="#B5121B"/>
<path opacity="0.3" d="M211.218 84.7337L209.368 88.9367L159.38 155.569L153.832 152.039L161.397 142.568C164.872 142.231 165.432 144.249 165.432 144.249L208.472 88.0401C208.023 86.527 206.23 86.2468 206.23 86.2468L210.209 83.7249C210.265 83.7249 211.105 83.9491 211.218 84.7337Z" fill="black" fill-opacity="0.7"/>
<path d="M211.218 84.7337L209.368 88.9367L159.38 155.569L153.832 152.039L161.397 142.568L206.286 86.2468L210.265 83.7249C210.265 83.7249 211.105 83.9491 211.218 84.7337Z" stroke="#170203" stroke-width="0.560408" stroke-miterlimit="10" stroke-linecap="round" stroke-linejoin="round"/>
<path d="M175.688 135.843C175.688 135.843 170.083 146.939 164.76 154.729L160.949 155.737C160.949 155.737 152.15 164.48 146.771 168.851C146.771 168.851 145.369 168.066 144.137 166.665C144.137 166.665 151.758 152.039 160.164 142.792C160.164 142.792 161.397 143.184 162.91 144.249C163.807 144.921 164.872 145.818 165.824 146.995L175.239 135.17L175.688 135.843Z" fill="#B5121B"/>
<path opacity="0.3" d="M175.688 135.843C175.688 135.843 170.084 146.939 164.76 154.729L160.949 155.737C160.949 155.737 152.151 164.48 146.771 168.851L146.939 166.497C152.767 157.587 160.165 147.892 162.967 144.249C163.863 144.921 164.928 145.818 165.881 146.995L160.669 153.944L163.639 153.384L175.296 135.114L175.688 135.843Z" fill="black" fill-opacity="0.7"/>
<path d="M175.688 135.843C175.688 135.843 170.083 146.939 164.76 154.729L160.949 155.737C160.949 155.737 152.15 164.48 146.771 168.851C146.771 168.851 145.369 168.066 144.137 166.665C144.137 166.665 151.758 152.039 160.164 142.792C160.164 142.792 161.397 143.184 162.91 144.249C163.807 144.921 164.872 145.818 165.824 146.995L175.239 135.17L175.688 135.843Z" stroke="#170203" stroke-width="0.560408" stroke-miterlimit="10" stroke-linecap="round" stroke-linejoin="round"/>
<path d="M194.685 123.682L179.05 138.813L176.528 141.223C178.209 136.852 177.425 130.015 177.313 129.23C177.313 129.174 177.313 129.174 177.313 129.174C177.313 129.118 177.313 129.062 177.313 129.062C177.201 128.67 177.089 127.773 176.92 126.54C176.864 126.26 176.864 125.98 176.808 125.643C176.752 125.363 176.752 125.027 176.696 124.691C176.696 124.523 176.64 124.354 176.64 124.186C176.64 124.13 176.64 124.074 176.64 123.962C176.584 123.346 176.472 122.673 176.416 121.945C176.416 121.777 176.36 121.552 176.36 121.384C176.304 121.048 176.304 120.712 176.248 120.376C176.248 120.32 176.248 120.263 176.248 120.207C176.248 120.039 176.192 119.815 176.192 119.591C176.136 119.199 176.136 118.806 176.08 118.414C176.024 118.078 176.024 117.742 175.968 117.405C175.912 116.789 175.856 116.116 175.8 115.5C175.744 115.052 175.687 114.603 175.687 114.155C175.687 114.043 175.687 113.931 175.687 113.875C175.463 111.409 175.239 109.392 175.183 108.495C175.183 108.495 169.579 100.201 169.019 96.278C168.458 92.3552 168.514 88.2642 170.868 86.583C176.416 82.6041 174.791 88.9927 177.313 91.6266C179.778 94.2606 183.645 98.5757 185.775 99.9207C187.96 101.266 189.81 106.926 189.81 106.926C191.379 111.521 192.22 118.806 193.116 120.992C193.901 123.178 194.685 123.682 194.685 123.682Z" fill="white"/>
<path d="M192.22 117.91C192.22 117.91 193.845 119.143 194.349 120.6" stroke="#170203" stroke-width="0.560408" stroke-miterlimit="10" stroke-linecap="round" stroke-linejoin="round"/>
<path opacity="0.4" d="M177.201 91.6266C179.666 94.2606 183.477 98.5757 185.663 99.9207C185.383 99.7526 181.404 97.8472 179.162 99.9767C176.864 102.218 175.183 108.495 175.183 108.495C175.183 108.495 169.579 100.201 169.019 96.278C168.458 92.3552 168.514 88.2642 170.868 86.583C176.304 82.6041 174.679 88.9927 177.201 91.6266Z" fill="#B5121B"/>
<path opacity="0.4" d="M179.106 138.813L176.585 141.223C178.266 136.852 177.481 130.015 177.369 129.23C177.369 129.174 177.369 129.118 177.369 129.062C177.257 128.67 177.145 127.773 176.977 126.54C176.921 126.26 176.921 125.98 176.865 125.643C176.809 125.363 176.809 125.027 176.753 124.691C176.753 124.523 176.697 124.354 176.697 124.186C176.697 124.13 176.697 124.074 176.697 123.962C176.641 123.346 176.528 122.673 176.472 121.945C176.472 121.777 176.416 121.552 176.416 121.384C176.36 121.048 176.36 120.712 176.304 120.376C176.304 120.32 176.304 120.263 176.304 120.207C176.304 120.039 176.248 119.815 176.248 119.591C176.192 119.199 176.192 118.806 176.136 118.414C176.08 118.078 176.08 117.742 176.024 117.405C175.968 116.789 175.912 116.116 175.856 115.5C175.8 115.052 175.744 114.547 175.744 114.155C175.744 114.043 175.744 113.931 175.744 113.875C175.912 114.603 178.714 128.109 180.339 131.303C180.844 132.48 180.283 135.507 179.106 138.813Z" fill="#B5121B"/>
<path d="M194.686 123.682C194.686 123.682 193.901 123.234 193.004 121.048C192.108 118.862 191.267 111.577 189.698 106.982C189.698 106.982 187.793 101.378 185.663 99.9767C183.534 98.5757 179.667 94.3166 177.201 91.6827C174.735 89.0488 176.36 82.6601 170.756 86.639C168.403 88.3203 168.346 92.4112 168.963 96.3341C169.523 100.257 175.127 108.551 175.127 108.551C175.352 111.409 176.865 127.213 177.313 129.062" stroke="#170203" stroke-width="0.560408" stroke-miterlimit="10" stroke-linecap="round" stroke-linejoin="round"/>
<path d="M177.313 129.006C177.313 129.006 178.322 136.235 176.697 139.261" stroke="#170203" stroke-width="0.560408" stroke-miterlimit="10" stroke-linecap="round" stroke-linejoin="round"/>
<path opacity="0.2" d="M81.4831 137.86C81.4831 137.86 85.0137 154.336 77.3361 166.329C69.6585 178.322 63.7182 181.516 61.0843 185.103C58.4504 188.689 48.0268 208.696 48.0268 208.696L35.866 172.606L48.0268 128.053L81.4831 137.86Z" fill="black" fill-opacity="0.7"/>
<path d="M153.16 125.251L77.7847 156.97L69.9951 160.221L55.3124 125.419L21.2957 44.6085L104.516 9.58298L153.16 125.251Z" fill="white"/>
<path d="M82.9962 24.6579L47.0741 39.7329C46.4016 40.0131 46.0654 40.7977 46.3456 41.4702C46.6258 42.1427 47.4103 42.4789 48.0828 42.1987L84.0049 27.0677C84.6774 26.7875 85.0137 26.0029 84.7335 25.3304C84.4533 24.6579 83.6687 24.3777 82.9962 24.6579Z" fill="#170203"/>
<path d="M76.1592 33.4563L58.2262 41.0218C57.8899 41.19 57.7218 41.5262 57.8899 41.8624C58.0581 42.1987 58.3943 42.3668 58.7305 42.1987L76.6636 34.6332C76.9998 34.4651 77.1679 34.1288 76.9998 33.7926C76.8877 33.4563 76.4955 33.2882 76.1592 33.4563Z" fill="#170203"/>
<path d="M105.692 79.4658C105.692 79.4658 106.477 85.4061 104.235 86.3588C102.218 87.1994 99.5276 84.0051 97.2299 85.0138C94.8762 85.9665 96.7256 94.4287 94.484 95.3814C92.2423 96.3341 89.5524 92.8595 87.5909 93.7001C85.6295 94.5407 86.8064 98.8559 84.8449 99.6965C83.2198 100.369 80.866 96.9505 78.9607 96.1659C78.5684 95.9978 78.1761 95.9418 77.8398 96.1099C75.8784 96.9505 76.8311 105.973 75.1499 106.702C74.5895 106.926 74.0851 106.982 73.6368 106.926C72.9643 106.87 72.3479 106.702 71.7314 106.758C71.5072 106.758 71.2831 106.814 71.0029 106.926C69.5458 107.542 69.77 112.306 68.425 112.866C67.08 113.426 65.7911 112.754 64.3901 113.314C62.989 113.931 62.989 116.397 60.8595 117.293L61.7561 119.423L113.37 97.679" fill="#C8C8C8"/>
<path d="M105.692 79.4658C105.692 79.4658 106.477 85.4061 104.235 86.3588C102.218 87.1994 99.5276 84.0051 97.2299 85.0138C94.8762 85.9665 96.7256 94.4287 94.484 95.3814C92.2423 96.3341 89.5524 92.8595 87.5909 93.7001C85.6295 94.5407 86.8064 98.8559 84.8449 99.6965C83.2198 100.369 80.866 96.9505 78.9607 96.1659C78.5684 95.9978 78.1761 95.9418 77.8398 96.1099C75.8784 96.9505 76.8311 105.973 75.1499 106.702C74.5895 106.926 74.0851 106.982 73.6368 106.926C72.9643 106.87 72.3479 106.702 71.7314 106.758C71.5072 106.758 71.2831 106.814 71.0029 106.926C69.5458 107.542 69.77 112.306 68.425 112.866C67.08 113.426 65.7911 112.754 64.3901 113.314C62.989 113.931 62.989 116.397 60.8595 117.293L61.7561 119.423L113.37 97.679" stroke="#170203" stroke-width="0.560408" stroke-miterlimit="10"/>
<path d="M51.2764 94.5968L61.6999 119.423L115.779 96.6703" stroke="#170203" stroke-width="0.560408" stroke-miterlimit="10" stroke-linecap="round" stroke-linejoin="round"/>
<path d="M109.839 89.3289C109.839 89.3289 109.559 88.9927 109.223 88.6564C108.55 88.04 107.485 87.1994 106.701 87.5356C105.916 87.8719 105.86 89.1608 105.86 90.5618C105.86 92.2431 106.028 94.0924 105.188 94.4286C104.459 94.7089 103.787 94.2605 103.114 93.7562C102.33 93.1958 101.545 92.5793 100.592 92.9716C99.0233 93.6441 99.4716 95.7176 98.9112 97.5109C98.631 98.4075 98.0706 99.2482 96.8377 99.7525C95.4366 100.313 94.0917 99.7525 92.7467 98.8559C90.5051 97.3428 88.5436 94.877 87.2547 95.4374C85.1812 96.278 87.4789 101.882 85.2372 102.779C84.0043 103.283 81.4265 99.4163 78.9607 96.0538C76.9992 93.4199 75.0938 91.1222 73.917 91.5706C71.227 92.6914 75.6543 105.973 73.6928 106.814H73.6368C72.8522 107.15 72.2358 106.926 71.7314 106.646C71.0589 106.253 70.4425 105.693 69.7139 106.029C68.3129 106.646 69.0975 111.857 67.5283 112.53C65.9592 113.202 65.0065 112.25 63.2693 112.978C61.7562 113.595 60.8595 117.237 60.8595 117.237L61.7561 119.367L113.37 97.623" fill="#626262"/>
<path d="M109.839 89.3289C109.839 89.3289 109.559 88.9927 109.223 88.6564C108.55 88.04 107.485 87.1994 106.701 87.5356C105.916 87.8719 105.86 89.1608 105.86 90.5618C105.86 92.2431 106.028 94.0924 105.188 94.4286C104.459 94.7089 103.787 94.2605 103.114 93.7562C102.33 93.1958 101.545 92.5793 100.592 92.9716C99.0233 93.6441 99.4716 95.7176 98.9112 97.5109C98.631 98.4075 98.0706 99.2482 96.8377 99.7525C95.4366 100.313 94.0917 99.7525 92.7467 98.8559C90.5051 97.3428 88.5436 94.877 87.2547 95.4374C85.1812 96.278 87.4789 101.882 85.2372 102.779C84.0043 103.283 81.4265 99.4163 78.9607 96.0538C76.9992 93.4199 75.0938 91.1222 73.917 91.5706C71.227 92.6914 75.6543 105.973 73.6928 106.814H73.6368C72.8522 107.15 72.2358 106.926 71.7314 106.646C71.0589 106.253 70.4425 105.693 69.7139 106.029C68.3129 106.646 69.0975 111.857 67.5283 112.53C65.9592 113.202 65.0065 112.25 63.2693 112.978C61.7562 113.595 60.8595 117.237 60.8595 117.237L61.7561 119.367L113.37 97.623" stroke="#170203" stroke-width="0.560408" stroke-miterlimit="10" stroke-linecap="round" stroke-linejoin="round"/>
<path d="M98.9117 107.038L80.9786 114.603C80.6424 114.771 80.4742 115.108 80.6424 115.444C80.8105 115.78 81.1467 115.948 81.483 115.78L99.416 108.215C99.7523 108.047 99.9204 107.71 99.7523 107.374C99.6402 107.094 99.2479 106.926 98.9117 107.038Z" fill="#170203"/>
<path d="M114.154 79.69L112.417 80.4185C112.249 80.4745 112.025 80.4185 111.969 80.2504L111.24 78.5131C111.184 78.345 111.24 78.1208 111.408 78.0648L113.146 77.3363C113.314 77.2802 113.538 77.3363 113.594 77.5044L114.322 79.2416C114.379 79.4098 114.322 79.6339 114.154 79.69Z" fill="#C8C8C8" stroke="#170203" stroke-width="0.560408" stroke-miterlimit="10"/>
<path d="M122.505 74.3661L115.332 77.3923C115.164 77.4483 114.996 77.3923 114.939 77.2242C114.883 77.0561 114.939 76.8879 115.108 76.8319L122.281 73.8057C122.449 73.7496 122.617 73.8057 122.673 73.9738C122.729 74.1419 122.673 74.31 122.505 74.3661Z" fill="#170203"/>
<path d="M120.823 76.4956L115.836 78.5691C115.668 78.6252 115.5 78.5691 115.444 78.401C115.387 78.2329 115.444 78.0648 115.612 78.0087L120.599 75.9352C120.767 75.8792 120.935 75.9352 120.992 76.1034C121.048 76.2715 120.992 76.4396 120.823 76.4956Z" fill="#170203"/>
<path d="M116.396 85.0139L114.659 85.7424C114.491 85.7984 114.267 85.7424 114.211 85.5743L113.482 83.837C113.426 83.6689 113.482 83.4447 113.65 83.3887L115.388 82.6601C115.556 82.6041 115.78 82.6601 115.836 82.8283L116.564 84.5655C116.62 84.7336 116.564 84.9578 116.396 85.0139Z" fill="#626262" stroke="#170203" stroke-width="0.560408" stroke-miterlimit="10" stroke-linecap="round" stroke-linejoin="round"/>
<path d="M124.746 79.746L117.573 82.7722C117.405 82.8282 117.237 82.7722 117.181 82.6041C117.125 82.436 117.181 82.2678 117.349 82.2118L124.522 79.1856C124.69 79.1296 124.858 79.1856 124.914 79.3537C124.97 79.5218 124.914 79.6339 124.746 79.746Z" fill="#170203"/>
<path d="M123.065 81.8195L118.078 83.893C117.91 83.9491 117.741 83.893 117.685 83.7249C117.629 83.5568 117.685 83.3887 117.854 83.3326L122.841 81.2591C123.009 81.2031 123.177 81.2591 123.233 81.4272C123.29 81.5954 123.233 81.7635 123.065 81.8195Z" fill="#170203"/>
<path d="M134.217 101.714L75.9348 126.26C75.5986 126.428 75.4304 126.764 75.5985 127.1C75.7667 127.437 76.1029 127.605 76.4392 127.437L134.722 102.891C135.058 102.723 135.226 102.386 135.058 102.05C134.89 101.714 134.553 101.546 134.217 101.714Z" fill="#170203"/>
<path d="M136.01 106.085L68.2572 134.61C67.9209 134.778 67.7528 135.114 67.9209 135.451C68.0891 135.787 68.4253 135.955 68.7615 135.787L136.515 107.262C136.851 107.094 137.019 106.758 136.851 106.421C136.739 106.141 136.347 105.973 136.01 106.085Z" fill="#170203"/>
<path d="M137.86 110.512L70.1065 138.981C69.7703 139.149 69.6022 139.485 69.7703 139.822C69.9384 140.158 70.2747 140.326 70.6109 140.158L138.42 111.689C138.756 111.521 138.925 111.185 138.756 110.849C138.588 110.512 138.196 110.344 137.86 110.512Z" fill="#170203"/>
<path d="M139.71 114.884L71.9564 143.408C71.6202 143.576 71.452 143.913 71.6202 144.249C71.7883 144.585 72.1245 144.753 72.4608 144.585L140.214 116.06C140.55 115.892 140.718 115.556 140.55 115.22C140.438 114.884 140.046 114.715 139.71 114.884Z" fill="#170203"/>
<path d="M113.09 131.247L73.8051 147.779C73.4689 147.948 73.3008 148.284 73.4689 148.62C73.637 148.956 73.9733 149.124 74.3095 148.956L113.594 132.424C113.93 132.256 114.098 131.92 113.93 131.584C113.818 131.247 113.426 131.079 113.09 131.247Z" fill="#170203"/>
<path d="M91.4586 45.6732C91.4586 45.6732 92.2432 51.6135 90.0015 52.5662C87.9841 53.4068 85.2941 50.2125 82.9964 51.2212C80.6427 52.1739 82.4921 60.6361 80.2504 61.5888C78.0088 62.5415 75.3188 59.0669 73.3574 59.9075C71.396 60.7482 72.5728 65.0633 70.6114 65.9039C68.9862 66.5764 66.6325 63.1579 64.7271 62.3733C64.3349 62.2052 63.9426 62.1492 63.6063 62.3173C61.6449 63.1579 62.5976 72.1805 60.9164 72.909C60.356 73.1332 59.8516 73.1892 59.4033 73.1332C58.7308 73.0771 58.1143 72.909 57.4979 72.965C57.2737 72.965 57.0496 73.0211 56.7694 73.1332C55.3123 73.7496 55.5365 78.5131 54.1915 79.0735C52.8465 79.6339 51.5576 78.9614 50.1565 79.5218C48.7555 80.1382 48.7555 82.604 46.626 83.5007L47.5226 85.6302L99.1362 63.8864" fill="#C8C8C8"/>
<path d="M91.4586 45.6732C91.4586 45.6732 92.2432 51.6135 90.0015 52.5662C87.9841 53.4068 85.2941 50.2125 82.9964 51.2212C80.6427 52.1739 82.4921 60.6361 80.2504 61.5888C78.0088 62.5415 75.3188 59.0669 73.3574 59.9075C71.396 60.7482 72.5728 65.0633 70.6114 65.9039C68.9862 66.5764 66.6325 63.1579 64.7271 62.3733C64.3349 62.2052 63.9426 62.1492 63.6063 62.3173C61.6449 63.1579 62.5976 72.1805 60.9164 72.909C60.356 73.1332 59.8516 73.1892 59.4033 73.1332C58.7308 73.0771 58.1143 72.909 57.4979 72.965C57.2737 72.965 57.0496 73.0211 56.7694 73.1332C55.3123 73.7496 55.5365 78.5131 54.1915 79.0735C52.8465 79.6339 51.5576 78.9614 50.1565 79.5218C48.7555 80.1382 48.7555 82.604 46.626 83.5007L47.5226 85.6302L99.1362 63.8864" stroke="#170203" stroke-width="0.560408" stroke-miterlimit="10"/>
<path d="M94.8209 53.631C94.8209 53.631 95.2692 56.4891 94.1484 56.9935C93.1957 57.3857 92.6353 56.8253 91.6266 56.8253C91.2343 56.8253 90.7859 56.8814 90.1695 57.1055C89.2728 57.4978 89.0487 58.7307 88.8806 60.0197C88.6564 61.6448 88.6004 63.4381 87.3675 63.9425C86.5268 64.2788 85.6302 64.1106 84.6775 63.7744C83.2205 63.27 81.6513 62.4294 80.1382 63.0459C79.4097 63.3261 78.9053 64.1667 78.513 65.1194C77.5603 67.417 77.2801 70.7795 76.2714 71.2278C74.8143 71.8443 72.1804 69.3785 70.8915 69.8828C69.6025 70.4432 70.163 72.6288 69.0982 73.0772C68.0334 73.5255 67.473 72.2365 65.6236 73.0211C63.7743 73.8057 64.671 76.4956 62.0931 77.5604C59.5152 78.6252 58.3944 76.6638 55.8726 77.6725C53.4068 78.7373 53.8551 80.5866 52.0618 81.3712C50.3245 82.0997 49.54 80.8108 48.3071 81.3712C47.0742 81.8756 46.7379 83.893 46.7379 84.0051L47.4104 85.6303L99.0239 63.8865" fill="#B5121B"/>
<path d="M94.8209 53.631C94.8209 53.631 95.2692 56.4891 94.1484 56.9935C93.1957 57.3857 92.6353 56.8253 91.6266 56.8253C91.2343 56.8253 90.7859 56.8814 90.1695 57.1055C89.2728 57.4978 89.0487 58.7307 88.8806 60.0197C88.6564 61.6448 88.6004 63.4381 87.3675 63.9425C86.5268 64.2788 85.6302 64.1106 84.6775 63.7744C83.2205 63.27 81.6513 62.4294 80.1382 63.0459C79.4097 63.3261 78.9053 64.1667 78.513 65.1194C77.5603 67.417 77.2801 70.7795 76.2714 71.2278C74.8143 71.8443 72.1804 69.3785 70.8915 69.8828C69.6025 70.4432 70.163 72.6288 69.0982 73.0772C68.0334 73.5255 67.473 72.2365 65.6236 73.0211C63.7743 73.8057 64.671 76.4956 62.0931 77.5604C59.5152 78.6252 58.3944 76.6638 55.8726 77.6725C53.4068 78.7373 53.8551 80.5866 52.0618 81.3712C50.3245 82.0997 49.54 80.8108 48.3071 81.3712C47.0742 81.8756 46.7379 83.893 46.7379 84.0051L47.4104 85.6303L99.0239 63.8865" stroke="#170203" stroke-width="0.560408" stroke-miterlimit="10"/>
<path d="M37.043 60.8042L47.5226 85.6303L101.546 62.8777" stroke="#170203" stroke-width="0.560408" stroke-miterlimit="10" stroke-linecap="round" stroke-linejoin="round"/>
<path d="M84.5094 72.909L66.5764 80.4745C66.2402 80.6426 66.072 80.9789 66.2401 81.3151C66.4083 81.6514 66.7445 81.8195 67.0808 81.6514L85.0138 74.0859C85.35 73.9177 85.5182 73.5815 85.3501 73.2452C85.238 72.909 84.8457 72.7409 84.5094 72.909Z" fill="#170203"/>
<path d="M99.024 43.7678L97.2867 44.4964C97.1186 44.5524 96.8945 44.4964 96.8384 44.3282L96.1099 42.591C96.0538 42.4228 96.1099 42.1987 96.278 42.1426L98.0153 41.4141C98.1834 41.3581 98.4076 41.4141 98.4636 41.5822L99.1921 43.3195C99.2482 43.4876 99.1921 43.7118 99.024 43.7678Z" fill="#C8C8C8" stroke="#170203" stroke-width="0.560408" stroke-miterlimit="10"/>
<path d="M107.375 38.444L100.201 41.4702C100.033 41.5262 99.8651 41.4702 99.8091 41.302C99.7531 41.1339 99.8091 40.9658 99.9772 40.9098L107.15 37.8836C107.319 37.8275 107.487 37.8836 107.543 38.0517C107.599 38.2198 107.543 38.3879 107.375 38.444Z" fill="#170203"/>
<path d="M105.693 40.5735L100.706 42.647C100.538 42.703 100.37 42.647 100.313 42.4789C100.257 42.3108 100.313 42.1426 100.482 42.0866L105.469 40.0131C105.637 39.957 105.805 40.0131 105.862 40.1812C105.918 40.3493 105.862 40.5174 105.693 40.5735Z" fill="#170203"/>
<path d="M101.266 49.0917L99.5284 49.8202C99.3603 49.8763 99.1362 49.8202 99.0801 49.6521L98.3516 47.9149C98.2955 47.7467 98.3516 47.5226 98.5197 47.4665L100.257 46.738C100.425 46.682 100.649 46.738 100.705 46.9061L101.434 48.6434C101.546 48.8115 101.434 49.0357 101.266 49.0917Z" fill="#B5121B" stroke="#170203" stroke-width="0.560408" stroke-miterlimit="10"/>
<path d="M109.616 43.7678L102.443 46.794C102.274 46.8501 102.106 46.794 102.05 46.6259C101.994 46.4578 102.05 46.2897 102.218 46.2336L109.392 43.2074C109.56 43.1514 109.728 43.2074 109.784 43.3755C109.84 43.5437 109.784 43.7118 109.616 43.7678Z" fill="#170203"/>
<path d="M107.935 45.8974L102.947 47.9709C102.779 48.0269 102.611 47.9709 102.555 47.8028C102.499 47.6347 102.555 47.4665 102.723 47.4105L107.711 45.337C107.879 45.281 108.047 45.337 108.103 45.5051C108.159 45.6732 108.103 45.8414 107.935 45.8974Z" fill="#170203"/>
<path opacity="0.2" d="M77.7839 156.97L69.9942 160.221L55.3676 125.419C56.2642 124.523 57.385 123.066 57.8333 120.6C58.73 115.948 58.1135 100.929 69.77 99.4163C81.4265 97.8472 71.6194 124.13 72.1237 129.118C72.5721 133.713 79.2409 146.939 77.7839 156.97Z" fill="black" fill-opacity="0.7"/>
<path d="M153.16 125.251L77.7847 156.97L69.9951 160.221L55.3124 125.419L21.2957 44.6085L104.516 9.58298L153.16 125.251Z" stroke="#170203" stroke-width="0.560408" stroke-miterlimit="10" stroke-linecap="round" stroke-linejoin="round"/>
<path d="M73.077 131.023C74.3659 126.54 79.5217 112.194 78.8492 105.861C78.7931 105.301 78.681 104.796 78.5129 104.292C76.7196 99.5284 69.3783 100.033 66.5762 103.956C63.494 108.271 60.9722 116.06 60.748 120.768C60.6359 123.402 59.5151 125.812 58.5064 127.437C57.7218 128.726 57.0493 129.566 57.0493 129.566L40.3492 89.8894C40.3492 89.8894 37.6592 92.075 35.978 94.7649C35.3055 95.8297 34.8011 97.0066 34.6891 98.1834C34.3528 102.106 29.9256 118.134 28.0762 124.915C28.0202 125.083 28.0202 125.195 27.9642 125.307C26.1709 131.808 30.8783 156.017 29.5333 163.023C28.1883 170.028 27.3477 169.916 27.1796 174.903C27.0115 178.546 21.7997 189.642 15.9714 201.018C12.609 207.519 9.07843 214.132 6.16431 219.512L48.9234 217.718C49.6519 212.507 50.4365 207.015 51.109 201.747C51.3892 199.561 51.8375 197.32 52.3979 195.19C53.3506 191.379 54.4714 187.905 55.2 185.887C56.3208 182.749 57.4416 176.865 57.4416 176.865C62.4292 171.597 68.93 163.303 70.8353 157.699C70.8353 157.699 70.8353 157.699 70.8353 157.643C71.3397 156.242 71.5078 155.009 71.2837 154C71.1155 153.215 71.0035 152.151 70.9474 150.918C70.5551 144.865 71.9561 134.778 73.077 131.023Z" fill="white"/>
<path opacity="0.4" d="M58.4503 127.437C57.1053 130.071 55.5361 132.705 54.5274 135.675C53.5187 138.645 52.3979 139.093 49.4277 141.391C46.4575 143.745 44.2719 139.878 44.2719 139.878C44.2719 139.878 48.2508 135.787 46.9059 133.489C45.5609 131.191 40.6853 125.475 40.9655 122.337C41.2457 119.199 37.9954 112.138 37.9954 112.138C37.9954 112.138 45.4488 107.766 43.9917 102.611C43.2072 99.8086 39.2843 96.8384 35.9219 94.7089C37.6031 92.0189 40.2931 89.8333 40.2931 89.8333L56.9932 129.51C56.9932 129.566 57.6657 128.782 58.4503 127.437Z" fill="#B5121B"/>
<path opacity="0.4" d="M31.3262 151.814C31.4383 152.151 33.8481 160.164 31.8306 163.527C29.7571 166.945 27.6836 171.317 28.6923 175.856C29.4769 179.499 22.752 192.612 15.915 201.018C21.7433 189.642 26.9551 178.546 27.1232 174.903C27.2913 169.916 28.1319 170.084 29.4769 163.023C30.8219 156.017 26.1145 131.808 27.9078 125.307C27.9638 125.195 27.9638 125.027 28.0198 124.915C29.3088 132.312 32.391 146.995 33.1756 151.702C34.2404 157.755 31.4383 152.039 31.3262 151.814Z" fill="#B5121B"/>
<path opacity="0.4" d="M46.7374 200.234C51.7251 178.826 68.4252 162.406 70.7229 157.699C68.8175 163.303 62.3168 171.597 57.3291 176.865C57.3291 176.865 56.2083 182.749 55.0875 185.887C54.415 187.905 53.2382 191.379 52.2855 195.19C47.4099 200.85 46.7374 200.234 46.7374 200.234Z" fill="#B5121B"/>
<path opacity="0.4" d="M73.0766 131.023C71.9558 134.778 70.6108 144.865 70.8349 150.918C69.9383 147.107 68.2571 142.287 67.9769 135.507C67.5285 124.074 73.9732 128.165 71.7316 122.561C69.49 116.957 63.0453 124.13 66.1836 112.25C68.4812 103.563 75.094 103.619 78.4565 104.292C78.6246 104.74 78.7367 105.245 78.7927 105.861C79.4652 112.194 74.3655 126.54 73.0766 131.023Z" fill="#B5121B"/>
<path d="M12.5524 207.687C17.9323 197.88 23.1441 187.793 26.8988 176.921C27.3471 175.352 26.7307 173.334 27.179 171.765C32.2787 157.643 26.5065 142.96 27.4592 128.501C28.2438 122.785 30.0931 117.069 31.8864 111.297C32.727 107.15 33.0633 102.499 34.4643 98.2955C35.8653 95.1572 37.2663 91.4585 40.2925 89.8894C46.0087 103.003 51.7249 116.172 56.9927 129.566C59.4024 128.165 59.7947 125.083 60.187 122.505C61.4759 116.285 62.7649 110.568 65.1186 105.301C67.5283 101.098 73.6368 99.3042 77.3915 102.723C78.4563 103.731 79.0167 105.245 79.1288 106.758C78.4002 113.987 76.1026 121.328 73.861 128.109C72.9643 131.247 72.0116 133.825 71.6754 136.964C71.7314 137.972 71.7314 138.533 71.7874 139.541C70.4425 144.753 71.6754 149.349 71.3952 154.504C70.2183 163.807 62.7649 170.308 57.385 177.257C56.04 182.469 54.7511 187.68 52.9017 192.892C50.6601 200.738 49.9315 208.472 49.147 215.981" stroke="#170203" stroke-width="0.560408" stroke-miterlimit="10" stroke-linecap="round" stroke-linejoin="round"/>
<path d="M56.9929 129.566C56.9929 129.566 55.2557 132.929 54.5271 135.675C53.7986 138.421 50.268 138.028 48.4187 139.71" stroke="#170203" stroke-width="0.560408" stroke-miterlimit="10" stroke-linecap="round" stroke-linejoin="round"/>
<path d="M43.5991 124.747C43.5991 124.747 48.4186 126.428 51.2207 128.614C54.0227 130.799 56.0962 131.36 56.0962 131.36" stroke="#170203" stroke-width="0.560408" stroke-miterlimit="10" stroke-linecap="round" stroke-linejoin="round"/>
<path d="M40.5167 112.754C40.5167 112.754 44.3835 113.819 47.2977 112.474C47.2977 112.474 47.5218 110.064 48.0262 108.327" stroke="#170203" stroke-width="0.560408" stroke-miterlimit="10" stroke-linecap="round" stroke-linejoin="round"/>
<path d="M48.1949 113.034C48.1949 113.034 48.251 113.595 50.2124 113.595" stroke="#170203" stroke-width="0.560408" stroke-miterlimit="10" stroke-linecap="round" stroke-linejoin="round"/>
<path d="M57.3296 176.865C57.3296 176.865 53.5189 180.283 51.2212 186.504" stroke="#170203" stroke-width="0.560408" stroke-miterlimit="10" stroke-linecap="round" stroke-linejoin="round"/>
<path d="M27.6278 126.54C27.4597 129.902 31.3825 141.839 32.6154 147.779C33.7923 153.72 34.2406 157.923 34.2406 157.923" stroke="#170203" stroke-width="0.560408" stroke-miterlimit="10" stroke-linecap="round" stroke-linejoin="round"/>
</g>
<defs>
<clipPath id="clip0_92_11322">
<rect width="251.063" height="231" fill="white"/>
</clipPath>
</defs>
</svg>
