<svg width="317" height="277" viewBox="0 0 317 277" fill="none" xmlns="http://www.w3.org/2000/svg">
<path opacity="0.1" d="M32.1681 109.823C45.4873 92.1697 68.9833 80.5623 74.6483 78.9601C111.316 68.5465 147.147 43.984 183.923 36.5051C220.699 29.0261 259.871 40.5333 291.01 95.622C307.701 125.197 305.341 152.057 287.051 166.181C218.741 219.044 145.226 229.127 74.3541 192.868C60.3591 185.72 46.4117 176.704 33.4097 160.806C17.4655 141.401 21.6784 123.778 32.1681 109.823Z" fill="#B5121B"/>
<path opacity="0.1" d="M30.1647 95.0274C46.0782 79.6135 71.0814 71.6613 76.933 70.9135C114.783 66.1137 153.997 47.2143 191.509 45.3736C229.022 43.5328 265.961 60.7387 288.259 119.853C300.22 151.594 293.715 177.782 273.461 188.971C197.703 230.935 123.49 229.894 59.0328 183.427C46.3036 174.235 33.8757 163.255 23.513 145.594C10.7519 124.024 17.6317 107.212 30.1647 95.0274Z" fill="#B5121B"/>
<g clip-path="url(#clip0_92_11615)">
<path d="M78.2162 218.152L82.2656 244.64L105.657 244.64L111.088 218.533L78.2162 218.152Z" fill="#C6B1B2"/>
<path d="M107.805 235.112C107.805 235.207 101.802 235.255 94.4176 235.255C87.0333 235.255 81.0306 235.207 81.0306 235.112C81.0306 235.016 87.0333 234.969 94.4176 234.969C101.802 235.016 107.805 235.064 107.805 235.112Z" fill="#FAFAFA"/>
<path d="M107.9 233.826C107.9 233.921 101.849 233.968 94.4173 233.968C86.9854 233.968 80.9351 233.921 80.9351 233.826C80.9351 233.73 86.9854 233.683 94.4173 233.683C101.897 233.683 107.9 233.778 107.9 233.826Z" fill="#FAFAFA"/>
<path d="M107.846 232.349C107.846 232.444 101.796 232.492 94.3637 232.492C86.9318 232.492 80.8815 232.444 80.8815 232.349C80.8815 232.253 86.9318 232.206 94.3637 232.206C101.843 232.206 107.846 232.301 107.846 232.349Z" fill="#FAFAFA"/>
<path d="M84.9373 243.116C84.842 243.116 84.5562 241.639 84.2227 239.781C83.8892 237.923 83.6987 236.399 83.7939 236.399C83.8892 236.399 84.1751 237.876 84.5085 239.734C84.7944 241.592 85.0326 243.116 84.9373 243.116Z" fill="#FAFAFA"/>
<path d="M86.4969 242.83C86.4016 242.83 86.3063 241.353 86.2111 239.59C86.0681 237.78 85.9729 236.351 86.0681 236.351C86.1634 236.351 86.354 237.78 86.4969 239.59C86.6398 241.401 86.5922 242.83 86.4969 242.83Z" fill="#FAFAFA"/>
<path d="M89.4191 242.829C89.3239 242.829 89.038 241.352 88.7998 239.494C88.5616 237.636 88.5616 236.112 88.6092 236.112C88.7045 236.112 88.8474 237.636 89.038 239.447C89.3239 241.352 89.5144 242.829 89.4191 242.829Z" fill="#FAFAFA"/>
<path d="M91.4602 242.973C91.365 242.973 91.1744 241.448 91.1268 239.59C91.0791 237.732 91.1744 236.208 91.222 236.208C91.3173 236.208 91.3173 237.732 91.4126 239.59C91.4602 241.448 91.5555 242.973 91.4602 242.973Z" fill="#FAFAFA"/>
<path d="M95.0748 242.829C94.9795 242.829 94.8842 241.4 94.8366 239.59C94.7889 237.827 94.789 236.35 94.8842 236.35C94.9795 236.35 95.0748 237.779 95.1224 239.59C95.1701 241.4 95.1701 242.829 95.0748 242.829Z" fill="#FAFAFA"/>
<path d="M97.7016 242.973C97.6063 242.973 97.5587 241.496 97.6063 239.638C97.6063 237.78 97.7016 236.303 97.7493 236.303C97.8445 236.303 97.8922 237.78 97.8445 239.638C97.8445 241.496 97.7969 242.973 97.7016 242.973Z" fill="#FAFAFA"/>
<path d="M100.177 242.639C100.081 242.639 100.177 241.067 100.367 239.161C100.558 237.256 100.748 235.684 100.844 235.731C100.939 235.731 100.844 237.303 100.653 239.209C100.463 241.115 100.272 242.639 100.177 242.639Z" fill="#FAFAFA"/>
<path d="M103.374 242.305C103.279 242.305 103.422 240.971 103.755 239.352C104.089 237.732 104.565 236.493 104.613 236.493C104.708 236.493 104.375 237.827 103.994 239.399C103.708 240.971 103.469 242.305 103.374 242.305Z" fill="#FAFAFA"/>
<path d="M101.129 165.891C101.129 165.891 101.129 165.939 101.081 166.034C101.033 166.129 101.033 166.272 100.986 166.415C100.89 166.748 100.747 167.225 100.557 167.844C100.366 168.463 100.128 169.226 99.89 170.131C99.6518 171.036 99.3183 172.036 99.0324 173.132C98.7466 174.276 98.4131 175.467 98.1273 176.801C97.7938 178.134 97.5079 179.564 97.2221 181.088C96.6504 184.09 96.1264 187.424 95.7929 190.95C95.4594 194.475 95.2688 197.858 95.2688 200.907C95.2688 202.431 95.2688 203.908 95.3165 205.29C95.3165 206.671 95.4118 207.91 95.4594 209.101C95.507 210.244 95.6023 211.292 95.6976 212.245C95.7452 213.15 95.8405 213.96 95.9358 214.579C95.9834 215.199 96.0311 215.723 96.0787 216.056C96.0787 216.199 96.1264 216.342 96.1264 216.437C96.1264 216.533 96.1264 216.58 96.1264 216.58C96.1264 216.58 96.1264 216.533 96.0787 216.437C96.0787 216.342 96.0311 216.199 96.0311 216.056C95.9834 215.675 95.9358 215.199 95.8405 214.579C95.7452 213.912 95.65 213.15 95.5547 212.245C95.4594 211.34 95.3641 210.292 95.2688 209.101C95.1736 207.957 95.1259 206.671 95.0783 205.29C95.0306 203.908 95.0306 202.479 95.0306 200.907C95.0783 197.81 95.2212 194.427 95.5547 190.902C95.9358 187.377 96.4599 184.042 97.0315 180.993C97.365 179.468 97.6032 178.039 97.9843 176.705C98.2702 175.371 98.6037 174.133 98.9372 173.037C99.223 171.894 99.5565 170.893 99.8423 170.036C100.128 169.13 100.366 168.416 100.557 167.796C100.747 167.177 100.938 166.748 101.033 166.367C101.081 166.224 101.129 166.081 101.176 165.986C101.081 165.939 101.129 165.891 101.129 165.891Z" fill="#C6B1B2"/>
<path d="M96.8995 182.278C97.5188 180.373 98.8528 178.753 100.52 177.657C101.092 177.276 101.854 176.99 102.426 177.324C103.236 177.705 103.331 178.848 103.045 179.753C102.616 181.23 101.664 182.517 100.377 183.374C99.091 184.184 97.8999 184.613 96.4231 184.375" fill="#C6B1B2"/>
<path d="M95.4667 193.379C96.086 191.092 97.8963 187.853 99.802 186.423C100.088 186.185 100.421 185.995 100.802 185.899C101.184 185.804 101.565 185.852 101.851 186.138C102.232 186.519 102.184 187.138 102.089 187.662C101.374 190.997 98.5633 193.808 95.2761 194.522" fill="#C6B1B2"/>
<path d="M95.0767 203.098C96.0295 200.907 97.554 199.001 99.4596 197.619C99.8883 197.286 100.412 197 100.984 197.095C101.794 197.238 102.175 198.239 102.127 199.096C101.985 200.811 100.651 202.193 99.3167 203.289C97.8398 204.432 95.2672 205.385 95.2672 205.385" fill="#C6B1B2"/>
<path d="M95.2761 210.147C96.2289 208.527 97.4199 207.003 98.9921 205.907C99.3256 205.669 99.7067 205.479 100.088 205.431C100.517 205.383 100.945 205.526 101.184 205.86C101.565 206.384 101.184 207.146 100.802 207.67C99.4208 209.48 97.7058 210.862 95.5143 211.576" fill="#C6B1B2"/>
<path d="M95.1208 207.29C93.501 205.337 91.7383 203.526 89.8327 201.907C89.5469 201.668 89.1658 201.383 88.7846 201.526C88.4988 201.621 88.3082 201.954 88.3082 202.24C88.3082 202.526 88.4035 202.859 88.4988 203.145C89.6422 205.956 92.4053 208.148 95.3114 208.91" fill="#C6B1B2"/>
<path d="M95.2725 198.143C93.8909 196.428 92.5093 194.761 91.1277 193.046C90.7466 192.569 90.3178 192.045 89.7938 191.759C89.2698 191.474 88.5075 191.378 88.0311 191.759C87.5071 192.14 87.3641 192.807 87.4594 193.427C87.5547 194.046 87.9358 194.57 88.2693 195.094C89.1268 196.333 90.0796 197.476 91.3183 198.334C92.5569 199.191 93.6527 199.715 95.1295 199.525" fill="#C6B1B2"/>
<path d="M95.8475 187.9C95.0377 185.47 93.5608 183.279 91.6552 181.611C91.3217 181.326 90.9882 181.04 90.5595 180.992C89.7019 180.849 88.9397 181.516 88.6538 182.326C88.368 183.231 88.5586 184.279 89.035 185.089C89.5114 185.899 90.226 186.566 90.9882 187.138C92.3698 188.186 93.9419 189.043 95.6093 189.663" fill="#C6B1B2"/>
<path d="M97.5082 178.753C97.127 175.8 95.5549 173.37 93.7922 170.988C93.4111 170.464 92.887 169.94 92.2677 170.035C91.8866 170.083 91.5531 170.416 91.4102 170.797C91.2673 171.178 91.2196 171.56 91.2673 171.988C91.3625 175.561 93.8398 178.944 97.1747 180.135" fill="#C6B1B2"/>
<path d="M98.7052 174.085C98.5623 172.561 98.4193 171.036 98.5623 169.512C98.7052 167.987 99.1339 166.463 100.087 165.272C100.468 164.748 100.992 164.271 101.611 164.081C102.231 163.842 102.945 163.89 103.469 164.319C103.946 164.7 104.136 165.367 104.089 165.939C104.089 166.558 103.85 167.13 103.612 167.701C102.469 170.369 100.611 173.323 98.7052 174.085Z" fill="#C6B1B2"/>
<path d="M80.5635 177.561C80.5635 177.561 80.5635 177.704 80.5635 177.943C80.5635 178.228 80.5635 178.562 80.5635 178.991C80.5635 179.467 80.5635 180.039 80.6111 180.658C80.6111 181.325 80.6587 182.087 80.7064 182.897C80.8017 184.565 80.9446 186.518 81.1828 188.709C81.4686 190.901 81.8021 193.283 82.3262 195.76C82.8502 198.237 83.4695 200.572 84.0888 202.668C84.7558 204.764 85.3751 206.622 85.9945 208.194C86.2803 208.957 86.5662 209.671 86.8044 210.29C87.0426 210.91 87.2808 211.434 87.4713 211.863C87.6619 212.291 87.8048 212.577 87.9001 212.863C87.9954 213.101 88.043 213.197 88.043 213.197C88.043 213.197 87.9954 213.101 87.8524 212.863C87.7572 212.625 87.5666 212.291 87.376 211.91C87.1855 211.481 86.9473 210.957 86.6614 210.386C86.4232 209.766 86.0897 209.099 85.8039 208.337C85.1846 206.813 84.5176 204.907 83.8506 202.811C83.2313 200.715 82.5644 198.38 82.0403 195.903C81.5163 193.426 81.1828 191.044 80.8969 188.852C80.6587 186.661 80.5158 184.708 80.4682 183.04C80.4205 182.23 80.4205 181.468 80.4205 180.801C80.4205 180.134 80.4205 179.562 80.4205 179.086C80.4205 178.657 80.4682 178.276 80.4682 178.038C80.5158 177.704 80.5158 177.561 80.5635 177.561Z" fill="#C18487"/>
<path d="M81.1704 189.662C81.1704 188.233 81.7421 186.851 82.6473 185.756C82.9807 185.374 83.4095 185.041 83.8859 185.089C84.5052 185.184 84.8387 185.946 84.8387 186.613C84.8864 187.709 84.5052 188.805 83.7906 189.662C83.076 190.52 82.3614 191.044 81.3133 191.187" fill="#C18487"/>
<path d="M82.592 197.476C82.4967 195.809 83.0684 193.188 84.0212 191.807C84.1641 191.569 84.3547 191.378 84.5929 191.235C84.8311 191.092 85.1169 191.044 85.3551 191.14C85.6886 191.33 85.7839 191.759 85.8315 192.14C86.0697 194.57 84.7834 197.047 82.6396 198.286" fill="#C18487"/>
<path d="M84.4099 204.241C84.6005 202.574 85.2198 200.954 86.2202 199.572C86.4584 199.239 86.7443 198.905 87.1254 198.858C87.6971 198.762 88.1735 199.382 88.3164 199.953C88.6023 201.144 87.9829 202.383 87.2683 203.384C86.5061 204.479 84.9816 205.67 84.9816 205.67" fill="#C18487"/>
<path d="M86.0825 208.957C86.3684 207.623 86.8448 206.337 87.7023 205.289C87.8929 205.051 88.0834 204.812 88.3693 204.717C88.6551 204.574 88.9886 204.574 89.1791 204.765C89.5603 205.051 89.465 205.622 89.3221 206.099C88.798 207.623 87.8929 208.957 86.5589 209.862" fill="#C18487"/>
<path d="M85.3599 207.052C83.8354 206.051 82.2633 205.194 80.5959 204.527C80.3577 204.431 80.0242 204.336 79.786 204.479C79.5954 204.622 79.5478 204.86 79.5954 205.051C79.6431 205.241 79.786 205.432 79.9289 205.622C81.3105 207.29 83.6449 208.195 85.8363 208.052" fill="#C18487"/>
<path d="M83.501 200.811C82.167 199.954 80.8807 199.096 79.5468 198.239C79.1657 198 78.7846 197.762 78.3558 197.667C77.927 197.572 77.403 197.667 77.1171 198.048C76.8313 198.382 76.8789 198.906 77.0695 199.334C77.2601 199.715 77.6412 200.001 77.9747 200.287C78.8322 200.954 79.7374 201.526 80.7378 201.812C81.7383 202.145 82.6434 202.24 83.5962 201.812" fill="#C18487"/>
<path d="M81.695 193.665C80.6469 192.188 79.17 190.997 77.5026 190.283C77.2168 190.14 76.9309 190.044 76.6451 190.092C76.0258 190.14 75.6447 190.807 75.6447 191.426C75.6447 192.093 75.9781 192.76 76.5022 193.236C77.0262 193.713 77.6456 193.999 78.2649 194.237C79.4559 194.666 80.6945 194.904 81.9808 194.951" fill="#C18487"/>
<path d="M80.84 187.09C79.9348 185.184 78.3627 183.85 76.6476 182.612C76.2665 182.374 75.8377 182.088 75.409 182.278C75.1708 182.421 75.0278 182.707 74.9802 182.993C74.9326 183.279 75.0278 183.565 75.1231 183.85C75.933 186.232 78.3627 188.043 80.8876 188.09" fill="#C18487"/>
<path d="M80.6437 183.661C80.215 182.66 79.7862 181.66 79.548 180.612C79.3098 179.564 79.3098 178.42 79.6433 177.42C79.7862 176.991 80.0244 176.562 80.4055 176.276C80.7867 175.99 81.3107 175.848 81.7395 176.038C82.1206 176.181 82.4064 176.61 82.5017 176.991C82.597 177.42 82.597 177.848 82.5493 178.277C82.4064 180.326 81.7871 182.755 80.6437 183.661Z" fill="#C18487"/>
<path d="M110.145 177.324C110.145 177.324 110.145 177.467 110.192 177.705C110.192 177.991 110.192 178.325 110.24 178.754C110.24 179.23 110.288 179.802 110.24 180.469C110.24 181.136 110.24 181.898 110.192 182.708C110.145 184.375 110.002 186.328 109.763 188.52C109.525 190.711 109.144 193.093 108.62 195.571C108.096 198.048 107.477 200.382 106.81 202.478C106.143 204.575 105.476 206.433 104.857 208.005C104.571 208.767 104.237 209.482 103.999 210.053C103.761 210.673 103.523 211.197 103.284 211.578C103.094 211.959 102.951 212.292 102.808 212.531C102.713 212.769 102.617 212.864 102.617 212.864C102.617 212.864 102.665 212.721 102.76 212.531C102.856 212.292 102.999 211.959 103.189 211.53C103.38 211.101 103.618 210.577 103.856 209.958C104.094 209.339 104.38 208.672 104.666 207.862C105.285 206.337 105.905 204.432 106.572 202.336C107.191 200.239 107.81 197.905 108.334 195.428C108.858 192.95 109.239 190.568 109.478 188.377C109.716 186.185 109.906 184.232 109.954 182.565C110.002 181.755 110.002 180.993 110.049 180.326C110.097 179.659 110.097 179.087 110.097 178.658C110.097 178.23 110.097 177.848 110.097 177.61C110.145 177.467 110.145 177.324 110.145 177.324Z" fill="#C6B1B2"/>
<path d="M109.471 189.377C109.471 187.948 108.899 186.519 107.994 185.471C107.66 185.09 107.232 184.756 106.755 184.804C106.136 184.899 105.802 185.661 105.802 186.328C105.755 187.424 106.136 188.52 106.85 189.377C107.565 190.235 108.28 190.759 109.328 190.902" fill="#C6B1B2"/>
<path d="M108.092 197.238C108.188 195.57 107.616 192.95 106.663 191.568C106.52 191.33 106.33 191.14 106.092 190.997C105.853 190.854 105.568 190.806 105.329 190.901C104.996 191.092 104.901 191.521 104.853 191.902C104.615 194.332 105.901 196.809 108.045 198.047" fill="#C6B1B2"/>
<path d="M106.229 203.956C106.039 202.288 105.419 200.668 104.419 199.287C104.181 198.953 103.895 198.62 103.514 198.572C102.942 198.477 102.466 199.096 102.323 199.668C102.037 200.859 102.656 202.098 103.371 203.098C104.133 204.194 105.658 205.385 105.658 205.385" fill="#C6B1B2"/>
<path d="M104.561 208.672C104.275 207.338 103.798 206.052 102.941 205.004C102.75 204.766 102.56 204.528 102.274 204.432C101.988 204.289 101.655 204.289 101.464 204.48C101.083 204.766 101.178 205.337 101.321 205.814C101.845 207.338 102.75 208.672 104.084 209.577" fill="#C6B1B2"/>
<path d="M105.332 206.766C106.857 205.766 108.429 204.908 110.096 204.241C110.334 204.146 110.668 204.051 110.906 204.194C111.097 204.337 111.144 204.575 111.097 204.765C111.049 204.956 110.906 205.147 110.763 205.337C109.382 207.005 107.047 207.91 104.856 207.767" fill="#C6B1B2"/>
<path d="M107.186 200.525C108.52 199.667 109.806 198.81 111.14 197.952C111.521 197.714 111.902 197.476 112.331 197.381C112.76 197.285 113.284 197.381 113.57 197.762C113.856 198.095 113.808 198.619 113.617 199.048C113.427 199.429 113.046 199.715 112.712 200.001C111.855 200.668 110.949 201.239 109.949 201.525C108.949 201.859 108.043 201.954 107.091 201.525" fill="#C6B1B2"/>
<path d="M108.998 193.427C110.094 191.951 111.523 190.76 113.19 190.045C113.476 189.902 113.762 189.807 114.048 189.854C114.667 189.902 115.048 190.569 115.048 191.188C115.048 191.855 114.715 192.522 114.191 192.999C113.667 193.475 113.048 193.761 112.428 193.999C111.237 194.428 109.999 194.666 108.712 194.714" fill="#C6B1B2"/>
<path d="M109.802 186.852C110.707 184.947 112.279 183.613 113.994 182.374C114.375 182.136 114.852 181.85 115.233 182.04C115.471 182.183 115.614 182.469 115.662 182.755C115.709 183.041 115.614 183.327 115.519 183.613C114.709 185.995 112.279 187.805 109.754 187.853" fill="#C6B1B2"/>
<path d="M110.038 183.422C110.467 182.422 110.896 181.421 111.134 180.373C111.372 179.325 111.372 178.182 111.038 177.181C110.896 176.753 110.657 176.324 110.276 176.038C109.895 175.752 109.371 175.609 108.942 175.8C108.561 175.943 108.275 176.371 108.18 176.753C108.085 177.181 108.085 177.61 108.132 178.039C108.228 180.087 108.895 182.469 110.038 183.422Z" fill="#C6B1B2"/>
<path d="M75.5502 212.912L75.5502 217.867C75.5502 218.962 76.4077 219.82 77.5034 219.82L111.423 219.82C112.519 219.82 113.377 218.962 113.377 217.867L113.377 212.912L75.5502 212.912Z" fill="#C6B1B2"/>
<path d="M78.451 219.82L78.7369 221.392L110.037 223.631L110.847 219.82L78.451 219.82Z" fill="#C18487"/>
<path d="M84.0766 99.3847L76.9305 96.431C76.9305 96.431 74.4532 102.434 68.2123 99.9564C64.9728 98.6701 64.1629 95.8593 64.1152 93.9537C64.1152 91.7622 65.211 89.7137 67.0213 88.3798C69.0698 86.9029 72.5476 85.9501 76.9782 88.7609L83.5525 72.9442L76.5018 70.0382L72.5952 79.471C72.5952 79.471 61.6379 77.9465 57.1597 88.8562C52.8721 99.2894 61.5903 105.721 66.4973 107.722C69.5462 109.008 79.0267 112.057 84.0766 99.3847Z" fill="#F5F5F5"/>
<path d="M80.4934 60.0117L77.7395 66.7093L84.9217 69.6624L87.6756 62.9649L80.4934 60.0117Z" fill="#F5F5F5"/>
<path d="M81.6956 98.3841L74.5495 95.4304C74.5495 95.4304 72.0722 101.433 65.8313 98.9558C62.5917 97.6695 61.7818 94.8587 61.7342 92.9531C61.7342 90.7616 62.8299 88.7131 64.6403 87.3791C66.6888 85.9023 70.0713 85.14 74.5495 87.9985L81.1715 71.896L74.1207 68.9899L70.2618 78.4227C70.2618 78.4227 59.3045 76.8982 54.8263 87.8079C50.5387 98.2412 58.9234 104.53 62.9252 106.197C65.8789 107.483 76.6457 111.056 81.6956 98.3841Z" fill="#C18487"/>
<path d="M78.0946 58.9737L75.3407 65.6713L82.5229 68.6244L85.2768 61.9269L78.0946 58.9737Z" fill="#C18487"/>
<path d="M253.105 221.63L248.674 222.011C248.674 222.011 248.96 225.727 245.101 226.108C243.1 226.299 241.957 225.06 241.433 224.107C240.861 222.964 240.861 221.63 241.433 220.487C242.1 219.2 243.624 217.819 246.673 218.057L245.863 208.196L241.48 208.577L241.957 214.436C241.957 214.436 235.954 216.533 236.526 223.298C237.05 229.777 243.243 230.777 246.244 230.539C248.15 230.348 253.819 229.443 253.105 221.63Z" fill="#F5F5F5"/>
<path d="M245.402 202.018L240.939 202.389L241.283 206.52L245.745 206.149L245.402 202.018Z" fill="#F5F5F5"/>
<path d="M251.58 221.726L247.149 222.107C247.149 222.107 247.435 225.823 243.576 226.204C241.576 226.394 240.432 225.156 239.908 224.203C239.336 223.06 239.336 221.726 239.908 220.582C240.575 219.296 242.1 218.01 245.149 218.295L244.339 208.291L239.956 208.672L240.432 214.532C240.432 214.532 234.429 216.628 235.001 223.393C235.525 229.872 241.48 230.873 243.958 230.682C245.863 230.539 252.342 229.539 251.58 221.726Z" fill="#C18487"/>
<path d="M243.878 202.115L239.415 202.486L239.758 206.617L244.221 206.246L243.878 202.115Z" fill="#C18487"/>
<path d="M227.38 61.034L236.146 57.5563C236.146 57.5563 233.24 50.172 240.862 47.0278C244.816 45.408 247.913 47.1707 249.533 48.8381C251.438 50.7913 252.153 53.5069 251.724 56.1747C251.2 59.2237 248.913 62.9873 242.577 64.2736L250.295 83.8062L258.965 80.3761L254.392 68.7994C254.392 68.7994 265.302 60.8435 260.013 47.4565C254.964 34.6412 241.815 36.3563 235.812 38.7383C232.048 40.2152 221.091 45.5985 227.38 61.034Z" fill="#F5F5F5"/>
<path d="M260.671 84.4186L251.854 87.9008L255.108 96.1426L263.926 92.6604L260.671 84.4186Z" fill="#F5F5F5"/>
<path d="M223.855 62.4156L232.621 58.9378C232.621 58.9378 229.715 51.5535 237.337 48.4093C241.291 46.7895 244.388 48.5522 246.008 50.2196C247.913 52.1729 248.628 54.8884 248.199 57.5562C247.675 60.6052 245.293 64.1306 238.957 65.4169L246.77 85.1877L255.441 81.7576L250.867 70.1809C250.867 70.1809 261.777 62.225 256.489 48.838C251.439 36.0227 238.767 37.5949 233.812 39.5005C230.048 41.025 217.614 46.98 223.855 62.4156Z" fill="#C18487"/>
<path d="M257.148 85.8091L248.33 89.2912L251.585 97.533L260.403 94.0508L257.148 85.8091Z" fill="#C18487"/>
<path d="M156.221 50.7653C157.029 41.671 150.29 33.6421 141.169 32.8323C132.048 32.0225 124 38.7385 123.193 47.8329C122.385 56.9272 129.124 64.9561 138.245 65.7659C147.365 66.5756 155.414 59.8597 156.221 50.7653Z" fill="white"/>
<path d="M150.342 61.9872C150.342 61.9872 150.39 61.9396 150.533 61.7966C150.676 61.6537 150.866 61.5108 151.104 61.2726C151.247 61.1773 151.39 61.0344 151.533 60.8915C151.676 60.7486 151.819 60.558 152.01 60.3674C152.2 60.1769 152.343 59.9863 152.534 59.7481C152.724 59.5575 152.915 59.2717 153.105 58.9859C153.915 57.9378 154.677 56.5086 155.344 54.7459C155.964 52.9832 156.392 50.8393 156.25 48.505C156.25 48.2191 156.202 47.9333 156.202 47.5998C156.154 47.3139 156.107 46.9805 156.059 46.6946C156.011 46.4088 155.964 46.0753 155.916 45.7895C155.821 45.5036 155.773 45.1701 155.678 44.8843C155.583 44.6461 155.487 44.265 155.392 43.9791L155.392 43.9315C155.297 43.6456 155.154 43.3121 155.059 42.9787C154.916 42.6452 154.773 42.3593 154.63 42.0735C154.487 41.7877 154.344 41.4542 154.153 41.1683C153.772 40.5966 153.439 39.9297 153.01 39.4056C152.772 39.1198 152.581 38.8339 152.343 38.5481C152.01 38.167 151.676 37.8335 151.295 37.4524C151.247 37.4047 151.247 37.3571 151.2 37.3571C151.057 37.2142 150.914 37.1189 150.771 36.976C150.485 36.7378 150.199 36.4519 149.913 36.2137C149.294 35.785 148.675 35.3086 148.008 34.9274C147.341 34.4987 146.626 34.2128 145.864 33.8793C145.483 33.7364 145.102 33.5935 144.721 33.4982C144.53 33.4506 144.339 33.3553 144.149 33.3077L143.625 33.1171C143.006 32.9265 142.339 32.8312 141.672 32.7836C141.338 32.736 141.005 32.736 140.671 32.6883L139.623 32.6407L139.29 32.6407L138.67 32.6883L138.051 32.736L137.384 32.8312L136.765 32.9265L136.431 32.9742L136.098 33.0695C135.431 33.26 134.383 33.5935 133.763 33.7841C133.716 33.7841 133.668 33.8317 133.62 33.8317C132.001 34.4987 130.428 35.4038 129.047 36.5472C127.665 37.7382 126.522 39.0721 125.569 40.5966C125.521 40.6443 125.521 40.6919 125.474 40.7396C125.188 41.3589 124.664 42.3117 124.378 42.931L124.235 43.2169L124.14 43.5027L123.949 44.122L123.759 44.7414L123.616 45.3607L123.473 45.98L123.425 46.2659L123.282 47.3139C123.235 47.6474 123.235 47.9809 123.187 48.3144C123.139 48.9814 123.139 49.6483 123.187 50.3153L123.235 50.9346C123.235 51.1252 123.282 51.3157 123.33 51.5539C123.378 51.9351 123.425 52.3638 123.521 52.745C123.711 53.5072 123.902 54.3171 124.188 55.0317C124.426 55.7939 124.807 56.4609 125.14 57.1279C125.331 57.4614 125.521 57.7948 125.712 58.0807C125.807 58.2236 125.903 58.4142 125.998 58.5571C126.046 58.6047 126.046 58.6524 126.093 58.7C126.379 59.1288 126.712 59.5099 126.998 59.891C127.237 60.1769 127.475 60.4151 127.713 60.7009C128.189 61.2726 128.713 61.7014 129.237 62.1301C129.476 62.3683 129.809 62.5589 130.047 62.7495C130.333 62.94 130.571 63.1306 130.857 63.3211C131.143 63.5117 131.429 63.6546 131.715 63.7975C131.953 63.9405 132.334 64.131 132.572 64.2263C132.858 64.3692 133.144 64.5121 133.43 64.6074C133.716 64.7504 134.001 64.798 134.335 64.9409C134.621 65.0362 134.907 65.1315 135.192 65.2268C135.478 65.2744 135.764 65.3697 136.05 65.4173C138.337 65.9414 140.528 65.8937 142.386 65.6079C144.244 65.2744 145.769 64.7504 146.96 64.131C147.246 63.9881 147.531 63.8928 147.77 63.7023C148.008 63.5593 148.246 63.4164 148.484 63.2735C148.722 63.1306 148.913 63.0353 149.056 62.8924C149.246 62.7495 149.389 62.6542 149.532 62.5589C149.818 62.3683 150.009 62.1778 150.152 62.0825C150.295 62.0348 150.342 61.9872 150.342 61.9872C150.342 61.9872 150.247 62.0348 150.104 62.1301C149.961 62.2254 149.723 62.416 149.485 62.6065C149.342 62.7018 149.199 62.8447 149.008 62.94C148.818 63.0829 148.627 63.1782 148.389 63.3211C148.151 63.4641 147.96 63.607 147.674 63.7499C147.436 63.8928 147.15 64.0357 146.864 64.1787C145.721 64.798 144.149 65.2744 142.339 65.6079C140.528 65.8937 138.337 65.9414 136.05 65.4173C135.764 65.3697 135.478 65.2744 135.192 65.2268C134.907 65.1315 134.621 65.0362 134.335 64.9409C134.049 64.8456 133.763 64.7504 133.477 64.6074C133.192 64.4645 132.906 64.3692 132.62 64.2263C132.382 64.131 132.048 63.9405 131.81 63.7975L131.762 63.7975C131.477 63.6546 131.191 63.4641 130.905 63.3211C130.619 63.1306 130.381 62.94 130.095 62.7495C129.809 62.5589 129.523 62.3683 129.285 62.1301C128.761 61.6537 128.237 61.225 127.761 60.7009C127.522 60.4151 127.284 60.1769 127.046 59.891C126.76 59.5099 126.427 59.0811 126.141 58.7C126.093 58.6524 126.093 58.6047 126.046 58.5571C125.95 58.4142 125.855 58.2236 125.76 58.0807C125.569 57.7472 125.379 57.4614 125.188 57.1279C124.855 56.4609 124.521 55.7939 124.283 55.0317C123.997 54.3171 123.806 53.5548 123.616 52.7926C123.521 52.4115 123.473 52.0303 123.425 51.6016C123.378 51.411 123.378 51.2205 123.33 50.9823L123.282 50.3629C123.187 49.553 123.282 48.7432 123.282 47.9333C123.33 47.5045 123.378 47.1234 123.473 46.6946L123.521 46.3611L123.568 46.0753L123.711 45.456L123.854 44.8366L124.045 44.2173L124.235 43.598L124.33 43.3121L124.473 43.0263C124.759 42.407 125.283 41.4542 125.569 40.8348C125.569 40.7872 125.617 40.7396 125.617 40.6919C126.522 39.2151 127.713 37.8811 129.047 36.6901C130.428 35.5468 131.953 34.6416 133.573 34.0223C133.62 34.0223 133.668 33.9746 133.716 33.9746C134.335 33.7841 135.383 33.4506 136.05 33.26L136.384 33.1647L136.717 33.1171L137.336 33.0218L137.956 32.9265L138.575 32.8789L139.194 32.8312L139.528 32.8312L139.861 32.8312C140.29 32.8312 140.671 32.8789 141.1 32.8789C141.91 32.9742 142.72 33.0695 143.53 33.3077L144.101 33.4506C144.292 33.4982 144.482 33.5935 144.673 33.6411C145.054 33.7841 145.435 33.8793 145.816 34.0223C146.531 34.3557 147.246 34.6416 147.912 35.0703C148.579 35.4038 149.199 35.9279 149.818 36.3566C150.104 36.5948 150.39 36.833 150.676 37.0712C150.819 37.2142 150.961 37.3095 151.104 37.4524C151.152 37.5 151.152 37.5 151.2 37.5477C151.533 37.9288 151.867 38.2623 152.2 38.6434C152.438 38.9292 152.629 39.2151 152.867 39.5009C153.344 40.0726 153.677 40.6443 154.01 41.2636C154.201 41.5495 154.344 41.8829 154.487 42.1688C154.63 42.4546 154.773 42.7881 154.916 43.0739C155.011 43.4074 155.154 43.6933 155.249 43.9791C155.297 44.122 155.344 44.265 155.392 44.4555L155.392 44.5032C155.487 44.9796 155.63 45.4083 155.726 45.8371C155.821 46.1229 155.821 46.4564 155.868 46.7423C155.916 47.0281 155.964 47.3616 156.011 47.6474C156.011 47.9333 156.059 48.2191 156.059 48.5526C156.154 50.887 155.773 53.0308 155.154 54.7935C154.535 56.5562 153.772 57.9854 152.962 59.0335C152.772 59.2717 152.629 59.5575 152.391 59.7957C152.2 60.0339 152.01 60.2245 151.867 60.4151C151.676 60.6056 151.533 60.7962 151.39 60.9391C151.247 61.082 151.104 61.225 150.961 61.3202C150.723 61.5584 150.533 61.749 150.39 61.8443C150.437 61.8919 150.342 61.9872 150.342 61.9872Z" fill="#C18487"/>
<path d="M153.867 71.086C152.629 72.6582 150.247 72.4676 149.294 70.7049C148.817 69.7997 148.913 68.704 149.532 67.8941C150.771 66.322 153.153 66.5126 154.106 68.2752C154.582 69.1804 154.439 70.3238 153.867 71.086Z" fill="white"/>
<path d="M153.437 71.5623C153.437 71.5623 153.485 71.5147 153.58 71.467C153.676 71.4194 153.771 71.2764 153.914 71.0859C154.2 70.7524 154.486 70.1331 154.438 69.3708C154.438 68.9897 154.343 68.5609 154.104 68.1322C153.866 67.7511 153.533 67.3223 153.104 67.0841C152.675 66.7982 152.104 66.6553 151.532 66.703C150.96 66.7506 150.389 66.9412 149.912 67.3223C149.436 67.7034 149.15 68.2275 149.007 68.7991C148.864 69.3708 148.912 69.9425 149.102 70.4189C149.293 70.8953 149.579 71.3241 149.96 71.6099C150.341 71.8958 150.722 72.0863 151.103 72.1816C151.865 72.3245 152.532 72.134 152.913 71.9434C153.104 71.8481 153.247 71.7529 153.342 71.6576C153.39 71.6099 153.437 71.5623 153.437 71.5623C153.437 71.5623 153.247 71.7052 152.866 71.8958C152.485 72.0863 151.865 72.2293 151.151 72.0863C150.77 71.9911 150.389 71.8481 150.055 71.5623C149.722 71.2764 149.436 70.8953 149.293 70.4189C149.102 69.9425 149.102 69.4185 149.197 68.8944C149.34 68.3704 149.626 67.894 150.055 67.5129C150.484 67.1794 151.008 66.9412 151.532 66.8935C152.056 66.8459 152.58 66.9888 153.009 67.227C153.437 67.4652 153.771 67.8463 153.962 68.1798C154.2 68.5609 154.295 68.9421 154.295 69.3232C154.343 70.0854 154.057 70.6571 153.819 70.9906C153.58 71.3717 153.39 71.5147 153.437 71.5623Z" fill="#C18487"/>
<path d="M134.671 46.5514L137.196 46.5514C137.196 46.5514 137.196 44.4552 139.388 44.4076C140.531 44.4076 141.103 45.1222 141.341 45.6939C141.627 46.3609 141.531 47.1231 141.15 47.7424C140.721 48.457 139.816 49.0764 138.101 48.7905L138.101 54.4597L140.579 54.4597L140.579 51.1725C140.579 51.1725 144.056 50.2674 144.056 46.4561C144.056 42.7878 140.769 41.9303 139.388 41.9303C138.244 41.8827 134.623 42.1685 134.671 46.5514Z" fill="#C18487"/>
<path d="M140.577 55.6032L138.052 55.6032L138.052 57.9376L140.577 57.9376L140.577 55.6032Z" fill="#C18487"/>
<path d="M105.942 117.298L108.467 117.298C108.467 117.298 108.467 115.201 110.659 115.154C111.802 115.154 112.374 115.868 112.612 116.44C112.898 117.107 112.803 117.869 112.422 118.489C111.993 119.203 111.088 119.822 109.373 119.537L109.373 125.206L111.85 125.206L111.85 121.919C111.85 121.919 115.328 121.014 115.328 117.202C115.328 113.534 112.04 112.676 110.659 112.676C109.563 112.629 105.895 112.867 105.942 117.298Z" fill="#C18487"/>
<path d="M111.899 126.349L109.374 126.349L109.374 128.684L111.899 128.684L111.899 126.349Z" fill="#C18487"/>
<path d="M218.28 135.639L215.469 133.876C215.469 133.876 213.993 136.258 211.515 134.734C210.229 133.924 210.086 132.685 210.229 131.875C210.372 130.923 211.039 130.16 211.896 129.732C212.849 129.255 214.374 129.208 216.041 130.732L220.043 124.396L217.28 122.633L214.945 126.349C214.945 126.349 210.42 124.872 207.704 129.16C205.084 133.257 208.181 136.544 209.753 137.545C210.896 138.307 215.184 140.594 218.28 135.639Z" fill="#C18487"/>
<path d="M219.722 118.616L218.062 121.23L220.877 123.018L222.537 120.404L219.722 118.616Z" fill="#C18487"/>
<path d="M106.993 47.5995L104.658 48.5047C104.658 48.5047 105.42 50.458 103.42 51.3155C102.371 51.7442 101.562 51.2678 101.133 50.8391C100.609 50.315 100.418 49.6004 100.561 48.8858C100.704 48.0759 101.323 47.1231 102.991 46.7896L100.895 41.5492L98.6079 42.4544L99.7989 45.551C99.7989 45.551 96.8928 47.6472 98.322 51.2202C99.656 54.6027 103.038 54.2216 104.325 53.6975C105.373 53.3164 108.66 51.6966 106.993 47.5995Z" fill="#C18487"/>
<path d="M99.664 38.3014L97.3156 39.2289L98.173 41.4001L100.521 40.4726L99.664 38.3014Z" fill="#C18487"/>
<path d="M266.825 243.449C266.825 243.497 219.661 243.592 161.445 243.592C103.228 243.592 56.0638 243.545 56.0638 243.449C56.0638 243.354 103.228 243.306 161.445 243.306C219.614 243.354 266.825 243.402 266.825 243.449Z" fill="#170203"/>
<path d="M232.904 159.459L229.235 157.839L251.055 130.351L254.628 131.351C255.152 131.494 255.628 131.78 256.009 132.209L259.535 136.401C260.059 137.02 259.963 137.926 259.392 138.402L234.904 159.173C234.285 159.65 233.523 159.745 232.904 159.459Z" fill="#626262"/>
<path d="M257.63 157.554L253.676 160.936C253.247 161.317 252.628 161.413 252.056 161.222L249.103 160.126C248.721 159.983 248.436 159.697 248.245 159.364L232 128.779L235.668 129.827C236.144 129.97 236.573 130.256 236.859 130.589L257.821 155.267C258.392 155.934 258.297 156.982 257.63 157.554Z" fill="#626262"/>
<g opacity="0.3">
<path d="M232.904 159.459L229.235 157.839L251.055 130.351L254.628 131.351C255.152 131.494 255.628 131.78 256.009 132.209L259.535 136.401C260.059 137.02 259.963 137.926 259.392 138.402L234.904 159.173C234.285 159.65 233.523 159.745 232.904 159.459Z" fill="black"/>
<path d="M257.63 157.554L253.676 160.936C253.247 161.317 252.628 161.413 252.056 161.222L249.103 160.126C248.721 159.983 248.436 159.697 248.245 159.364L232 128.779L235.668 129.827C236.144 129.97 236.573 130.256 236.859 130.589L257.821 155.267C258.392 155.934 258.297 156.982 257.63 157.554Z" fill="black"/>
</g>
<path d="M228.809 157.506L225.188 153.266C224.807 152.789 224.855 152.122 225.331 151.741L250.152 130.684C250.628 130.303 251.295 130.351 251.676 130.827L255.297 135.067C255.678 135.544 255.63 136.211 255.154 136.592L230.333 157.649C229.904 158.03 229.19 157.935 228.809 157.506Z" fill="#626262"/>
<path d="M253.63 155.552L249.39 159.173C248.913 159.554 248.246 159.507 247.865 159.03L226.808 134.21C226.427 133.733 226.475 133.066 226.951 132.685L231.334 128.969C231.715 128.636 232.334 128.683 232.668 129.064L253.82 153.98C254.106 154.504 254.058 155.171 253.63 155.552Z" fill="#626262"/>
<path d="M233.859 145.691C233.907 145.739 232.287 147.216 230.238 148.931C228.19 150.693 226.523 152.027 226.475 151.98C226.427 151.932 228.047 150.455 230.096 148.74C232.144 147.025 233.812 145.644 233.859 145.691Z" fill="white"/>
<path d="M250.295 131.637C250.343 131.685 248.533 133.305 246.246 135.21C243.959 137.163 242.054 138.688 242.054 138.593C242.054 138.497 243.816 136.925 246.103 135.02C248.342 133.114 250.248 131.589 250.295 131.637Z" fill="white"/>
<path d="M234.668 141.785C234.621 141.832 233.191 140.117 231.524 137.973C229.857 135.829 228.523 134.067 228.57 134.019C228.618 133.971 230.047 135.687 231.715 137.83C233.43 139.974 234.716 141.737 234.668 141.785Z" fill="white"/>
<path d="M247.244 156.077C247.197 156.124 245.72 154.648 244.005 152.742C242.242 150.836 240.908 149.264 240.956 149.217C241.004 149.169 242.48 150.646 244.196 152.551C245.911 154.457 247.292 156.029 247.244 156.077Z" fill="white"/>
<path d="M59.922 154.314L59.1598 151.503L79.5975 155.553L97.6533 130.16L99.8447 134.257C100.178 134.877 100.178 135.639 99.8447 136.306L84.171 164.985C82.98 167.129 80.2645 167.891 78.1683 166.653L62.3517 157.458C61.1607 156.791 60.3032 155.648 59.922 154.314Z" fill="#B5121B"/>
<g opacity="0.3">
<path d="M59.922 154.314L59.1598 151.503L79.5975 155.553L97.6533 130.16L99.8447 134.257C100.178 134.877 100.178 135.639 99.8447 136.306L84.171 164.985C82.98 167.129 80.2645 167.891 78.1683 166.653L62.3517 157.458C61.1607 156.791 60.3032 155.648 59.922 154.314Z" fill="black"/>
</g>
<path d="M59.2582 150.122L62.2119 144.929C62.6406 144.167 63.5458 143.881 64.3557 144.262L76.1705 150.026C76.9328 150.407 77.8856 150.122 78.3143 149.312L90.0339 127.302C90.4626 126.492 91.5107 126.206 92.3206 126.682L97.0847 129.589C97.7993 130.017 98.0851 130.97 97.6564 131.732L82.2685 159.84C81.2204 161.746 78.886 162.413 76.9804 161.412L59.8775 152.313C59.0676 151.932 58.7817 150.931 59.2582 150.122Z" fill="#B5121B"/>
<path d="M75.3116 151.36C75.3116 151.36 75.0734 151.265 74.6922 151.122C74.2635 150.932 73.6918 150.646 73.0248 150.36C71.5956 149.693 69.6424 148.788 67.4985 147.74C66.9745 147.501 66.4504 147.216 65.9264 146.977C65.6882 146.834 65.45 146.739 65.1642 146.596C64.9259 146.453 64.6877 146.406 64.4495 146.358C63.9731 146.31 63.4967 146.501 63.1633 146.787C62.8298 147.073 62.6868 147.454 62.4486 147.787C62.0675 148.454 61.7817 148.978 61.5435 149.407C61.3053 149.788 61.21 149.979 61.1624 149.979C61.1624 149.979 61.2576 149.741 61.4482 149.359C61.6864 148.931 61.9722 148.359 62.3057 147.74C62.401 147.549 62.4963 147.406 62.5916 147.216C62.6868 147.025 62.8298 146.834 63.0203 146.644C63.3538 146.31 63.8779 146.12 64.4495 146.167C64.7354 146.167 65.0212 146.263 65.2594 146.406C65.4976 146.501 65.7358 146.644 66.0217 146.739C66.5457 146.977 67.0698 147.216 67.5938 147.501C69.7376 148.55 71.6909 149.455 73.0725 150.169C73.7394 150.503 74.3111 150.789 74.7399 151.027C75.121 151.265 75.3116 151.36 75.3116 151.36Z" fill="white"/>
<path d="M79.6478 150.455C79.6001 150.407 82.0774 145.5 85.1741 139.498C88.3183 133.495 90.8909 128.636 90.9386 128.636C90.9862 128.683 88.5089 133.59 85.4123 139.593C82.268 145.596 79.6954 150.455 79.6478 150.455Z" fill="white"/>
<path d="M128.856 84.8686C129.945 76.0953 123.716 68.1001 114.943 67.011C106.169 65.9218 98.1742 72.1511 97.085 80.9244C95.9958 89.6978 102.225 97.6929 110.998 98.7821C119.772 99.8712 127.767 93.6419 128.856 84.8686Z" fill="white"/>
<path d="M128.956 82.901C128.956 82.901 128.956 82.8057 128.956 82.6628C128.956 82.4722 128.956 82.234 128.909 81.9005C128.909 81.7099 128.909 81.567 128.909 81.3288C128.909 81.1383 128.861 80.9001 128.813 80.6619C128.766 80.4237 128.718 80.1378 128.718 79.8996C128.67 79.6138 128.575 79.3279 128.527 79.0421C128.242 77.8034 127.67 76.3266 126.765 74.7544C125.86 73.1823 124.526 71.5625 122.715 70.181C122.477 69.9904 122.239 69.8475 122.001 69.6569C121.762 69.514 121.524 69.3711 121.238 69.1805C121 69.0376 120.714 68.847 120.476 68.7041C120.19 68.5612 119.904 68.4183 119.666 68.323C119.523 68.2753 119.38 68.1801 119.238 68.1324C119.095 68.0848 118.952 68.0371 118.809 67.9895C118.523 67.8942 118.189 67.7513 117.904 67.656C117.618 67.5607 117.284 67.4655 116.951 67.4178C116.617 67.3225 116.331 67.2273 115.998 67.1796C115.331 67.0843 114.664 66.9414 113.949 66.9414C113.616 66.9414 113.235 66.8938 112.901 66.8938C112.568 66.8938 112.187 66.9414 111.853 66.9414C111.663 66.9414 111.472 66.9414 111.329 66.989C111.139 67.0367 110.996 67.0367 110.805 67.0843C110.424 67.132 110.091 67.1796 109.709 67.2749C108.995 67.4655 108.28 67.6084 107.566 67.8942C106.851 68.1324 106.184 68.4659 105.469 68.7994C105.136 68.99 104.802 69.1805 104.469 69.4187C104.326 69.514 104.135 69.6093 103.993 69.7522L103.516 70.0857C102.849 70.5144 102.278 71.0861 101.706 71.6578C101.42 71.9437 101.182 72.2771 100.896 72.563L100.562 72.6583L100.372 72.8965L99.9908 73.3729L99.6096 73.8493L99.2762 74.3733L98.9427 74.8974L98.7998 75.1832L98.7045 75.5167C98.5139 75.8978 98.3233 76.2789 98.1804 76.6601C98.0375 77.0412 97.8946 77.4699 97.7517 77.8511C97.2276 79.4708 96.9418 81.1859 96.9418 82.9486C96.9418 84.7113 97.2276 86.4264 97.7517 88.0461C97.8946 88.4273 98.0375 88.856 98.1804 89.2371C98.371 89.6183 98.5616 89.9994 98.7045 90.3805L98.8474 90.6664L98.9903 90.9522L99.3238 91.4762L99.6573 92.0003L100.038 92.4767L100.42 92.9531L100.61 93.1913L100.801 93.4295C101.086 93.7153 101.325 94.0488 101.611 94.3347C102.23 94.8587 102.802 95.4304 103.421 95.9068L103.897 96.2403C104.04 96.3356 104.231 96.4308 104.374 96.5738C104.707 96.7643 105.041 97.0025 105.374 97.1931C106.089 97.5266 106.756 97.8601 107.47 98.0983C108.185 98.3841 108.9 98.527 109.614 98.7176C109.995 98.8129 110.329 98.8129 110.71 98.9082C110.9 98.9558 111.091 98.9558 111.234 99.0034C111.424 99.0034 111.615 99.0034 111.758 99.0511C112.139 99.0511 112.473 99.0987 112.806 99.0987C113.14 99.0987 113.521 99.0511 113.854 99.0511C114.569 99.0511 115.236 98.9081 115.903 98.8129C116.236 98.7652 116.57 98.6699 116.855 98.5747C117.189 98.4794 117.475 98.4317 117.808 98.3365C118.094 98.2412 118.428 98.0983 118.713 98.003C118.856 97.9553 118.999 97.9077 119.142 97.8601C119.285 97.8124 119.428 97.7171 119.571 97.6695C119.857 97.5266 120.143 97.3837 120.381 97.2884C120.667 97.1455 120.905 97.0025 121.143 96.812C121.381 96.669 121.667 96.5261 121.905 96.3356C122.144 96.145 122.382 96.0021 122.62 95.8115C124.43 94.43 125.764 92.8102 126.669 91.238C127.575 89.6659 128.146 88.1891 128.432 86.9504C128.48 86.6169 128.623 86.3311 128.623 86.0929C128.67 85.807 128.718 85.5688 128.718 85.3306C128.766 85.0924 128.813 84.8542 128.813 84.6637C128.813 84.4731 128.813 84.2825 128.813 84.092C128.813 83.7585 128.813 83.5203 128.861 83.3297C129.004 82.9962 128.956 82.901 128.956 82.901C128.956 82.901 128.956 82.9962 128.956 83.1392C128.956 83.3297 128.909 83.5679 128.909 83.9014C128.909 84.092 128.909 84.2349 128.861 84.4731C128.861 84.6637 128.813 84.9019 128.766 85.1401C128.718 85.3783 128.67 85.6641 128.623 85.9023C128.575 86.1882 128.48 86.474 128.432 86.7598C128.146 87.9985 127.575 89.4753 126.669 90.9998C125.764 92.5243 124.43 94.1441 122.62 95.5257C122.382 95.7162 122.144 95.8592 121.953 96.0497C121.715 96.1926 121.477 96.3356 121.191 96.5261C120.953 96.6691 120.667 96.8596 120.429 96.9549C120.143 97.0978 119.857 97.2407 119.619 97.336C119.476 97.3837 119.333 97.4789 119.19 97.5266C119.047 97.5742 118.904 97.6219 118.761 97.6695C118.475 97.7648 118.189 97.9077 117.856 98.003C117.57 98.0983 117.237 98.1459 116.903 98.2412C116.57 98.3365 116.284 98.4317 115.95 98.4794C115.283 98.5747 114.616 98.7176 113.949 98.7176C113.616 98.7176 113.282 98.7652 112.901 98.7652C112.568 98.7652 112.187 98.7176 111.853 98.7176C111.663 98.7176 111.52 98.7176 111.329 98.67C111.139 98.6223 110.996 98.6223 110.805 98.5747C110.472 98.527 110.091 98.4794 109.757 98.3841C109.042 98.1935 108.328 98.0506 107.613 97.7648C106.899 97.5266 106.232 97.1931 105.517 96.8596C105.184 96.6691 104.85 96.4785 104.517 96.2879C104.374 96.1926 104.183 96.0974 104.04 95.9544L103.564 95.621C102.897 95.1922 102.373 94.6205 101.753 94.0965C101.468 93.8106 101.229 93.5248 100.944 93.1913L100.753 92.9531L100.562 92.7149L100.181 92.2385L99.8002 91.7621L99.4667 91.238L99.1332 90.714L98.9903 90.4282L98.8474 90.1423C98.6568 89.7612 98.4663 89.3801 98.3233 88.9989C98.1804 88.6178 98.0375 88.2367 97.8946 87.8079C97.3705 86.1882 97.0847 84.5207 97.0847 82.8057C97.0847 81.0906 97.3705 79.3756 97.8946 77.8034C98.0375 77.4223 98.1804 76.9935 98.3233 76.6124C98.5139 76.2313 98.7045 75.8502 98.8474 75.4691L98.9903 75.1832L99.1332 74.8974L99.4667 74.3733L99.8002 73.8493L100.181 73.3729L100.562 72.8965L100.753 72.6583L100.944 72.4201C101.229 72.1342 101.468 71.8484 101.753 71.5149C102.325 70.9908 102.897 70.4192 103.564 69.9904L104.04 69.6569C104.183 69.5616 104.374 69.4664 104.517 69.3234C104.85 69.1329 105.184 68.8947 105.517 68.7517C106.184 68.4183 106.899 68.0848 107.613 67.8466C108.328 67.5607 109.042 67.4178 109.757 67.2273C110.091 67.132 110.472 67.132 110.805 67.0367C110.996 66.989 111.139 66.9891 111.329 66.9414C111.52 66.9414 111.663 66.9414 111.853 66.8938C112.187 66.8938 112.568 66.8461 112.901 66.8461C113.235 66.8461 113.616 66.8938 113.949 66.8938C114.616 66.8938 115.283 67.0367 115.95 67.132C116.284 67.1796 116.617 67.2749 116.903 67.3702C117.237 67.4655 117.522 67.5131 117.856 67.6084C118.142 67.7037 118.475 67.8466 118.761 67.9419C118.904 67.9895 119.047 68.0371 119.19 68.0848C119.333 68.1324 119.476 68.2277 119.619 68.2753C119.904 68.4183 120.19 68.5612 120.429 68.6565C120.714 68.7994 120.953 68.9423 121.191 69.0852C121.429 69.2282 121.715 69.3711 121.953 69.5616C122.191 69.7522 122.429 69.8951 122.62 70.0857C124.43 71.4673 125.764 73.087 126.669 74.6115C127.575 76.1837 128.146 77.6129 128.432 78.8515C128.527 79.1374 128.623 79.4232 128.623 79.7091C128.67 79.9949 128.718 80.2331 128.766 80.4713C128.813 80.7095 128.861 80.9477 128.861 81.1383C128.861 81.3288 128.861 81.5194 128.909 81.7099C128.909 82.0434 128.956 82.2816 128.956 82.4722C128.956 82.8057 128.956 82.901 128.956 82.901Z" fill="#170203"/>
<path d="M135.053 92.9533C135.053 94.3825 133.91 95.5735 132.433 95.5735C130.956 95.5735 129.813 94.4301 129.813 92.9533C129.813 91.524 130.956 90.333 132.433 90.333C133.91 90.333 135.053 91.524 135.053 92.9533Z" fill="white"/>
<path d="M135.054 92.9535C135.054 92.9535 135.054 92.9058 135.054 92.7629C135.054 92.6676 135.054 92.4771 135.006 92.2865C134.911 91.9054 134.672 91.286 134.053 90.8096C133.767 90.5714 133.386 90.3809 132.91 90.2856C132.481 90.1903 131.957 90.238 131.48 90.3809C131.004 90.5238 130.528 90.8573 130.242 91.3337C129.908 91.7624 129.718 92.3341 129.718 92.9058C129.718 93.4775 129.908 94.0492 130.242 94.478C130.575 94.9067 131.004 95.2402 131.48 95.4308C131.957 95.6213 132.433 95.6213 132.91 95.526C133.338 95.4308 133.72 95.2402 134.053 95.002C134.672 94.5256 134.911 93.9063 135.006 93.5251C135.054 93.3346 135.054 93.144 135.054 93.0487L135.054 92.9535C135.054 92.9535 135.054 93.1917 134.958 93.5728C134.863 93.9539 134.577 94.5256 134.005 94.9544C133.72 95.1449 133.338 95.3355 132.957 95.4308C132.529 95.4784 132.1 95.4784 131.623 95.3355C131.195 95.1926 130.766 94.8591 130.48 94.478C130.194 94.0492 130.004 93.5251 130.004 93.0011C130.004 92.4771 130.194 91.953 130.48 91.5242C130.766 91.0955 131.195 90.8096 131.623 90.6667C132.052 90.4762 132.529 90.4762 132.957 90.5714C133.386 90.6191 133.72 90.8096 134.005 91.0478C134.577 91.4766 134.863 92.0483 134.958 92.4294C135.054 92.7153 135.054 92.9535 135.054 92.9535Z" fill="#170203"/>
<path d="M115.613 83.7988L122.486 77.1187L123.066 76.5553L122.486 75.9919L120.517 74.0771L119.969 73.545L119.422 74.0768L112.511 80.7864L105.601 74.0767L105.054 73.5452L104.507 74.0769L102.535 75.9917L101.955 76.5551L102.535 77.1187L109.41 83.7988L102.536 90.4723L101.959 91.0323L102.532 91.5961L104.497 93.5288L105.044 94.0675L105.595 93.5321L112.511 86.8108L119.428 93.5322L119.979 94.0677L120.526 93.5286L122.49 91.5959L123.063 91.0322L122.486 90.4724L115.613 83.7988Z" fill="#B5121B" stroke="white" stroke-width="1.57134"/>
<path d="M217.638 110.066C227.06 108.868 233.728 100.259 232.53 90.8368C231.332 81.4145 222.723 74.7471 213.301 75.9449C203.878 77.1426 197.211 85.7519 198.409 95.1742C199.607 104.596 208.216 111.264 217.638 110.066Z" fill="white"/>
<path d="M198.273 93.0009C198.273 93.0009 198.273 92.9056 198.273 92.715C198.273 92.5245 198.273 92.2386 198.321 91.9052C198.321 91.7146 198.321 91.524 198.368 91.2858C198.368 91.0476 198.416 90.8094 198.464 90.5712C198.511 90.333 198.559 90.0472 198.607 89.7137C198.654 89.4278 198.749 89.0944 198.845 88.7609C199.131 87.427 199.75 85.8548 200.703 84.1398C201.703 82.4723 203.132 80.7096 205.086 79.2328C205.324 79.0422 205.562 78.8517 205.848 78.6611C206.086 78.4705 206.372 78.3276 206.658 78.1371C206.944 77.9941 207.182 77.8036 207.515 77.6607C207.801 77.5177 208.087 77.3748 208.42 77.2319C208.563 77.1366 208.706 77.089 208.897 76.9937C209.04 76.946 209.23 76.8984 209.373 76.8031C209.707 76.7078 210.04 76.5649 210.326 76.4696C210.66 76.3744 210.993 76.2791 211.327 76.1838C211.66 76.0885 211.994 75.9932 212.375 75.9456C213.089 75.8503 213.804 75.7074 214.566 75.7074C214.947 75.7074 215.328 75.6598 215.709 75.6598C216.091 75.6598 216.472 75.7074 216.853 75.7074C217.043 75.7074 217.234 75.7074 217.425 75.755C217.615 75.8027 217.806 75.8027 217.996 75.8503C218.377 75.898 218.758 75.9456 219.14 76.0409C219.902 76.2314 220.712 76.422 221.426 76.7078C222.189 76.9461 222.951 77.3272 223.665 77.7083C224.047 77.8989 224.38 78.1371 224.761 78.3276C224.952 78.4229 225.142 78.5182 225.285 78.6611L225.809 79.0422C226.524 79.5186 227.143 80.138 227.763 80.7096C228.048 81.0431 228.334 81.329 228.62 81.6625L228.858 81.9007L229.049 82.1865L229.43 82.7105L229.811 83.2346L230.145 83.8063L230.478 84.378L230.669 84.6638L230.812 84.9496C231.002 85.3308 231.193 85.7595 231.383 86.1883C231.526 86.6171 231.717 87.0458 231.86 87.4746C232.431 89.1896 232.717 91.0476 232.765 92.9056C232.717 94.7636 232.431 96.6216 231.86 98.3366C231.717 98.7654 231.526 99.1941 231.383 99.6229C231.193 100.052 231.002 100.433 230.812 100.862L230.669 101.147L230.478 101.433L230.145 102.005L229.811 102.577L229.43 103.101L229.049 103.625L228.858 103.911L228.62 104.149C228.334 104.482 228.048 104.816 227.763 105.102C227.096 105.673 226.524 106.293 225.809 106.769L225.285 107.15C225.095 107.293 224.904 107.388 224.761 107.484C224.38 107.674 224.047 107.912 223.665 108.103C222.903 108.484 222.189 108.865 221.426 109.103C220.664 109.437 219.902 109.58 219.14 109.77C218.758 109.866 218.377 109.913 217.996 109.961C217.806 110.009 217.615 110.009 217.425 110.056C217.234 110.104 217.043 110.056 216.853 110.104C216.472 110.104 216.091 110.151 215.709 110.151C215.328 110.151 214.947 110.104 214.566 110.104C213.804 110.104 213.089 109.961 212.375 109.866C211.994 109.818 211.66 109.723 211.327 109.627C210.993 109.532 210.66 109.484 210.326 109.342C209.993 109.199 209.659 109.103 209.373 109.008C209.23 108.96 209.04 108.913 208.897 108.818C208.754 108.722 208.611 108.675 208.42 108.579C208.135 108.436 207.801 108.293 207.515 108.151C207.229 108.008 206.944 107.817 206.658 107.674C206.372 107.484 206.086 107.341 205.848 107.15C205.61 106.96 205.372 106.769 205.086 106.578C203.132 105.102 201.703 103.339 200.703 101.671C199.75 100.004 199.131 98.4319 198.845 97.0503C198.749 96.7168 198.654 96.431 198.607 96.0975C198.559 95.8117 198.511 95.5258 198.464 95.24C198.416 95.0018 198.368 94.7636 198.368 94.5254C198.368 94.2872 198.368 94.0966 198.321 93.9061C198.321 93.5726 198.273 93.2867 198.273 93.0962L198.273 93.0009C198.273 93.0009 198.273 93.0962 198.321 93.2867C198.321 93.4773 198.368 93.7631 198.368 94.0966C198.368 94.2872 198.368 94.4777 198.416 94.7159C198.416 94.9541 198.464 95.1923 198.511 95.4305C198.559 95.6687 198.607 95.9546 198.654 96.2881C198.702 96.5739 198.797 96.9074 198.892 97.2409C199.178 98.5748 199.798 100.147 200.798 101.814C201.798 103.482 203.228 105.197 205.133 106.674C205.372 106.864 205.61 107.055 205.896 107.245C206.134 107.436 206.42 107.579 206.705 107.722C206.991 107.865 207.229 108.055 207.563 108.198C207.849 108.341 208.135 108.484 208.468 108.627C208.611 108.675 208.754 108.77 208.897 108.818C209.04 108.865 209.23 108.913 209.373 109.008C209.707 109.103 209.993 109.246 210.326 109.342C210.66 109.437 210.993 109.532 211.327 109.627C211.66 109.723 211.994 109.818 212.375 109.866C213.089 109.961 213.804 110.104 214.518 110.104C214.9 110.104 215.281 110.151 215.614 110.151C215.995 110.151 216.376 110.104 216.758 110.104C216.948 110.104 217.139 110.104 217.329 110.056C217.52 110.009 217.71 110.009 217.901 109.961C218.282 109.913 218.663 109.866 219.044 109.77C219.807 109.58 220.569 109.389 221.331 109.103C222.093 108.865 222.808 108.484 223.57 108.103C223.951 107.912 224.285 107.674 224.618 107.484C224.809 107.388 224.999 107.293 225.142 107.15L225.666 106.769C226.381 106.293 226.953 105.673 227.62 105.102C227.905 104.768 228.191 104.482 228.477 104.149L228.715 103.911L228.906 103.672L229.287 103.148L229.668 102.624L230.002 102.053L230.335 101.481L230.526 101.195L230.669 100.909C230.859 100.528 231.05 100.099 231.24 99.7182C231.383 99.2894 231.526 98.8607 231.717 98.4319C232.288 96.7168 232.574 94.9065 232.574 93.0485C232.527 91.1905 232.241 89.3802 231.669 87.6652C231.526 87.2364 231.383 86.8076 231.193 86.3789C231.002 85.9977 230.812 85.569 230.621 85.1879L230.478 84.902L230.287 84.6162L229.954 84.0445L229.62 83.4728L229.239 82.9487L228.858 82.4247L228.668 82.1865L228.429 81.9483C228.144 81.6148 227.858 81.329 227.572 80.9955C226.953 80.4238 226.333 79.8045 225.619 79.3281L225.095 78.9469C224.952 78.804 224.761 78.7087 224.571 78.6135C224.237 78.4229 223.856 78.1847 223.523 77.9941C222.76 77.6607 222.046 77.2795 221.283 76.9937C220.521 76.6602 219.759 76.5173 218.997 76.3267C218.616 76.2314 218.234 76.1838 217.853 76.1362C217.663 76.0885 217.472 76.0885 217.282 76.0409C217.091 75.9932 216.9 75.9932 216.71 75.9932C216.329 75.9932 215.948 75.9456 215.567 75.9456C215.185 75.9456 214.804 75.9932 214.471 75.9932C213.709 75.9932 212.994 76.1362 212.327 76.2314C211.994 76.2791 211.612 76.3744 211.279 76.4696C210.945 76.5649 210.612 76.6126 210.278 76.7555C209.945 76.8508 209.612 76.9937 209.326 77.089C209.183 77.1366 208.992 77.1843 208.849 77.2795C208.706 77.3748 208.563 77.4225 208.42 77.4701C208.135 77.613 207.849 77.7559 207.515 77.8989C207.229 78.0418 206.944 78.2323 206.658 78.3753C206.372 78.5182 206.134 78.7087 205.848 78.8517C205.61 79.0422 205.372 79.2328 205.086 79.4234C203.132 80.9002 201.703 82.6153 200.75 84.2827C199.75 85.9501 199.131 87.5222 198.845 88.8562C198.749 89.1896 198.654 89.4755 198.607 89.809C198.559 90.0948 198.511 90.3807 198.464 90.6665C198.416 90.9047 198.368 91.1429 198.368 91.3811C198.368 91.6193 198.321 91.8099 198.321 92.0004C198.321 92.3339 198.273 92.6198 198.273 92.8103C198.321 92.9056 198.273 93.0009 198.273 93.0009Z" fill="#170203"/>
<path d="M191.746 103.768C191.746 105.292 192.984 106.578 194.557 106.578C196.129 106.578 197.367 105.34 197.367 103.768C197.367 102.195 196.129 100.957 194.557 100.957C192.984 100.957 191.746 102.243 191.746 103.768Z" fill="white"/>
<path d="M191.746 103.768C191.746 103.768 191.746 103.72 191.746 103.577C191.746 103.482 191.746 103.291 191.794 103.053C191.889 102.624 192.175 101.957 192.794 101.481C193.128 101.243 193.509 101.004 193.985 100.909C194.462 100.814 194.986 100.814 195.51 101.004C196.034 101.195 196.51 101.529 196.844 102.005C197.225 102.481 197.415 103.101 197.415 103.72C197.415 104.339 197.225 104.959 196.844 105.435C196.51 105.911 195.986 106.245 195.51 106.435C194.986 106.626 194.462 106.626 193.985 106.531C193.509 106.435 193.08 106.245 192.794 105.959C192.127 105.435 191.889 104.816 191.794 104.387C191.746 104.149 191.746 104.006 191.746 103.863C191.746 103.815 191.746 103.768 191.746 103.768C191.746 103.768 191.746 104.006 191.889 104.435C191.984 104.863 192.27 105.435 192.889 105.911C193.223 106.15 193.604 106.34 194.033 106.388C194.462 106.483 194.986 106.435 195.462 106.245C195.938 106.054 196.367 105.768 196.701 105.292C197.034 104.863 197.225 104.292 197.225 103.72C197.225 103.148 197.034 102.577 196.701 102.148C196.367 101.719 195.938 101.386 195.462 101.195C194.986 101.004 194.509 101.004 194.033 101.052C193.604 101.147 193.175 101.338 192.889 101.529C192.27 102.005 191.984 102.624 191.889 103.005C191.794 103.529 191.794 103.768 191.746 103.768Z" fill="#170203"/>
<path d="M190.264 68.7268C197.878 65.7302 201.613 57.1088 198.607 49.4703C195.601 41.8318 186.991 38.0687 179.377 41.0652C171.763 44.0617 168.028 52.6831 171.034 60.3217C174.04 67.9602 182.65 71.7233 190.264 68.7268Z" fill="white"/>
<path d="M178.926 68.5137C178.926 68.5137 179.021 68.5613 179.164 68.609C179.307 68.6566 179.545 68.7519 179.831 68.8472C179.974 68.8948 180.117 68.9424 180.307 69.0377C180.498 69.0854 180.688 69.133 180.927 69.2283C181.165 69.2759 181.403 69.3712 181.641 69.4188C181.879 69.5141 182.165 69.5141 182.451 69.5618C183.594 69.8 185.071 69.8476 186.739 69.657C188.406 69.4665 190.264 68.9424 192.122 67.8944C192.36 67.7514 192.598 67.6085 192.837 67.5132C193.075 67.3703 193.265 67.1797 193.504 67.0368C193.742 66.8939 193.98 66.751 194.171 66.5604C194.409 66.3699 194.599 66.1793 194.838 65.9887C194.98 65.8458 195.266 65.56 195.457 65.4171C195.457 65.4171 195.457 65.417 195.504 65.3694C195.695 65.1788 195.933 64.9406 196.124 64.7024C196.314 64.4642 196.505 64.226 196.695 63.9878C196.886 63.7496 197.077 63.5114 197.267 63.2256C197.601 62.7015 197.982 62.1775 198.22 61.6058C198.363 61.32 198.506 61.0341 198.649 60.7483C198.792 60.3195 198.982 59.8908 199.125 59.462C199.125 59.4144 199.173 59.3667 199.173 59.3191C199.22 59.1762 199.268 58.9856 199.316 58.8427C199.411 58.5092 199.506 58.1757 199.554 57.8422C199.649 57.1753 199.792 56.5083 199.792 55.7937C199.84 55.0791 199.792 54.3645 199.792 53.6499C199.744 53.3164 199.697 52.9353 199.649 52.5541C199.602 52.3636 199.602 52.173 199.554 52.0301L199.411 51.506C199.316 50.9344 199.125 50.3627 198.935 49.791C198.839 49.5051 198.696 49.2193 198.601 48.9335L198.22 48.0759L198.077 47.8377L197.791 47.3613L197.505 46.8849L197.172 46.4085L196.838 45.9321L196.648 45.6939L196.457 45.4557C196.029 45.0269 195.362 44.3123 194.933 43.8836C194.885 43.8359 194.838 43.8359 194.838 43.7883C193.647 42.7402 192.313 41.8827 190.836 41.2157C189.359 40.5964 187.787 40.2153 186.215 40.0247C186.167 40.0247 186.119 40.0247 186.072 40.0247C185.452 40.0247 184.452 40.0247 183.88 40.0247L183.594 40.0247L183.309 40.0723L182.737 40.1676L182.165 40.2629L181.593 40.4058L181.022 40.5487L180.736 40.5964L179.831 40.9299C179.545 41.0251 179.259 41.1681 178.973 41.2633C178.449 41.5015 177.878 41.7397 177.401 42.0732L176.925 42.3591C176.782 42.4544 176.639 42.5496 176.496 42.6449C176.21 42.8355 175.877 43.0737 175.638 43.2642C175.114 43.7406 174.543 44.1694 174.066 44.6935C173.542 45.1699 173.161 45.7415 172.732 46.2656C172.542 46.5514 172.351 46.8373 172.208 47.1231C172.113 47.266 172.018 47.409 171.922 47.5519C171.922 47.5995 171.875 47.6472 171.875 47.6472C171.684 48.0759 171.494 48.457 171.256 48.8382C171.113 49.124 171.017 49.4575 170.922 49.7433C170.684 50.315 170.541 50.982 170.398 51.5537C170.303 51.8395 170.303 52.173 170.207 52.4588C170.16 52.7447 170.112 53.0782 170.064 53.364C170.064 53.6499 170.017 53.9833 170.017 54.2692C170.017 54.5074 170.017 54.8885 170.017 55.1267C170.017 55.4126 170.017 55.6984 170.064 55.9842C170.064 56.2701 170.112 56.5559 170.16 56.8418C170.207 57.1276 170.207 57.3658 170.255 57.6517C170.303 57.9375 170.398 58.1757 170.446 58.4139C170.97 60.4624 171.827 62.2251 172.828 63.5591C173.828 64.893 174.876 65.9411 175.829 66.6081C176.067 66.7986 176.258 66.9892 176.496 67.0845C176.734 67.2274 176.925 67.3703 177.115 67.4656C177.306 67.5609 177.496 67.7038 177.639 67.7991C177.83 67.8944 177.973 67.942 178.116 68.0373C178.402 68.1802 178.592 68.2755 178.735 68.3231C178.83 68.5137 178.926 68.5137 178.926 68.5137C178.926 68.5137 178.878 68.466 178.735 68.4184C178.592 68.3231 178.402 68.2278 178.116 68.0849C177.973 68.0373 177.83 67.942 177.639 67.8467C177.496 67.7514 177.306 67.6561 177.115 67.5132C176.925 67.3703 176.734 67.275 176.496 67.1321C176.258 66.9892 176.067 66.7986 175.829 66.6557C174.876 65.9411 173.876 64.9406 172.875 63.5591C171.922 62.2251 171.017 60.4624 170.541 58.4615C170.493 58.2233 170.398 57.9375 170.35 57.6993C170.303 57.4135 170.255 57.1753 170.255 56.8894C170.207 56.6036 170.16 56.3654 170.16 56.0795C170.16 55.7937 170.16 55.5078 170.112 55.222C170.112 54.9838 170.112 54.6027 170.112 54.4121L170.112 54.3645C170.112 54.0786 170.16 53.7928 170.16 53.4593C170.207 53.1735 170.255 52.8876 170.303 52.5541C170.35 52.2683 170.398 51.9348 170.493 51.649C170.636 51.0773 170.779 50.4579 171.017 49.8386C171.113 49.5528 171.255 49.2193 171.351 48.9335C171.541 48.5523 171.732 48.1236 171.97 47.7424C171.97 47.6948 172.018 47.6472 172.018 47.6472C172.113 47.5042 172.208 47.3613 172.304 47.2184C172.494 46.9326 172.637 46.6467 172.828 46.3609C173.256 45.8368 173.638 45.2651 174.162 44.7887C174.638 44.2647 175.162 43.8359 175.686 43.3595C175.972 43.1213 176.258 42.9308 176.544 42.7402C176.687 42.6449 176.829 42.502 176.972 42.4544L177.449 42.1685C178.068 41.7874 178.735 41.5015 179.402 41.2157C179.736 41.0728 180.117 40.9775 180.45 40.8346L180.736 40.7393L181.022 40.6917L181.593 40.5487L182.165 40.4058L182.737 40.3105L183.309 40.2153L183.594 40.1676L183.88 40.1676C184.5 40.1676 185.452 40.1676 186.072 40.1676C186.119 40.1676 186.167 40.1676 186.215 40.1676C187.787 40.3105 189.311 40.6917 190.788 41.311C192.265 41.9779 193.599 42.8355 194.742 43.8836C194.79 43.9312 194.79 43.9312 194.838 43.9788C195.266 44.4076 195.933 45.1222 196.314 45.551L196.505 45.7892L196.648 46.0274L196.981 46.5038L197.315 46.9802L197.601 47.4566L197.887 47.933L198.029 48.1712L198.125 48.4094C198.268 48.7429 198.411 49.0764 198.601 49.4099C198.839 50.1245 199.078 50.7914 199.22 51.506L199.363 52.0301C199.411 52.2206 199.411 52.3636 199.459 52.5541C199.506 52.8876 199.554 53.2687 199.602 53.6022C199.649 54.3168 199.697 55.0314 199.602 55.6984C199.602 56.413 199.459 57.08 199.363 57.7469C199.316 58.0804 199.22 58.4139 199.125 58.6997C199.078 58.8427 199.03 59.0332 198.982 59.1762C198.982 59.2238 198.935 59.2714 198.935 59.3191C198.792 59.7478 198.601 60.1766 198.458 60.5577C198.315 60.8436 198.172 61.1294 198.029 61.4153C197.791 61.9869 197.41 62.511 197.077 63.035C196.934 63.3209 196.696 63.5114 196.553 63.7973C196.362 64.0355 196.171 64.2737 195.981 64.5119C195.79 64.7501 195.552 64.9406 195.362 65.1312C195.266 65.2265 195.171 65.3218 195.076 65.4647C195.076 65.4647 195.076 65.4647 195.028 65.5123C194.695 65.7982 194.409 66.0364 194.075 66.3222C193.885 66.5128 193.647 66.6557 193.408 66.7986C193.17 66.9415 192.98 67.1321 192.741 67.275C192.503 67.4179 192.265 67.5609 192.027 67.6562C190.216 68.7042 188.358 69.2283 186.691 69.4188C185.024 69.6094 183.594 69.5618 182.403 69.3712C182.118 69.3236 181.832 69.3236 181.593 69.2283C181.355 69.1806 181.117 69.0854 180.879 69.0377C180.641 68.9901 180.45 68.9424 180.26 68.8948C180.069 68.8472 179.926 68.7519 179.783 68.7042C179.497 68.609 179.259 68.5137 179.116 68.466C179.021 68.5613 178.926 68.5137 178.926 68.5137Z" fill="#170203"/>
<path d="M173.022 74.9925C171.259 74.659 170.449 72.6105 171.497 71.1813C172.021 70.4667 172.974 70.0855 173.879 70.2285C175.642 70.5619 176.452 72.6105 175.404 74.0397C174.832 74.7543 173.879 75.1354 173.022 74.9925Z" fill="white"/>
<path d="M172.499 74.8018C172.499 74.8018 172.546 74.8495 172.641 74.8495C172.737 74.8971 172.88 74.9447 173.07 74.9924C173.451 75.0877 174.071 75.0877 174.69 74.7542C174.976 74.5636 175.309 74.3254 175.547 73.9919C175.786 73.6585 175.976 73.2297 175.976 72.7533C176.024 72.2769 175.929 71.8005 175.643 71.3241C175.405 70.8953 174.976 70.5142 174.499 70.276C174.023 70.0854 173.451 70.0378 172.927 70.1331C172.451 70.2283 171.974 70.5142 171.689 70.8477C171.355 71.1811 171.165 71.6099 171.069 71.991C170.974 72.4198 171.022 72.8009 171.069 73.1344C171.26 73.8014 171.689 74.2778 171.974 74.4683C172.117 74.5636 172.26 74.6589 172.356 74.7065C172.403 74.8018 172.451 74.8018 172.499 74.8018C172.499 74.8018 172.308 74.7065 172.022 74.4683C171.736 74.2301 171.355 73.8014 171.212 73.1344C171.117 72.8009 171.117 72.4198 171.212 72.0387C171.307 71.6576 171.498 71.2764 171.784 70.9429C172.07 70.6095 172.499 70.3713 172.975 70.276C173.451 70.1807 173.928 70.2283 174.404 70.4189C174.881 70.6095 175.262 70.9429 175.5 71.3717C175.738 71.8005 175.833 72.2292 175.833 72.7056C175.833 73.1344 175.643 73.5632 175.452 73.8967C175.262 74.2301 174.928 74.4683 174.642 74.6113C174.071 74.9447 173.499 74.9447 173.118 74.8971C172.689 74.8971 172.499 74.8018 172.499 74.8018Z" fill="#170203"/>
<path d="M180.647 52.4112L182.886 52.4112C182.886 52.4112 182.886 50.5056 184.839 50.5056C185.839 50.5056 186.363 51.1726 186.602 51.649C186.84 52.2207 186.792 52.9353 186.459 53.4593C186.078 54.0786 185.22 54.6503 183.743 54.4121L183.743 59.462L185.982 59.462L185.982 56.5083C185.982 56.5083 189.079 55.6984 189.079 52.2683C189.079 48.9811 186.125 48.2189 184.887 48.2189C183.886 48.2189 180.599 48.4571 180.647 52.4112Z" fill="#170203"/>
<path d="M185.932 60.5102L183.693 60.5102L183.693 62.6063L185.932 62.6063L185.932 60.5102Z" fill="#170203"/>
<path d="M102.896 186.186C102.896 186.186 98.8467 182.375 97.2745 181.374C95.7024 180.374 92.2246 178.944 90.8907 178.849C89.5568 178.706 83.4588 180.517 83.4588 180.517C83.4588 180.517 74.4071 179.707 72.8826 180.755C71.3581 181.803 71.501 182.899 72.1204 183.708C72.7397 184.518 75.217 184.28 77.9325 184.28C80.648 184.328 81.3626 184.566 81.3626 184.566L77.4084 188.758L87.6035 191.569L93.7968 191.331L96.0359 194.142L102.896 186.186Z" fill="#FFBF9D"/>
<path d="M71.8821 176.753L72.1203 185.757L72.549 186.9L76.9796 192.331L87.8416 191.617L79.2187 188.234L76.1221 185.9L74.9311 182.041C74.9311 181.993 75.3122 176.086 71.8821 176.753Z" fill="#FFBF9D"/>
<path d="M72.6431 187.091L70.0229 187.091C70.0229 187.091 66.5928 181.422 63.4009 183.327L64.1155 184.471C64.1155 184.471 62.6863 183.804 61.7811 185.042L70.4993 192.665L70.8805 192.665L80.1703 192.045L72.6431 187.091Z" fill="#FFBF9D"/>
<path d="M74.216 188.806C74.216 188.853 73.9302 188.806 73.4538 188.853C72.9774 188.901 72.3104 188.901 71.6434 189.235L71.5482 189.282L71.5005 189.187C71.2147 188.806 70.8812 188.425 70.5477 187.996C69.8331 187.138 69.2138 186.328 68.6897 185.662C68.2133 185.042 67.9275 184.709 67.9275 184.661C67.9751 184.613 68.3086 184.947 68.785 185.519C69.3091 186.09 69.976 186.9 70.7383 187.805C71.0718 188.234 71.4052 188.663 71.6911 189.044L71.5482 188.996C72.3104 188.663 73.025 188.663 73.5014 188.71C73.9302 188.71 74.216 188.758 74.216 188.806Z" fill="#FF9A6C"/>
<path d="M92.9853 183.565C92.9853 183.661 91.5084 183.947 89.9363 184.852C88.3165 185.757 87.3161 186.9 87.2684 186.805C87.2684 186.805 87.459 186.471 87.8878 186.043C88.3165 185.614 88.9835 185.09 89.7934 184.614C90.6033 184.137 91.4131 183.851 91.9848 183.708C92.6042 183.565 92.9853 183.518 92.9853 183.565Z" fill="#FF9A6C"/>
<path d="M84.3143 181.231C84.3619 181.279 83.7426 181.946 83.0757 182.756C82.361 183.565 81.837 184.28 81.7894 184.232C81.7417 184.185 82.1705 183.422 82.8851 182.565C83.5997 181.755 84.3143 181.183 84.3143 181.231Z" fill="#FF9A6C"/>
<path d="M75.2638 190.045C75.2638 190.045 75.1685 189.997 75.0732 189.854C74.9303 189.711 74.7397 189.473 74.5015 189.235C74.2633 188.949 73.9775 188.615 73.644 188.234C73.4534 188.044 73.3105 187.806 73.1199 187.615C72.9294 187.377 72.6912 187.186 72.5483 186.9C72.1671 186.329 71.9289 185.614 71.9289 184.852C71.9289 184.09 71.8813 183.28 71.8813 182.422C71.8337 180.707 71.8337 178.801 71.786 176.801L71.786 176.705L71.8813 176.705C71.9766 176.705 72.0719 176.658 72.1671 176.658C72.7865 176.562 73.5011 176.801 73.9298 177.277C74.3586 177.753 74.5968 178.325 74.7874 178.849C75.1208 179.993 75.1685 181.088 75.1208 182.089L75.1208 182.041C75.5496 183.518 75.9307 184.804 76.2642 185.9L76.2166 185.852C77.1694 186.567 77.884 187.186 78.4557 187.615C78.6939 187.806 78.8844 187.948 79.0274 188.091C79.1703 188.187 79.2179 188.282 79.2179 188.282C79.2179 188.282 79.1226 188.234 78.9797 188.139C78.8368 188.044 78.5986 187.853 78.3604 187.71C77.7887 187.281 77.0265 186.71 76.0737 186.043L76.0737 185.995C75.7402 184.899 75.3114 183.613 74.8826 182.136C74.9303 181.136 74.835 180.04 74.5492 178.992C74.4062 178.468 74.168 177.944 73.7869 177.515C73.4058 177.086 72.8341 176.896 72.2148 176.991C72.1195 176.991 72.0242 177.039 71.9289 177.039L72.0242 176.896C72.0719 178.897 72.0719 180.802 72.1195 182.517C72.2148 184.233 71.9289 185.852 72.6912 186.948C72.8817 187.234 73.0723 187.424 73.2629 187.663C73.4534 187.901 73.644 188.091 73.7869 188.282C74.1204 188.663 74.4062 188.997 74.6444 189.33C74.8826 189.616 75.0256 189.806 75.1685 189.997C75.2161 189.949 75.2638 190.045 75.2638 190.045Z" fill="#FF9A6C"/>
<path d="M70.8797 192.617C70.8797 192.617 70.6891 192.617 70.4033 192.474C70.1174 192.331 69.784 192.045 69.4028 191.664C68.6406 190.902 67.6401 189.711 66.6873 188.377C65.6869 187.043 64.877 185.757 64.3053 184.852C64.0195 184.375 63.7813 183.994 63.6383 183.756C63.4954 183.47 63.4001 183.327 63.4001 183.327C63.4001 183.327 63.4954 183.47 63.686 183.708C63.8766 183.994 64.1624 184.375 64.4482 184.756C65.0676 185.662 65.9251 186.9 66.9255 188.234C67.926 189.568 68.8312 190.759 69.5934 191.569C69.9745 191.95 70.308 192.236 70.5462 192.426C70.7368 192.569 70.8797 192.617 70.8797 192.617Z" fill="#FF9A6C"/>
<path d="M86.6984 186.805L81.8868 186.471L80.4575 182.565L80.1717 179.945C80.0288 178.658 78.9807 177.658 77.6468 177.658L77.5991 177.658L77.885 184.137L78.8854 188.139L82.7919 190.426L87.556 190.426L86.6984 186.805Z" fill="#FFBF9D"/>
<path d="M86.6989 186.805L81.8872 186.471L80.458 182.565L80.1722 179.945C80.0293 178.658 78.9812 177.658 77.6472 177.658L77.5996 177.658L77.8855 184.137L78.8859 188.139L82.7924 190.426" fill="#FFBF9D"/>
<path d="M82.8404 190.426C82.8404 190.426 82.7451 190.378 82.5546 190.283C82.364 190.187 82.0782 190.045 81.7923 189.854C81.0777 189.473 80.1249 188.901 78.9339 188.187L78.8863 188.187L78.8863 188.139C78.6004 186.996 78.2669 185.614 77.8858 184.137C77.7905 182.184 77.6953 179.992 77.6 177.658L77.6 177.515L77.7429 177.515C77.7905 177.515 77.8382 177.515 77.8858 177.515C79.0768 177.515 80.1249 178.468 80.3631 179.516C80.4108 179.802 80.4584 180.04 80.4584 180.326C80.506 180.564 80.506 180.85 80.5537 181.088C80.6013 181.612 80.649 182.089 80.6966 182.565L80.6966 182.517C81.2206 183.994 81.6971 185.28 82.1258 186.472L82.0305 186.424C83.5074 186.519 84.6508 186.614 85.5083 186.71C85.8894 186.757 86.2229 186.757 86.4611 186.805C86.6993 186.805 86.7946 186.853 86.7946 186.853C86.7946 186.853 86.6993 186.853 86.4611 186.853C86.2229 186.853 85.8894 186.853 85.5083 186.805C84.6508 186.757 83.4598 186.71 81.9829 186.614L81.9353 186.614L81.9353 186.567C81.5065 185.423 81.0301 184.089 80.506 182.66C80.4584 182.184 80.4108 181.707 80.3631 181.183C80.3155 180.945 80.3155 180.659 80.2678 180.421C80.2202 180.183 80.2202 179.897 80.1726 179.659C79.9344 178.658 79.0292 177.849 77.9335 177.849C77.8858 177.849 77.8382 177.849 77.7905 177.849L77.9335 177.706C78.0287 180.04 78.124 182.232 78.1717 184.185C78.5528 185.709 78.8386 187.043 79.1245 188.187L79.0768 188.139C80.2678 188.854 81.2206 189.425 81.8876 189.854C82.2211 190.045 82.4593 190.187 82.6499 190.33C82.7451 190.33 82.8404 190.426 82.8404 190.426Z" fill="#FF9A6C"/>
<path d="M189.267 110.533C185.17 94.9065 181.359 76.7078 158.491 78.3276C158.491 78.3276 144.39 81.0431 137.72 91.4287C133.766 97.5267 130.383 123.919 129.717 144.738C129.669 145.596 130.05 151.503 130.002 152.313L190.553 157.363L201.463 157.363C201.463 157.363 200.796 146.311 197.509 135.591C194.269 125.206 190.744 116.059 189.267 110.533Z" fill="#170203"/>
<path d="M155.49 84.2827L156.919 82.9011L172.403 89.142C174.642 89.2849 176.404 91.0953 176.5 93.3344L176.357 143.69C176.357 147.12 175.69 150.074 173.641 152.79L171.45 155.648C166.495 162.175 156.3 161.651 152.394 154.457C152.108 153.933 151.917 153.504 151.87 153.171C151.774 152.742 151.679 152.409 151.631 152.027C151.155 147.978 151.155 144.453 151.155 144.453C150.869 140.022 150.774 138.164 150.774 138.212C150.774 138.212 141.293 137.116 138.768 124.968C137.482 118.917 137.72 110.628 138.101 102.434C138.53 91.0953 146.391 84.2827 155.49 84.2827Z" fill="#FFBF9D"/>
<path d="M159.443 110.533C159.443 111.342 160.157 112.057 161.015 112.057C161.872 112.057 162.587 111.39 162.587 110.58C162.587 109.77 161.872 109.056 161.015 109.056C160.157 109.008 159.443 109.675 159.443 110.533Z" fill="#170203"/>
<path d="M143.294 110.961C143.294 111.771 144.009 112.486 144.866 112.486C145.724 112.486 146.439 111.819 146.439 111.009C146.439 110.199 145.724 109.484 144.866 109.484C144.009 109.437 143.294 110.104 143.294 110.961Z" fill="#170203"/>
<path d="M139.626 105.673C139.817 105.864 140.96 104.911 142.675 104.863C144.343 104.768 145.629 105.578 145.82 105.34C145.915 105.244 145.677 104.863 145.105 104.53C144.533 104.149 143.628 103.815 142.58 103.863C141.532 103.911 140.674 104.339 140.15 104.768C139.674 105.197 139.531 105.578 139.626 105.673Z" fill="#170203"/>
<path d="M156.395 105.101C156.633 105.292 157.681 104.244 159.348 103.958C161.016 103.672 162.397 104.339 162.54 104.101C162.636 104.006 162.35 103.672 161.778 103.339C161.206 103.053 160.254 102.815 159.206 102.958C158.157 103.101 157.348 103.625 156.919 104.101C156.395 104.625 156.299 105.006 156.395 105.101Z" fill="#170203"/>
<path d="M150.868 118.155C150.868 118.06 149.82 117.917 148.105 117.774C147.676 117.774 147.248 117.679 147.152 117.393C147.057 117.107 147.2 116.631 147.391 116.107C147.724 115.058 148.105 113.915 148.486 112.772C150.011 108.008 151.107 104.101 150.916 104.006C150.725 103.958 149.296 107.769 147.772 112.533C147.391 113.724 147.057 114.82 146.724 115.916C146.581 116.392 146.343 116.964 146.581 117.631C146.724 117.964 147.057 118.155 147.343 118.25C147.629 118.298 147.867 118.298 148.058 118.298C149.82 118.298 150.868 118.25 150.868 118.155Z" fill="#170203"/>
<path d="M150.726 138.212C150.726 138.212 159.015 138.307 166.924 133.019C166.924 133.019 163.208 141.689 150.917 141.165L150.726 138.212Z" fill="#FF9A6C"/>
<path d="M156.157 121.585C155.681 121.013 154.918 120.68 154.204 120.632C153.156 120.585 152.393 120.728 151.822 121.538C151.536 122.014 151.584 122.729 151.679 122.919C151.822 123.11 151.727 123.11 151.917 123.253C152.584 123.729 153.394 124.062 154.204 124.253C155.014 124.444 155.967 124.253 156.395 123.586C156.776 123.014 156.633 122.157 156.157 121.585Z" fill="#FF9A6C"/>
<path d="M156.015 97.3361C156.253 97.7649 157.682 97.3361 159.492 97.2884C161.255 97.1932 162.779 97.5743 162.97 97.1455C163.065 96.955 162.732 96.5262 162.113 96.1927C161.493 95.8592 160.493 95.5734 159.445 95.5734C158.397 95.621 157.444 95.9545 156.824 96.3356C156.157 96.7168 155.919 97.1455 156.015 97.3361Z" fill="#170203"/>
<path d="M139.864 102.624C140.197 103.005 141.341 102.529 142.722 102.434C144.104 102.291 145.342 102.577 145.581 102.148C145.676 101.957 145.485 101.576 144.961 101.243C144.437 100.909 143.58 100.671 142.579 100.719C141.626 100.814 140.817 101.195 140.34 101.624C139.864 102.053 139.721 102.434 139.864 102.624Z" fill="#170203"/>
<path d="M176.118 114.82C176.118 114.82 169.592 116.392 160.397 96.5262C157.253 89.7613 151.155 82.9487 151.155 82.9487L156.872 82.1388C156.872 82.1388 173.927 86.9505 174.261 87.1887C174.546 87.4269 178.548 96.0022 178.548 96.0022L176.118 114.82Z" fill="#170203"/>
<path d="M173.975 114.01C173.927 113.105 174.88 110.914 175.785 110.723C178.167 110.247 182.503 110.199 182.884 116.297C183.36 124.634 174.88 123.396 174.833 123.157C174.833 123.014 174.166 117.155 173.975 114.01Z" fill="#FFBF9D"/>
<path d="M177.215 119.87C177.263 119.823 177.358 119.965 177.596 120.061C177.834 120.156 178.263 120.204 178.692 120.013C179.549 119.632 180.216 118.203 180.169 116.678C180.169 115.916 179.931 115.201 179.645 114.63C179.359 114.01 178.93 113.629 178.501 113.582C178.073 113.486 177.739 113.772 177.644 114.01C177.549 114.249 177.596 114.392 177.549 114.439C177.549 114.439 177.358 114.296 177.406 113.963C177.453 113.772 177.501 113.582 177.691 113.439C177.882 113.248 178.168 113.153 178.501 113.2C179.168 113.2 179.74 113.772 180.074 114.392C180.455 115.011 180.693 115.821 180.693 116.678C180.74 118.346 179.978 119.965 178.787 120.394C178.216 120.585 177.691 120.442 177.453 120.251C177.215 120.061 177.167 119.87 177.215 119.87Z" fill="#FF9A6C"/>
<path d="M157.252 121.919C157.205 122.109 155.823 122.109 154.108 122.443C152.393 122.776 151.107 123.3 151.011 123.11C150.916 122.967 152.155 122.062 154.013 121.728C155.776 121.347 157.3 121.728 157.252 121.919Z" fill="#170203"/>
<path d="M222.521 186.662C222.521 186.662 229.524 180.659 231.525 180.516C233.574 180.373 238.862 181.326 238.862 181.326C238.862 181.326 242.244 181.374 243.912 181.136C246.437 180.802 248.152 181.088 249.152 181.374C249.676 181.517 250.296 182.803 248.819 183.661C248.199 184.042 242.054 184.423 242.054 184.423L257.346 188.806L255.346 190.426C255.06 190.664 254.774 190.759 254.393 190.759L232.383 191.521L231.382 193.999L222.521 186.662Z" fill="#FFBF9D"/>
<path d="M239.194 186.662L246.34 186.662C246.34 186.662 248.865 183.327 249.77 181.946C250.58 180.755 251.533 180.373 252.342 180.659C252.581 180.755 252.724 180.897 252.867 181.088C253.057 181.374 253.057 181.755 252.867 182.041L249.722 187.901L251.39 187.329C251.39 187.329 254.677 184.089 255.344 183.375C255.963 182.612 258.345 179.468 260.394 181.755L257.535 184.947L260.394 182.898C260.394 182.898 262.68 180.945 263.919 183.279L255.344 190.521" fill="#FFBF9D"/>
<path d="M231.763 183.708C231.763 183.708 231.858 183.661 232.049 183.613C232.239 183.565 232.525 183.47 232.906 183.422C233.668 183.279 234.812 183.327 236.098 183.756C236.765 183.994 237.432 184.28 238.147 184.709C238.48 184.899 238.861 185.137 239.195 185.376C239.385 185.519 239.576 185.614 239.719 185.757C239.909 185.9 240.1 186.043 240.243 186.138C242.053 186.281 244.102 186.424 246.293 186.567L246.198 186.614C246.865 185.804 247.532 184.947 248.151 184.042C248.389 183.708 248.627 183.327 248.866 182.994C249.104 182.66 249.294 182.279 249.58 181.946C249.818 181.612 250.104 181.279 250.438 180.993C250.581 180.85 250.771 180.755 250.962 180.612C251.152 180.516 251.343 180.421 251.629 180.469L251.581 180.469C251.962 180.421 252.391 180.469 252.724 180.755C253.058 181.04 253.153 181.469 253.106 181.803C251.724 184.232 250.581 186.376 249.628 187.996C249.437 188.711 248.866 189.092 248.389 189.33C247.865 189.568 247.436 189.616 247.055 189.616C246.674 189.616 246.388 189.616 246.198 189.616C246.007 189.616 245.912 189.616 245.912 189.568C245.912 189.568 246.007 189.568 246.198 189.568C246.388 189.568 246.674 189.568 247.055 189.52C247.436 189.473 247.865 189.425 248.342 189.187C248.818 188.949 249.342 188.568 249.485 187.948C250.39 186.281 251.533 184.137 252.867 181.707L252.867 181.755C252.915 181.469 252.82 181.088 252.582 180.897C252.343 180.707 251.962 180.659 251.629 180.707L251.581 180.707C251.438 180.707 251.248 180.755 251.105 180.85C250.962 180.945 250.771 181.04 250.628 181.183C250.342 181.422 250.057 181.755 249.818 182.088C249.342 182.755 248.913 183.518 248.389 184.185C247.722 185.09 247.103 185.947 246.388 186.757L246.341 186.805L246.293 186.805C244.102 186.662 242.101 186.519 240.195 186.376C239.909 186.233 239.766 186.09 239.576 185.995C239.385 185.852 239.195 185.757 239.052 185.614C238.718 185.376 238.337 185.137 238.004 184.947C237.289 184.518 236.622 184.232 236.003 183.994C234.716 183.565 233.621 183.518 232.858 183.613C232.477 183.613 232.191 183.708 232.001 183.756C231.858 183.708 231.763 183.708 231.763 183.708Z" fill="#FF9A6C"/>
<path d="M260.395 181.803C260.395 181.803 260.3 181.946 260.109 182.184C259.919 182.422 259.633 182.755 259.299 183.184C258.585 184.042 257.584 185.185 256.488 186.471C255.345 187.71 254.44 188.949 253.582 189.711C253.154 190.092 252.82 190.378 252.534 190.521C252.248 190.664 252.105 190.759 252.105 190.711C252.105 190.711 252.248 190.616 252.487 190.426C252.725 190.235 253.058 189.949 253.439 189.568C254.202 188.806 255.107 187.567 256.25 186.328C257.346 185.042 258.394 183.899 259.109 183.089C259.49 182.66 259.776 182.374 260.014 182.136C260.252 181.898 260.395 181.755 260.395 181.803Z" fill="#FF9A6C"/>
<path d="M256.489 182.136C256.536 182.184 256.203 182.565 255.631 183.136C255.059 183.756 254.297 184.566 253.392 185.471C252.677 186.233 252.011 186.9 251.486 187.424C250.438 187.758 249.724 187.948 249.724 187.9C249.724 187.9 249.867 187.805 250.2 187.71C250.581 187.567 250.962 187.424 251.439 187.233L251.391 187.281C251.915 186.709 252.582 186.042 253.297 185.28C254.154 184.375 254.964 183.565 255.584 182.993C256.06 182.422 256.441 182.088 256.489 182.136Z" fill="#FF9A6C"/>
<path d="M198.795 151.122C198.795 151.122 209.085 153.79 210.086 167.749C210.657 175.705 206.417 201.24 206.417 201.24L221.567 185.662L235.097 195.047C235.097 195.047 216.708 217.533 212.468 220.915C208.228 224.298 201.463 229.729 199.271 229.3C197.08 228.871 197.08 218.724 197.08 218.724L197.08 162.699L198.795 151.122Z" fill="#B5121B"/>
<path d="M124.951 152.837C124.951 152.837 115.805 155.839 116.186 173.704C116.567 191.569 116.281 197.572 116.281 197.572L102.608 183.089L91.222 195.571C91.222 195.571 103.942 214.484 112.851 223.679C121.236 232.349 128.715 224.822 131.145 218.724C133.098 213.769 134.67 195.047 134.67 195.047L124.951 152.837Z" fill="#B5121B"/>
<g opacity="0.3">
<path d="M199.604 183.279C200.414 178.039 200.652 172.37 198.27 167.558C192.411 182.041 192.696 198.667 194.793 214.008L199.414 227.252C202.32 218.343 199.557 208.91 199.604 199.62C199.652 194.332 198.794 188.472 199.604 183.279Z" fill="black"/>
</g>
<path d="M123.046 164.176C123.046 164.176 129.144 205.242 130.335 208.862C131.526 212.483 131.526 223.059 131.526 223.059C131.526 223.059 125.095 235.017 124.714 243.306L201.939 243.449L196.936 209.386C196.746 208.1 196.746 204.194 196.841 202.907C197.175 196.905 197.651 184.042 199.366 176.086C201.367 166.891 198.652 151.122 198.652 151.122L175.594 145.453C170.115 153.314 156.537 153.409 151.154 145.453L125.142 152.79L123.046 164.176Z" fill="#B5121B"/>
<path d="M198.415 207.719C198.415 207.719 198.462 207.576 198.653 207.338C198.796 207.099 199.034 206.814 199.367 206.385C199.987 205.623 200.844 204.527 202.035 203.526C203.179 202.526 204.417 201.859 205.322 201.43C205.799 201.24 206.132 201.097 206.418 201.002C206.704 200.906 206.847 200.859 206.847 200.906C206.895 201.002 204.513 201.764 202.226 203.765C201.082 204.765 200.177 205.766 199.558 206.528C198.843 207.29 198.462 207.766 198.415 207.719Z" fill="#170203"/>
<path d="M126.953 206.861C126.905 206.861 126.715 206.004 126.143 204.765C125.571 203.527 124.523 201.859 122.904 200.525C121.284 199.144 119.521 198.381 118.187 198.048C116.853 197.667 115.996 197.619 115.996 197.572C115.996 197.572 116.234 197.572 116.615 197.572C116.996 197.619 117.568 197.667 118.235 197.857C119.569 198.191 121.427 198.953 123.094 200.335C124.714 201.716 125.762 203.431 126.334 204.718C126.62 205.385 126.762 205.909 126.858 206.29C126.905 206.671 126.953 206.861 126.953 206.861Z" fill="#170203"/>
<path d="M127.429 184.613C127.429 184.613 127.286 184.566 127.095 184.423C126.857 184.28 126.571 184.089 126.19 183.804C125.476 183.28 124.475 182.422 123.522 181.422C122.569 180.421 121.76 179.421 121.236 178.706C120.712 177.991 120.378 177.515 120.426 177.467C120.473 177.467 120.807 177.896 121.378 178.563C121.95 179.278 122.76 180.231 123.713 181.231C124.666 182.231 125.618 183.089 126.285 183.661C127 184.232 127.429 184.566 127.429 184.613Z" fill="#170203"/>
<path d="M181.311 206.861C181.311 206.861 181.311 206.909 181.263 206.957C181.216 207.004 181.12 207.1 181.073 207.243C180.882 207.481 180.644 207.814 180.263 208.243C179.548 209.101 178.405 210.244 176.928 211.53C175.451 212.816 173.498 214.246 171.306 215.627C169.067 217.009 166.542 218.39 163.779 219.677C161.064 220.963 158.396 222.154 156.014 223.202C153.632 224.25 151.488 225.251 149.725 226.156C147.963 227.061 146.533 227.823 145.581 228.347C145.104 228.633 144.723 228.824 144.485 228.967C144.39 229.014 144.294 229.062 144.199 229.11C144.151 229.157 144.104 229.157 144.104 229.157C144.104 229.157 144.151 229.11 144.199 229.11C144.294 229.062 144.342 229.014 144.485 228.919C144.723 228.776 145.104 228.538 145.581 228.252C146.533 227.68 147.915 226.87 149.678 225.965C151.44 225.06 153.584 224.06 155.966 222.964C158.348 221.868 160.968 220.725 163.732 219.391C166.447 218.105 169.02 216.723 171.211 215.341C173.45 213.96 175.356 212.578 176.833 211.292C178.357 210.006 179.453 208.862 180.215 208.052C180.596 207.671 180.882 207.29 181.073 207.1C181.168 207.004 181.216 206.909 181.311 206.861C181.311 206.861 181.311 206.861 181.311 206.861Z" fill="#170203"/>
<path d="M124.905 242.639C124.905 242.639 124.905 242.592 124.905 242.544C124.905 242.449 124.905 242.354 124.905 242.258C124.905 241.972 124.952 241.591 125 241.115C125.143 240.114 125.333 238.638 125.857 236.827C126.858 233.207 128.811 228.204 131.813 222.678L131.813 222.726C131.527 218.247 131.05 213.245 130.526 208.005C129.526 198.096 128.43 189.139 127.668 182.66C127.287 179.421 126.953 176.8 126.715 174.99C126.62 174.085 126.524 173.37 126.477 172.894C126.429 172.656 126.429 172.465 126.429 172.37C126.429 172.227 126.429 172.179 126.429 172.179C126.429 172.179 126.429 172.227 126.477 172.37C126.477 172.513 126.524 172.703 126.572 172.894C126.62 173.37 126.763 174.085 126.858 174.99C127.096 176.8 127.43 179.421 127.858 182.66C128.668 189.139 129.764 198.096 130.812 208.005C131.336 213.245 131.813 218.247 132.098 222.726L132.098 222.773L132.098 222.821C129.097 228.347 127.096 233.302 126.096 236.923C125.572 238.733 125.333 240.21 125.143 241.21C125.095 241.687 125.048 242.068 125.048 242.354C125.048 242.496 125.048 242.592 125 242.639C124.905 242.639 124.905 242.639 124.905 242.639Z" fill="#170203"/>
<path d="M200.271 165.128C200.271 165.128 200.271 165.176 200.271 165.319C200.271 165.462 200.271 165.653 200.271 165.938C200.271 166.462 200.271 167.225 200.223 168.225C200.176 170.226 199.985 173.084 199.604 176.657C199.271 180.23 198.747 184.423 198.222 189.139C197.698 193.808 197.174 199.001 197.031 204.432C196.841 209.863 197.365 215.056 198.08 219.724C198.747 224.393 199.556 228.538 200.223 232.063C200.843 235.589 201.319 238.447 201.605 240.4C201.748 241.401 201.843 242.163 201.891 242.687C201.938 242.925 201.938 243.116 201.938 243.259C201.938 243.402 201.938 243.449 201.938 243.449C201.938 243.449 201.938 243.402 201.891 243.259C201.891 243.116 201.843 242.925 201.796 242.687C201.7 242.163 201.605 241.401 201.462 240.4C201.176 238.447 200.652 235.589 200.033 232.063C199.366 228.538 198.556 224.393 197.841 219.724C197.127 215.056 196.603 209.863 196.746 204.432C196.889 199.001 197.46 193.808 197.984 189.139C198.508 184.47 199.032 180.23 199.414 176.705C199.795 173.18 200.033 170.274 200.128 168.273C200.176 167.272 200.176 166.51 200.223 165.986C200.223 165.748 200.223 165.557 200.223 165.367C200.271 165.224 200.271 165.128 200.271 165.128Z" fill="#170203"/>
<g opacity="0.3">
<path d="M126.573 173.942C125.191 186.853 126.859 200.621 131.051 212.912L126.573 173.942Z" fill="black"/>
</g>
<g opacity="0.3">
<path d="M174.356 219.486C168.497 224.869 162.637 229.443 155.443 232.015C160.874 232.492 166.353 230.396 170.545 226.918C174.738 223.44 177.739 219.772 179.644 214.674L174.356 219.486Z" fill="black"/>
</g>
<path d="M167.686 225.394C167.638 225.346 171.259 222.011 175.832 217.914C180.358 213.865 184.074 210.577 184.122 210.625C184.169 210.673 180.549 214.008 175.975 218.105C171.449 222.202 167.734 225.441 167.686 225.394Z" fill="#170203"/>
<path d="M180.645 124.539C180.645 126.206 179.311 127.54 177.643 127.54C175.976 127.54 174.642 126.206 174.642 124.539C174.642 122.871 175.976 121.537 177.643 121.537C179.311 121.585 180.645 122.919 180.645 124.539Z" fill="#626262"/>
<path d="M198.413 163.795C197.555 156.506 196.65 149.217 195.793 141.88L176.927 136.163C176.546 149.217 174.259 163.842 171.02 176.467C177.975 178.706 185.407 179.516 192.696 178.706C193.03 175.181 193.363 171.655 193.649 168.13C194.125 170.798 194.602 173.466 195.078 176.086C197.079 174.99 198.222 172.751 198.603 170.512C198.937 168.32 198.651 166.034 198.413 163.795Z" fill="#170203"/>
<path d="M183.597 178.801C183.597 178.801 183.597 178.706 183.644 178.515C183.692 178.325 183.74 178.039 183.835 177.706C184.025 176.991 184.264 175.943 184.549 174.609C185.169 171.941 186.074 168.035 186.979 163.223C187.884 158.411 188.742 152.599 189.028 146.072C189.314 139.593 188.932 132.399 187.122 125.11C185.359 117.821 182.263 111.247 178.356 106.054C177.88 105.387 177.403 104.768 176.879 104.149C176.355 103.529 175.879 102.958 175.355 102.386C175.069 102.1 174.831 101.814 174.593 101.576C174.307 101.29 174.069 101.052 173.783 100.766C173.259 100.242 172.735 99.7658 172.211 99.2417C170.067 97.2885 168.018 95.5734 166.16 93.9536C164.302 92.3338 162.635 90.857 161.301 89.4278C160.967 89.0943 160.634 88.7132 160.3 88.4273C159.967 88.0938 159.681 87.7604 159.443 87.4745C159.157 87.141 158.919 86.8552 158.681 86.5694C158.442 86.2835 158.204 85.9977 158.014 85.7118C157.585 85.1878 157.251 84.6637 156.918 84.235C156.585 83.8062 156.394 83.4251 156.203 83.0916C156.013 82.8058 155.87 82.5676 155.775 82.377C155.679 82.2341 155.632 82.1388 155.632 82.1388C155.632 82.1388 155.679 82.2341 155.775 82.377C155.87 82.5199 156.013 82.7581 156.203 83.0916C156.394 83.3774 156.632 83.7586 156.966 84.1873C157.299 84.6161 157.633 85.1401 158.061 85.6642C158.3 85.95 158.49 86.2359 158.728 86.5217C158.967 86.8076 159.252 87.0934 159.538 87.4269C159.824 87.7604 160.11 88.0462 160.443 88.3797C160.777 88.7132 161.063 89.0467 161.444 89.3801C162.825 90.7617 164.493 92.2386 166.351 93.8583C168.209 95.4781 170.305 97.1932 172.401 99.1464C172.925 99.6228 173.497 100.147 174.021 100.671C174.307 100.957 174.545 101.195 174.831 101.481C175.069 101.767 175.355 102.053 175.641 102.338C176.165 102.91 176.689 103.482 177.213 104.101C177.737 104.673 178.213 105.34 178.737 106.007C182.644 111.199 185.788 117.821 187.551 125.158C189.361 132.447 189.742 139.688 189.456 146.215C189.171 152.742 188.265 158.554 187.36 163.366C186.455 168.225 185.502 172.084 184.835 174.752C184.502 176.086 184.264 177.134 184.073 177.801C183.978 178.134 183.93 178.42 183.883 178.611C183.644 178.706 183.597 178.801 183.597 178.801Z" fill="#626262"/>
<path d="M206.464 86.8552L208.528 86.8552L225.043 86.8552" stroke="#170203" stroke-width="0.952809" stroke-linecap="round" stroke-linejoin="round"/>
<path d="M211.624 86.8551L211.624 84.9971C211.624 84.5044 211.841 84.0318 212.229 83.6833C212.616 83.3349 213.141 83.1392 213.688 83.1392L217.817 83.1392C218.365 83.1392 218.89 83.3349 219.277 83.6833C219.664 84.0318 219.882 84.5044 219.882 84.9971L219.882 86.8551M222.978 86.8551L222.978 99.861C222.978 100.354 222.761 100.826 222.374 101.175C221.986 101.523 221.461 101.719 220.914 101.719L210.592 101.719C210.044 101.719 209.519 101.523 209.132 101.175C208.745 100.826 208.527 100.354 208.527 99.861L208.527 86.8551L222.978 86.8551Z" stroke="#170203" stroke-width="0.952809" stroke-linecap="round" stroke-linejoin="round"/>
<path d="M213.689 91.5L213.689 97.0739" stroke="#170203" stroke-width="0.952809" stroke-linecap="round" stroke-linejoin="round"/>
<path d="M217.817 91.5L217.817 97.0739" stroke="#170203" stroke-width="0.952809" stroke-linecap="round" stroke-linejoin="round"/>
</g>
<defs>
<clipPath id="clip0_92_11615">
<rect width="213.286" height="212" fill="white" transform="translate(53.5394 32.6404)"/>
</clipPath>
</defs>
</svg>
