<svg width="616" height="412" viewBox="0 0 616 412" fill="none" xmlns="http://www.w3.org/2000/svg">
<g clip-path="url(#clip0_9_6695)">
<path d="M371.098 180.199C371.098 180.199 371.098 180.105 371.098 180.012C371.098 179.824 371.098 179.636 371.098 179.355C371.098 178.792 371.098 177.947 371.098 177.008C371.098 174.944 371.098 171.94 371.004 168.186L371.192 168.374C360.774 168.374 344.162 168.468 325.579 168.468C325.673 168.374 325.297 168.655 325.767 168.28V168.374V168.468V168.655V169.031V169.782C325.767 170.251 325.767 170.814 325.767 171.283C325.767 172.316 325.767 173.348 325.767 174.287C325.767 176.257 325.767 178.322 325.767 180.199L325.579 180.012C338.625 180.012 349.981 180.105 358.146 180.105C362.182 180.105 365.467 180.199 367.719 180.199C368.846 180.199 369.69 180.199 370.347 180.199C370.629 180.199 370.817 180.199 371.004 180.199H371.098C371.098 180.199 371.004 180.199 370.91 180.199C370.723 180.199 370.535 180.199 370.253 180.199C369.69 180.199 368.752 180.199 367.719 180.199C365.467 180.199 362.182 180.199 358.146 180.293C349.981 180.293 338.531 180.387 325.485 180.387H325.297V180.199C325.297 178.228 325.297 176.257 325.297 174.287C325.297 173.254 325.297 172.222 325.297 171.283C325.297 170.814 325.297 170.251 325.297 169.782V169.031V168.655V168.468V168.374V168.28C325.767 167.811 325.391 168.186 325.579 168.092C344.256 168.092 360.774 168.186 371.192 168.186H371.38V168.374C371.38 172.222 371.286 175.225 371.286 177.29C371.286 178.322 371.286 179.073 371.286 179.636C371.286 179.918 371.286 180.105 371.286 180.199C371.098 180.105 371.098 180.199 371.098 180.199Z" fill="#E0E0E0"/>
<path d="M202.818 370.441L192.494 374.852L193.151 313.566C193.433 306.245 190.148 303.148 188.271 300.989C171.659 282.125 146.881 295.827 146.694 314.974L146.037 369.69L135.994 369.596L137.027 312.346C137.121 305.87 142.095 294.701 147.163 290.665C175.131 268.516 203.757 291.416 203.475 315.631L202.818 370.441Z" fill="#F5F5F5"/>
<path d="M202.818 370.441C202.818 370.441 202.818 370.066 202.818 369.315C202.818 368.564 202.818 367.532 202.818 366.124C202.818 363.308 202.912 359.272 202.912 353.923C202.912 348.667 203.006 342.191 203.1 334.683C203.1 330.929 203.194 326.893 203.194 322.669C203.194 318.446 203.569 313.941 202.724 309.248C201.88 304.65 200.003 299.957 196.999 295.827C196.624 295.358 196.248 294.795 195.873 294.232C195.404 293.762 195.028 293.293 194.559 292.73C193.714 291.698 192.682 290.853 191.743 290.008C191.274 289.539 190.711 289.164 190.148 288.788C189.585 288.413 189.116 287.944 188.552 287.568C187.426 286.911 186.3 286.066 184.986 285.503C182.546 284.189 179.824 283.345 177.102 282.688C176.445 282.594 175.694 282.5 174.944 282.312L173.911 282.125C173.536 282.125 173.16 282.031 172.785 282.031C172.034 282.031 171.377 281.937 170.626 281.937C169.875 281.937 169.125 282.031 168.468 282.031C162.555 282.218 156.642 284.283 151.48 287.662C148.946 289.351 146.6 291.604 144.535 293.95C142.47 296.39 140.875 299.206 139.561 302.115C138.247 305.119 137.496 308.31 137.12 311.595C136.839 314.88 136.933 318.258 136.839 321.637C136.651 335.246 136.557 349.324 136.37 363.684C136.37 365.561 136.37 367.532 136.276 369.409L136.088 369.127C139.467 369.127 142.846 369.221 146.13 369.221L145.849 369.409C145.943 358.522 146.13 347.916 146.224 337.498C146.318 332.336 146.318 327.268 146.412 322.2C146.412 319.666 146.506 317.226 146.506 314.786C146.6 312.252 146.975 309.811 147.726 307.559C149.321 302.96 152.231 298.924 156.079 296.109C156.548 295.733 157.018 295.358 157.487 295.076L158.988 294.232C160.021 293.762 161.053 293.199 162.179 292.824C163.212 292.355 164.338 292.167 165.464 291.885C166.027 291.792 166.591 291.698 167.154 291.604L167.998 291.51H168.843C171.096 291.322 173.254 291.604 175.413 292.073C177.571 292.542 179.542 293.387 181.42 294.419C185.08 296.484 188.177 299.488 190.242 302.96C191.368 304.65 192.025 306.527 192.682 308.31C193.151 310.187 193.527 312.064 193.621 313.941C193.621 314.41 193.62 314.88 193.714 315.349C193.714 315.818 193.714 316.287 193.714 316.757C193.714 317.695 193.714 318.54 193.714 319.478C193.714 321.262 193.714 323.045 193.621 324.734C193.527 331.679 193.433 337.968 193.339 343.693C193.151 355.143 193.057 364.059 192.964 370.066L192.87 369.972C196.248 370.066 198.782 370.066 200.472 370.066C201.317 370.066 201.88 370.066 202.349 370.066C202.63 370.441 202.818 370.441 202.818 370.441C202.818 370.441 202.63 370.441 202.255 370.441C201.88 370.441 201.223 370.441 200.378 370.441C198.689 370.441 196.155 370.441 192.776 370.441H192.682V370.347C192.776 364.434 192.776 355.424 192.964 343.974C193.057 338.249 193.057 331.867 193.151 325.016C193.151 323.326 193.151 321.543 193.245 319.76C193.245 318.821 193.245 317.977 193.245 317.038C193.245 316.569 193.245 316.1 193.245 315.63C193.245 315.161 193.245 314.692 193.151 314.223C193.151 312.346 192.682 310.562 192.213 308.685C191.556 306.902 190.899 305.025 189.866 303.429C187.895 300.051 184.798 297.141 181.138 295.076C179.261 294.138 177.29 293.293 175.225 292.824C173.16 292.449 170.908 292.073 168.749 292.261H167.905L167.06 292.355C166.497 292.449 165.934 292.449 165.37 292.636C164.244 292.918 163.212 293.105 162.179 293.575C161.147 293.95 160.115 294.419 159.082 294.983L157.581 295.827C157.111 296.109 156.642 296.484 156.173 296.86C152.419 299.581 149.603 303.523 148.008 308.122C147.257 310.375 146.881 312.815 146.787 315.255C146.787 317.695 146.694 320.229 146.694 322.669C146.6 327.644 146.6 332.806 146.506 337.968C146.412 348.292 146.224 358.991 146.13 369.878V370.16H145.849C142.564 370.16 139.185 370.066 135.807 370.066H135.525V369.784C135.525 367.907 135.525 365.936 135.619 364.059C135.807 349.699 135.9 335.621 136.088 322.012C136.182 318.634 136.088 315.255 136.37 311.876C136.745 308.591 137.59 305.306 138.904 302.303C140.218 299.3 141.907 296.484 143.972 294.044C146.037 291.604 148.383 289.445 151.011 287.662C156.267 284.189 162.273 282.125 168.186 281.937C168.937 281.937 169.688 281.843 170.439 281.843L172.973 282.031C173.442 282.125 173.911 282.125 174.38 282.218L176.445 282.594C176.727 282.688 177.102 282.688 177.384 282.782C180.012 283.439 182.546 284.283 184.892 285.503C186.206 286.066 187.332 286.911 188.459 287.568C189.022 287.944 189.585 288.413 190.148 288.788C190.711 289.257 191.274 289.633 191.743 290.008C192.682 290.947 193.714 291.792 194.559 292.824C195.028 293.293 195.404 293.856 195.873 294.326C196.248 294.795 196.624 295.358 196.999 295.921C200.003 300.145 201.974 304.837 202.818 309.53C203.663 314.223 203.287 318.728 203.287 323.045C203.194 327.268 203.194 331.304 203.1 335.058C203.006 342.566 202.912 349.042 202.818 354.298C202.724 359.554 202.724 363.684 202.63 366.405C202.63 367.813 202.63 368.846 202.537 369.596C202.818 370.16 202.818 370.441 202.818 370.441Z" fill="#E0E0E0"/>
<path d="M214.925 412.019L123.606 410.986L124.45 333.932L215.489 334.965C217.459 334.965 218.961 336.56 218.961 338.531L218.116 408.828C218.21 410.611 216.709 412.019 214.925 412.019Z" fill="#E0E0E0"/>
<path d="M202.349 411.925L123.324 410.986C121.165 410.986 119.382 409.203 119.382 407.044L120.133 337.78C120.133 335.715 121.916 334.026 123.981 334.026L204.038 334.964C206.103 334.964 207.792 336.748 207.792 338.812L207.042 407.326C207.042 409.86 204.883 411.925 202.349 411.925Z" fill="#EBEBEB"/>
<path d="M175.882 366.312C175.976 360.305 171.002 355.331 164.901 355.425C159.176 355.519 154.483 360.305 154.39 365.936C154.296 370.911 157.581 375.04 162.086 376.448L154.859 391.183L173.348 391.746L167.905 376.542C172.41 375.228 175.788 371.192 175.882 366.312Z" fill="#E0E0E0"/>
<path d="M207.135 404.698C207.042 404.698 207.135 391.277 207.323 374.758C207.605 358.24 207.886 344.819 207.98 344.819C208.074 344.819 207.98 358.24 207.792 374.758C207.605 391.277 207.323 404.698 207.135 404.698Z" fill="#FAFAFA"/>
<path d="M187.614 337.029C187.614 337.123 175.788 337.311 161.241 337.311C146.694 337.311 134.868 337.217 134.868 337.123C134.868 337.029 146.694 336.842 161.241 336.842C175.788 336.842 187.614 336.842 187.614 337.029Z" fill="white"/>
<path d="M153.92 371.849C153.92 371.849 153.733 371.661 153.451 371.192C153.17 370.723 152.888 370.066 152.606 369.127C152.043 367.344 151.856 364.622 152.794 361.901C153.733 359.179 155.516 357.208 157.018 356.082C157.768 355.519 158.425 355.143 158.895 354.955C159.364 354.768 159.645 354.674 159.645 354.674C159.645 354.768 158.613 355.143 157.205 356.363C155.797 357.489 154.108 359.46 153.17 362.088C152.325 364.716 152.419 367.25 152.888 369.033C153.451 370.817 154.014 371.755 153.92 371.849Z" fill="white"/>
<path d="M158.144 376.917C158.05 377.011 157.487 376.729 156.736 376.354C155.985 375.885 155.516 375.509 155.61 375.322C155.704 375.228 156.267 375.509 157.018 375.885C157.675 376.448 158.238 376.823 158.144 376.917Z" fill="white"/>
<path d="M167.154 284.659C167.154 284.659 166.497 284.753 165.371 284.94C164.244 285.128 162.555 285.41 160.49 285.973C156.454 287.099 151.105 289.821 146.881 294.607C142.658 299.394 140.687 305.119 140.03 309.155C139.655 311.219 139.561 312.909 139.561 314.129C139.561 315.255 139.561 315.912 139.561 315.912C139.561 315.912 139.561 315.724 139.467 315.443C139.467 315.161 139.373 314.692 139.373 314.129C139.279 312.909 139.373 311.219 139.655 309.155C140.218 305.025 142.189 299.206 146.506 294.326C150.823 289.445 156.267 286.723 160.396 285.691C162.461 285.128 164.15 284.846 165.277 284.753C165.84 284.659 166.309 284.659 166.591 284.659C166.966 284.659 167.154 284.659 167.154 284.659Z" fill="white"/>
<path d="M139.091 324.171C138.998 324.171 138.904 322.951 138.904 321.356C138.904 319.854 139.091 318.54 139.185 318.54C139.279 318.54 139.373 319.76 139.373 321.356C139.373 322.951 139.185 324.171 139.091 324.171Z" fill="white"/>
<path d="M196.999 62.7883H151.292V74.8955H196.999V62.7883Z" fill="#F5F5F5"/>
<path d="M177.572 87.5658C177.572 87.5658 177.572 87.4719 177.572 87.3781C177.572 87.1904 177.572 87.0027 177.572 86.7211C177.572 86.158 177.572 85.3133 177.572 84.3748C177.572 82.31 177.572 79.3066 177.478 75.5525L177.665 75.7402C167.248 75.7402 150.635 75.8341 132.052 75.8341C132.146 75.7402 131.771 76.0218 132.24 75.6463V75.7402V75.8341V76.0218V76.3972V77.148C132.24 77.6173 132.24 78.1804 132.24 78.6497C132.24 79.6821 132.24 80.7145 132.24 81.653C132.24 83.6239 132.24 85.6887 132.24 87.5658L132.052 87.3781C145.098 87.3781 156.454 87.4719 164.62 87.4719C168.655 87.4719 171.94 87.5658 174.193 87.5658C175.319 87.5658 176.164 87.5658 176.821 87.5658C177.102 87.5658 177.29 87.5658 177.478 87.5658H177.572C177.572 87.5658 177.478 87.5658 177.384 87.5658C177.196 87.5658 177.008 87.5658 176.727 87.5658C176.164 87.5658 175.225 87.5658 174.193 87.5658C171.94 87.5658 168.655 87.5658 164.62 87.6596C156.454 87.6596 145.004 87.7535 131.959 87.7535H131.771V87.5658C131.771 85.5949 131.771 83.6239 131.771 81.653C131.771 80.6206 131.771 79.5882 131.771 78.6497C131.771 78.1804 131.771 77.6173 131.771 77.148V76.3972V76.0218V75.8341V75.7402V75.6463C132.24 75.1771 131.865 75.5525 132.052 75.4586C150.729 75.4586 167.248 75.5525 177.665 75.5525H177.853V75.7402C177.853 79.5882 177.759 82.5915 177.759 84.6563C177.759 85.6887 177.759 86.4395 177.759 87.0027C177.759 87.2842 177.759 87.4719 177.759 87.5658C177.572 87.4719 177.572 87.5658 177.572 87.5658Z" fill="#E0E0E0"/>
<path d="M361.15 271.332H315.443V283.439H361.15V271.332Z" fill="#F5F5F5"/>
<path d="M341.816 296.203C341.816 296.203 341.816 296.109 341.816 296.015C341.816 295.827 341.816 295.64 341.816 295.358C341.816 294.795 341.816 293.95 341.816 293.012C341.816 290.947 341.816 287.944 341.722 284.189L341.91 284.377C331.492 284.377 314.88 284.471 296.297 284.471C296.391 284.377 296.015 284.659 296.484 284.283V284.377V284.471V284.659V285.034V285.785C296.484 286.254 296.484 286.817 296.484 287.287C296.484 288.319 296.484 289.351 296.484 290.29C296.484 292.261 296.484 294.326 296.484 296.203L296.297 296.015C309.342 296.015 320.699 296.109 328.864 296.109C332.9 296.109 336.185 296.203 338.437 296.203C339.563 296.203 340.408 296.203 341.065 296.203C341.346 296.203 341.534 296.203 341.722 296.203H341.816C341.816 296.203 341.722 296.203 341.628 296.203C341.44 296.203 341.253 296.203 340.971 296.203C340.408 296.203 339.469 296.203 338.437 296.203C336.185 296.203 332.9 296.203 328.864 296.297C320.699 296.297 309.248 296.39 296.203 296.39H296.015V296.203C296.015 294.232 296.015 292.261 296.015 290.29C296.015 289.258 296.015 288.225 296.015 287.287C296.015 286.817 296.015 286.254 296.015 285.785V285.034V284.659V284.471V284.377V284.283C296.484 283.814 296.109 284.189 296.297 284.096C314.974 284.096 331.492 284.189 341.91 284.189H342.097V284.377C342.097 288.225 342.003 291.228 342.003 293.293C342.003 294.326 342.003 295.076 342.003 295.64C342.003 295.921 342.003 296.109 342.003 296.203C341.816 296.109 341.816 296.203 341.816 296.203Z" fill="#E0E0E0"/>
<path d="M61.7559 43.8297C61.7559 43.8297 61.7559 43.7358 61.7559 43.642C61.7559 43.4543 61.7559 43.2666 61.7559 42.985C61.7559 42.4219 61.7559 41.5772 61.7559 40.6387C61.7559 38.5739 61.7559 35.5706 61.662 31.8164L61.8497 32.0041C51.432 32.0041 34.8198 32.098 16.2368 32.098C16.3306 32.0041 15.9552 32.2857 16.4245 31.9103V32.0041V32.098V32.2857V32.6611V33.4119C16.4245 33.8812 16.4245 34.4443 16.4245 34.9136C16.4245 35.946 16.4245 36.9784 16.4245 37.9169C16.4245 39.8878 16.4245 41.9526 16.4245 43.8297L16.2368 43.642C29.2824 43.642 40.6388 43.7358 48.8041 43.7358C52.8398 43.7358 56.1247 43.8297 58.3771 43.8297C59.5034 43.8297 60.3481 43.8297 61.0051 43.8297C61.2866 43.8297 61.4743 43.8297 61.662 43.8297H61.7559C61.7559 43.8297 61.662 43.8297 61.5682 43.8297C61.3805 43.8297 61.1928 43.8297 60.9112 43.8297C60.3481 43.8297 59.4095 43.8297 58.3771 43.8297C56.1247 43.8297 52.8398 43.8297 48.8041 43.9236C40.6388 43.9236 29.1886 44.0174 16.1429 44.0174H15.9552V43.8297C15.9552 41.8588 15.9552 39.8878 15.9552 37.9169C15.9552 36.8845 15.9552 35.8521 15.9552 34.9136C15.9552 34.4443 15.9552 33.8812 15.9552 33.4119V32.6611V32.2857V32.098V32.0041V31.9103C16.4245 31.441 16.0491 31.8164 16.2368 31.7225C34.9137 31.7225 51.432 31.8164 61.8497 31.8164H62.0374V32.0041C62.0374 35.8521 61.9436 38.8554 61.9436 40.9202C61.9436 41.9526 61.9436 42.7035 61.9436 43.2666C61.9436 43.5481 61.9436 43.7358 61.9436 43.8297C61.7559 43.8297 61.7559 43.8297 61.7559 43.8297Z" fill="#E0E0E0"/>
<path d="M334.026 26.4668C334.026 26.4668 334.026 26.3729 334.026 26.2791C334.026 26.0914 334.026 25.9037 334.026 25.6221C334.026 25.059 334.026 24.2143 334.026 23.2758C334.026 21.211 334.026 18.2076 333.932 14.4535L334.12 14.6412C323.702 14.6412 307.09 14.7351 288.507 14.7351C288.601 14.6412 288.225 14.9228 288.695 14.5473V14.6412V14.7351V14.9228V15.2982V15.9552C288.695 16.4244 288.695 16.9875 288.695 17.4568C288.695 18.4892 288.695 19.5216 288.695 20.4601C288.695 22.4311 288.695 24.4959 288.695 26.3729L288.507 26.1852C301.553 26.1852 312.909 26.2791 321.074 26.2791C325.11 26.2791 328.395 26.3729 330.647 26.3729C331.773 26.3729 332.618 26.3729 333.275 26.3729C333.557 26.3729 333.744 26.3729 333.932 26.3729C333.932 26.4668 334.026 26.4668 334.026 26.4668C334.026 26.4668 333.932 26.4668 333.838 26.4668C333.651 26.4668 333.463 26.4668 333.181 26.4668C332.618 26.4668 331.68 26.4668 330.647 26.4668C328.395 26.4668 325.11 26.4668 321.074 26.5606C312.909 26.5606 301.459 26.6545 288.413 26.6545H288.225V26.4668C288.225 24.4959 288.225 22.5249 288.225 20.554C288.225 19.5216 288.225 18.4892 288.225 17.5507C288.225 17.0814 288.225 16.5183 288.225 16.049V15.2982V14.9228V14.7351V14.6412V14.5473C288.695 14.0781 288.319 14.4535 288.507 14.3596C307.184 14.3596 323.702 14.4535 334.12 14.4535H334.308V14.6412C334.308 18.4892 334.214 21.4925 334.214 23.5573C334.214 24.5897 334.214 25.3405 334.214 25.9037C334.214 26.1852 334.214 26.3729 334.214 26.4668C334.026 26.4668 334.026 26.4668 334.026 26.4668Z" fill="#E0E0E0"/>
<path d="M340.22 14.4534C340.22 14.4534 340.22 14.3596 340.22 14.2657C340.22 14.078 340.22 13.8903 340.22 13.6088C340.22 13.0456 340.22 12.2009 340.22 11.1686C340.22 9.00992 340.126 6.10045 340.126 2.34629L340.314 2.534C333.181 2.534 323.514 2.534 312.909 2.62786C312.721 2.81556 313.19 2.34629 313.096 2.44015V2.534V2.62786V2.81556V3.19098V3.94181C313.096 4.50493 313.096 4.9742 313.096 5.53733C313.096 6.56972 313.096 7.60211 313.096 8.6345C313.096 10.6993 313.096 12.5764 313.096 14.4534L312.909 14.2657C320.792 14.2657 327.644 14.3596 332.524 14.3596C334.964 14.3596 336.842 14.3596 338.249 14.4534C338.906 14.4534 339.376 14.4534 339.751 14.4534C340.033 14.3596 340.22 14.4534 340.22 14.4534C340.22 14.4534 340.033 14.4534 339.751 14.4534C339.376 14.4534 338.906 14.4534 338.249 14.4534C336.842 14.4534 334.964 14.4534 332.618 14.5473C327.738 14.5473 320.792 14.6412 312.815 14.6412H312.627V14.4534C312.627 12.5764 312.627 10.6054 312.627 8.6345C312.627 7.60211 312.627 6.56972 312.627 5.53733C312.627 4.9742 312.627 4.50493 312.627 3.94181V3.19098V2.72171V2.534V2.44015V2.34629C312.533 2.44015 313.096 1.87703 312.909 2.15859C323.608 2.15859 333.275 2.25244 340.314 2.25244H340.502V2.44015C340.502 6.1943 340.408 9.19763 340.408 11.3563C340.408 12.3887 340.408 13.1395 340.408 13.7026C340.22 14.1719 340.22 14.4534 340.22 14.4534Z" fill="#E0E0E0"/>
<path d="M45.8946 314.504C45.8946 314.504 45.8946 314.41 45.8946 314.317C45.8946 314.129 45.8946 313.941 45.8946 313.66C45.8946 313.096 45.8946 312.252 45.8946 311.313C45.8946 309.248 45.8946 306.245 45.8007 302.491L45.9884 302.679C35.5707 302.679 18.9585 302.773 0.375464 302.773C0.469318 302.679 0.0939026 302.96 0.563172 302.585V302.679V302.773V302.96V303.336V304.086C0.563172 304.556 0.563172 305.119 0.563172 305.588C0.563172 306.621 0.563172 307.653 0.563172 308.591C0.563172 310.562 0.563172 312.627 0.563172 314.504L0.375464 314.317C13.4211 314.317 24.7775 314.41 32.9428 314.41C36.9785 314.41 40.2634 314.504 42.5158 314.504C43.6421 314.504 44.4868 314.504 45.1438 314.504C45.4253 314.504 45.613 314.504 45.8007 314.504H45.8946C45.8946 314.504 45.8007 314.504 45.7069 314.504C45.5192 314.504 45.3315 314.504 45.0499 314.504C44.4868 314.504 43.5482 314.504 42.5158 314.504C40.2634 314.504 36.9785 314.504 32.9428 314.598C24.7775 314.598 13.3273 314.692 0.28161 314.692H0.0939026V314.504C0.0939026 312.533 0.0939026 310.562 0.0939026 308.591C0.0939026 307.559 0.0939026 306.527 0.0939026 305.588C0.0939026 305.119 0.0939026 304.556 0.0939026 304.086V303.336V302.96V302.773V302.679V302.585C0.563172 302.116 0.187756 302.491 0.375464 302.397C19.0524 302.397 35.5707 302.491 45.9884 302.491H46.1761V302.679C46.1761 306.527 46.0823 309.53 46.0823 311.595C46.0823 312.627 46.0823 313.378 46.0823 313.941C46.0823 314.223 46.0823 314.41 46.0823 314.504C45.8946 314.504 45.8946 314.504 45.8946 314.504Z" fill="#E0E0E0"/>
<path d="M52.089 302.491C52.089 302.491 52.089 302.397 52.089 302.303C52.089 302.116 52.089 301.928 52.089 301.646C52.089 301.083 52.089 300.239 52.089 299.206C52.089 297.048 51.9951 294.138 51.9951 290.384L52.1828 290.572C45.0499 290.572 35.383 290.572 24.7775 290.665C24.5898 290.853 25.0591 290.384 24.9652 290.478V290.572V290.665V290.853V291.229V291.979C24.9652 292.543 24.9652 293.012 24.9652 293.575C24.9652 294.607 24.9652 295.64 24.9652 296.672C24.9652 298.737 24.9652 300.614 24.9652 302.491L24.7775 302.303C32.6612 302.303 39.5125 302.397 44.3929 302.397C46.8331 302.397 48.7102 302.397 50.118 302.491C50.775 302.491 51.2443 302.491 51.6197 302.491C51.9013 302.397 52.089 302.491 52.089 302.491C52.089 302.491 51.9013 302.491 51.6197 302.491C51.2443 302.491 50.775 302.491 50.118 302.491C48.7102 302.491 46.8331 302.491 44.4868 302.585C39.6064 302.585 32.6612 302.679 24.6836 302.679H24.4959V302.491C24.4959 300.614 24.4959 298.643 24.4959 296.672C24.4959 295.64 24.4959 294.607 24.4959 293.575C24.4959 293.012 24.4959 292.543 24.4959 291.979V291.229V290.853V290.665V290.572V290.478C24.4021 290.572 24.9652 290.008 24.7775 290.29C35.4768 290.29 45.1438 290.384 52.1828 290.384H52.3705V290.572C52.3705 294.326 52.2767 297.329 52.2767 299.488C52.2767 300.52 52.2767 301.271 52.2767 301.834C52.089 302.21 52.089 302.491 52.089 302.491Z" fill="#E0E0E0"/>
<path d="M189.679 215.207C189.679 215.207 189.679 215.113 189.679 215.019C189.679 214.831 189.679 214.644 189.679 214.362C189.679 213.799 189.679 212.954 189.679 212.016C189.679 209.951 189.679 206.948 189.585 203.194L189.773 203.381C179.355 203.381 162.743 203.475 144.16 203.475C144.253 203.381 143.878 203.663 144.347 203.287V203.381V203.475V203.663V204.038V204.789C144.347 205.258 144.347 205.822 144.347 206.291C144.347 207.323 144.347 208.356 144.347 209.294C144.347 211.265 144.347 213.33 144.347 215.207L144.16 215.019C157.205 215.019 168.562 215.113 176.727 215.113C180.763 215.113 184.047 215.207 186.3 215.207C187.426 215.207 188.271 215.207 188.928 215.207C189.209 215.207 189.397 215.207 189.585 215.207H189.679C189.679 215.207 189.585 215.207 189.491 215.207C189.303 215.207 189.116 215.207 188.834 215.207C188.271 215.207 187.332 215.207 186.3 215.207C184.047 215.207 180.763 215.207 176.727 215.301C168.562 215.301 157.111 215.395 144.066 215.395H143.878V215.207C143.878 213.236 143.878 211.265 143.878 209.294C143.878 208.262 143.878 207.229 143.878 206.291C143.878 205.822 143.878 205.258 143.878 204.789V204.038V203.663V203.475V203.381V203.287C144.347 202.818 143.972 203.194 144.16 203.1C162.836 203.1 179.355 203.194 189.773 203.194H189.96V203.381C189.96 207.229 189.866 210.233 189.866 212.297C189.866 213.33 189.866 214.081 189.866 214.644C189.866 214.925 189.866 215.113 189.866 215.207C189.679 215.113 189.679 215.207 189.679 215.207Z" fill="#E0E0E0"/>
<path d="M195.873 203.1C195.873 203.1 195.873 203.006 195.873 202.912C195.873 202.724 195.873 202.537 195.873 202.255C195.873 201.692 195.873 200.847 195.873 199.815C195.873 197.656 195.779 194.747 195.779 190.993L195.967 191.18C188.834 191.18 179.167 191.18 168.562 191.274C168.374 191.462 168.843 190.993 168.749 191.086V191.18V191.274V191.462V191.837V192.588C168.749 193.151 168.749 193.62 168.749 194.184C168.749 195.216 168.749 196.248 168.749 197.281C168.749 199.346 168.749 201.223 168.749 203.1L168.562 202.912C176.445 202.912 183.297 203.006 188.177 203.006C190.617 203.006 192.494 203.006 193.902 203.1C194.559 203.1 195.028 203.1 195.404 203.1C195.685 203.1 195.873 203.1 195.873 203.1C195.873 203.1 195.685 203.1 195.404 203.1C195.028 203.1 194.559 203.1 193.902 203.1C192.494 203.1 190.617 203.1 188.271 203.194C183.39 203.194 176.445 203.287 168.468 203.287H168.28V203.1C168.28 201.223 168.28 199.252 168.28 197.281C168.28 196.248 168.28 195.216 168.28 194.184C168.28 193.62 168.28 193.151 168.28 192.588V191.837V191.462V191.274V191.18V191.086C168.186 191.18 168.749 190.617 168.562 190.899C179.261 190.899 188.928 190.993 195.967 190.993H196.155V191.18C196.155 194.934 196.061 197.938 196.061 200.096C196.061 201.129 196.061 201.88 196.061 202.443C195.873 202.818 195.873 203.1 195.873 203.1Z" fill="#E0E0E0"/>
<path d="M248.713 144.347C249.37 144.347 276.024 141.532 276.024 141.532C276.024 141.532 278.277 130.739 278.183 127.923C278.089 125.107 276.118 106.524 276.118 106.524L286.067 101.832C286.067 101.832 299.394 146.788 296.484 150.542C293.575 154.296 288.131 157.581 287.662 157.675C287.193 157.675 261.852 168.937 244.208 163.118C226.657 157.111 248.713 144.347 248.713 144.347Z" fill="#FFBF9D"/>
<path d="M225.437 168.562C229.379 172.41 236.136 175.694 247.399 172.879C269.736 167.341 286.442 162.555 293.106 158.989C299.769 155.422 297.141 139.467 297.704 138.81C299.394 136.651 297.517 131.959 295.17 131.208C288.319 129.143 276.494 129.988 275.837 130.551C272.364 134.211 275.555 138.716 275.555 138.716L246.179 142.564C246.179 142.564 241.017 142.189 235.386 143.221" fill="#BAA2A3"/>
<path d="M235.292 143.315C235.292 143.315 235.573 143.221 236.042 143.127C236.512 143.033 237.169 142.939 238.107 142.846C239.984 142.658 242.612 142.376 246.085 142.47C253.124 141.532 263.26 140.124 275.461 138.528L275.273 138.81C274.335 137.402 273.772 135.713 273.959 134.023C274.053 133.179 274.335 132.24 274.804 131.489C274.992 131.114 275.367 130.739 275.649 130.457C275.743 130.363 275.93 130.269 276.024 130.269L276.4 130.175C276.587 130.082 276.869 130.082 277.057 130.082C280.623 129.612 284.283 129.612 288.037 129.894C289.915 129.988 291.792 130.269 293.763 130.645C294.232 130.738 294.701 130.926 295.17 131.02C295.64 131.208 296.109 131.489 296.484 131.771C297.235 132.428 297.798 133.366 298.174 134.305C298.549 135.243 298.737 136.276 298.549 137.402C298.455 137.965 298.268 138.435 297.986 138.904C297.892 138.998 297.892 139.279 297.892 139.467V140.218C297.986 142.189 298.08 144.253 297.986 146.318C297.892 149.228 297.611 152.231 296.578 154.953C296.015 156.267 295.264 157.581 294.138 158.519C293.575 158.989 292.918 159.27 292.261 159.645C291.604 160.021 290.947 160.209 290.384 160.49C287.85 161.616 285.222 162.461 282.688 163.306C280.154 164.15 277.62 164.901 275.18 165.652C265.325 168.468 256.409 170.72 248.994 172.597C247.117 173.067 245.334 173.442 243.551 173.724C241.861 173.911 240.172 174.099 238.67 174.005C235.573 173.911 232.945 173.254 230.974 172.316C229.003 171.471 227.596 170.439 226.751 169.688C225.906 168.937 225.531 168.468 225.531 168.468C225.531 168.468 226 168.843 226.845 169.594C227.689 170.251 229.097 171.283 231.068 172.128C233.039 172.973 235.667 173.63 238.67 173.724C240.172 173.817 241.861 173.63 243.551 173.442C245.24 173.16 247.023 172.785 248.9 172.316C256.409 170.439 265.325 168.092 275.086 165.277C277.526 164.526 280.06 163.775 282.594 162.93C285.128 162.086 287.662 161.147 290.196 160.115C290.853 159.833 291.51 159.552 292.073 159.27C292.73 158.989 293.293 158.707 293.856 158.238C294.889 157.393 295.64 156.173 296.109 154.859C297.141 152.231 297.423 149.322 297.517 146.412C297.611 144.347 297.517 142.283 297.423 140.312V139.561C297.423 139.467 297.423 139.279 297.423 139.185C297.423 139.091 297.423 139.091 297.423 138.998C297.423 138.904 297.423 138.904 297.517 138.81V138.716C297.798 138.341 297.892 137.871 297.986 137.402C298.08 136.464 297.986 135.525 297.611 134.587C297.235 133.742 296.766 132.803 296.109 132.24C295.734 131.959 295.358 131.677 294.983 131.583C294.513 131.489 294.044 131.302 293.575 131.208C291.698 130.832 289.821 130.551 287.944 130.457C284.189 130.175 280.529 130.269 277.057 130.645C276.869 130.645 276.587 130.739 276.4 130.739L276.118 130.832C276.024 130.832 276.024 130.832 275.93 130.926C275.649 131.208 275.367 131.583 275.18 131.959C274.71 132.616 274.429 133.46 274.429 134.305C274.335 135.9 274.804 137.59 275.649 138.81L275.836 139.091H275.555C263.354 140.687 253.124 142.001 246.179 142.846C242.706 142.658 239.984 142.846 238.201 143.033C237.263 143.127 236.606 143.221 236.136 143.315C235.479 143.221 235.292 143.315 235.292 143.315Z" fill="#263238"/>
<path d="M20.6479 360.117L3.75418 383.018L32.1919 404.135C34.069 401.319 23.3696 384.895 23.3696 384.895L34.726 370.723L20.6479 360.117Z" fill="#C6B1B2"/>
<path d="M15.4859 377.199C14.8289 376.917 13.9842 377.292 13.7027 377.949C13.4211 378.606 13.7965 379.451 14.4535 379.733C15.1105 380.014 16.1429 379.639 16.3306 378.982C16.5183 378.325 16.049 377.292 15.392 377.199" fill="white"/>
<path d="M3.66031 383.111L5.44353 380.671L32.0042 402.07C32.0042 402.07 32.8489 403.571 32.0042 404.322L3.66031 383.111Z" fill="#170203"/>
<path d="M23.9328 385.176C23.8389 385.27 23.0881 384.895 22.0557 384.801C21.0233 384.707 20.2725 385.082 20.1786 384.895C20.0848 384.801 20.9295 384.144 22.1496 384.238C23.3697 384.238 24.0266 385.082 23.9328 385.176Z" fill="#170203"/>
<path d="M25.9975 388.555C25.9037 388.743 25.1528 388.461 24.2143 388.743C23.2758 388.93 22.7126 389.493 22.6188 389.4C22.4311 389.306 22.9942 388.461 24.1205 388.179C25.2467 387.898 26.0914 388.461 25.9975 388.555Z" fill="#170203"/>
<path d="M25.059 393.435C24.8713 393.341 25.2467 392.497 26.1853 392.027C27.1238 391.558 27.9685 391.746 27.9685 391.84C27.9685 392.027 27.2177 392.121 26.4668 392.497C25.6221 392.966 25.1529 393.529 25.059 393.435Z" fill="#170203"/>
<path d="M26.1853 381.61C25.9975 381.704 25.5283 381.047 24.6836 380.483C23.8389 379.92 23.0881 379.733 23.0881 379.545C23.0881 379.357 24.0266 379.357 25.059 379.92C25.9975 380.671 26.2791 381.516 26.1853 381.61Z" fill="#170203"/>
<path d="M89.2551 264.292C89.7243 267.202 90.569 291.604 91.1321 304.462C91.6953 317.32 90.3813 323.702 88.8796 326.611C87.378 329.521 31.8165 370.441 27.5931 380.296L13.515 368.939C13.515 368.939 34.1628 331.867 42.9851 325.11C51.8074 318.352 68.7011 312.158 68.7011 312.158L63.9145 241.58L87.0026 240.36L89.2551 264.292Z" fill="#170203"/>
<path d="M37.6354 382.736L37.3538 411.174L72.7367 411.643C72.549 408.264 54.3414 401.225 54.3414 401.225L55.2799 383.017L37.6354 382.736Z" fill="#C6B1B2"/>
<path d="M43.4543 399.63C42.7973 399.817 42.328 400.568 42.4219 401.225C42.6096 401.882 43.3604 402.445 44.0174 402.257C44.6744 402.07 45.3314 401.225 45.0498 400.474C44.8621 399.817 43.9236 399.254 43.2666 399.63" fill="white"/>
<path d="M37.3538 411.267V408.264L71.3289 410.047C71.3289 410.047 72.9244 410.798 72.7367 411.831L37.3538 411.267Z" fill="#170203"/>
<path d="M54.9983 401.131C54.9983 401.319 54.1536 401.413 53.309 401.882C52.4643 402.445 51.995 403.102 51.8073 403.102C51.6196 403.102 51.9011 402.07 52.9335 401.413C53.9659 400.756 54.9983 400.943 54.9983 401.131Z" fill="#170203"/>
<path d="M58.6586 402.727C58.6586 402.914 57.9078 403.196 57.3447 403.947C56.6877 404.698 56.5938 405.448 56.4061 405.448C56.2184 405.448 56.1246 404.416 56.8754 403.571C57.6262 402.633 58.6586 402.539 58.6586 402.727Z" fill="#170203"/>
<path d="M60.7234 407.138C60.5357 407.138 60.348 406.293 60.8173 405.355C61.2865 404.416 62.1312 404.041 62.1312 404.228C62.2251 404.416 61.6619 404.885 61.2865 405.636C60.9111 406.387 60.9111 407.138 60.7234 407.138Z" fill="#170203"/>
<path d="M54.7168 396.908C54.6229 397.095 53.8721 396.814 52.8397 396.908C51.9012 396.908 51.0565 397.283 50.9626 397.095C50.8688 397.002 51.6196 396.345 52.7458 396.251C53.9659 396.251 54.8106 396.814 54.7168 396.908Z" fill="#170203"/>
<path d="M91.7891 237.356C91.7891 239.046 94.5108 281.092 80.7143 311.501C80.7143 311.501 75.9278 320.98 75.0831 325.204C74.2384 329.333 56.4062 398.316 56.4062 398.316L35.8522 397.565C35.8522 397.565 32.5673 363.027 35.8522 343.036C39.2309 323.045 45.2375 325.391 45.2375 312.439C45.2375 299.488 42.1404 272.739 42.1404 272.739C42.1404 272.739 37.6354 265.419 36.1337 251.247C34.9136 239.703 40.2633 227.408 40.2633 227.408L45.613 217.929L90.9444 215.582L91.7891 237.356Z" fill="#170203"/>
<path d="M91.7891 237.356C91.7891 237.356 91.7891 236.887 91.7891 235.949C91.7891 235.01 91.6952 233.602 91.6952 231.725C91.6014 227.971 91.5075 222.527 91.3198 215.488V215.395H91.2259C80.0573 215.958 64.5714 216.708 45.8945 217.741H45.8007L45.7068 217.835C44.0175 220.744 42.2342 224.029 40.3572 227.314C39.0432 230.599 37.917 234.071 37.1661 237.732C36.3214 241.392 35.946 245.24 36.0399 249.182C36.3214 253.124 36.8846 257.066 37.917 261.101C38.9493 265.043 40.1694 269.079 42.2342 272.927V272.833C42.9851 279.872 43.7359 287.099 44.299 294.607C44.5806 298.361 44.8621 302.115 45.0498 305.964C45.1437 307.841 45.2376 309.812 45.2376 311.782C45.2376 312.721 45.2376 313.753 45.1437 314.692C45.0498 315.63 44.956 316.663 44.7683 317.601C44.3929 319.478 43.7359 321.356 42.7974 323.139C41.8588 324.922 40.8264 326.611 39.9817 328.488C38.1985 332.149 37.0723 336.091 36.3214 340.126C34.7259 348.198 34.3505 356.551 34.2567 364.998C34.2567 376.166 34.8198 387.147 35.6645 397.753V397.94H35.8522C42.8912 398.222 49.7425 398.41 56.4062 398.691H56.5939L56.6877 398.503C62.6005 375.415 68.2318 353.829 73.1122 334.401C73.6753 331.961 74.3323 329.615 74.8954 327.174C75.1769 325.954 75.3646 324.828 75.7401 323.702C76.1155 322.576 76.4909 321.449 76.9602 320.417C77.8048 318.258 78.8372 316.1 79.7758 314.035C80.0573 313.566 80.245 313.003 80.5266 312.533C80.8082 312.064 80.9959 311.501 81.1836 311.032C81.6529 309.999 82.0283 308.967 82.4037 307.934C85.6886 299.769 87.5656 291.792 88.8796 284.565C91.5075 270.017 91.8829 258.192 91.9768 250.12C92.1645 241.767 91.7891 237.356 91.7891 237.356C91.7891 237.356 91.7891 237.638 91.7891 238.201C91.7891 238.764 91.7891 239.515 91.8829 240.641C91.9768 242.706 91.9768 245.897 91.8829 249.933C91.6952 258.004 91.3198 269.83 88.6919 284.377C87.3779 291.604 85.407 299.581 82.1221 307.653C81.7467 308.685 81.2774 309.718 80.902 310.75C80.7143 311.313 80.4328 311.782 80.245 312.252C79.9635 312.721 79.7758 313.284 79.4942 313.753C78.5557 315.818 77.5233 317.883 76.6786 320.135C76.2093 321.262 75.8339 322.388 75.4585 323.514C75.0831 324.64 74.8954 325.861 74.6138 327.081C74.0507 329.427 73.3937 331.867 72.8306 334.214C67.8563 353.641 62.319 375.228 56.3123 398.316L56.5939 398.128C49.9302 397.846 43.0789 397.659 36.0399 397.377L36.3214 397.565C35.3829 386.959 34.8198 376.072 34.9136 364.904C35.0075 356.457 35.289 348.104 36.9784 340.126C37.8231 336.091 38.9493 332.243 40.6387 328.582C41.4834 326.799 42.5158 325.016 43.4543 323.233C44.3929 321.449 45.1437 319.572 45.4253 317.601C45.613 316.663 45.7068 315.63 45.8007 314.692C45.8007 313.753 45.8945 312.721 45.8945 311.782C45.8945 309.812 45.8007 307.934 45.7068 305.964C45.5191 302.115 45.2376 298.361 44.956 294.607C44.299 287.099 43.642 279.872 42.7974 272.833V272.739C40.7326 269.079 39.5125 265.043 38.4801 261.101C37.5415 257.16 36.8846 253.124 36.603 249.276C36.5091 245.428 36.8846 241.58 37.7292 237.919C38.4801 234.259 39.6063 230.787 40.9203 227.596C42.7974 224.311 44.5806 221.026 46.2699 218.116L46.0822 218.21C64.7592 217.178 80.245 216.333 91.4137 215.77L91.3198 215.676C91.5075 222.715 91.6952 228.159 91.7891 231.913C91.8829 233.79 91.8829 235.198 91.9768 236.136C91.7891 236.887 91.7891 237.356 91.7891 237.356Z" fill="#C6B1B2"/>
<path d="M77.054 151.292C77.054 151.292 64.853 149.134 65.9793 164.807C66.7301 174.193 69.4519 190.336 70.9535 200.566C71.5167 204.132 72.6429 210.514 77.3356 214.174L111.029 237.45L121.635 224.78L91.6014 196.154L86.9087 167.811L77.054 151.292Z" fill="#C6B1B2"/>
<path d="M78.5557 94.6985C82.4037 97.7957 84.6562 102.864 84.2808 107.744C84.0931 110.184 83.4361 112.906 85.0316 114.689C86.5333 116.473 89.6305 116.473 91.1321 118.35C92.9154 120.508 91.4137 123.793 92.0707 126.515C92.6338 129.049 95.3556 130.926 97.9835 130.645C94.8863 133.179 91.1321 134.774 87.2841 135.337C86.2517 134.023 85.3132 132.803 84.2808 131.489C85.407 132.803 85.1255 134.962 83.9992 136.37C82.873 137.777 81.1836 138.528 79.4942 138.998C71.4228 141.532 62.2251 140.03 55.3738 135.056" fill="#170203"/>
<path d="M33.412 115.909C33.9751 114.032 35.0075 112.343 35.3829 110.466C36.2276 106.43 34.2567 101.831 36.2276 98.171C37.6354 95.5431 40.6388 94.323 43.4544 93.3844C46.27 92.5398 49.2733 91.7889 51.432 89.7241C52.9336 88.2225 53.8722 86.0638 55.3738 84.5622C57.5325 82.4035 60.8173 81.6527 63.9145 81.465C67.1055 81.2773 70.3904 81.5589 73.2061 82.9667C76.0217 84.3745 78.4619 87.0024 78.9311 90.0996C79.2127 91.6012 79.025 93.1967 79.4943 94.6984C80.0574 96.2939 81.2775 97.6079 82.1222 99.1095C83.8115 102.301 82.873 106.618 80.0574 108.87L58.2833 136.933C53.6844 138.622 42.6097 136.557 39.1371 133.178C35.6645 129.894 31.9104 120.508 33.412 115.909Z" fill="#170203"/>
<path d="M79.4942 105.304C78.5557 98.9219 73.7691 91.4136 67.3871 92.5398L47.8655 99.1096C45.8945 99.485 47.3024 102.582 47.4901 104.553L51.7135 148.664C51.7135 148.664 49.0856 150.541 48.147 150.166C47.8655 150.072 47.6778 150.354 47.8655 150.541C50.2118 153.92 61.2866 168.843 72.7367 164.338C75.2708 163.306 72.4552 155.234 72.7367 152.325L72.3613 144.723C72.0798 140.875 71.9859 139.279 71.9859 139.279C71.9859 139.279 80.0573 137.308 80.902 126.515C81.4651 121.071 80.5266 112.343 79.4942 105.304Z" fill="#FFBF9D"/>
<path d="M78.1803 115.158C78.2742 115.909 77.711 116.566 76.9602 116.66C76.2094 116.754 75.5524 116.285 75.4585 115.534C75.3647 114.783 75.9278 114.126 76.6786 114.032C77.4295 113.938 78.0864 114.408 78.1803 115.158Z" fill="#170203"/>
<path d="M64.853 115.909C64.9469 116.66 64.3838 117.317 63.6329 117.411C62.8821 117.505 62.2251 117.036 62.1313 116.285C62.0374 115.534 62.6005 114.877 63.3514 114.783C64.1022 114.689 64.7592 115.252 64.853 115.909Z" fill="#170203"/>
<path d="M78.6496 110.56C78.4619 110.841 77.2417 109.997 75.6462 110.278C74.0507 110.466 73.0183 111.592 72.8306 111.404C72.7368 111.311 72.8306 110.841 73.2999 110.372C73.7692 109.903 74.52 109.34 75.5524 109.152C76.5848 109.058 77.4295 109.34 77.9926 109.715C78.4618 110.091 78.7434 110.466 78.6496 110.56Z" fill="#170203"/>
<path d="M64.2899 111.78C64.1022 111.968 62.8821 111.123 61.0989 111.217C59.4095 111.217 58.1894 112.249 58.0017 112.061C57.9079 111.968 58.0956 111.592 58.6587 111.123C59.2218 110.654 60.0665 110.184 61.1927 110.184C62.2251 110.184 63.1637 110.56 63.7268 110.935C64.1961 111.311 64.3838 111.686 64.2899 111.78Z" fill="#170203"/>
<path d="M69.7335 121.916C69.7335 121.822 70.5781 121.635 72.0798 121.259C72.4552 121.165 72.8306 121.071 72.8306 120.79C72.9245 120.508 72.7368 120.133 72.4552 119.664C71.986 118.819 71.6105 117.88 71.1413 116.848C69.2642 112.906 67.9502 109.621 68.0441 109.527C68.2318 109.434 69.8273 112.625 71.7044 116.566C72.1737 117.505 72.5491 118.444 73.0183 119.382C73.2061 119.757 73.4876 120.227 73.2999 120.884C73.2061 121.165 72.9245 121.353 72.7368 121.447C72.4552 121.541 72.2675 121.541 72.0798 121.541C70.672 121.916 69.7335 122.01 69.7335 121.916Z" fill="#170203"/>
<path d="M72.0798 139.279C72.0798 139.279 64.9469 140.311 57.4386 136.557C57.4386 136.557 61.5682 143.784 72.2675 142.001L72.0798 139.279Z" fill="#FF9A6C"/>
<path d="M65.2285 126.233C65.4162 125.858 65.6039 125.576 65.9793 125.295C66.3547 125.107 66.824 125.107 67.2933 125.201C67.9502 125.295 68.5134 125.576 68.9826 126.045C69.4519 126.515 69.6396 127.172 69.358 127.829C69.1703 128.486 68.2318 128.767 67.6687 128.861C67.0117 128.955 66.3547 128.767 65.7916 128.486C65.3223 128.204 64.8531 127.829 64.8531 127.266C64.8531 126.89 65.0408 126.515 65.2285 126.233Z" fill="#FF9A6C"/>
<path d="M65.51 124.075C65.7916 124.075 65.8854 125.67 67.2932 126.703C68.7949 127.735 70.4843 127.453 70.4843 127.641C70.4843 127.735 70.1089 128.017 69.4519 128.017C68.701 128.11 67.6687 127.923 66.824 127.36C65.9793 126.703 65.51 125.858 65.4162 125.201C65.2285 124.544 65.4162 124.075 65.51 124.075Z" fill="#170203"/>
<path d="M64.1961 106.055C64.1022 106.43 62.6006 106.43 60.9112 106.712C59.2218 106.993 57.814 107.65 57.5325 107.275C57.4386 107.087 57.6263 106.712 58.1895 106.242C58.7526 105.773 59.5973 105.398 60.6297 105.21C61.662 105.022 62.6006 105.116 63.2576 105.304C63.9145 105.492 64.1961 105.773 64.1961 106.055Z" fill="#170203"/>
<path d="M77.711 105.21C77.4294 105.585 76.2093 105.304 74.8954 105.398C73.4876 105.492 72.3613 105.867 72.0798 105.492C71.9859 105.304 72.0798 105.022 72.6429 104.647C73.1122 104.272 73.9568 103.99 74.8954 103.896C75.8339 103.802 76.6786 104.084 77.2417 104.365C77.711 104.741 77.8987 105.022 77.711 105.21Z" fill="#170203"/>
<path d="M43.5482 100.611C44.5806 99.1095 46.27 98.2648 47.9593 97.7016C55.2799 94.886 62.8821 92.9151 70.5781 91.9766C71.5167 93.5721 70.672 95.7307 69.1703 96.857C67.6686 97.9832 65.8854 98.4525 64.1022 99.1095C62.319 99.7664 60.5358 100.799 59.8788 102.488C59.128 104.271 59.7849 106.43 59.128 108.307C58.0017 111.498 53.4967 112.531 52.3705 115.722C51.5258 118.162 52.9336 120.696 53.309 123.324C53.6844 126.233 52.652 129.237 50.4934 131.301C48.804 132.897 46.5515 133.742 44.2052 133.835C43.6421 124.638 43.1728 115.44 42.6097 106.242C42.6097 104.365 42.5158 102.3 43.5482 100.611Z" fill="#170203"/>
<path d="M25.059 123.887C26.4668 122.573 28.3439 121.447 28.907 119.57C29.7517 116.848 27.5931 113.657 29.0009 111.217C30.3148 108.964 34.069 109.058 35.1952 106.806C36.1338 105.022 35.1014 103.427 35.3829 101.831C35.7583 100.236 38.0108 98.8279 39.6064 99.0156L52.1828 117.223C53.309 123.324 54.5291 126.609 53.2152 130.175C52.4643 132.146 51.5258 134.023 51.2442 136.088C50.9627 138.153 51.5258 140.499 53.2152 141.719C45.7069 142.282 38.6678 138.34 32.1919 134.586C29.9394 133.272 27.5931 131.864 25.3406 130.551C24.5897 130.175 23.8389 129.706 23.4635 128.955C22.4311 127.266 23.5573 125.201 25.059 123.887Z" fill="#170203"/>
<path d="M32.0042 132.709C32.0042 132.709 32.2857 132.803 32.8489 132.897C33.412 132.991 34.1628 132.991 35.1952 132.709C36.2276 132.428 37.3539 131.958 38.4801 130.926C39.5125 129.894 40.451 128.392 40.6387 126.515C40.7326 125.576 40.6387 124.638 40.3572 123.605C40.0756 122.667 39.5125 121.728 38.9494 120.79C38.3862 119.851 37.8231 118.913 37.5416 117.88C37.26 116.848 37.26 115.628 37.917 114.689C38.574 113.751 39.8879 113.563 41.0142 113.094C41.5773 112.812 42.2343 112.531 42.6097 111.874C42.9851 111.31 43.1728 110.56 43.0789 109.903C43.0789 108.495 42.5158 107.275 42.2343 105.961C42.1404 105.304 42.0465 104.647 42.2343 104.084C42.422 103.427 42.7974 102.957 43.3605 102.582C44.4867 101.831 45.8007 101.643 47.1147 101.55C48.4286 101.456 49.8364 101.174 50.9627 100.423C52.0889 99.6726 53.0274 98.734 53.5906 97.5139C54.1537 96.3877 54.3414 95.0737 54.5291 93.9475C54.7168 92.7274 54.9045 91.6011 55.2799 90.5687C55.6554 89.5364 56.3123 88.5978 57.0632 87.9408C58.5648 86.533 60.4419 85.7822 62.2251 85.5945C64.0083 85.4068 65.6039 85.8761 66.824 86.533C68.0441 87.19 69.0765 88.0347 69.7334 88.6917C71.0474 90.1933 71.4228 91.3196 71.5167 91.2257C71.5167 91.2257 71.5167 91.1319 71.4228 91.038C71.3289 90.9442 71.3289 90.7565 71.1412 90.4749C70.8597 90.0056 70.4843 89.3486 69.8273 88.504C69.1703 87.7531 68.2318 86.9084 66.9178 86.1576C65.6039 85.5006 64.0083 84.9375 62.1313 85.1252C60.2542 85.2191 58.2833 86.0638 56.6877 87.5654C55.9369 88.3163 55.2799 89.2548 54.8107 90.381C54.4353 91.5073 54.2475 92.6335 54.0598 93.8536C53.8721 95.0737 53.6844 96.2 53.1213 97.3262C52.5582 98.3586 51.7135 99.391 50.5872 100.048C49.5549 100.705 48.2409 100.987 46.9269 101.08C45.613 101.174 44.1113 101.268 42.8912 102.207C42.3281 102.582 41.8588 103.239 41.6711 103.99C41.4834 104.741 41.5773 105.398 41.6711 106.055C41.9527 107.369 42.5158 108.589 42.5158 109.903C42.5158 110.56 42.422 111.123 42.0465 111.592C41.6711 112.061 41.2019 112.437 40.6387 112.624C40.0756 112.906 39.5125 113 38.8555 113.281C38.2924 113.563 37.7293 113.845 37.3539 114.408C36.603 115.44 36.603 116.848 36.8846 117.974C37.1661 119.1 37.8231 120.039 38.3862 120.977C38.9494 121.916 39.5125 122.761 39.7941 123.699C40.0756 124.638 40.1695 125.576 40.0756 126.421C39.8879 128.204 39.0432 129.706 38.1047 130.644C37.0723 131.677 35.946 132.146 35.0075 132.428C33.1304 133.085 32.0042 132.615 32.0042 132.709Z" fill="#C6B1B2"/>
<path d="M21.9618 119.757C21.9618 119.757 21.7741 119.945 21.6803 120.414C21.5864 120.79 21.5864 121.541 21.9618 122.291C22.1495 122.667 22.5249 123.042 22.9004 123.324C23.3696 123.605 23.9327 123.793 24.4959 123.793C25.716 123.793 27.1238 123.042 27.7808 121.728C28.1562 121.071 28.3439 120.227 28.3439 119.476C28.3439 118.631 28.1562 117.786 27.7808 117.036C27.2176 115.44 26.0914 113.845 26.0914 111.968C26.0914 111.029 26.2791 110.09 26.9361 109.433C27.593 108.776 28.6254 108.589 29.6578 108.589C30.6902 108.589 31.8165 108.683 32.9427 108.213C33.5058 108.026 33.9751 107.556 34.2567 107.087C34.5382 106.618 34.7259 105.961 34.8198 105.398C34.9136 104.272 34.7259 103.145 34.5382 102.019C34.3505 100.987 34.4444 99.9542 34.7259 98.9218C35.2891 96.9509 36.603 95.2615 38.1985 94.323C39.794 93.3845 41.6711 93.1967 43.3605 93.1029C45.0499 93.009 46.7392 92.9152 48.147 92.3521C49.5548 91.7889 50.6811 91.0381 51.5258 90.1934C52.3705 89.3487 52.9336 88.5041 53.4029 87.8471C54.1537 86.4393 54.3414 85.5007 54.3414 85.5007C54.2475 85.5007 54.1537 86.4393 53.309 87.7532C52.9336 88.4102 52.2766 89.2549 51.4319 90.0057C50.5872 90.7566 49.461 91.5074 48.147 91.9767C46.8331 92.4459 45.2376 92.5398 43.4543 92.6336C41.765 92.7275 39.794 92.8213 38.1047 93.8537C36.4153 94.8861 35.0075 96.5755 34.4444 98.6403C34.1628 99.6727 34.069 100.799 34.2567 101.925C34.4444 103.051 34.6321 104.084 34.5382 105.116C34.4444 106.149 33.8813 107.181 32.9427 107.556C32.0042 107.932 30.8779 107.838 29.8455 107.838C28.8131 107.838 27.593 108.026 26.8422 108.776C26.0914 109.527 25.8098 110.654 25.9037 111.686C25.9037 112.718 26.1852 113.657 26.5607 114.502C26.9361 115.346 27.3115 116.097 27.593 116.942C27.8746 117.693 28.1562 118.537 28.1562 119.288C28.1562 120.039 27.9685 120.79 27.6869 121.447C27.0299 122.761 25.8098 123.418 24.6836 123.418C24.1205 123.418 23.6512 123.324 23.1819 123.042C22.8065 122.761 22.4311 122.479 22.2434 122.104C21.868 121.447 21.7741 120.79 21.868 120.321C21.868 120.039 21.9618 119.851 21.9618 119.757Z" fill="#170203"/>
<path d="M100.987 124.262C100.893 124.262 101.362 125.013 100.987 126.233C100.799 126.796 100.236 127.547 99.3913 127.829C98.5466 128.11 97.4203 127.923 96.6695 127.078C96.2941 126.702 96.1064 126.139 96.0125 125.482C96.0125 124.825 96.1064 124.262 96.2941 123.605C96.6695 122.291 97.5142 120.977 97.4203 119.288C97.3265 117.692 96.4818 116.003 95.1678 114.971C94.5109 114.408 93.6662 114.032 92.8215 113.751C91.9768 113.469 91.0383 113.375 90.1936 113.375C89.255 113.375 88.4104 113.281 87.5657 113.094C86.721 112.906 85.9702 112.437 85.5009 111.874C85.0316 111.217 84.8439 110.466 84.7501 109.621C84.6562 108.87 84.7501 108.026 84.9378 107.275C85.2193 105.773 85.6886 104.365 85.5947 102.864C85.5009 101.456 84.9378 100.142 84.2808 99.2033C83.53 98.2647 82.5914 97.6077 81.8406 97.1385C81.0898 96.6692 80.3389 96.1999 79.8697 95.8245C78.8373 94.9798 78.6496 94.229 78.6496 94.229V94.3229C78.6496 94.4167 78.7434 94.5106 78.8373 94.6983C79.025 94.9798 79.3065 95.4491 79.7758 95.9184C80.2451 96.3876 80.9021 96.8569 81.7467 97.3262C82.4976 97.8893 83.4361 98.4524 84.0931 99.391C84.7501 100.33 85.2193 101.55 85.3132 102.864C85.407 104.178 84.9378 105.585 84.5624 107.181C84.3746 107.932 84.2808 108.776 84.3747 109.621C84.4685 110.466 84.6562 111.31 85.2193 112.061C85.7825 112.812 86.6271 113.281 87.4718 113.469C88.3165 113.657 89.255 113.751 90.1936 113.751C91.0383 113.751 91.9768 113.844 92.7276 114.126C93.5723 114.408 94.3232 114.783 94.8863 115.252C96.2002 116.285 96.9511 117.786 97.0449 119.288C97.1388 120.79 96.3879 122.104 96.0125 123.418C95.8248 124.075 95.6371 124.732 95.731 125.482C95.8248 126.139 96.0125 126.796 96.4818 127.266C97.3265 128.204 98.6404 128.392 99.579 128.016C100.518 127.641 100.987 126.89 101.174 126.233C101.362 125.576 101.362 125.013 101.268 124.732C101.081 124.45 100.987 124.262 100.987 124.262Z" fill="#170203"/>
<path d="M92.0706 197.844V187.426C93.1969 181.607 92.7276 174.662 90.0059 169.406C88.4103 166.309 84.8439 161.335 83.5299 159.458L73.206 146.036C67.4809 150.166 58.6587 147.163 50.9626 144.441C50.9626 144.441 43.4543 148.57 39.8879 152.512C36.2276 156.642 48.804 208.262 48.804 208.262C43.0789 219.712 35.7583 229.848 34.6321 240.266L94.3231 242.612L91.7891 215.207L92.0706 197.844Z" fill="#C6B1B2"/>
<path d="M91.226 215.488C91.226 215.488 91.1321 215.113 91.226 214.362C91.226 213.517 91.226 212.485 91.226 211.171C91.226 208.355 91.3198 204.695 91.4137 200.659C91.5075 196.53 91.6014 192.87 91.6952 190.148C91.7891 188.834 91.7891 187.708 91.883 186.957C91.9768 186.206 91.9768 185.831 92.0707 185.831C92.0707 185.831 92.1645 186.206 92.0707 186.957C92.0707 187.801 92.0707 188.834 92.0707 190.148C92.0707 192.963 91.9768 196.624 91.883 200.659C91.7891 204.789 91.6952 208.449 91.6014 211.171C91.5075 212.485 91.5075 213.611 91.4137 214.362C91.3198 215.113 91.226 215.488 91.226 215.488Z" fill="#170203"/>
<path d="M118.444 224.968C118.444 224.968 124.263 225.249 127.829 227.502C131.395 229.754 137.214 233.227 139.655 237.638C140.781 239.609 137.59 240.078 136.088 238.858C134.586 237.732 132.146 235.479 131.02 235.291C129.894 235.104 129.8 235.01 129.8 235.01C129.8 235.01 132.146 240.266 133.366 242.143C134.586 244.02 135.619 247.117 131.959 247.305C131.959 247.305 129.518 250.496 126.984 248.149C126.984 248.149 125.013 251.059 121.916 247.023C121.916 247.023 120.133 249.276 119.382 248.431C118.631 247.586 116.191 246.179 115.44 243.269C114.689 240.36 111.686 233.414 111.686 233.414L118.444 224.968Z" fill="#FFBF9D"/>
<path d="M385.552 30.5964L386.584 32.4735C389.587 37.917 387.616 44.7683 382.267 47.7717L155.704 173.817L143.784 152.325L370.253 26.2791C375.697 23.2758 382.454 25.2467 385.552 30.5964Z" fill="#B5121B"/>
<path d="M334.308 1.03238L362.088 50.8688L345.57 60.0665L317.789 10.2301C317.226 9.19767 317.602 7.97757 318.634 7.41444L331.398 0.281549C332.43 -0.281574 333.744 0.0938416 334.308 1.03238Z" fill="#B5121B"/>
<path d="M307.465 27.6868L327.644 64.0083C328.489 65.5099 327.925 67.2931 326.424 68.1378L315.349 74.3322C313.847 75.1769 312.064 74.6138 311.219 73.1121L291.041 36.7906C290.196 35.289 290.759 33.5058 292.261 32.6611L303.336 26.4667C304.743 25.7159 306.621 26.279 307.465 27.6868Z" fill="#B5121B"/>
<path d="M308.919 34.7493L321.428 57.2198L346.933 43.0225L334.424 20.5519L308.919 34.7493Z" fill="#B5121B"/>
<path d="M366.875 28.1562C366.969 28.2501 322.482 53.1213 267.577 83.7177C212.673 114.314 168.092 138.998 168.092 138.81C167.998 138.716 212.485 113.845 267.39 83.2484C322.294 52.6521 366.875 27.9685 366.875 28.1562Z" fill="#170203"/>
<path d="M63.9145 215.395C80.6205 245.428 115.816 257.629 142.564 242.706C169.312 227.783 177.478 191.462 160.772 161.429C144.066 131.395 108.871 119.194 82.1222 134.117C55.3738 149.04 47.2085 185.455 63.9145 215.395ZM146.318 169.594C158.05 190.617 152.325 216.145 133.554 226.563C114.783 236.981 90.0998 228.44 78.4619 207.417C66.7301 186.394 72.4552 160.865 91.226 150.448C109.903 139.936 134.586 148.571 146.318 169.594Z" fill="#B5121B"/>
<path d="M193.527 124.356L205.915 146.6C207.605 149.509 206.478 153.263 203.569 154.953L202.537 155.516C199.627 157.205 195.873 156.079 194.184 153.169L181.795 130.926C180.106 128.017 181.232 124.262 184.141 122.573L185.174 122.01C188.177 120.321 191.837 121.353 193.527 124.356Z" fill="#B5121B"/>
<path d="M217.272 111.123L229.66 133.366C231.35 136.276 230.224 140.03 227.314 141.719L226.282 142.282C223.372 143.972 219.618 142.846 217.929 139.936L205.54 117.599C203.851 114.689 204.977 110.935 207.886 109.246L208.919 108.683C211.922 107.087 215.582 108.12 217.272 111.123Z" fill="#B5121B"/>
<path d="M193.245 123.981C193.339 123.887 196.248 128.955 199.627 135.243C203.006 141.532 205.728 146.694 205.634 146.694C205.54 146.788 202.631 141.719 199.252 135.431C195.779 129.143 193.151 123.981 193.245 123.981Z" fill="#170203"/>
<path d="M182.358 131.771C182.452 131.677 185.268 136.557 188.646 142.47C192.025 148.477 194.559 153.357 194.465 153.451C194.371 153.545 191.556 148.665 188.177 142.752C184.798 136.745 182.264 131.771 182.358 131.771Z" fill="#170203"/>
<path d="M217.178 110.935C217.272 110.841 220.181 115.909 223.654 122.104C227.126 128.392 229.848 133.46 229.754 133.554C229.66 133.648 226.751 128.58 223.278 122.385C219.712 116.097 216.99 110.935 217.178 110.935Z" fill="#170203"/>
<path d="M205.634 117.787C205.728 117.693 208.637 122.667 212.016 128.955C215.395 135.15 218.116 140.218 217.929 140.312C217.835 140.405 214.925 135.431 211.547 129.143C208.168 122.949 205.54 117.881 205.634 117.787Z" fill="#170203"/>
<path d="M273.772 83.9993C275.93 84.2808 278.183 82.6853 278.652 80.5267C279.121 78.368 277.807 76.0217 275.743 75.3647C277.057 73.9569 277.432 71.7044 276.587 70.015C275.743 68.3257 273.678 67.2933 271.801 67.5748C271.707 65.6978 270.581 63.8207 268.891 62.976C267.202 62.0375 265.043 62.1313 263.448 63.0698C261.383 61.2866 258.004 61.1928 255.846 62.8821C253.969 62.5067 251.998 63.5391 251.153 65.1346C250.308 66.824 250.59 68.9826 251.998 70.2966" fill="#170203"/>
<path d="M254.719 67.1995H255.658C265.513 67.1995 273.584 74.8016 274.335 84.5624C275.086 93.6663 275.743 103.709 275.649 108.589C275.461 118.725 265.419 120.227 265.419 120.227L266.263 132.334L241.768 131.489L239.703 87.4719C238.858 77.0541 244.208 67.8564 254.719 67.1995Z" fill="#FFBF9D"/>
<path d="M265.513 120.227C265.513 120.227 259.037 120.602 252.279 116.285C252.279 116.285 255.564 123.887 265.606 123.043L265.513 120.227Z" fill="#FF9A6C"/>
<path d="M268.797 94.1357C268.797 94.8865 268.234 95.5435 267.39 95.5435C266.639 95.5435 265.888 94.9804 265.888 94.2295C265.888 93.4787 266.451 92.8217 267.296 92.8217C268.14 92.7279 268.797 93.291 268.797 94.1357Z" fill="#170203"/>
<path d="M272.176 89.5368C271.989 89.7245 270.862 88.8798 269.361 88.8798C267.765 88.8798 266.639 89.6306 266.545 89.4429C266.451 89.349 266.639 88.9736 267.108 88.6921C267.577 88.3167 268.422 87.9412 269.361 88.0351C270.299 88.0351 271.144 88.4105 271.613 88.7859C272.082 89.0675 272.27 89.4429 272.176 89.5368Z" fill="#170203"/>
<path d="M254.813 93.3848C254.813 94.1356 254.25 94.7926 253.405 94.7926C252.655 94.7926 251.904 94.2294 251.904 93.4786C251.904 92.7278 252.467 92.0708 253.312 92.0708C254.156 92.0708 254.813 92.6339 254.813 93.3848Z" fill="#170203"/>
<path d="M256.972 89.8182C256.784 90.006 255.658 89.1613 254.156 89.1613C252.561 89.1613 251.434 89.9121 251.341 89.7244C251.247 89.6305 251.434 89.2551 251.904 88.9736C252.373 88.5982 253.218 88.2227 254.156 88.3166C255.095 88.3166 255.939 88.692 256.409 89.0674C256.878 89.349 257.066 89.7244 256.972 89.8182Z" fill="#170203"/>
<path d="M262.509 101.268C262.509 101.175 263.448 100.987 265.043 100.799C265.419 100.799 265.794 100.705 265.888 100.424C265.982 100.142 265.794 99.6729 265.606 99.2036C265.231 98.2651 264.856 97.2327 264.48 96.2003C262.885 91.883 261.665 88.3166 261.852 88.3166C262.04 88.2227 263.448 91.6953 265.137 96.0126C265.513 97.045 265.888 98.0774 266.263 99.0159C266.451 99.4852 266.639 99.9544 266.451 100.611C266.357 100.893 266.076 101.081 265.794 101.175C265.513 101.268 265.325 101.268 265.137 101.268C263.542 101.362 262.509 101.362 262.509 101.268Z" fill="#170203"/>
<path d="M258.286 83.8117C258.098 84.1871 256.784 83.8117 255.095 83.7178C253.499 83.624 252.091 83.9055 251.904 83.5301C251.81 83.3424 252.091 82.967 252.748 82.6854C253.312 82.4039 254.25 82.1223 255.189 82.2162C256.127 82.2162 257.066 82.5916 257.535 82.967C258.192 83.2486 258.38 83.624 258.286 83.8117Z" fill="#170203"/>
<path d="M272.27 83.1546C271.988 83.53 270.675 83.1546 269.079 83.1546C267.577 83.0607 266.263 83.3423 265.888 82.9669C265.794 82.7792 265.982 82.4038 266.545 82.1222C267.108 81.7468 268.047 81.5591 269.079 81.5591C270.111 81.5591 271.05 81.9345 271.613 82.3099C272.27 82.5915 272.458 82.9669 272.27 83.1546Z" fill="#170203"/>
<path d="M273.396 79.9636C273.396 79.9636 270.768 73.6754 267.671 72.1738C264.011 70.3905 262.415 74.4262 258.849 73.3939C255.376 72.3615 251.81 70.6721 248.243 73.3939C244.302 76.3972 246.179 78.462 245.897 82.967C244.865 101.175 241.486 106.243 240.641 97.702C240.547 96.7635 237.92 96.0126 237.544 92.0708C237.075 86.9088 236.887 80.7145 238.013 77.0542C238.952 73.957 240.735 71.8922 243.926 69.5458C248.9 65.8855 255.752 65.7917 260.351 66.261C264.949 66.7302 273.866 72.0799 273.396 79.9636Z" fill="#170203"/>
<path d="M241.298 97.4204C241.204 95.8249 239.891 94.6048 238.389 94.7925C236.512 94.9802 234.447 96.0126 234.541 99.9545C234.729 106.9 241.674 105.21 241.674 105.023C241.58 104.835 241.392 100.33 241.298 97.4204Z" fill="#FFBF9D"/>
<path d="M239.984 102.395C239.984 102.395 239.89 102.489 239.703 102.582C239.515 102.676 239.14 102.77 238.764 102.582C238.013 102.301 237.356 101.175 237.356 99.9545C237.356 99.2975 237.45 98.7344 237.638 98.2651C237.826 97.7959 238.107 97.4204 238.483 97.3266C238.858 97.2327 239.14 97.4204 239.233 97.6081C239.327 97.7959 239.327 97.9836 239.327 97.9836C239.327 97.9836 239.515 97.8897 239.421 97.6081C239.421 97.5143 239.327 97.3266 239.14 97.1389C238.952 97.045 238.764 96.9512 238.483 96.9512C237.92 97.045 237.45 97.5143 237.263 98.0774C236.981 98.6405 236.887 99.2975 236.887 100.048C236.981 101.456 237.732 102.676 238.764 102.958C239.233 103.052 239.609 102.958 239.89 102.77C239.984 102.582 239.984 102.395 239.984 102.395Z" fill="#FF9A6C"/>
<path d="M241.486 83.9992C242.425 84.6562 243.363 85.2193 244.396 85.3132C245.522 85.407 246.742 84.8439 246.93 83.7177C247.023 83.2484 246.93 82.6853 247.211 82.3099C247.587 81.8406 248.244 82.0283 248.901 82.0283C250.871 82.216 253.218 80.0574 253.781 78.0864C254.25 78.8373 255.376 79.1188 256.221 78.5557C256.972 78.0864 257.253 77.8049 257.91 77.054C258.474 76.3971 259.412 75.7401 260.257 75.8339C260.726 75.9278 261.289 76.2094 261.758 76.2094C262.697 76.1155 263.072 75.0831 263.26 74.1446C263.354 73.206 263.542 72.1736 264.293 71.7044C265.043 71.2351 265.888 71.5167 266.733 71.6105C267.577 71.7044 268.61 71.5167 268.891 70.7658C268.985 70.2966 268.798 69.9212 268.61 69.5457C267.577 67.8564 265.231 67.1055 263.354 67.8564C262.697 65.6039 260.538 63.8206 258.192 63.5391C255.846 63.2575 253.406 64.5715 252.185 66.6363C250.684 65.3223 248.619 64.7592 246.648 65.1346C244.771 65.6039 243.082 67.0117 242.331 68.7949C240.641 68.3256 238.764 68.9826 237.638 70.3904C236.606 71.7982 236.418 73.7692 237.263 75.2708C236.043 76.0217 234.916 77.2418 234.916 78.6496C234.916 80.0574 236.23 81.4652 237.638 81.0898C237.075 82.216 237.544 83.7177 238.577 84.3746C239.609 85.0316 241.205 84.6562 241.861 83.6238" fill="#170203"/>
<path d="M263.635 70.0149C263.635 70.0149 263.635 70.0149 263.635 70.1087C263.635 70.2026 263.635 70.2965 263.635 70.4842C263.542 70.7657 263.448 71.235 263.166 71.7981C262.885 72.3612 262.322 72.9244 261.665 73.3936C260.914 73.8629 259.975 74.2383 258.849 74.2383L258.943 74.0506C259.131 74.6137 259.131 75.3646 258.755 75.9277C258.474 76.5847 258.004 77.0539 257.535 77.6171C257.253 77.8986 257.066 78.1802 256.784 78.3679C256.503 78.5556 256.127 78.7433 255.658 78.7433C254.907 78.8372 253.969 78.5556 253.405 77.8986L253.687 77.8048C253.499 79.2126 252.748 80.5265 251.434 81.3712C250.778 81.8405 249.933 82.122 249.182 82.122C248.337 82.122 247.68 81.8405 246.93 81.6528L247.117 81.5589C246.742 82.4036 246.179 83.1544 245.522 83.7176C244.865 84.2807 243.926 84.5622 243.082 84.3745C241.486 83.9991 240.36 82.6852 240.172 81.3712L240.36 81.4651C239.515 81.9343 238.67 81.9343 238.013 81.8405C237.263 81.7466 236.793 81.3712 236.324 81.0897C235.949 80.8081 235.667 80.4327 235.573 80.245C235.479 80.0573 235.385 79.8695 235.385 79.8695C235.385 79.8695 235.573 80.4327 236.418 80.9958C236.793 81.2774 237.356 81.5589 238.013 81.6528C238.67 81.7466 239.515 81.7466 240.266 81.2774L240.36 81.1835V81.3712C240.547 82.5913 241.58 83.8114 243.082 84.093C243.832 84.2807 244.583 83.9991 245.24 83.436C245.897 82.9667 246.46 82.2159 246.742 81.4651L246.836 81.3712H246.93C247.587 81.6528 248.337 81.8405 249.088 81.8405C249.839 81.8405 250.59 81.5589 251.153 81.1835C252.373 80.4327 253.03 79.1187 253.218 77.8048V77.5232L253.405 77.8048C253.875 78.3679 254.626 78.5556 255.376 78.5556C255.752 78.5556 256.033 78.3679 256.315 78.1802C256.596 77.9925 256.784 77.7109 257.066 77.4293C257.535 76.8662 258.004 76.397 258.192 75.8338C258.474 75.2707 258.567 74.6137 258.38 74.1445L258.286 73.9568H258.474C259.506 74.0506 260.444 73.6752 261.195 73.2059C261.946 72.7367 262.415 72.1735 262.697 71.7043C263.635 70.7657 263.635 70.0149 263.635 70.0149Z" fill="#C6B1B2"/>
<path d="M262.509 106.43C262.415 106.149 260.82 106.618 259.224 105.492C257.629 104.365 257.441 102.488 257.16 102.582C257.066 102.582 256.972 103.052 257.066 103.802C257.253 104.553 257.723 105.586 258.661 106.243C259.6 106.9 260.726 107.087 261.383 106.993C262.134 106.9 262.509 106.618 262.509 106.43Z" fill="#170203"/>
<path d="M314.598 369.033L321.262 391.746C321.262 391.746 346.602 392.591 348.198 396.626L304.65 411.174L292.824 376.26L314.598 369.033Z" fill="#C6B1B2"/>
<path d="M307.09 394.374C306.339 394.843 306.057 396.063 306.527 396.814C306.996 397.565 308.122 397.847 308.967 397.377C309.718 396.908 310.093 395.5 309.53 394.749C308.967 393.999 307.559 393.811 306.996 394.468" fill="#E0E0E0"/>
<path d="M345.758 395.031C345.758 395.031 348.01 395.219 348.198 396.627L304.65 411.174L303.617 407.607L345.758 395.031Z" fill="#170203"/>
<path d="M321.825 391.277C321.919 391.464 320.886 391.934 320.042 392.966C319.197 393.999 319.009 395.125 318.728 395.031C318.54 395.031 318.446 393.717 319.385 392.403C320.511 391.277 321.825 391.089 321.825 391.277Z" fill="white"/>
<path d="M327.081 391.652C327.175 391.84 326.424 392.497 325.954 393.623C325.485 394.749 325.673 395.782 325.391 395.876C325.204 395.97 324.64 394.749 325.204 393.342C325.767 391.934 326.987 391.465 327.081 391.652Z" fill="white"/>
<path d="M331.492 396.251C331.304 396.345 330.647 395.406 330.835 394.092C331.023 392.778 331.867 391.934 331.961 392.121C332.149 392.215 331.68 393.06 331.586 394.186C331.492 395.313 331.68 396.157 331.492 396.251Z" fill="white"/>
<path d="M319.76 386.303C319.76 386.49 318.634 386.584 317.508 387.053C316.288 387.523 315.537 388.18 315.349 388.086C315.161 387.992 315.818 386.866 317.226 386.303C318.634 385.739 319.854 386.115 319.76 386.303Z" fill="white"/>
<path d="M212.861 369.221L203.381 390.901C203.381 390.901 222.246 407.795 220.838 412.018L178.135 395.125L191.556 360.774L212.861 369.221Z" fill="#C6B1B2"/>
<path d="M190.899 383.862C189.96 383.768 189.022 384.425 188.928 385.364C188.834 386.302 189.491 387.241 190.429 387.335C191.368 387.429 192.494 386.678 192.494 385.739C192.494 384.801 191.65 383.768 190.711 383.862" fill="#E0E0E0"/>
<path d="M220.087 409.203C220.087 409.203 221.683 410.798 220.932 412.018L178.228 395.125L179.73 391.746L220.087 409.203Z" fill="#170203"/>
<path d="M204.226 390.995C204.132 391.183 203.1 390.901 201.786 391.183C200.472 391.371 199.627 392.121 199.439 391.934C199.252 391.84 200.096 390.714 201.598 390.432C203.1 390.057 204.32 390.807 204.226 390.995Z" fill="white"/>
<path d="M207.886 394.655C207.886 394.843 206.854 394.843 205.728 395.5C204.695 396.063 204.132 396.908 203.851 396.908C203.663 396.908 203.944 395.594 205.352 394.843C206.76 393.998 207.98 394.374 207.886 394.655Z" fill="white"/>
<path d="M208.356 400.944C208.168 400.944 208.262 399.724 209.294 398.785C210.233 397.846 211.453 397.753 211.453 398.034C211.547 398.222 210.608 398.597 209.857 399.348C209.013 400.193 208.543 401.038 208.356 400.944Z" fill="white"/>
<path d="M205.822 385.833C205.634 386.021 204.789 385.364 203.569 384.895C202.349 384.519 201.317 384.519 201.223 384.332C201.129 384.144 202.349 383.675 203.757 384.144C205.258 384.613 205.915 385.646 205.822 385.833Z" fill="white"/>
<path d="M228.91 250.121L213.987 310.844C213.987 310.844 186.957 356.269 182.452 378.982L207.135 388.649C207.135 388.649 225.062 344.913 230.317 336.842C233.227 332.43 236.23 329.052 238.483 326.799C240.454 324.828 241.861 322.388 242.612 319.666L253.969 276.4L228.91 250.121Z" fill="#170203"/>
<path d="M222.528 240.454C222.528 240.454 224.592 256.69 240.266 263.917L273.209 317.601C273.209 317.601 275.837 335.058 280.811 349.793C285.785 364.435 295.734 392.872 295.734 392.872L322.857 382.736L305.588 323.702L302.773 303.242L275.837 234.729L252.748 220.838L222.528 240.454Z" fill="#170203"/>
<path d="M222.528 240.454C222.528 240.454 222.715 240.36 222.997 240.078C223.372 239.89 223.841 239.515 224.498 239.046C225.812 238.201 227.783 236.887 230.317 235.198C235.479 231.819 242.988 226.845 252.561 220.65H252.655H252.748C259.506 224.686 267.296 229.285 275.837 234.447H275.93V234.541C283.439 253.687 292.636 276.963 302.866 302.96C303.805 309.436 304.744 316.381 305.682 323.42C310.375 339.376 315.349 356.457 320.511 374.008C321.356 376.823 322.2 379.639 322.951 382.454L323.045 382.642L322.857 382.924C313.66 386.396 304.556 389.775 295.734 393.06L295.546 393.154L295.452 392.966C290.759 379.357 286.254 366.218 281.937 353.829C280.905 350.732 279.778 347.635 278.934 344.537C278.089 341.44 277.244 338.437 276.493 335.34C275.086 329.333 273.959 323.42 273.021 317.695V317.789C259.506 295.733 248.337 277.432 240.078 264.105L240.172 264.199C235.667 262.134 232.288 259.224 229.848 256.315C227.408 253.405 225.812 250.59 224.78 248.15C223.748 245.803 223.184 243.832 222.903 242.518C222.715 241.861 222.621 241.392 222.621 241.017C222.528 240.641 222.528 240.454 222.528 240.454C222.528 240.454 222.528 240.641 222.621 240.923C222.715 241.298 222.809 241.767 222.997 242.424C223.372 243.738 223.841 245.616 224.968 247.962C226 250.308 227.596 253.124 230.036 256.033C232.476 258.849 235.949 261.758 240.36 263.823C248.619 277.15 259.881 295.452 273.396 317.508C274.335 323.233 275.461 329.145 276.869 335.152C277.62 338.155 278.371 341.253 279.309 344.256C280.154 347.353 281.28 350.356 282.312 353.454C286.63 365.936 291.135 378.982 295.827 392.591L295.546 392.403C304.368 389.118 313.378 385.739 322.67 382.267L322.482 382.548C321.637 379.733 320.793 376.917 320.042 374.101C314.88 356.551 309.905 339.469 305.213 323.514C304.274 316.475 303.242 309.53 302.397 303.054V303.148C292.167 277.15 283.063 253.781 275.555 234.635L275.649 234.728C267.014 229.567 259.318 224.874 252.561 220.838H252.748C243.175 227.032 235.667 231.913 230.505 235.292C227.971 236.981 225.906 238.201 224.592 239.14C223.935 239.609 223.372 239.89 223.091 240.078C222.715 240.36 222.528 240.454 222.528 240.454Z" fill="#C6B1B2"/>
<path d="M236.981 124.45C236.981 124.45 229.097 130.551 225.249 137.308C220.65 145.473 220.181 157.487 219.993 176.258C219.9 193.621 222.434 198.407 221.495 204.883C219.524 217.647 218.116 260.444 218.116 260.444C218.116 260.444 243.457 250.684 248.337 246.366C253.312 242.049 253.312 242.049 253.312 242.049L285.034 252.561L278.652 213.611L274.241 164.995L268.61 139.185L267.671 129.049L240.36 118.256L236.981 124.45Z" fill="#C6B1B2"/>
<path d="M266.639 128.674C267.014 128.767 265.888 130.926 263.917 134.211L263.823 134.305L263.635 134.211C260.914 133.179 257.253 131.771 253.218 130.363C248.713 128.767 244.677 127.172 241.768 126.046C240.36 125.483 239.14 124.919 238.389 124.638C237.638 124.262 237.169 124.075 237.169 124.075C237.169 124.075 237.638 124.169 238.483 124.544C239.421 124.919 240.547 125.295 241.955 125.858C244.959 126.984 248.994 128.392 253.405 130.081C257.347 131.489 261.008 132.897 263.729 134.023L263.542 134.117C265.606 130.832 266.827 128.767 266.639 128.674Z" fill="#170203"/>
<path d="M299.394 108.401C299.394 108.401 297.423 105.304 295.452 102.395C293.575 99.4853 290.665 98.0775 290.196 96.5758C289.727 95.0742 287.193 88.4105 286.817 86.7212C286.254 84.3748 286.348 81.8408 286.348 81.8408C286.348 81.8408 288.413 80.9961 289.445 83.9056C290.009 85.6888 291.979 91.7893 292.355 92.0708C292.73 92.3524 293.293 91.977 293.293 91.977C293.293 91.977 291.135 86.158 291.041 85.0318C290.947 83.9056 291.322 76.6788 291.322 76.6788C291.322 76.6788 292.824 76.2095 293.857 78.0866C294.795 79.9637 294.889 84.6564 294.889 84.6564L296.391 89.9122L295.827 84.7502L296.578 75.271C296.578 75.271 298.925 75.4587 299.582 78.0866C300.239 80.6207 299.394 84.281 299.769 85.0318C300.239 85.7826 300.614 90.3815 300.614 90.3815C300.614 90.3815 301.083 79.2129 302.303 78.9313C303.523 78.6497 304.462 79.776 304.274 82.0285C304.087 84.281 304.087 89.0675 304.65 91.1323C305.307 93.1971 311.595 101.456 311.126 105.023C310.563 108.683 310.562 111.592 310.562 111.592H299.675L299.394 108.401Z" fill="#FFBF9D"/>
<path d="M261.195 136.558C261.758 136.745 287.85 143.221 287.85 143.221C287.85 143.221 293.669 133.836 294.513 131.114C295.358 128.392 299.957 110.278 299.957 110.278L310.938 109.246C310.938 109.246 308.122 156.079 304.18 158.613C300.145 161.147 293.857 162.461 293.481 162.274C293.012 162.086 265.419 164.057 250.778 152.607C236.136 141.156 261.195 136.558 261.195 136.558Z" fill="#FFBF9D"/>
<g opacity="0.3">
<path d="M242.518 161.335C242.518 161.335 246.273 166.028 253.124 167.623C260.069 169.125 274.71 171.847 274.71 171.847L273.959 164.62L242.049 161.241" fill="black"/>
</g>
<path d="M230.974 151.48C233.321 156.455 238.577 161.804 250.121 163.024C273.021 165.371 290.29 166.685 297.798 165.558C305.307 164.432 308.216 148.571 309.061 148.102C311.407 146.6 311.219 141.626 309.248 140.124C303.523 135.901 292.073 132.616 291.322 132.991C286.817 135.244 288.225 140.499 288.225 140.499L259.224 134.117C259.224 134.117 254.532 132.053 248.807 131.114" fill="#C6B1B2"/>
<path d="M248.901 131.02C248.901 131.02 249.182 131.02 249.651 131.114C250.121 131.208 250.778 131.302 251.716 131.49C253.499 131.865 256.127 132.616 259.412 133.93C266.357 135.431 276.306 137.59 288.413 140.218L288.131 140.499C287.756 138.904 287.756 137.121 288.507 135.525C288.882 134.681 289.445 134.024 290.102 133.46C290.478 133.179 290.853 132.991 291.229 132.71C291.322 132.71 291.51 132.616 291.698 132.616H292.073C292.261 132.616 292.543 132.71 292.73 132.71C296.203 133.46 299.675 134.681 303.148 136.182C304.837 136.933 306.621 137.778 308.216 138.904C308.592 139.186 309.061 139.467 309.436 139.749C309.812 140.03 310.187 140.499 310.469 140.969C310.938 141.907 311.126 142.94 311.126 143.972C311.126 145.004 310.938 146.037 310.469 146.975C310.187 147.445 309.906 147.914 309.436 148.196C309.342 148.289 309.249 148.477 309.155 148.759L308.873 149.509C308.216 151.387 307.653 153.357 306.902 155.328C305.776 158.05 304.556 160.772 302.679 163.024C301.74 164.151 300.52 165.089 299.112 165.558C298.455 165.84 297.705 165.84 296.954 165.934C296.297 166.028 295.546 166.028 294.889 166.122C292.073 166.309 289.352 166.215 286.724 166.215C284.002 166.122 281.468 166.028 278.84 165.84C268.61 165.183 259.506 164.245 251.81 163.494C249.933 163.306 248.056 163.024 246.366 162.743C244.677 162.367 243.082 161.898 241.674 161.335C238.764 160.209 236.606 158.613 235.01 157.112C233.415 155.61 232.476 154.202 231.913 153.17C231.35 152.137 231.162 151.574 231.162 151.574C231.162 151.574 231.444 152.137 232.007 153.076C232.57 154.014 233.602 155.422 235.104 156.924C236.7 158.426 238.858 159.927 241.768 160.96C243.175 161.523 244.771 161.992 246.46 162.367C248.15 162.743 249.933 162.931 251.904 163.118C259.6 163.869 268.704 164.808 278.934 165.371C281.468 165.558 284.096 165.652 286.724 165.746C289.352 165.84 292.073 165.84 294.889 165.652C295.546 165.558 296.297 165.558 296.954 165.465C297.611 165.371 298.362 165.371 298.925 165.089C300.239 164.62 301.365 163.775 302.21 162.649C304.087 160.49 305.307 157.862 306.339 155.141C307.09 153.264 307.653 151.293 308.31 149.322L308.592 148.571C308.592 148.477 308.685 148.289 308.779 148.196C308.779 148.102 308.873 148.102 308.873 148.008L308.967 147.914L309.061 147.82C309.436 147.539 309.718 147.163 309.999 146.788C310.469 145.943 310.656 145.004 310.656 143.972C310.656 143.034 310.469 142.095 309.999 141.25C309.812 140.875 309.53 140.499 309.155 140.218C308.779 139.936 308.404 139.655 307.935 139.373C306.339 138.341 304.65 137.496 302.867 136.745C299.394 135.244 296.015 134.024 292.543 133.273C292.355 133.273 292.073 133.179 291.886 133.179H291.604C291.51 133.179 291.51 133.179 291.416 133.179C291.041 133.367 290.665 133.554 290.384 133.836C289.727 134.305 289.164 134.962 288.882 135.713C288.225 137.215 288.131 138.904 288.507 140.406L288.601 140.781L288.319 140.687C276.306 137.965 266.263 135.713 259.412 134.211C256.221 132.897 253.593 132.147 251.81 131.677C250.871 131.49 250.214 131.302 249.745 131.208C249.088 131.114 248.901 131.02 248.901 131.02Z" fill="#170203"/>
<path d="M297.798 149.51C297.798 149.603 297.047 149.322 295.921 148.665C294.795 148.102 293.387 147.069 291.979 145.755C290.572 144.441 289.539 142.94 288.882 141.907C288.225 140.781 287.944 140.124 288.037 140.03C288.131 139.937 289.633 142.752 292.355 145.38C295.077 148.008 297.892 149.322 297.798 149.51Z" fill="#170203"/>
<path d="M93.6662 226.751C93.6662 226.751 99.4851 227.033 103.052 229.285C106.618 231.538 112.437 235.01 114.877 239.421C116.003 241.392 112.812 241.861 111.311 240.641C109.809 239.515 107.369 237.263 106.243 237.075C105.022 236.793 105.022 236.793 105.022 236.793C105.022 236.793 107.369 242.049 108.589 243.926C109.809 245.803 110.841 248.9 107.181 249.088C107.181 249.088 104.741 252.279 102.207 249.933C102.207 249.933 100.236 252.842 97.1388 248.807C97.1388 248.807 95.3555 251.059 94.6047 250.214C93.8539 249.37 91.4137 247.962 90.6628 245.052C89.912 242.143 86.9087 235.198 86.9087 235.198L93.6662 226.751Z" fill="#FFBF9D"/>
<path d="M44.1113 150.26C44.1113 150.26 39.6063 151.48 36.7907 155.797C34.5382 159.27 33.8812 165.183 34.5382 169.594C35.8522 178.885 40.1694 194.653 42.6096 204.789C43.4543 208.262 45.1437 214.55 50.118 217.835L85.6886 239.14L95.1678 225.062L62.7882 198.689L56.3123 162.367L44.1113 150.26Z" fill="#C6B1B2"/>
<path d="M37.917 185.831C37.917 185.831 37.917 185.925 38.0108 186.206C38.1047 186.488 38.1985 186.863 38.2924 187.332C38.5739 188.365 38.9494 189.773 39.4186 191.556C40.3572 195.31 41.6711 200.66 43.3605 207.229C44.2052 210.514 46.1761 213.893 49.1794 216.521C50.6811 217.835 52.5582 218.867 54.3414 219.993C56.2185 221.12 58.0955 222.246 60.0665 223.466C67.8563 228.159 76.5848 233.415 85.6886 238.952L85.407 239.046C86.5333 237.45 87.6595 235.667 88.7857 233.978C90.8505 230.881 92.9153 227.877 94.8862 224.968L94.9801 225.249C82.7791 215.207 71.7043 206.103 62.8821 198.783H62.7882V198.689C60.6296 189.773 59.1279 182.452 58.1894 177.384C57.7201 174.85 57.3447 172.879 57.157 171.471C57.0631 170.814 56.9693 170.345 56.9693 169.969C56.8754 169.594 56.8754 169.406 56.8754 169.406C56.8754 169.406 56.9693 169.594 56.9693 169.969C57.0631 170.345 57.157 170.814 57.2509 171.471C57.5324 172.785 57.9078 174.756 58.3771 177.29C59.4095 182.358 61.005 189.679 63.1637 198.595L63.0698 198.501C71.9859 205.728 83.0607 214.832 95.2617 224.874L95.4494 224.968L95.3555 225.155C93.3846 228.065 91.3198 231.162 89.255 234.165C88.1288 235.949 86.9087 237.638 85.8763 239.234L85.7824 239.421L85.5947 239.327C76.4909 233.79 67.8563 228.534 59.9726 223.841C58.0017 222.621 56.1246 221.495 54.2475 220.369C52.4643 219.243 50.4934 218.21 48.9917 216.896C45.8945 214.175 43.9236 210.796 43.0789 207.417C41.4834 200.753 40.1695 195.404 39.3248 191.65C38.8555 189.773 38.5739 188.365 38.2924 187.332C38.1985 186.863 38.1047 186.488 38.0108 186.206C38.0108 186.018 37.917 185.831 37.917 185.831Z" fill="#263238"/>
<path d="M38.5739 155.234C38.5739 155.234 38.8555 155.047 39.3248 154.953C39.794 154.765 40.5449 154.577 41.3896 154.483C43.1728 154.202 45.8007 154.202 48.3347 155.422C50.8688 156.736 52.5582 158.613 53.4967 160.115C53.966 160.865 54.2475 161.522 54.4352 161.992C54.623 162.461 54.623 162.743 54.623 162.743C54.5291 162.743 54.2475 161.71 53.2151 160.208C52.1828 158.801 50.4934 156.924 48.147 155.703C45.7068 154.577 43.1728 154.483 41.4834 154.671C39.6063 155.047 38.5739 155.328 38.5739 155.234Z" fill="#263238"/>
</g>
<defs>
<clipPath id="clip0_9_6695">
<rect width="615.587" height="412.3" fill="white"/>
</clipPath>
</defs>
</svg>
