<svg width="18" height="18" viewBox="0 0 18 18" fill="none" xmlns="http://www.w3.org/2000/svg">
<path d="M8.15667 2.68665H2.59037C2.16858 2.68665 1.76406 2.8542 1.46581 3.15245C1.16756 3.45071 1 3.85522 1 4.27702V15.4096C1 15.8314 1.16756 16.2359 1.46581 16.5342C1.76406 16.8324 2.16858 17 2.59037 17H13.723C14.1448 17 14.5493 16.8324 14.8475 16.5342C15.1458 16.2359 15.3133 15.8314 15.3133 15.4096V9.84331" stroke="#A1A1A5" stroke-linecap="round" stroke-linejoin="round"/>
<path d="M14.1209 1.49406C14.4373 1.17772 14.8663 1 15.3137 1C15.7611 1 16.1901 1.17772 16.5065 1.49406C16.8228 1.81041 17.0006 2.23946 17.0006 2.68684C17.0006 3.13422 16.8228 3.56328 16.5065 3.87962L8.95223 11.4339L5.77148 12.2291L6.56667 9.04833L14.1209 1.49406Z" stroke="#A1A1A5" stroke-linecap="round" stroke-linejoin="round"/>
</svg>
