<svg width="80" height="80" viewBox="0 0 80 80" fill="none" xmlns="http://www.w3.org/2000/svg">
<path d="M80 55.625C79.7708 56.9167 79.604 58.25 79.2706 59.5208C77.4991 66.0833 73.06 69.8542 66.5993 71.375C64.8279 71.7917 62.9522 71.9583 61.1182 72C55.1577 72.0833 49.2181 72.0208 43.2576 72.0208C42.9241 72.0208 42.5699 72 42.2572 71.8958C41.6112 71.6667 41.3402 71.1667 41.4236 70.4792C41.507 69.8333 41.9029 69.4583 42.549 69.375C42.8408 69.3333 43.1117 69.3542 43.4035 69.3542C49.3223 69.3542 55.2619 69.3542 61.1807 69.3542C64.286 69.3542 67.2662 68.75 70.0589 67.2917C74.102 65.1875 76.2903 61.75 77.0198 57.3333C77.7284 53.0833 77.1031 48.9375 76.0611 44.8125C73.9978 36.6042 70.2465 29.3125 64.161 23.3125C62.2019 21.3958 60.0553 19.7083 57.7211 18.2708C57.1376 17.8958 56.6374 17.7917 56.0122 18.125C55.6787 18.2917 55.3036 18.375 54.8451 18.5208C55.9913 19.5833 57.0751 20.5833 58.138 21.6042C58.8257 22.2708 58.8465 23.1042 58.2213 23.6667C57.6586 24.1667 56.95 24.125 56.2623 23.5C54.6992 22.0417 53.1362 20.5833 51.5731 19.1458C51.3647 18.9583 51.0938 18.8125 50.6561 18.5C50.6561 19.5625 50.6561 20.375 50.6561 21.1875C50.6561 21.6875 50.6769 22.1875 50.6561 22.6667C50.6144 23.4375 50.1142 23.9792 49.4265 24.0208C48.6971 24.0625 48.0718 23.5417 48.0302 22.7292C47.9676 21.7708 48.0093 20.8125 48.0093 19.8333C48.0093 19.4792 48.0093 19.125 48.0093 18.5417C47.6133 18.8125 47.3424 18.9375 47.134 19.125C45.5918 20.5625 44.0496 22 42.5073 23.4375C41.7362 24.1667 40.9443 24.2083 40.3816 23.5833C39.8189 22.9583 39.9231 22.2083 40.6942 21.4792C41.7154 20.5208 42.7366 19.5625 43.8203 18.5625C43.1951 18.3333 42.6741 18.1042 42.1322 17.9792C41.8821 17.9167 41.5278 18 41.2986 18.1458C37.0887 20.5625 33.6291 23.8333 30.6697 27.6667C30.503 27.8958 30.3363 28.125 30.1487 28.3333C29.6485 28.8542 28.9399 28.9167 28.3772 28.5C27.7937 28.0625 27.627 27.3125 28.0855 26.7083C28.7941 25.75 29.586 24.8333 30.2946 23.8958C30.4613 23.6667 30.6489 23.3542 30.6489 23.0833C30.6697 20.3333 30.6697 17.5625 30.6697 14.8125C30.6697 14.7083 30.6489 14.625 30.6072 14.4792C25.7721 16.5833 20.9579 16.6042 16.102 14.4583C16.102 17.6458 16.102 20.7917 16.102 23.9375C17.3316 24.1458 18.6029 24.2083 19.77 24.5833C21.1038 25.0208 22.4376 25.6042 23.6255 26.3333C24.8343 27.0833 25.3762 28.2917 25.3553 29.7917C25.3136 35.9792 25.3345 42.1875 25.3345 48.375C25.3345 48.6875 25.3345 49 25.3345 49.375C25.6679 49.375 25.9389 49.375 26.2098 49.375C28.5856 49.2708 30.9407 49.4167 33.1915 50.3125C34.0668 50.6667 34.9213 51.1458 35.6924 51.7083C36.8178 52.5417 37.3596 53.6875 37.3388 55.1458C37.2971 60.5833 37.2971 66.0208 37.3388 71.4792C37.3596 73.1042 36.6927 74.2708 35.4423 75.1875C33.7333 76.4375 31.7535 76.9583 29.6902 77.1875C26.6058 77.5417 23.8339 77.5 19.895 75.6667C18.6029 78.3333 16.102 79.1042 13.4969 79.6875C12.9133 79.8125 12.3298 79.8958 11.7462 80C10.6 80 9.45375 80 8.30751 80C8.05742 79.9375 7.80733 79.875 7.55724 79.8542C5.53568 79.5833 3.57664 79.0625 1.88853 77.8333C0.658919 76.9375 -0.0288284 75.7708 0.0128532 74.1875C0.0753758 72.4375 0.117057 70.6875 0.0128532 68.9583C-0.133033 66.6458 0.971532 65.2083 2.88889 64.2292C3.66 63.8333 4.49363 63.5417 5.34811 63.1667C5.34811 62.875 5.34811 62.5625 5.34811 62.2708C5.34811 51.5417 5.36895 40.8125 5.32727 30.0833C5.32727 28.125 6.14006 26.8125 7.70312 25.8333C9.18282 24.9167 10.8292 24.4167 12.5382 24.2292C13.1843 24.1667 13.3302 23.9167 13.3302 23.3125C13.3093 19.2292 13.3302 15.1458 13.3093 11.0417C13.3093 9.72917 13.7678 8.625 14.789 7.83333C15.5184 7.27083 16.3312 6.75 17.1857 6.41667C20.1034 5.25 23.1462 5.10417 26.2306 5.54167C28.1063 5.8125 29.8778 6.35417 31.4408 7.47917C32.6705 8.375 33.3374 9.54167 33.2957 11.125C33.2332 13.9792 33.2748 16.8542 33.2748 19.7083C33.2748 19.9792 33.2748 20.2292 33.2748 20.5208C35.3381 18.9583 37.2971 17.4792 39.2562 15.9792C35.7757 12.3958 34.6503 7.91667 34.567 3.0625C34.6503 0.833333 36.7136 -0.4375 38.7351 0.625C39.3187 0.9375 39.8605 1.35417 40.3816 1.79167C41.6737 2.85417 43.4452 3.04167 44.6956 2C45.8002 1.10417 46.9673 0.375 48.3219 0C48.9888 0 49.6766 0 50.3435 0C51.719 0.375 52.8652 1.10417 53.9698 2C55.2202 3.02083 56.9709 2.85417 58.2838 1.79167C58.8465 1.33333 59.4301 0.895833 60.0762 0.5625C61.9727 -0.416667 63.9942 0.854167 64.0151 2.97917C64.0151 3.58333 63.9942 4.1875 63.9109 4.77083C63.8067 5.47917 63.9942 5.83333 64.7445 6.125C68.2874 7.5 70.7883 12.4792 67.0578 16.2708C66.9745 16.3542 66.9328 16.4583 66.8494 16.6042C67.2246 16.7083 67.5163 16.7917 67.8081 16.875C70.0589 17.5417 72.143 18.5 73.7477 20.2708C74.373 20.9583 74.373 21.75 73.8103 22.2917C73.2267 22.8333 72.4765 22.7708 71.8304 22.1042C69.4754 19.7083 66.4326 19.1458 63.2648 18.8333C63.5774 19.1875 63.9317 19.5 64.2652 19.8125C64.6403 20.1458 65.0154 20.4583 65.3697 20.8125C72.8307 27.8958 77.1448 36.6667 79.1872 46.6667C79.5207 48.3333 79.7082 50.0417 79.9792 51.75C80 53.0208 80 54.3333 80 55.625ZM17.4358 64.3125C17.4358 61.25 17.5192 58.3542 17.415 55.4375C17.3524 53.3958 18.2486 52.0625 19.895 51.1042C20.5619 50.7083 21.2914 50.3958 22.0208 50.1667C22.5835 49.9792 22.7711 49.75 22.7711 49.1458C22.7502 44.0625 22.7502 39 22.7502 33.9167C22.7502 33.6667 22.7294 33.4167 22.7085 33.1042C17.8318 35.25 12.9967 35.2292 8.14078 33.1042C8.14078 43.0208 8.14078 52.8542 8.14078 62.7708C11.3711 62.4375 14.4139 62.8125 17.4358 64.3125ZM20.1034 58.4167C20.1034 58.75 20.1034 59 20.1034 59.25C20.1034 63.3125 20.1243 67.375 20.0826 71.4375C20.0826 72.25 20.3744 72.7917 21.0204 73.1667C21.3956 73.3958 21.7915 73.6042 22.2083 73.7708C24.355 74.6042 26.5849 74.8125 28.8774 74.6042C30.5447 74.4583 32.1703 74.125 33.65 73.2917C34.4002 72.8542 34.7962 72.2917 34.7754 71.3333C34.7337 67.3333 34.7545 63.3125 34.7545 59.3125C34.7545 59.0417 34.7545 58.7708 34.7545 58.4167C29.8153 60.5625 25.001 60.5833 20.1034 58.4167ZM45.425 15.9583C45.2583 15.625 45.1333 15.375 45.0291 15.125C44.2996 13.3542 43.5285 11.5833 42.8408 9.79167C42.5282 9 42.945 8.29167 43.6953 8.0625C44.383 7.83333 45.0499 8.20833 45.3417 8.97917C45.425 9.16667 45.4459 9.39583 45.5293 9.5625C46.4671 11.5208 47.3632 13.5 48.3636 15.4375C48.7804 16.2708 49.9058 16.2292 50.4269 15.4375C51.6773 13.5417 52.636 11.5 53.3237 9.33333C53.678 8.22917 54.2824 7.79167 55.0952 8.0625C55.9288 8.33333 56.2206 9.04167 55.8455 10.1042C55.4495 11.2292 55.0327 12.3542 54.5742 13.4583C54.2199 14.2917 53.7822 15.0833 53.3446 15.9792C53.7405 15.9375 54.0532 15.9167 54.3658 15.8542C56.0122 15.5417 57.2001 14.5208 58.2213 13.25C59.9303 11.1458 60.7639 8.6875 61.1182 6.04167C61.2641 5.04167 61.3058 4.02083 61.41 2.79167C60.8681 3.1875 60.5138 3.39583 60.2012 3.66667C57.4919 5.91667 54.4283 5.89583 51.719 3.58333C50.2601 2.33333 48.447 2.33333 46.9673 3.58333C44.2788 5.89583 41.236 5.91667 38.4851 3.64583C38.1724 3.375 37.7973 3.1875 37.4638 2.9375C37.3805 2.97917 37.2971 3.02083 37.2346 3.0625C37.443 4.60417 37.5681 6.16667 37.9015 7.66667C38.4642 10.2917 39.6105 12.625 41.6529 14.4375C42.7157 15.4167 43.9037 15.9583 45.425 15.9583ZM27.5853 57.3542C29.586 57.2708 31.7326 57.0625 33.65 55.9375C35.0672 55.1042 35.0672 54.2917 33.6917 53.4167C33.5041 53.2917 33.2957 53.1667 33.0664 53.0833C29.3151 51.6042 25.5429 51.5833 21.7915 53.1042C21.0621 53.3958 20.1451 53.7708 20.1659 54.6875C20.1868 55.5833 21.1038 55.9167 21.8332 56.25C23.5838 57.0833 25.4804 57.3125 27.5853 57.3542ZM15.4142 26.6875C13.4552 26.6875 11.517 26.9375 9.72468 27.7917C9.03694 28.125 8.14078 28.4583 8.16162 29.3542C8.16162 30.1875 9.0161 30.5833 9.683 30.8542C13.5177 32.4375 17.3733 32.4375 21.1871 30.8333C21.8749 30.5417 22.7085 30.1875 22.6877 29.3125C22.6668 28.4583 21.8332 28.125 21.1663 27.8125C19.3532 26.9375 17.415 26.6667 15.4142 26.6875ZM10.0581 70.6458C12.0797 70.6458 14.0387 70.3958 15.8727 69.5C16.5396 69.1667 17.3733 68.8333 17.3733 67.9792C17.3733 67.1667 16.5813 66.7917 15.9144 66.5208C12.038 64.8958 8.16162 64.8958 4.28523 66.5208C3.61832 66.7917 2.82637 67.1667 2.82637 67.9792C2.80553 68.8542 3.66 69.1875 4.30607 69.5C6.14006 70.3958 8.07826 70.6458 10.0581 70.6458ZM23.3546 13.3125C25.3762 13.3125 27.356 13.0625 29.19 12.1667C29.8569 11.8333 30.6906 11.5208 30.6906 10.6458C30.6906 9.77083 29.8569 9.41667 29.1692 9.14583C25.3345 7.5625 21.4789 7.5625 17.665 9.14583C16.9773 9.4375 16.1437 9.79167 16.1645 10.6667C16.1645 11.5208 17.019 11.8542 17.6859 12.1875C19.4574 13.0625 21.3747 13.3125 23.3546 13.3125ZM17.4358 71.75C12.5174 73.9167 7.68228 73.8958 2.78469 71.75C2.78469 72.5417 2.84721 73.2708 2.76384 74C2.65964 74.9583 3.11814 75.5417 3.88925 75.9375C4.34775 76.1875 4.80625 76.4167 5.30643 76.5833C7.78649 77.4375 10.3499 77.6042 12.9133 77.0625C14.1638 76.8125 15.3726 76.2917 16.5396 75.7708C16.9356 75.5833 17.3316 75.0208 17.3941 74.5833C17.5192 73.6875 17.4358 72.75 17.4358 71.75ZM59.4926 15.8333C61.6601 16.1875 63.5357 15.8958 65.078 14.5C65.995 13.6875 66.4951 12.6458 66.1408 11.3542C65.7449 9.9375 64.8487 8.97917 63.3482 8.47917C62.7438 11.25 61.4517 13.6458 59.4926 15.8333Z" fill="#B5121B"/>
<path d="M41.3605 45.3749C39.2139 45.1874 38.7554 44.9374 38.7346 44.0207C38.7137 43.104 39.1514 42.854 41.3397 42.604C41.3397 41.7707 41.3397 40.9165 41.3397 40.0415C40.2768 39.9165 38.8805 40.3749 38.7554 38.6665C38.6929 37.7499 39.2556 37.479 41.3188 37.3124C41.3605 37.1665 41.4022 36.9999 41.423 36.8124C41.7565 33.479 44.1115 31.0415 47.4669 30.729C48.8632 30.604 50.2804 30.6249 51.6559 30.7915C54.782 31.1665 57.1787 33.854 57.3246 36.9999C57.3663 37.9999 56.9078 38.604 56.095 38.6665C55.2614 38.7082 54.7612 38.1874 54.6778 37.1874C54.4903 35.104 53.1356 33.5832 51.0932 33.4165C49.8011 33.3124 48.4881 33.3124 47.2168 33.4999C45.362 33.7499 43.9865 35.5624 44.1324 37.3749C45.3203 37.3749 46.5082 37.3749 47.6961 37.3749C48.7382 37.3749 49.3634 37.8957 49.3634 38.7082C49.3634 39.5207 48.7173 40.0207 47.6753 40.0415C46.4874 40.0415 45.2994 40.0415 44.0698 40.0415C44.0698 40.9582 44.0698 41.7707 44.0698 42.7082C45.2161 42.7082 46.3623 42.7082 47.4877 42.7082C47.7795 42.7082 48.0713 42.7082 48.3422 42.7707C48.9883 42.9374 49.4259 43.5624 49.3217 44.1665C49.2175 44.854 48.8007 45.3124 48.0713 45.354C47.0292 45.3957 45.9872 45.3749 44.9452 45.3749C44.6742 45.3749 44.3825 45.3749 44.1115 45.3749C43.9031 47.104 45.2578 48.9999 47.0709 49.229C48.5506 49.4165 50.0928 49.4165 51.5725 49.229C53.3232 48.9999 54.4903 47.4374 54.657 45.4999C54.7403 44.6249 55.1155 44.1665 55.8241 44.0832C56.7411 43.979 57.3455 44.6249 57.3038 45.6457C57.2413 48.6665 54.8654 51.5207 51.8643 51.8957C50.1762 52.104 48.4256 52.104 46.7375 51.8957C43.9448 51.5624 41.6523 48.979 41.3814 46.1665C41.4231 45.8749 41.4022 45.6457 41.3605 45.3749Z" fill="#B5121B"/>
<path d="M62.4104 66.7085C60.9307 66.7293 60.3054 66.2501 60.2637 65.4168C60.2221 64.6043 60.8264 64.0001 61.8476 63.9793C63.6191 63.9168 65.3489 63.6043 66.9745 62.8751C70.1631 61.4793 71.5178 58.8751 71.8929 55.5835C71.9346 55.2918 71.8929 55.0001 71.9346 54.7293C72.0388 53.8543 72.664 53.271 73.4143 53.3126C74.1854 53.3751 74.7273 54.021 74.6856 54.896C74.6022 57.271 73.977 59.5001 72.6849 61.521C70.9551 64.2085 68.35 65.5418 65.3698 66.2293C64.2443 66.5001 63.0981 66.5835 62.4104 66.7085Z" fill="#B5121B"/>
</svg>
