<svg width="16" height="10" viewBox="0 0 16 10" fill="none" xmlns="http://www.w3.org/2000/svg">
<path d="M15.4965 0.718337L6.09471 9.66567C5.88532 9.86479 5.59213 9.98454 5.27962 9.99861C4.96711 10.0127 4.66088 9.91988 4.42826 9.74064C4.41398 9.72948 4.39969 9.71832 4.38603 9.70662L0.363705 6.26276C0.130824 6.06331 0 5.79284 0 5.51082C0 5.22879 0.130824 4.95831 0.363705 4.75886C0.479063 4.66005 0.616028 4.58168 0.766774 4.5282C0.917521 4.47473 1.0791 4.4472 1.24227 4.4472C1.40544 4.4472 1.56702 4.47473 1.71776 4.5282C1.86851 4.58168 2.00547 4.66005 2.12083 4.75886L5.26304 7.44918L14.7878 0.110508C14.8367 0.0727013 14.8939 0.0435243 14.956 0.0246633C15.0182 0.00580224 15.084 -0.00237121 15.1499 0.000592606C15.2157 0.00355643 15.2802 0.0176076 15.3397 0.0419438C15.3991 0.06628 15.4524 0.100414 15.4965 0.142407C15.5792 0.221587 15.625 0.324115 15.625 0.430372C15.625 0.536629 15.5792 0.639158 15.4965 0.718337Z" fill="#626262"/>
</svg>
