<svg width="18" height="18" viewBox="0 0 18 18" fill="none" xmlns="http://www.w3.org/2000/svg">
<path d="M8.15667 2.43481H2.59037C2.16858 2.43481 1.76406 2.60237 1.46581 2.90062C1.16756 3.19887 1 3.60339 1 4.02518V15.1578C1 15.5796 1.16756 15.9841 1.46581 16.2823C1.76406 16.5806 2.16858 16.7481 2.59037 16.7481H13.723C14.1448 16.7481 14.5493 16.5806 14.8475 16.2823C15.1458 15.9841 15.3133 15.5796 15.3133 15.1578V9.59147" stroke="white" stroke-linecap="round" stroke-linejoin="round"/>
<path d="M14.1209 1.24211C14.4373 0.925767 14.8663 0.748047 15.3137 0.748047C15.7611 0.748047 16.1901 0.925767 16.5065 1.24211C16.8228 1.55846 17.0006 1.98751 17.0006 2.43489C17.0006 2.88227 16.8228 3.31132 16.5065 3.62766L8.95223 11.1819L5.77148 11.9771L6.56667 8.79636L14.1209 1.24211Z" stroke="white" stroke-linecap="round" stroke-linejoin="round"/>
</svg>
