<svg width="76" height="75" viewBox="0 0 76 75" fill="none" xmlns="http://www.w3.org/2000/svg">
<path d="M6.75 68.75H69.25" stroke="#B5121B" stroke-width="3" stroke-miterlimit="10" stroke-linecap="round" stroke-linejoin="round"/>
<path d="M47.4063 68.7186L9.90628 68.7812L9.875 22.0937C9.875 19.9999 10.9375 18.0623 12.6563 16.9061L25.1563 8.56238C27.25 7.15613 30 7.15613 32.0937 8.56238L44.5937 16.9061C46.3437 18.0623 47.375 19.9999 47.375 22.0937L47.4063 68.7186Z" stroke="#B5121B" stroke-width="3" stroke-miterlimit="10" stroke-linecap="round" stroke-linejoin="round"/>
<path d="M62.9374 68.7813V56.25" stroke="#B5121B" stroke-width="3" stroke-miterlimit="10" stroke-linecap="round" stroke-linejoin="round"/>
<path d="M63 37.5C59.5625 37.5 56.75 40.3125 56.75 43.75V50C56.75 53.4375 59.5625 56.25 63 56.25C66.4375 56.25 69.25 53.4375 69.25 50V43.75C69.25 40.3125 66.4375 37.5 63 37.5Z" stroke="#B5121B" stroke-width="3" stroke-miterlimit="10" stroke-linecap="round" stroke-linejoin="round"/>
<path d="M9.875 43.75H47.375" stroke="#B5121B" stroke-width="3" stroke-miterlimit="10" stroke-linecap="round" stroke-linejoin="round"/>
<path d="M28.625 68.75V57.0312" stroke="#B5121B" stroke-width="3" stroke-miterlimit="10" stroke-linecap="round" stroke-linejoin="round"/>
<path d="M28.625 32.8125C31.2138 32.8125 33.3125 30.7138 33.3125 28.125C33.3125 25.5362 31.2138 23.4375 28.625 23.4375C26.0362 23.4375 23.9375 25.5362 23.9375 28.125C23.9375 30.7138 26.0362 32.8125 28.625 32.8125Z" stroke="#B5121B" stroke-width="3" stroke-miterlimit="10" stroke-linecap="round" stroke-linejoin="round"/>
</svg>
