<svg width="76" height="75" viewBox="0 0 76 75" fill="none" xmlns="http://www.w3.org/2000/svg">
<path d="M58.3125 60.9375H45.8125" stroke="#B5121B" stroke-width="3" stroke-linecap="round" stroke-linejoin="round"/>
<path d="M52.0625 67.1875V54.6875" stroke="#B5121B" stroke-width="3" stroke-linecap="round" stroke-linejoin="round"/>
<path d="M38.5 33.9687C38.1875 33.9375 37.8125 33.9375 37.4687 33.9687C30.0312 33.7187 24.125 27.625 24.125 20.125C24.0937 12.4688 30.3125 6.25 37.9687 6.25C45.625 6.25 51.8437 12.4688 51.8437 20.125C51.8437 27.625 45.9062 33.7187 38.5 33.9687Z" stroke="#B5121B" stroke-width="3" stroke-linecap="round" stroke-linejoin="round"/>
<path d="M37.9688 68.1562C32.2813 68.1562 26.625 66.7187 22.3125 63.8437C14.75 58.7812 14.75 50.5312 22.3125 45.5C30.9063 39.75 45 39.75 53.5938 45.5" stroke="#B5121B" stroke-width="3" stroke-linecap="round" stroke-linejoin="round"/>
</svg>
