<svg width="26" height="26" viewBox="0 0 26 26" fill="none" xmlns="http://www.w3.org/2000/svg">
<path d="M5.80029 9.40006V1H20.2003V9.40006" stroke="#626262" stroke-width="1.80357" stroke-linecap="round" stroke-linejoin="round"/>
<path d="M5.8 20.2002H3.4C2.76348 20.2002 2.15303 19.9474 1.70294 19.4973C1.25286 19.0472 1 18.4367 1 17.8002V11.8002C1 11.1636 1.25286 10.5532 1.70294 10.1031C2.15303 9.65301 2.76348 9.40015 3.4 9.40015H22.6C23.2365 9.40015 23.847 9.65301 24.2971 10.1031C24.7471 10.5532 25 11.1636 25 11.8002V17.8002C25 18.4367 24.7471 19.0472 24.2971 19.4973C23.847 19.9474 23.2365 20.2002 22.6 20.2002H20.2" stroke="#626262" stroke-width="1.80357" stroke-linecap="round" stroke-linejoin="round"/>
<path d="M20.2003 15.3999H5.80029V25H20.2003V15.3999Z" stroke="#626262" stroke-width="1.80357" stroke-linecap="round" stroke-linejoin="round"/>
</svg>
