<svg width="26" height="26" viewBox="0 0 26 26" fill="none" xmlns="http://www.w3.org/2000/svg">
<mask id="path-1-outside-1_234_899" maskUnits="userSpaceOnUse" x="0" y="0" width="26" height="26" fill="black">
<rect fill="white" width="26" height="26"/>
<path d="M25 17.1381C24.8063 17.6089 24.4439 17.7533 23.9565 17.747C22.7381 17.7282 21.5197 17.7408 20.3012 17.7408C20.2075 17.7408 20.1138 17.7408 20.0138 17.7408C20.0013 17.7847 19.9888 17.8098 19.9888 17.8412C20.095 19.4607 19.6701 20.9673 19.0141 22.411C18.6579 23.202 18.2205 23.9552 17.8081 24.7211C17.6769 24.9722 17.4582 25.0349 17.2645 24.9219C17.0708 24.8089 17.0396 24.5892 17.1895 24.3507C17.9393 23.1078 18.5892 21.8147 18.9828 20.4086C19.2203 19.5486 19.3452 18.6761 19.264 17.7659C17.7269 17.7659 16.1898 17.7659 14.6215 17.7659C14.6589 17.9667 14.6714 18.1676 14.7402 18.3559C14.9089 18.8393 15.0838 19.3289 15.2963 19.7934C15.3713 19.9629 15.5337 20.101 15.6712 20.2328C15.8336 20.3898 15.8711 20.5969 15.7524 20.7538C15.6337 20.9045 15.4025 20.9673 15.2588 20.8166C14.9901 20.5467 14.7214 20.2642 14.534 19.9378C14.1153 19.1971 13.9591 18.3685 13.8467 17.5336C13.6655 16.1589 13.7154 14.7779 13.8029 13.4032C13.8467 12.7503 13.553 12.3046 12.9594 12.0975C12.397 11.8966 11.7535 12.0912 11.4098 12.5683C11.2348 12.8068 11.1786 13.0768 11.2036 13.3655C11.2786 14.3573 11.3661 15.3491 11.4098 16.3472C11.4473 17.27 11.3723 18.1864 11.0286 19.0527C10.8787 19.4419 10.685 19.8374 10.4225 20.1575C9.56652 21.2058 9.34783 22.411 9.4603 23.7104C9.48529 23.9803 9.54153 24.2503 9.58527 24.5202C9.62276 24.7587 9.52278 24.947 9.31658 24.991C9.12288 25.0349 8.92918 24.9157 8.88545 24.6897C8.51679 22.9383 8.62926 21.2748 9.78521 19.806C10.2476 19.2159 10.5163 18.538 10.6037 17.747C10.5038 17.747 10.4163 17.747 10.3288 17.747C9.10414 17.747 7.87946 17.747 6.64853 17.747C6.02994 17.747 5.73002 17.4394 5.73002 16.818C5.73002 15.619 5.72377 14.4201 5.73627 13.2149C5.73627 13.0454 5.68628 12.97 5.52382 12.9261C4.48034 12.6373 3.44311 12.3109 2.39339 12.041C1.69357 11.859 1.1937 11.5012 1 10.7856C1 10.6098 1 10.4403 1 10.2645C1.0125 10.2457 1.03124 10.2269 1.03749 10.208C1.62484 8.16166 2.20594 6.109 2.78703 4.06261C2.96824 3.41605 3.15569 2.76949 3.34314 2.12294C3.59932 1.2504 4.34913 0.823545 5.2114 1.06836C7.61703 1.75886 10.0227 2.44935 12.4283 3.13985C14.2965 3.67342 16.1586 4.20699 18.0268 4.75311C18.9391 5.01675 19.3452 5.76375 19.089 6.6865C19.0515 6.81833 19.0141 6.95643 18.9703 7.11336C19.0765 7.11336 19.164 7.11336 19.2452 7.11336C20.8198 7.11336 22.4007 7.12591 23.9753 7.10708C24.4626 7.1008 24.8063 7.26401 24.9875 7.72225C25 10.8609 25 13.9995 25 17.1381ZM10.4663 13.5852C10.4788 13.3467 10.4663 13.1332 10.5038 12.9261C10.6912 11.8715 11.7097 11.1559 12.7844 11.3003C13.8966 11.4509 14.634 12.3863 14.534 13.4973C14.4965 13.8991 14.484 14.3071 14.459 14.7277C14.6902 14.7967 14.9089 14.8595 15.1276 14.916C15.6649 15.0666 16.0023 14.8783 16.1586 14.3385C16.4272 13.4157 16.6897 12.4867 16.9521 11.5639C17.0396 11.2501 17.1271 10.9362 17.2208 10.6098C12.422 9.22879 7.65452 7.86035 2.87451 6.48563C2.84952 6.56724 2.81828 6.63001 2.79953 6.69278C2.46837 7.86035 2.13096 9.02792 1.79979 10.1955C1.64358 10.7479 1.83103 11.0931 2.37464 11.2501C4.60531 11.8966 6.84223 12.5369 9.0729 13.1772C9.52903 13.3216 9.99141 13.4534 10.4663 13.5852ZM14.509 16.9875C14.584 16.9938 14.6277 17.0063 14.6714 17.0063C16.9833 17.0063 19.2952 17.0063 21.6009 17.0063C21.7446 17.0063 21.7758 16.9435 21.8071 16.818C22.0883 15.5751 22.8568 14.803 24.0877 14.5017C24.2377 14.464 24.2752 14.4075 24.2752 14.2632C24.2689 13.0391 24.2689 11.815 24.2752 10.591C24.2752 10.4215 24.2127 10.3775 24.0565 10.3336C22.8506 10.0197 22.0883 9.26018 21.8133 8.03611C21.7758 7.86035 21.7009 7.83524 21.5447 7.83524C20.7199 7.84152 19.8888 7.8478 19.064 7.82896C18.8204 7.82269 18.7329 7.89801 18.6704 8.13027C18.0706 10.2771 17.4582 12.4239 16.8459 14.5645C16.5897 15.4621 15.8399 15.8764 14.9401 15.6253C14.7839 15.5814 14.6277 15.5437 14.4403 15.4935C14.4652 16.0145 14.484 16.4979 14.509 16.9875ZM3.05571 5.78886C7.85447 7.16985 12.6282 8.53829 17.4145 9.91929C17.6082 9.24135 17.7894 8.59479 17.9831 7.92312C13.1968 6.5484 8.41682 5.17368 3.62432 3.79269C3.43062 4.46435 3.24941 5.11091 3.05571 5.78886ZM3.82426 3.08963C8.62301 4.47063 13.3968 5.84535 18.183 7.22007C18.2518 6.98781 18.308 6.78694 18.3642 6.57979C18.5579 5.90812 18.3892 5.60054 17.7144 5.41222C15.1588 4.67778 12.6032 3.94334 10.0476 3.2089C8.37933 2.72555 6.70476 2.24848 5.03645 1.77141C4.54283 1.63331 4.19292 1.82791 4.04296 2.31753C3.97423 2.56235 3.90549 2.81344 3.82426 3.08963ZM10.7225 17C10.6787 16.1714 10.6287 15.3742 10.5913 14.577C10.585 14.4138 10.51 14.351 10.3601 14.3134C9.12913 13.9681 7.8982 13.6103 6.67352 13.2588C6.61104 13.24 6.54855 13.2337 6.47357 13.2211C6.47357 13.648 6.47357 14.0434 6.47357 14.4326C6.49232 14.4452 6.49857 14.4577 6.50482 14.4577C7.84822 14.7339 8.69175 15.5249 8.97917 16.887C8.99167 16.931 9.06665 16.9938 9.11664 17C9.63525 17 10.1414 17 10.7225 17ZM8.24811 16.9875C8.1044 16.071 7.26712 15.2424 6.47357 15.2236C6.47357 15.8074 6.47357 16.3911 6.47357 16.9875C7.07342 16.9875 7.65452 16.9875 8.24811 16.9875ZM24.2564 15.2299C23.4067 15.3303 22.5381 16.2279 22.5444 16.9938C23.113 16.9938 23.6753 16.9938 24.2564 16.9938C24.2564 16.3974 24.2564 15.8136 24.2564 15.2299ZM24.2564 9.61798C24.2564 9.0342 24.2564 8.45041 24.2564 7.86663C23.6691 7.86663 23.1005 7.86663 22.5256 7.86663C22.6881 8.76428 23.4254 9.51755 24.2564 9.61798Z"/>
</mask>
<path d="M25 17.1381C24.8063 17.6089 24.4439 17.7533 23.9565 17.747C22.7381 17.7282 21.5197 17.7408 20.3012 17.7408C20.2075 17.7408 20.1138 17.7408 20.0138 17.7408C20.0013 17.7847 19.9888 17.8098 19.9888 17.8412C20.095 19.4607 19.6701 20.9673 19.0141 22.411C18.6579 23.202 18.2205 23.9552 17.8081 24.7211C17.6769 24.9722 17.4582 25.0349 17.2645 24.9219C17.0708 24.8089 17.0396 24.5892 17.1895 24.3507C17.9393 23.1078 18.5892 21.8147 18.9828 20.4086C19.2203 19.5486 19.3452 18.6761 19.264 17.7659C17.7269 17.7659 16.1898 17.7659 14.6215 17.7659C14.6589 17.9667 14.6714 18.1676 14.7402 18.3559C14.9089 18.8393 15.0838 19.3289 15.2963 19.7934C15.3713 19.9629 15.5337 20.101 15.6712 20.2328C15.8336 20.3898 15.8711 20.5969 15.7524 20.7538C15.6337 20.9045 15.4025 20.9673 15.2588 20.8166C14.9901 20.5467 14.7214 20.2642 14.534 19.9378C14.1153 19.1971 13.9591 18.3685 13.8467 17.5336C13.6655 16.1589 13.7154 14.7779 13.8029 13.4032C13.8467 12.7503 13.553 12.3046 12.9594 12.0975C12.397 11.8966 11.7535 12.0912 11.4098 12.5683C11.2348 12.8068 11.1786 13.0768 11.2036 13.3655C11.2786 14.3573 11.3661 15.3491 11.4098 16.3472C11.4473 17.27 11.3723 18.1864 11.0286 19.0527C10.8787 19.4419 10.685 19.8374 10.4225 20.1575C9.56652 21.2058 9.34783 22.411 9.4603 23.7104C9.48529 23.9803 9.54153 24.2503 9.58527 24.5202C9.62276 24.7587 9.52278 24.947 9.31658 24.991C9.12288 25.0349 8.92918 24.9157 8.88545 24.6897C8.51679 22.9383 8.62926 21.2748 9.78521 19.806C10.2476 19.2159 10.5163 18.538 10.6037 17.747C10.5038 17.747 10.4163 17.747 10.3288 17.747C9.10414 17.747 7.87946 17.747 6.64853 17.747C6.02994 17.747 5.73002 17.4394 5.73002 16.818C5.73002 15.619 5.72377 14.4201 5.73627 13.2149C5.73627 13.0454 5.68628 12.97 5.52382 12.9261C4.48034 12.6373 3.44311 12.3109 2.39339 12.041C1.69357 11.859 1.1937 11.5012 1 10.7856C1 10.6098 1 10.4403 1 10.2645C1.0125 10.2457 1.03124 10.2269 1.03749 10.208C1.62484 8.16166 2.20594 6.109 2.78703 4.06261C2.96824 3.41605 3.15569 2.76949 3.34314 2.12294C3.59932 1.2504 4.34913 0.823545 5.2114 1.06836C7.61703 1.75886 10.0227 2.44935 12.4283 3.13985C14.2965 3.67342 16.1586 4.20699 18.0268 4.75311C18.9391 5.01675 19.3452 5.76375 19.089 6.6865C19.0515 6.81833 19.0141 6.95643 18.9703 7.11336C19.0765 7.11336 19.164 7.11336 19.2452 7.11336C20.8198 7.11336 22.4007 7.12591 23.9753 7.10708C24.4626 7.1008 24.8063 7.26401 24.9875 7.72225C25 10.8609 25 13.9995 25 17.1381ZM10.4663 13.5852C10.4788 13.3467 10.4663 13.1332 10.5038 12.9261C10.6912 11.8715 11.7097 11.1559 12.7844 11.3003C13.8966 11.4509 14.634 12.3863 14.534 13.4973C14.4965 13.8991 14.484 14.3071 14.459 14.7277C14.6902 14.7967 14.9089 14.8595 15.1276 14.916C15.6649 15.0666 16.0023 14.8783 16.1586 14.3385C16.4272 13.4157 16.6897 12.4867 16.9521 11.5639C17.0396 11.2501 17.1271 10.9362 17.2208 10.6098C12.422 9.22879 7.65452 7.86035 2.87451 6.48563C2.84952 6.56724 2.81828 6.63001 2.79953 6.69278C2.46837 7.86035 2.13096 9.02792 1.79979 10.1955C1.64358 10.7479 1.83103 11.0931 2.37464 11.2501C4.60531 11.8966 6.84223 12.5369 9.0729 13.1772C9.52903 13.3216 9.99141 13.4534 10.4663 13.5852ZM14.509 16.9875C14.584 16.9938 14.6277 17.0063 14.6714 17.0063C16.9833 17.0063 19.2952 17.0063 21.6009 17.0063C21.7446 17.0063 21.7758 16.9435 21.8071 16.818C22.0883 15.5751 22.8568 14.803 24.0877 14.5017C24.2377 14.464 24.2752 14.4075 24.2752 14.2632C24.2689 13.0391 24.2689 11.815 24.2752 10.591C24.2752 10.4215 24.2127 10.3775 24.0565 10.3336C22.8506 10.0197 22.0883 9.26018 21.8133 8.03611C21.7758 7.86035 21.7009 7.83524 21.5447 7.83524C20.7199 7.84152 19.8888 7.8478 19.064 7.82896C18.8204 7.82269 18.7329 7.89801 18.6704 8.13027C18.0706 10.2771 17.4582 12.4239 16.8459 14.5645C16.5897 15.4621 15.8399 15.8764 14.9401 15.6253C14.7839 15.5814 14.6277 15.5437 14.4403 15.4935C14.4652 16.0145 14.484 16.4979 14.509 16.9875ZM3.05571 5.78886C7.85447 7.16985 12.6282 8.53829 17.4145 9.91929C17.6082 9.24135 17.7894 8.59479 17.9831 7.92312C13.1968 6.5484 8.41682 5.17368 3.62432 3.79269C3.43062 4.46435 3.24941 5.11091 3.05571 5.78886ZM3.82426 3.08963C8.62301 4.47063 13.3968 5.84535 18.183 7.22007C18.2518 6.98781 18.308 6.78694 18.3642 6.57979C18.5579 5.90812 18.3892 5.60054 17.7144 5.41222C15.1588 4.67778 12.6032 3.94334 10.0476 3.2089C8.37933 2.72555 6.70476 2.24848 5.03645 1.77141C4.54283 1.63331 4.19292 1.82791 4.04296 2.31753C3.97423 2.56235 3.90549 2.81344 3.82426 3.08963ZM10.7225 17C10.6787 16.1714 10.6287 15.3742 10.5913 14.577C10.585 14.4138 10.51 14.351 10.3601 14.3134C9.12913 13.9681 7.8982 13.6103 6.67352 13.2588C6.61104 13.24 6.54855 13.2337 6.47357 13.2211C6.47357 13.648 6.47357 14.0434 6.47357 14.4326C6.49232 14.4452 6.49857 14.4577 6.50482 14.4577C7.84822 14.7339 8.69175 15.5249 8.97917 16.887C8.99167 16.931 9.06665 16.9938 9.11664 17C9.63525 17 10.1414 17 10.7225 17ZM8.24811 16.9875C8.1044 16.071 7.26712 15.2424 6.47357 15.2236C6.47357 15.8074 6.47357 16.3911 6.47357 16.9875C7.07342 16.9875 7.65452 16.9875 8.24811 16.9875ZM24.2564 15.2299C23.4067 15.3303 22.5381 16.2279 22.5444 16.9938C23.113 16.9938 23.6753 16.9938 24.2564 16.9938C24.2564 16.3974 24.2564 15.8136 24.2564 15.2299ZM24.2564 9.61798C24.2564 9.0342 24.2564 8.45041 24.2564 7.86663C23.6691 7.86663 23.1005 7.86663 22.5256 7.86663C22.6881 8.76428 23.4254 9.51755 24.2564 9.61798Z" fill="#C6B1B2"/>
<path d="M25 17.1381C24.8063 17.6089 24.4439 17.7533 23.9565 17.747C22.7381 17.7282 21.5197 17.7408 20.3012 17.7408C20.2075 17.7408 20.1138 17.7408 20.0138 17.7408C20.0013 17.7847 19.9888 17.8098 19.9888 17.8412C20.095 19.4607 19.6701 20.9673 19.0141 22.411C18.6579 23.202 18.2205 23.9552 17.8081 24.7211C17.6769 24.9722 17.4582 25.0349 17.2645 24.9219C17.0708 24.8089 17.0396 24.5892 17.1895 24.3507C17.9393 23.1078 18.5892 21.8147 18.9828 20.4086C19.2203 19.5486 19.3452 18.6761 19.264 17.7659C17.7269 17.7659 16.1898 17.7659 14.6215 17.7659C14.6589 17.9667 14.6714 18.1676 14.7402 18.3559C14.9089 18.8393 15.0838 19.3289 15.2963 19.7934C15.3713 19.9629 15.5337 20.101 15.6712 20.2328C15.8336 20.3898 15.8711 20.5969 15.7524 20.7538C15.6337 20.9045 15.4025 20.9673 15.2588 20.8166C14.9901 20.5467 14.7214 20.2642 14.534 19.9378C14.1153 19.1971 13.9591 18.3685 13.8467 17.5336C13.6655 16.1589 13.7154 14.7779 13.8029 13.4032C13.8467 12.7503 13.553 12.3046 12.9594 12.0975C12.397 11.8966 11.7535 12.0912 11.4098 12.5683C11.2348 12.8068 11.1786 13.0768 11.2036 13.3655C11.2786 14.3573 11.3661 15.3491 11.4098 16.3472C11.4473 17.27 11.3723 18.1864 11.0286 19.0527C10.8787 19.4419 10.685 19.8374 10.4225 20.1575C9.56652 21.2058 9.34783 22.411 9.4603 23.7104C9.48529 23.9803 9.54153 24.2503 9.58527 24.5202C9.62276 24.7587 9.52278 24.947 9.31658 24.991C9.12288 25.0349 8.92918 24.9157 8.88545 24.6897C8.51679 22.9383 8.62926 21.2748 9.78521 19.806C10.2476 19.2159 10.5163 18.538 10.6037 17.747C10.5038 17.747 10.4163 17.747 10.3288 17.747C9.10414 17.747 7.87946 17.747 6.64853 17.747C6.02994 17.747 5.73002 17.4394 5.73002 16.818C5.73002 15.619 5.72377 14.4201 5.73627 13.2149C5.73627 13.0454 5.68628 12.97 5.52382 12.9261C4.48034 12.6373 3.44311 12.3109 2.39339 12.041C1.69357 11.859 1.1937 11.5012 1 10.7856C1 10.6098 1 10.4403 1 10.2645C1.0125 10.2457 1.03124 10.2269 1.03749 10.208C1.62484 8.16166 2.20594 6.109 2.78703 4.06261C2.96824 3.41605 3.15569 2.76949 3.34314 2.12294C3.59932 1.2504 4.34913 0.823545 5.2114 1.06836C7.61703 1.75886 10.0227 2.44935 12.4283 3.13985C14.2965 3.67342 16.1586 4.20699 18.0268 4.75311C18.9391 5.01675 19.3452 5.76375 19.089 6.6865C19.0515 6.81833 19.0141 6.95643 18.9703 7.11336C19.0765 7.11336 19.164 7.11336 19.2452 7.11336C20.8198 7.11336 22.4007 7.12591 23.9753 7.10708C24.4626 7.1008 24.8063 7.26401 24.9875 7.72225C25 10.8609 25 13.9995 25 17.1381ZM10.4663 13.5852C10.4788 13.3467 10.4663 13.1332 10.5038 12.9261C10.6912 11.8715 11.7097 11.1559 12.7844 11.3003C13.8966 11.4509 14.634 12.3863 14.534 13.4973C14.4965 13.8991 14.484 14.3071 14.459 14.7277C14.6902 14.7967 14.9089 14.8595 15.1276 14.916C15.6649 15.0666 16.0023 14.8783 16.1586 14.3385C16.4272 13.4157 16.6897 12.4867 16.9521 11.5639C17.0396 11.2501 17.1271 10.9362 17.2208 10.6098C12.422 9.22879 7.65452 7.86035 2.87451 6.48563C2.84952 6.56724 2.81828 6.63001 2.79953 6.69278C2.46837 7.86035 2.13096 9.02792 1.79979 10.1955C1.64358 10.7479 1.83103 11.0931 2.37464 11.2501C4.60531 11.8966 6.84223 12.5369 9.0729 13.1772C9.52903 13.3216 9.99141 13.4534 10.4663 13.5852ZM14.509 16.9875C14.584 16.9938 14.6277 17.0063 14.6714 17.0063C16.9833 17.0063 19.2952 17.0063 21.6009 17.0063C21.7446 17.0063 21.7758 16.9435 21.8071 16.818C22.0883 15.5751 22.8568 14.803 24.0877 14.5017C24.2377 14.464 24.2752 14.4075 24.2752 14.2632C24.2689 13.0391 24.2689 11.815 24.2752 10.591C24.2752 10.4215 24.2127 10.3775 24.0565 10.3336C22.8506 10.0197 22.0883 9.26018 21.8133 8.03611C21.7758 7.86035 21.7009 7.83524 21.5447 7.83524C20.7199 7.84152 19.8888 7.8478 19.064 7.82896C18.8204 7.82269 18.7329 7.89801 18.6704 8.13027C18.0706 10.2771 17.4582 12.4239 16.8459 14.5645C16.5897 15.4621 15.8399 15.8764 14.9401 15.6253C14.7839 15.5814 14.6277 15.5437 14.4403 15.4935C14.4652 16.0145 14.484 16.4979 14.509 16.9875ZM3.05571 5.78886C7.85447 7.16985 12.6282 8.53829 17.4145 9.91929C17.6082 9.24135 17.7894 8.59479 17.9831 7.92312C13.1968 6.5484 8.41682 5.17368 3.62432 3.79269C3.43062 4.46435 3.24941 5.11091 3.05571 5.78886ZM3.82426 3.08963C8.62301 4.47063 13.3968 5.84535 18.183 7.22007C18.2518 6.98781 18.308 6.78694 18.3642 6.57979C18.5579 5.90812 18.3892 5.60054 17.7144 5.41222C15.1588 4.67778 12.6032 3.94334 10.0476 3.2089C8.37933 2.72555 6.70476 2.24848 5.03645 1.77141C4.54283 1.63331 4.19292 1.82791 4.04296 2.31753C3.97423 2.56235 3.90549 2.81344 3.82426 3.08963ZM10.7225 17C10.6787 16.1714 10.6287 15.3742 10.5913 14.577C10.585 14.4138 10.51 14.351 10.3601 14.3134C9.12913 13.9681 7.8982 13.6103 6.67352 13.2588C6.61104 13.24 6.54855 13.2337 6.47357 13.2211C6.47357 13.648 6.47357 14.0434 6.47357 14.4326C6.49232 14.4452 6.49857 14.4577 6.50482 14.4577C7.84822 14.7339 8.69175 15.5249 8.97917 16.887C8.99167 16.931 9.06665 16.9938 9.11664 17C9.63525 17 10.1414 17 10.7225 17ZM8.24811 16.9875C8.1044 16.071 7.26712 15.2424 6.47357 15.2236C6.47357 15.8074 6.47357 16.3911 6.47357 16.9875C7.07342 16.9875 7.65452 16.9875 8.24811 16.9875ZM24.2564 15.2299C23.4067 15.3303 22.5381 16.2279 22.5444 16.9938C23.113 16.9938 23.6753 16.9938 24.2564 16.9938C24.2564 16.3974 24.2564 15.8136 24.2564 15.2299ZM24.2564 9.61798C24.2564 9.0342 24.2564 8.45041 24.2564 7.86663C23.6691 7.86663 23.1005 7.86663 22.5256 7.86663C22.6881 8.76428 23.4254 9.51755 24.2564 9.61798Z" stroke="#C6B1B2" stroke-width="0.5" mask="url(#path-1-outside-1_234_899)"/>
<path d="M8.78543 10.6252L8.78547 10.6252V10.6222C8.78547 10.4679 8.73239 10.3503 8.63965 10.265C8.55287 10.1852 8.44069 10.1426 8.33931 10.113L8.33848 10.1128C7.86382 9.97789 7.38913 9.84141 6.91422 9.70487L6.91413 9.70485C6.43937 9.56835 5.96439 9.43179 5.48937 9.29679C5.31544 9.24686 5.14102 9.1961 4.96635 9.14527C4.61616 9.04336 4.26494 8.94115 3.91445 8.84473C3.77187 8.80347 3.63123 8.81003 3.51313 8.86881C3.39405 8.92808 3.30987 9.03467 3.27292 9.16912C3.2333 9.3019 3.24558 9.43319 3.31483 9.5454C3.38211 9.65442 3.49446 9.73153 3.63022 9.77883C3.63316 9.78004 3.63651 9.78147 3.64023 9.78305C3.66174 9.7922 3.69537 9.80652 3.73128 9.8145C4.21734 9.95535 4.70183 10.0946 5.18617 10.2339L5.1862 10.2339C5.67203 10.3736 6.15772 10.5132 6.64494 10.6544L6.64494 10.6544L6.64566 10.6546L8.10771 11.0689C8.10773 11.0689 8.10776 11.0689 8.10778 11.0689C8.27759 11.1171 8.44405 11.1025 8.57347 11.0205C8.70528 10.937 8.78142 10.7944 8.78543 10.6252Z" fill="#C6B1B2" stroke="#C6B1B2" stroke-width="0.25"/>
<path d="M22.1258 12.4573L22.1258 12.4572C22.1393 11.5738 21.4484 10.8494 20.5709 10.8426C19.6956 10.8358 18.9771 11.5444 18.9703 12.4229H18.9703V12.4239C18.9703 13.2893 19.6686 13.9978 20.5305 14.0115L20.5305 14.0115L20.5315 14.0115C21.3935 14.0183 22.1122 13.317 22.1258 12.4573ZM20.547 13.0208L20.547 13.0208H20.545C20.2043 13.0208 19.9472 12.7539 19.9576 12.4088L19.9576 12.407C19.9628 12.0792 20.2323 11.8156 20.5555 11.8207L20.5555 11.8207C20.8871 11.8259 21.1614 12.1084 21.1511 12.4388C21.1406 12.7617 20.8704 13.026 20.547 13.0208Z" fill="#C6B1B2" stroke="#C6B1B2" stroke-width="0.25"/>
</svg>
