<svg width="385" height="288" viewBox="0 0 385 288" fill="none" xmlns="http://www.w3.org/2000/svg">
<path opacity="0.1" d="M33.0707 125.973C49.6118 103.774 78.7915 89.179 85.8269 87.1644C131.365 74.07 175.863 43.1846 221.535 33.7804C267.208 24.3761 315.855 38.8456 354.526 108.115C375.255 145.304 372.325 179.079 349.61 196.839C264.776 263.31 173.478 275.988 85.4615 230.395C68.0812 221.407 50.7598 210.071 34.6127 190.08C14.8115 165.68 20.0435 143.519 33.0707 125.973Z" fill="#B5121B"/>
<path opacity="0.1" d="M30.5832 107.368C50.3462 87.986 81.3977 77.9867 88.6647 77.0464C135.67 71.011 184.37 47.2464 230.957 44.9318C277.544 42.6172 323.419 64.2523 351.11 138.584C365.965 178.496 357.887 211.426 332.733 225.495C238.65 278.261 146.484 276.952 66.4345 218.524C50.6261 206.966 35.1918 193.159 22.3224 170.952C6.47439 143.828 15.0184 122.689 30.5832 107.368Z" fill="#B5121B"/>
<g clip-path="url(#clip0_16_827)">
<path d="M254.4 214.954C254.4 214.954 257.7 227.854 256.5 243.454C256 249.554 235.6 417.354 235.6 417.354H207.9L215.7 259.654L213.4 260.154C213.4 260.154 198.3 327.454 197.1 338.354C196 348.154 183.3 419.254 183.3 419.254L158 419.554L166.1 325.454L175.5 235.154L179 208.854L254.4 214.954Z" fill="#263238"/>
<path d="M214.7 248.954C214.7 248.954 214.7 249.054 214.9 249.154C215 249.254 215.3 249.354 215.6 249.454C216.2 249.654 217.3 249.554 218.2 248.854C219.2 248.154 219.8 246.754 220 245.254C220.2 243.754 220.2 242.154 220.3 240.454C220.5 237.054 220.6 233.954 220.7 231.754C220.8 229.554 220.8 228.154 220.7 228.154C220.6 228.154 220.5 229.554 220.3 231.754C220.1 233.954 219.9 237.054 219.7 240.454C219.6 242.154 219.6 243.754 219.4 245.254C219.2 246.654 218.7 247.954 217.9 248.554C217.1 249.254 216.1 249.354 215.6 249.254C215 249.154 214.7 248.854 214.7 248.954Z" fill="#626262"/>
<path d="M174 232.654C174 232.654 174.3 232.754 174.8 232.954C175.3 233.054 176.1 233.254 177 233.354C178.9 233.554 181.6 233.354 184.3 232.254C187 231.154 189.1 229.454 190.3 227.954C190.9 227.254 191.4 226.654 191.6 226.154C191.9 225.654 192 225.454 192 225.454C191.9 225.354 191.3 226.354 190 227.754C188.7 229.054 186.7 230.754 184.1 231.754C181.5 232.854 178.9 233.054 177 232.954C175.2 232.854 174 232.554 174 232.654Z" fill="#626262"/>
<path d="M243.3 225.654C243.2 225.654 243.3 226.754 243.7 228.454C244.1 230.154 245 232.454 246.5 234.654C248 236.854 249.7 238.554 251.1 239.654C252.5 240.654 253.5 241.154 253.5 241.154C253.6 241.054 249.8 238.854 246.9 234.454C244.1 229.954 243.5 225.654 243.3 225.654Z" fill="#626262"/>
<path d="M327.8 178.154L334.1 180.154L345.6 173.854L352.2 192.054L336.5 195.754L324.6 194.454L327.8 178.154Z" fill="#AE7461"/>
<path d="M254 105.054C254 105.054 260.5 108.954 265.8 122.154C276.3 148.154 283 162.154 283 162.154L331.4 177.454L327.5 196.854C327.5 196.854 278.4 190.054 271.9 187.554C262.9 184.154 256.2 166.454 256.2 166.454L254 105.054Z" fill="white"/>
<path d="M240.7 46.8538C243.2 47.0538 245.7 45.0538 246.1 42.5538C246.5 40.0538 244.8 37.4537 242.4 36.7537C243.9 35.0538 244.1 32.4538 243 30.5538C241.9 28.6538 239.5 27.5538 237.3 28.0538C237.1 25.8538 235.7 23.8538 233.7 22.9538C231.7 22.0538 229.3 22.1538 227.4 23.3538C224.9 21.4538 221 21.5537 218.6 23.6537C216.5 23.3537 214.2 24.6538 213.3 26.5538C212.4 28.5538 212.9 31.0538 214.5 32.4538" fill="#263238"/>
<path d="M217.8 28.7537L218.9 28.6537C230.2 28.0537 240 36.2537 241.5 47.4537C242.9 57.8537 244.2 69.3537 244.4 74.9537C244.8 86.5537 233.3 88.9537 233.3 88.9537L235 102.854L206.8 103.354L201.8 52.8537C200.1 41.0537 205.7 30.0537 217.8 28.7537Z" fill="#AE7461"/>
<path d="M233.4 89.0538C233.4 89.0538 226 89.8538 218 85.3538C218 85.3538 222 93.5538 233.5 91.9538L233.4 89.0538Z" fill="#6F4439"/>
<path d="M237.3 58.2538C237.4 59.1538 236.7 59.9538 235.8 60.0538C234.9 60.1538 234.1 59.5538 234 58.6538C233.9 57.7538 234.6 56.9538 235.5 56.8538C236.4 56.7538 237.2 57.3538 237.3 58.2538Z" fill="#263238"/>
<path d="M239.3 53.3538C239.1 53.5538 237.8 52.7538 236 52.8538C234.2 52.9538 233 53.9538 232.7 53.6538C232.6 53.5538 232.8 53.1538 233.3 52.7538C233.8 52.3538 234.8 51.8538 235.9 51.8538C237 51.8538 238 52.1538 238.5 52.5538C239.2 52.8538 239.4 53.2538 239.3 53.3538Z" fill="#263238"/>
<path d="M221 58.6538C221.1 59.5538 220.4 60.3538 219.5 60.4538C218.6 60.5538 217.8 59.9538 217.7 59.0538C217.6 58.1538 218.3 57.3538 219.2 57.2538C220.1 57.1538 220.9 57.8538 221 58.6538Z" fill="#263238"/>
<path d="M221.7 54.5537C221.5 54.7537 220.2 53.9537 218.4 54.0537C216.6 54.1537 215.4 55.1537 215.1 54.8537C215 54.7537 215.2 54.3537 215.7 53.9537C216.2 53.5537 217.2 53.0537 218.3 53.0537C219.4 53.0537 220.4 53.3537 220.9 53.7537C221.6 54.0537 221.8 54.4537 221.7 54.5537Z" fill="#263238"/>
<path d="M228.9 67.4537C228.9 67.3537 230 67.1537 231.8 66.7537C232.3 66.6537 232.7 66.5537 232.7 66.2537C232.8 65.9537 232.6 65.4537 232.3 64.9537C231.8 63.8537 231.3 62.7537 230.8 61.5537C228.7 56.7537 227.1 52.7537 227.3 52.6537C227.5 52.5537 229.4 56.4537 231.5 61.2537C232 62.4537 232.5 63.5537 233 64.6537C233.2 65.1537 233.5 65.7537 233.3 66.4537C233.2 66.7537 232.9 67.0537 232.6 67.1537C232.3 67.2537 232.1 67.2537 231.8 67.2537C230 67.4537 228.9 67.5537 228.9 67.4537Z" fill="#263238"/>
<path d="M222.9 47.5537C222.7 48.0537 221.1 47.5537 219.2 47.6537C217.3 47.6537 215.7 48.0537 215.5 47.6537C215.4 47.4537 215.7 47.0537 216.4 46.6537C217.1 46.2537 218.1 45.9537 219.2 45.9537C220.3 45.9537 221.3 46.2537 222 46.6537C222.7 46.9537 223 47.3537 222.9 47.5537Z" fill="#263238"/>
<path d="M239 45.9537C238.6 46.3537 237.2 46.0537 235.4 46.0537C233.6 46.0537 232.1 46.4537 231.8 46.0537C231.6 45.8537 231.9 45.4537 232.5 45.0537C233.1 44.6537 234.2 44.2537 235.4 44.2537C236.6 44.2537 237.7 44.5537 238.3 44.9537C238.9 45.3537 239.1 45.7537 239 45.9537Z" fill="#263238"/>
<path d="M240.1 42.2537C240.1 42.2537 236.7 35.1537 233.1 33.6537C228.8 31.8537 227.2 36.5537 223.1 35.6537C219 34.7537 214.8 32.9537 210.9 36.2537C206.5 39.8537 208.8 42.1537 208.8 47.3537C208.7 68.2537 205.2 74.3537 203.6 64.6537C203.4 63.5537 200.4 62.8537 199.7 58.3537C198.8 52.4537 198.2 45.3537 199.4 41.0537C200.3 37.4537 202.2 34.9537 205.7 32.0537C211.2 27.5537 219 27.0537 224.4 27.3537C229.6 27.4537 240.1 33.1537 240.1 42.2537Z" fill="#263238"/>
<path d="M204.2 64.2537C204 62.4537 202.4 61.1537 200.6 61.3537C198.4 61.6537 196.1 63.0537 196.5 67.4537C197.1 75.3537 205 73.0537 205 72.8537C205 72.7537 204.5 67.5537 204.2 64.2537Z" fill="#AE7461"/>
<path d="M203 70.0537C203 70.0537 202.9 70.1537 202.6 70.2537C202.4 70.3537 202 70.4537 201.6 70.3537C200.7 70.1537 199.9 68.8537 199.8 67.4537C199.7 66.7537 199.8 66.0537 200 65.4537C200.2 64.8537 200.5 64.4537 201 64.3537C201.4 64.2537 201.7 64.4537 201.8 64.6537C201.9 64.8537 201.9 65.0537 201.9 65.0537C201.9 65.0537 202.1 64.9537 202 64.5537C202 64.3537 201.8 64.2537 201.6 64.0537C201.4 63.9537 201.1 63.8537 200.8 63.9537C200.2 64.0537 199.7 64.6537 199.5 65.2537C199.2 65.9537 199.1 66.6537 199.2 67.4537C199.4 69.0537 200.3 70.4537 201.5 70.7537C202.1 70.8537 202.5 70.6537 202.7 70.4537C203 70.2537 203 70.0537 203 70.0537Z" fill="#6F4439"/>
<path d="M203.6 48.8537C204.7 49.5537 205.8 50.1537 207 50.2537C208.2 50.3538 209.6 49.5537 209.8 48.2537C209.9 47.6537 209.7 47.0537 210 46.6537C210.4 46.1537 211.2 46.2537 211.9 46.2537C214.2 46.3538 216.8 43.6537 217.3 41.4537C217.9 42.3537 219.2 42.5537 220.1 41.8537C221 41.2537 221.3 40.8538 221.9 40.0538C222.6 39.2537 223.5 38.4537 224.6 38.5538C225.2 38.6538 225.8 38.9537 226.3 38.8537C227.3 38.7537 227.8 37.4537 227.9 36.4537C228 35.4537 228.1 34.1538 228.9 33.5538C229.7 32.9537 230.8 33.2537 231.7 33.3537C232.7 33.4537 233.9 33.1537 234.1 32.2537C234.2 31.7537 234 31.2537 233.7 30.8537C232.4 28.9537 229.6 28.2537 227.5 29.2537C226.6 26.6537 224 24.7537 221.3 24.5537C218.6 24.3537 215.8 26.0537 214.6 28.4537C212.8 27.0537 210.4 26.4537 208.2 27.1537C206 27.7537 204.2 29.4537 203.4 31.6537C201.4 31.2537 199.3 32.0537 198.1 33.7537C197 35.3537 196.9 37.7537 198 39.4537C196.6 40.3537 195.5 41.8537 195.5 43.4537C195.6 45.0537 197.2 46.6537 198.8 46.1537C198.2 47.4537 198.8 49.1537 200.1 49.8537C201.4 50.5537 203.1 49.9538 203.8 48.7537" fill="#263238"/>
<path d="M228.3 31.4537C228.3 31.4537 228.3 31.4537 228.3 31.5537C228.3 31.6537 228.3 31.7537 228.3 31.9537C228.2 32.3537 228.1 32.8537 227.8 33.5537C227.5 34.1537 227 34.9537 226.1 35.5537C225.3 36.1537 224.2 36.6537 222.9 36.6537L223 36.4537C223.3 37.1537 223.3 37.9537 222.9 38.6537C222.6 39.3537 222.1 40.0537 221.6 40.6537C221.3 40.9537 221.1 41.3537 220.8 41.6537C220.4 41.9537 220 42.1537 219.6 42.1537C218.7 42.3537 217.7 42.0537 217 41.3537L217.3 41.2537C217.2 42.8537 216.4 44.4537 215 45.4537C214.3 46.0537 213.4 46.4537 212.4 46.4537C211.5 46.4537 210.6 46.2537 209.8 46.0537L210 45.9537C209.6 46.9537 209 47.8537 208.2 48.4537C207.4 49.1537 206.4 49.5537 205.5 49.3537C203.6 49.0537 202.3 47.5537 202 46.0537L202.2 46.1537C201.3 46.7537 200.3 46.8537 199.5 46.6537C198.7 46.5537 198 46.2537 197.6 45.8537C197.1 45.5537 196.8 45.1537 196.7 44.9537C196.5 44.6537 196.5 44.5537 196.5 44.5537C196.5 44.5537 196.8 45.1537 197.7 45.7537C198.2 46.0537 198.8 46.3537 199.6 46.4537C200.4 46.5537 201.3 46.4537 202.2 45.8537L202.3 45.7537V45.9537C202.6 47.3537 203.9 48.7537 205.6 48.9537C206.5 49.1537 207.4 48.7537 208.1 48.1537C208.8 47.5537 209.4 46.6537 209.8 45.7537L209.9 45.5537H210.1C210.9 45.7537 211.7 46.0537 212.6 45.9537C213.5 45.9537 214.3 45.5537 215 45.0537C216.3 44.0537 217.1 42.5537 217.2 41.0537V40.6537L217.5 40.9537C218.1 41.5537 219 41.7537 219.8 41.6537C220.2 41.5537 220.6 41.4537 220.9 41.1537C221.2 40.9537 221.4 40.5537 221.7 40.2537C222.2 39.6537 222.7 38.9537 222.9 38.3537C223.2 37.6537 223.2 36.9537 223 36.3537L222.9 36.1537H223.1C224.3 36.1537 225.4 35.7537 226.2 35.1537C227 34.5537 227.5 33.8537 227.9 33.2537C228.3 32.2537 228.2 31.4537 228.3 31.4537Z" fill="#626262"/>
<path d="M228.8 73.5538C228.7 73.2538 226.8 73.7538 225 72.4538C223.2 71.1538 222.9 69.0538 222.6 69.1538C222.5 69.1538 222.3 69.7538 222.6 70.5538C222.8 71.4538 223.4 72.5538 224.5 73.3538C225.6 74.1538 226.8 74.2538 227.7 74.1538C228.4 74.0538 228.8 73.6538 228.8 73.5538Z" fill="#263238"/>
<path d="M275.9 146.954C275.7 146.354 265.4 118.154 262.1 112.054C258.2 104.654 249.9 101.454 244.7 101.154C239.6 100.854 184.4 105.254 184.4 105.254C184.4 105.254 167.9 108.954 165.8 123.054C163.4 139.354 161.3 176.654 161.3 176.654L186.4 163.754L189.6 155.554L241.5 167.154L254.2 148.454L275.9 146.954Z" fill="white"/>
<path d="M180.8 106.754L202.3 97.2537L204.7 87.9537L229.9 99.8537L235.2 94.0537L237.4 100.654L242.9 102.454L255.8 125.054V173.254L258.4 214.854L255.6 221.454L232.5 224.854C230 225.254 227.4 225.254 224.9 224.854L178.1 217.254L176.9 203.554L181.9 165.654L180.8 106.754Z" fill="white"/>
<path d="M204.8 88.0537C204.8 88.0537 207.6 88.8537 214.8 92.7537C221.8 96.4537 229.9 99.8537 229.9 99.8537L229.3 111.154L202.5 97.8537" fill="white"/>
<path d="M235.1 94.0537L229.9 99.8537L232.7 112.054L237.4 101.054" fill="white"/>
<g opacity="0.3">
<path d="M230 101.154C230.2 101.354 231.7 115.154 231.7 115.154L204.9 98.9537L229.3 111.154L230 101.154Z" fill="#170203"/>
</g>
<path d="M229.799 152.854C229.399 142.254 231.099 115.254 231.099 115.254L234.599 114.654C234.599 114.654 241.099 140.954 243.599 173.154C244.599 186.154 244.599 201.254 244.599 201.254L237.599 216.354L229.799 201.354C229.699 201.454 230.299 165.754 229.799 152.854Z" fill="#626262"/>
<path d="M179.199 108.454C179.199 108.554 179.899 109.054 180.999 110.254C182.099 111.354 183.399 113.054 184.599 115.154C185.699 117.254 186.399 119.354 186.699 120.854C186.999 122.354 187.099 123.354 187.199 123.354C187.199 123.354 187.199 123.154 187.199 122.654C187.199 122.254 187.099 121.554 186.999 120.754C186.699 119.154 186.099 117.054 184.999 114.954C183.899 112.854 182.399 111.154 181.299 110.054C180.699 109.554 180.199 109.054 179.899 108.854C179.399 108.554 179.199 108.454 179.199 108.454Z" fill="#263238"/>
<path d="M229.8 105.354L232.2 104.354L234.5 108.254L234.9 114.654L231.7 115.154L229.3 111.254L229.8 105.354Z" fill="#626262"/>
<path d="M255.699 124.354C255.599 124.354 255.5 138.154 255.5 155.254C255.5 172.354 255.599 186.154 255.699 186.154C255.799 186.154 255.9 172.354 255.9 155.254C255.9 138.154 255.799 124.354 255.699 124.354Z" fill="#263238"/>
<path d="M229.6 99.7537C229.6 99.7537 230.1 100.654 231 102.054C231.8 103.454 233 105.454 234 107.754C234.1 107.954 234.2 108.154 234.3 108.254L234.5 108.654L234.7 108.254C235.7 106.054 236.5 104.054 236.9 102.554C237.1 101.854 237.3 101.254 237.4 100.754C237.5 100.354 237.5 100.054 237.5 100.054C237.4 100.054 237.2 100.954 236.6 102.354C236.1 103.754 235.3 105.754 234.3 107.954H234.6C234.5 107.754 234.4 107.554 234.3 107.354C233.2 105.054 232.1 103.054 231.1 101.654C230.6 100.954 230.3 100.454 230 100.054C229.8 99.9537 229.6 99.7537 229.6 99.7537Z" fill="#263238"/>
<path d="M202.3 97.2537C202.3 97.2537 202.4 97.3537 202.7 97.4537C203 97.5537 203.3 97.7537 203.8 98.0537C204.8 98.5537 206.1 99.2537 207.8 100.154C211.2 101.954 215.8 104.354 220.9 107.154C224 108.854 227 110.354 229.5 111.654L229.7 111.754V111.454C229.7 108.154 229.8 105.354 229.8 103.254C229.8 102.254 229.8 101.554 229.8 100.954C229.8 100.454 229.8 100.154 229.8 100.154C229.8 100.154 229.8 100.454 229.7 100.954C229.7 101.554 229.6 102.254 229.6 103.254C229.5 105.254 229.5 108.054 229.4 111.454L229.6 111.354C227 110.054 224.1 108.454 221 106.854C215.9 104.154 211.2 101.654 207.8 99.9537C206.1 99.1537 204.7 98.4537 203.7 97.9537C203.2 97.7537 202.9 97.5537 202.6 97.4537C202.5 97.3537 202.3 97.2537 202.3 97.2537Z" fill="#263238"/>
<path d="M252.4 106.054C252.3 106.054 252.8 106.754 253.3 108.054C253.8 109.254 254.5 110.954 254.8 112.954C255.2 114.954 255.2 116.754 255.1 118.154C255 119.454 254.9 120.254 254.9 120.354C254.9 120.354 255 120.154 255.1 119.754C255.2 119.354 255.3 118.854 255.3 118.154C255.4 116.854 255.5 114.954 255.1 112.954C254.7 110.954 254 109.154 253.4 107.954C253.1 107.354 252.8 106.854 252.6 106.554C252.6 106.154 252.5 106.054 252.4 106.054Z" fill="#263238"/>
<path d="M232.3 115.554C232.4 115.654 233 115.354 233.7 114.954C234.4 114.554 234.9 114.054 234.9 113.954C234.8 113.854 234.2 114.154 233.5 114.554C232.7 115.054 232.2 115.554 232.3 115.554Z" fill="#263238"/>
<path d="M231.1 114.054C231.2 114.054 231.9 112.654 232.7 110.854C233.5 109.054 234.1 107.554 234 107.454C233.9 107.454 233.2 108.854 232.4 110.654C231.6 112.454 231 113.954 231.1 114.054Z" fill="#263238"/>
<path d="M176.4 109.154C176.4 109.154 168.1 115.154 167.1 118.454C166.1 121.754 161.7 175.354 160.9 181.754C160.1 188.154 159.3 200.054 164.3 203.954C169.2 207.854 179.9 210.754 179.9 210.754L189.7 190.454L184.5 179.554L189.7 138.854L176.4 109.154Z" fill="white"/>
<path d="M177.4 209.954C177.4 209.954 177.6 209.954 177.9 209.954C178.2 209.954 178.8 209.954 179.4 209.854C180.7 209.654 182.7 209.354 184.7 207.954C186.7 206.554 188.6 204.154 189.8 201.054C191 197.954 191.7 194.154 191.7 190.154V190.254C189.3 186.954 186.8 183.454 184.1 179.754L184 179.654V179.554C184 179.254 184.1 178.954 184.1 178.654C185.6 167.254 186.9 156.954 187.9 149.354C188.4 145.654 188.8 142.654 189.1 140.454C189.2 139.454 189.3 138.654 189.4 138.054C189.5 137.554 189.5 137.254 189.5 137.254C189.5 137.254 189.5 137.354 189.5 137.454C189.5 137.554 189.5 137.854 189.5 138.054C189.4 138.654 189.4 139.454 189.3 140.454C189.1 142.554 188.8 145.554 188.3 149.354C187.4 156.854 186.1 167.254 184.7 178.654C184.7 178.954 184.6 179.254 184.6 179.554V179.354C187.3 183.054 189.8 186.654 192.2 189.954V190.054V190.154C192.1 194.254 191.4 198.054 190.2 201.254C189 204.454 187 206.954 184.9 208.254C183.9 208.954 182.8 209.354 181.9 209.654C181.7 209.754 181.4 209.754 181.2 209.854C181 209.854 180.8 209.954 180.6 209.954C180.2 210.054 179.8 210.054 179.5 210.054C178.8 210.154 178.3 210.054 178 210.054C177.6 210.054 177.4 209.954 177.4 209.954Z" fill="#263238"/>
<path d="M167.4 183.254C167.4 183.254 168.1 182.554 169.6 181.754C171 180.954 173.2 180.054 175.7 179.554C178.2 179.054 180.5 179.154 182.2 179.354C183.8 179.554 184.8 179.954 184.8 179.954C184.8 180.154 180.8 179.054 175.8 180.054C170.8 180.954 167.5 183.454 167.4 183.254Z" fill="#263238"/>
<path d="M232.5 129.954C232.5 129.954 233 131.754 233.7 134.854C235.4 132.454 237.6 130.354 240.1 128.754C240.1 128.754 252.9 116.054 257 102.654C260 92.9538 259.2 82.1538 259.2 82.1538C259.1 81.6538 258.1 77.0537 257.3 73.3537C256.6 70.2537 258.5 67.2537 261.5 66.4537C267.9 64.7537 285.1 61.3537 289 72.9537C294.9 90.1537 285.4 108.854 285.5 114.154C285.5 115.154 285.5 115.954 285.5 116.654C290.5 115.454 294.5 114.654 294.5 114.754L327.6 107.054C327.6 107.054 338.6 103.754 342.3 114.954C346.1 126.154 333.3 129.954 333.3 129.954C333.3 129.954 339.3 129.654 340.9 139.854C342.5 150.054 331.6 153.354 331.6 153.354C331.6 153.354 338.3 152.954 340 161.954C341.7 170.754 330.7 176.054 330.2 176.354C331.8 176.054 332.8 175.854 332.8 175.854C332.8 175.854 332.1 176.154 330.8 176.454C335.9 177.154 336.6 183.154 336.6 183.154C339.9 195.654 330.3 198.254 330.3 198.254L269.9 212.454C263.8 213.854 257.5 213.654 251.7 211.754C252.3 214.354 252.6 215.754 252.6 215.754L210.3 225.654C210.2 225.654 205.6 206.454 200.1 182.754C194.6 159.054 190.1 139.754 190.2 139.754L232.5 129.954Z" fill="#B5121B"/>
<g opacity="0.3">
<path d="M232.5 129.954C232.5 129.954 233 131.754 233.7 134.854C235.4 132.454 237.6 130.354 240.1 128.754C240.1 128.754 252.9 116.054 257 102.654C260 92.9538 259.2 82.1538 259.2 82.1538C259.1 81.6538 258.1 77.0537 257.3 73.3537C256.6 70.2537 258.5 67.2537 261.5 66.4537C267.9 64.7537 285.1 61.3537 289 72.9537C294.9 90.1537 285.4 108.854 285.5 114.154C285.5 115.154 285.5 115.954 285.5 116.654C290.5 115.454 294.5 114.654 294.5 114.754L327.6 107.054C327.6 107.054 338.6 103.754 342.3 114.954C346.1 126.154 333.3 129.954 333.3 129.954C333.3 129.954 339.3 129.654 340.9 139.854C342.5 150.054 331.6 153.354 331.6 153.354C331.6 153.354 338.3 152.954 340 161.954C341.7 170.754 330.7 176.054 330.2 176.354C331.8 176.054 332.8 175.854 332.8 175.854C332.8 175.854 332.1 176.154 330.8 176.454C335.9 177.154 336.6 183.154 336.6 183.154C339.9 195.654 330.3 198.254 330.3 198.254L269.9 212.454C263.8 213.854 257.5 213.654 251.7 211.754C252.3 214.354 252.6 215.754 252.6 215.754L210.3 225.654C210.2 225.654 205.6 206.454 200.1 182.754C194.6 159.054 190.1 139.754 190.2 139.754L232.5 129.954Z" fill="#170203"/>
</g>
<path d="M240.6 141.954L239.8 147.454L253.3 205.354C261.3 210.654 271.1 212.454 280.5 210.254L341 196.154C341 196.154 350.6 193.554 347.3 181.054C347.3 181.054 346.5 174.454 340.8 174.254C340.8 174.254 352.4 168.854 350.7 159.854C349 150.854 342.3 151.254 342.3 151.254C342.3 151.254 353.3 147.954 351.6 137.754C349.9 127.554 344 127.854 344 127.854C344 127.854 356.7 124.154 353 112.854C349.2 101.654 338.3 104.954 338.3 104.954L295.3 114.954L257.6 123.754C248.7 125.754 242 132.954 240.6 141.954Z" fill="#B5121B"/>
<path d="M250.7 126.554C250.7 126.554 263.5 113.854 267.6 100.454C270.6 90.7537 269.8 79.9537 269.8 79.9537C269.7 79.4537 268.7 74.8537 267.9 71.1537C267.2 68.0537 269.1 65.0537 272.1 64.2537C278.5 62.5537 289.9 65.6537 293.9 77.2537C299.8 94.4537 296 106.654 296.1 111.954C296.2 117.254 296.2 117.254 296.2 117.254L250.7 126.554Z" fill="#B5121B"/>
<path d="M243.112 127.777L200.849 137.646L220.906 223.535L263.169 213.666L243.112 127.777Z" fill="#B5121B"/>
<path d="M263.1 213.554C263.2 213.554 258.8 194.254 253.2 170.554C247.7 146.854 243.1 127.654 243 127.654C242.9 127.654 247.3 146.954 252.9 170.654C258.5 194.454 263.1 213.654 263.1 213.554Z" fill="#263238"/>
<path d="M220.9 223.454C221 223.454 216.6 204.154 211 180.454C205.5 156.754 200.9 137.554 200.8 137.554C200.7 137.554 205.1 156.854 210.7 180.554C216.2 204.254 220.8 223.454 220.9 223.454Z" fill="#263238"/>
<path d="M232.8 150.854C233.8 155.254 231.1 159.554 226.7 160.654C222.3 161.654 218 158.954 216.9 154.554C215.9 150.154 218.6 145.854 223 144.754C227.4 143.754 231.7 146.554 232.8 150.854Z" fill="white"/>
<path d="M305.1 112.554C305.1 112.454 300.5 113.454 294.8 114.754C289.1 116.054 284.5 117.254 284.5 117.354C284.5 117.454 289.1 116.454 294.8 115.154C300.5 113.854 305.1 112.654 305.1 112.554Z" fill="#263238"/>
<path d="M343.2 151.354C343.2 151.254 340.2 151.854 336.6 152.754C333 153.554 330 154.354 330.1 154.454C330.1 154.554 333.1 153.954 336.7 153.054C340.3 152.254 343.2 151.454 343.2 151.354Z" fill="#263238"/>
<path d="M344.8 127.354C344.8 127.254 340.6 128.154 335.4 129.354C330.2 130.554 326.1 131.654 326.1 131.654C326.1 131.754 330.3 130.854 335.5 129.654C340.6 128.454 344.8 127.354 344.8 127.354Z" fill="#263238"/>
<path d="M343.5 173.654C343.5 173.554 339.3 174.454 334.1 175.654C328.9 176.854 324.8 177.954 324.8 177.954C324.8 178.054 329 177.154 334.2 175.954C339.4 174.854 343.5 173.754 343.5 173.654Z" fill="#263238"/>
<g opacity="0.3">
<path d="M272.5 68.5537C271.2 69.7537 271 71.8537 271.5 73.5537C272 75.2537 273 76.7537 273.8 78.4537C275.5 82.0537 276 86.1537 275.2 90.0537C274.9 91.2537 274.6 92.6537 275.4 93.5537C276.5 94.8537 278.7 94.1537 280 93.0537C285.2 89.0537 287.6 81.9537 286.1 75.5537C285.4 72.8537 284 70.3537 281.8 68.6537C279.6 67.1537 276.2 65.6537 272.5 68.5537Z" fill="white"/>
</g>
<g opacity="0.3">
<path d="M342.2 106.354C340.7 106.054 339.2 106.454 337.7 106.854C329.2 109.054 320.7 111.154 312.2 113.354C309.4 114.054 304.2 114.654 304.1 117.554C303.5 119.154 304.7 120.854 306.2 121.454C307.7 122.054 309.5 121.854 311.1 121.654C314.5 121.154 317.9 120.354 321.3 119.554C328.1 117.954 334.8 116.254 341.3 113.654C342.3 113.254 343.2 112.854 344 112.154C344.8 111.454 345.3 110.454 345.3 109.454C345.1 107.754 343.7 106.654 342.2 106.354Z" fill="white"/>
</g>
<path d="M233.7 132.454C233.7 132.354 227.8 133.654 220.5 135.354C213.2 137.054 207.3 138.554 207.3 138.554C207.3 138.654 213.2 137.354 220.5 135.654C227.8 134.054 233.7 132.554 233.7 132.454Z" fill="white"/>
<path d="M347.7 142.254C347.7 142.254 347.8 142.054 347.9 141.754C348 141.454 348.1 140.954 348.1 140.354C348.2 139.754 348.1 139.054 348 138.254C347.9 137.454 347.7 136.554 347.3 135.754C346.9 134.854 346.5 134.154 346 133.454C345.5 132.754 345 132.254 344.6 131.854C344.1 131.454 343.8 131.154 343.5 130.954C343.2 130.754 343 130.654 343 130.754C343 130.854 343.6 131.254 344.4 132.054C344.8 132.454 345.3 133.054 345.7 133.654C346.1 134.354 346.6 135.054 346.9 135.854C347.2 136.654 347.4 137.554 347.6 138.254C347.7 139.054 347.8 139.754 347.7 140.354C347.8 141.454 347.7 142.254 347.7 142.254Z" fill="white"/>
<path d="M348.9 119.054C348.9 119.054 349.3 118.654 349.7 117.954C350.1 117.154 350.4 115.954 350.3 114.654C350.2 113.354 349.7 112.154 349.3 111.454C348.8 110.754 348.4 110.454 348.4 110.454C348.4 110.454 348.7 110.854 349.1 111.554C349.5 112.254 349.9 113.354 350 114.654C350.1 115.954 349.8 117.054 349.5 117.854C349.2 118.554 348.8 118.954 348.9 119.054Z" fill="white"/>
<path d="M345.7 167.254C345.7 167.254 346.3 166.954 346.8 166.154C347.4 165.354 347.9 164.054 347.9 162.454C347.8 160.954 347.1 159.654 346.4 158.954C345.7 158.254 345.1 157.954 345.1 157.954C345.1 157.954 345.6 158.354 346.2 159.054C346.8 159.754 347.5 161.054 347.5 162.454C347.6 163.954 347.1 165.154 346.6 165.954C346.1 166.754 345.7 167.154 345.7 167.254Z" fill="white"/>
<path d="M341.9 189.654C341.9 189.654 342.3 189.254 342.7 188.454C343.1 187.654 343.4 186.454 343.3 185.054C343.2 183.654 342.8 182.454 342.4 181.754C342 180.954 341.6 180.554 341.5 180.654C341.5 180.654 341.8 181.154 342.2 181.854C342.6 182.654 342.9 183.754 343 185.054C343.1 186.354 342.8 187.554 342.5 188.354C342.1 189.154 341.8 189.554 341.9 189.654Z" fill="white"/>
<path d="M294.3 97.5537C294.3 97.5537 294.4 97.2537 294.6 96.5537C294.7 96.2537 294.8 95.8537 294.8 95.3537C294.9 94.8537 295 94.3537 295 93.7537C295.1 92.5537 295.2 91.2537 295.2 89.6537C295.1 88.1537 295 86.4537 294.6 84.6537C294.3 82.9537 293.8 81.2537 293.3 79.8537C292.8 78.4537 292.2 77.1537 291.6 76.1537C291.3 75.6537 291.1 75.1537 290.8 74.7537C290.6 74.3537 290.3 74.0537 290.2 73.7537C289.8 73.2537 289.6 72.9537 289.6 72.9537C289.6 72.9537 289.8 73.2537 290.1 73.8537C290.3 74.1537 290.5 74.4537 290.7 74.8537C290.9 75.2537 291.2 75.7537 291.4 76.2537C291.9 77.2537 292.5 78.5537 293 79.9537C293.5 81.3537 294 83.0537 294.3 84.7537C294.6 86.4537 294.8 88.1537 294.9 89.6537C295 91.1537 294.9 92.5537 294.8 93.7537C294.8 94.3537 294.7 94.8537 294.6 95.3537C294.6 95.8537 294.5 96.1537 294.4 96.5537C294.4 97.2537 294.3 97.5537 294.3 97.5537Z" fill="white"/>
<path d="M197.8 198.854C197.8 198.854 201.1 196.254 203.6 196.154C206.1 196.054 209.3 197.054 209.9 196.654C210.5 196.354 212 194.954 213 196.154C214 197.354 215.1 201.654 210 202.854H206.5C206.5 202.854 206.9 206.354 207.8 207.754C208.7 209.154 220.7 224.254 220.7 224.254C220.7 224.254 222.2 225.754 221.5 227.254C220.7 228.754 217.5 227.854 217.5 227.854C217.5 227.854 215.2 229.854 212.7 228.954C210.1 227.954 209.1 227.254 209.1 227.254C209.1 227.254 206.3 229.554 203.3 227.254C200.3 224.954 190.3 212.454 190.3 212.454L193.9 198.454L197.8 198.854Z" fill="#AE7461"/>
<path d="M187.4 190.554L197.8 198.854L190.1 212.454L174.8 206.954C174.9 206.954 175.4 190.854 187.4 190.554Z" fill="#AE7461"/>
<path d="M350 172.054C350 172.054 349.7 168.354 347.6 169.054C345.5 169.854 344.6 174.254 344.6 174.254L350 172.054Z" fill="#AE7461"/>
<path d="M342.5 175.754C342.5 175.754 346.1 171.654 351.2 172.054C356.2 172.354 353.1 176.654 353.1 176.654C353.1 176.654 356.8 178.954 354.1 182.254L353.7 183.154C353.7 183.154 356.9 184.354 353.6 187.754C353.6 187.754 354.8 189.954 353.2 191.554C351.6 193.154 347.4 191.054 347.4 191.054C347.4 191.054 343.6 191.954 343.3 190.354C343 188.854 343.8 187.754 344.2 187.454C344.5 187.254 346.5 186.454 346.5 186.454C346.5 186.454 342.1 186.954 342 185.954C341.9 184.854 341.5 183.654 344.7 182.554L346.5 182.054C346.5 182.054 341.9 182.154 341.9 181.054C341.9 179.954 341.7 179.554 343.3 178.754C344.9 177.954 346.3 177.154 346.3 177.154C346.3 177.154 341.8 178.054 342.5 175.754Z" fill="#AE7461"/>
<path d="M341.7 180.054C341.8 180.154 343.8 178.154 347.1 177.254C350.4 176.254 353.2 176.954 353.2 176.754C353.2 176.754 352.5 176.454 351.4 176.354C350.3 176.254 348.7 176.354 347 176.754C345.3 177.254 343.9 178.054 343 178.654C342.1 179.454 341.6 179.954 341.7 180.054Z" fill="#6F4439"/>
<path d="M342.2 186.254C342.2 186.254 342.1 186.154 342 185.854C341.9 185.654 341.9 185.154 342 184.754C342.2 184.254 342.4 183.754 343 183.354C343.5 182.954 344.2 182.654 345 182.554C348.1 181.854 350.8 181.954 350.8 181.854C350.8 181.754 350.2 181.654 349.1 181.654C348 181.654 346.6 181.754 345 182.054C344.2 182.254 343.4 182.554 342.9 182.954C342.3 183.354 342 184.054 341.8 184.554C341.7 185.054 341.8 185.554 341.9 185.854C342 186.254 342.2 186.354 342.2 186.254Z" fill="#6F4439"/>
<path d="M344 191.154C344 191.154 343.8 191.054 343.6 190.854C343.4 190.654 343.1 190.254 343.1 189.754C343 189.254 343.2 188.554 343.7 188.154C344.2 187.754 345.1 187.454 345.9 187.154C347.5 186.654 349.2 186.954 350.3 186.954C351.5 186.954 352.2 186.954 352.2 186.854C352.2 186.754 351.5 186.754 350.3 186.654C349.2 186.554 347.5 186.254 345.8 186.754C344.9 187.054 344.2 187.354 343.5 187.854C343.2 188.154 343 188.454 342.9 188.854C342.8 189.254 342.8 189.554 342.9 189.854C343 190.454 343.4 190.854 343.7 191.054C343.8 191.154 344 191.154 344 191.154Z" fill="#6F4439"/>
<path d="M342.4 175.954C342.4 175.954 342.5 175.854 342.7 175.654C342.9 175.454 343.3 175.154 343.7 174.854C344.6 174.254 345.9 173.354 347.4 172.854C349 172.354 350.5 172.054 351.5 172.254C352.6 172.454 353.1 172.854 353.2 172.754C353.2 172.754 352.7 172.254 351.6 171.954C350.5 171.654 348.9 171.954 347.3 172.454C344.1 173.554 342.2 175.754 342.4 175.954Z" fill="#6F4439"/>
<path d="M163.151 92.9872L164.251 94.2872L170.351 111.587C169.151 114.287 166.851 116.387 164.151 117.387L146.051 123.787C146.051 123.787 143.151 124.687 141.951 120.887C141.951 120.887 141.051 118.987 142.551 118.087C142.551 118.087 138.651 118.587 137.551 115.987C136.451 113.387 138.351 112.387 138.351 112.387C138.351 112.387 134.951 113.387 133.651 110.387C132.351 107.487 133.951 106.587 133.951 106.587C133.951 106.587 130.051 107.787 129.151 104.187C128.251 100.687 131.651 99.6872 131.651 99.6872L144.451 95.0872L155.751 91.0872C158.451 90.0872 161.351 90.8872 163.151 92.9872Z" fill="#EBEBEB"/>
<path d="M158.051 90.6872C158.051 90.6872 152.651 89.4872 149.351 86.6872C146.951 84.6872 145.351 81.7872 145.351 81.7872C145.251 81.5872 144.751 80.2872 144.351 79.1872C144.051 78.2872 143.051 77.7872 142.151 78.0872C140.251 78.6872 137.751 81.3872 138.651 85.0872C139.951 90.5872 142.951 93.0872 143.851 94.4872C144.751 95.8872 144.751 95.8872 144.751 95.8872L158.051 90.6872Z" fill="#EBEBEB"/>
<path d="M169.249 115.328L181.878 110.851L172.791 85.2154L160.161 89.6923L169.249 115.328Z" fill="#EBEBEB"/>
<path d="M169.251 115.287C169.251 115.287 167.151 109.587 164.651 102.487C162.151 95.3872 160.151 89.6873 160.151 89.6873C160.151 89.6873 162.251 95.3872 164.751 102.487C167.251 109.587 169.251 115.287 169.251 115.287Z" fill="white"/>
<path d="M181.851 110.887C181.851 110.887 179.751 105.187 177.251 98.0872C174.751 90.9872 172.751 85.2872 172.751 85.2872C172.751 85.2872 174.851 90.9872 177.351 98.0872C179.851 105.087 181.951 110.787 181.851 110.887Z" fill="white"/>
<path d="M166.752 93.9872C167.252 95.2872 168.651 95.9872 169.951 95.4872C171.251 94.9872 171.951 93.5872 171.451 92.2872C170.951 90.9872 169.552 90.2872 168.252 90.7872C166.952 91.2872 166.252 92.6872 166.752 93.9872Z" fill="white"/>
<path d="M141.551 96.0872C141.551 96.0872 142.951 95.5872 144.651 94.9872C146.351 94.3872 147.751 93.8872 147.751 93.9872C147.751 94.0872 146.351 94.4872 144.651 95.0872C142.951 95.5872 141.551 96.0872 141.551 96.0872Z" fill="white"/>
<path d="M138.151 112.487C138.151 112.487 139.051 112.087 140.051 111.787C141.151 111.387 142.051 111.087 142.051 111.187C142.051 111.187 141.151 111.587 140.151 111.887C139.051 112.187 138.151 112.487 138.151 112.487Z" fill="white"/>
<path d="M133.751 106.487C133.751 106.487 134.951 105.987 136.551 105.487C138.051 104.987 139.351 104.487 139.351 104.587C139.351 104.587 138.151 105.087 136.551 105.587C134.951 106.087 133.751 106.487 133.751 106.487Z" fill="white"/>
<path d="M141.751 118.287C141.751 118.287 142.951 117.787 144.551 117.287C146.051 116.787 147.351 116.287 147.351 116.387C147.351 116.387 146.151 116.887 144.551 117.387C143.051 117.887 141.751 118.387 141.751 118.287Z" fill="white"/>
<path d="M163.451 89.3872C163.451 89.3872 165.151 88.6872 167.351 87.9872C169.551 87.1872 171.251 86.5872 171.351 86.6872C171.351 86.6872 169.651 87.3872 167.451 88.0872C165.151 88.7872 163.451 89.3872 163.451 89.3872Z" fill="white"/>
<path d="M135.451 110.887C135.451 110.887 135.451 110.887 135.351 110.787C135.251 110.687 135.151 110.587 135.051 110.487C134.951 110.387 134.851 110.187 134.751 109.887C134.651 109.687 134.551 109.387 134.551 109.087C134.451 108.787 134.451 108.487 134.451 108.287C134.451 108.087 134.551 107.787 134.551 107.587C134.551 107.387 134.651 107.287 134.651 107.187C134.651 107.087 134.751 107.087 134.751 107.087C134.751 107.087 134.651 107.287 134.551 107.687C134.551 107.887 134.451 108.087 134.451 108.287C134.451 108.487 134.451 108.787 134.551 109.087C134.651 109.387 134.651 109.587 134.751 109.787C134.851 109.987 134.951 110.187 135.051 110.387C135.251 110.687 135.451 110.887 135.451 110.887Z" fill="white"/>
<path d="M131.251 104.987C131.251 104.987 131.051 104.987 130.851 104.787C130.651 104.687 130.351 104.387 130.151 103.987C129.951 103.587 129.851 103.287 129.851 102.987C129.851 102.687 129.951 102.587 129.951 102.587C129.951 102.587 129.951 102.787 129.951 102.987C129.951 103.287 130.051 103.587 130.251 103.987C130.451 104.287 130.651 104.587 130.951 104.687C131.151 104.987 131.251 104.987 131.251 104.987Z" fill="white"/>
<path d="M140.151 116.987C140.151 116.987 139.951 116.987 139.651 116.887C139.351 116.787 138.951 116.487 138.751 116.087C138.551 115.687 138.451 115.187 138.551 114.887C138.651 114.587 138.751 114.387 138.751 114.387C138.751 114.387 138.651 114.587 138.651 114.887C138.651 115.187 138.651 115.587 138.851 115.987C139.051 116.387 139.451 116.587 139.651 116.787C139.951 116.987 140.151 116.987 140.151 116.987Z" fill="white"/>
<path d="M144.851 122.187C144.851 122.187 144.651 122.187 144.451 121.987C144.251 121.887 143.951 121.587 143.751 121.187C143.551 120.787 143.451 120.487 143.451 120.187C143.451 119.887 143.451 119.787 143.451 119.787C143.451 119.787 143.451 119.987 143.451 120.187C143.451 120.487 143.551 120.787 143.751 121.187C143.951 121.487 144.251 121.787 144.451 121.987C144.751 122.087 144.851 122.187 144.851 122.187Z" fill="white"/>
<path d="M141.851 90.3873C141.851 90.3873 141.751 90.2873 141.651 90.1873C141.551 90.0873 141.451 89.9873 141.351 89.8873C141.251 89.7873 141.151 89.6872 141.051 89.4872C140.851 89.1872 140.551 88.8872 140.351 88.4872C140.151 88.0872 139.851 87.5872 139.651 87.0872C139.451 86.5872 139.351 86.0872 139.151 85.5872C139.051 85.0872 138.951 84.6873 138.951 84.3873C138.951 84.1873 138.951 84.0873 138.951 83.8873C138.951 83.7873 138.951 83.5872 138.951 83.4872C138.951 83.2872 138.951 83.1873 138.951 83.1873C138.951 83.1873 138.951 83.2872 138.951 83.4872C138.951 83.5872 138.951 83.6873 138.951 83.8873C138.951 83.9873 138.951 84.1873 138.951 84.3873C138.951 84.7873 139.051 85.1872 139.151 85.5872C139.251 86.0872 139.451 86.5872 139.651 87.0872C139.851 87.5872 140.051 88.0872 140.351 88.4872C140.551 88.8872 140.851 89.2872 141.051 89.4872C141.151 89.5872 141.251 89.7873 141.351 89.8873C141.451 89.9873 141.551 90.0873 141.551 90.1873C141.751 90.2873 141.851 90.3873 141.851 90.3873Z" fill="white"/>
<path d="M82.2097 167.7C102.373 167.7 118.719 151.354 118.719 131.19C118.719 111.027 102.373 94.681 82.2097 94.681C62.0461 94.681 45.7002 111.027 45.7002 131.19C45.7002 151.354 62.0461 167.7 82.2097 167.7Z" fill="#B5121B"/>
<path opacity="0.3" d="M82.2097 167.7C102.373 167.7 118.719 151.354 118.719 131.19C118.719 111.027 102.373 94.681 82.2097 94.681C62.0461 94.681 45.7002 111.027 45.7002 131.19C45.7002 151.354 62.0461 167.7 82.2097 167.7Z" fill="black"/>
<path d="M81.2146 165.343C101.378 165.343 117.724 148.997 117.724 128.833C117.724 108.67 101.378 92.3238 81.2146 92.3238C61.0509 92.3238 44.7051 108.67 44.7051 128.833C44.7051 148.997 61.0509 165.343 81.2146 165.343Z" fill="#B5121B"/>
<path d="M92.2636 154.985C106.704 148.878 113.46 132.22 107.353 117.779C101.246 103.338 84.5883 96.5826 70.1474 102.69C55.7064 108.797 48.9506 125.455 55.0578 139.896C61.1651 154.336 77.8226 161.092 92.2636 154.985Z" fill="white"/>
<path d="M95.35 142.993C103.164 135.179 103.164 122.51 95.35 114.696C87.5359 106.882 74.8667 106.882 67.0525 114.696C59.2384 122.51 59.2384 135.179 67.0525 142.993C74.8667 150.807 87.5359 150.807 95.35 142.993Z" fill="#B5121B"/>
<path d="M85.3956 138.5C90.7307 136.187 93.1804 129.987 90.8673 124.652C88.5542 119.316 82.3541 116.867 77.0191 119.18C71.684 121.493 69.2343 127.693 71.5474 133.028C73.8605 138.363 80.0606 140.813 85.3956 138.5Z" fill="white"/>
<path d="M109.448 99.2905L108.505 91.4857L116.414 83L116.991 91.4333L109.448 99.2905Z" fill="#170203"/>
<path d="M126.472 93.0572L118.458 92.4286L110.391 100.181L118.458 101.019L126.472 93.0572Z" fill="#170203"/>
<path opacity="0.3" d="M81.2144 129.462L111.176 107.986C110.233 106.571 108.714 104.686 107.352 103.271L81.6858 128.1L81.2144 129.462Z" fill="black"/>
<path d="M118.196 89.8095C116.938 91.0667 115.681 92.3762 114.424 93.6333C111.438 96.6714 108.4 99.7619 105.415 102.8C101.8 106.467 98.1337 110.133 94.5194 113.852C91.3241 116.995 88.1813 120.138 85.0384 123.333C83.5194 124.905 81.8956 126.371 80.4289 127.995L80.3765 128.048C79.486 128.938 80.9003 130.352 81.7908 129.462C83.048 128.205 84.3051 126.895 85.5622 125.638C88.548 122.6 91.586 119.51 94.5718 116.471C98.186 112.805 101.853 109.138 105.467 105.419C108.61 102.224 111.753 99.0286 114.896 95.8333C116.415 94.2619 118.038 92.7952 119.505 91.1714L119.557 91.119C120.448 90.2809 119.086 88.8667 118.196 89.8095Z" fill="#263238"/>
<g clip-path="url(#clip1_16_827)">
<path d="M88.9998 203L97.6998 194.3L112.8 208.1L139.4 181.5L147.5 190.2L111.6 224.8L88.9998 203Z" fill="#B5121B"/>
<path d="M101.5 182.7C101.4 182.8 99.9997 181.3 98.3997 179.5C96.7997 177.6 95.5997 176 95.6997 175.9C95.7997 175.8 97.1997 177.3 98.7997 179.1C100.4 181 101.6 182.6 101.5 182.7Z" fill="#263238"/>
<path d="M113.1 181.4C113 181.4 112.6 177.1 112.4 171.7C112.2 166.4 112.1 162 112.2 162C112.3 162 112.7 166.3 112.9 171.7C113.2 177 113.2 181.4 113.1 181.4Z" fill="#263238"/>
<path d="M131.1 175.5C131.2 175.6 130 177.4 128.3 179.5C126.6 181.6 125.2 183.2 125.1 183.1C125 183 126.2 181.2 127.9 179.1C129.5 177 131 175.4 131.1 175.5Z" fill="#263238"/>
</g>
</g>
<defs>
<clipPath id="clip0_16_827">
<rect width="327" height="230" fill="white" transform="translate(27.9998 22)"/>
</clipPath>
<clipPath id="clip1_16_827">
<rect width="58.5" height="62.8" fill="white" transform="translate(88.9998 162)"/>
</clipPath>
</defs>
</svg>
