<svg width="75" height="78" viewBox="0 0 75 78" fill="none" xmlns="http://www.w3.org/2000/svg">
<path d="M67.0169 77.1816C46.2357 77.1816 25.4544 77.1816 4.67316 77.1816C4.53396 77.122 4.41464 77.0623 4.27544 77.0226C2.06805 76.4061 0.63623 74.5765 0.63623 72.2896C0.63623 59.9402 0.63623 47.5907 0.63623 35.2413C0.63623 33.4714 1.45157 32.0794 2.94305 31.1447C3.34078 30.9061 3.46009 30.6674 3.46009 30.21C3.46009 27.6845 4.97146 26.2129 7.51691 26.193C8.31237 26.193 9.08794 26.193 9.8635 26.193C9.92316 25.9544 9.96294 25.8152 9.98282 25.6561C10.4999 20.5055 11.0368 15.335 11.5141 10.1646C11.7527 7.59924 13.3635 6.24697 15.9288 6.52538C21.2584 7.0822 26.6078 7.59924 31.9374 8.11629C32.8124 8.19584 33.3095 8.63334 33.2698 9.30947C33.2101 10.0254 32.6334 10.3833 31.7186 10.2839C26.3095 9.74697 20.8806 9.21004 15.4715 8.69299C14.318 8.57368 13.8408 8.9714 13.7215 10.085C13.2243 14.9572 12.747 19.8294 12.2698 24.6816C12.0908 26.551 11.9118 28.4203 11.7129 30.2896C13.0254 30.5481 13.0652 30.5282 13.1845 29.3152C13.5823 25.3379 13.98 21.3606 14.3578 17.3833C14.4573 16.3095 14.9544 15.4941 15.9885 15.0765C17.2413 14.5595 18.2556 13.7441 19.0112 12.6305C19.6078 11.7555 20.4629 11.3975 21.5169 11.497C24.1618 11.7555 26.8067 12.014 29.4516 12.2725C30.3266 12.3521 30.8038 12.8294 30.7243 13.5055C30.6448 14.1816 30.1078 14.5197 29.2129 14.4203C26.6874 14.1816 24.1618 13.943 21.6561 13.6646C21.1788 13.6049 20.8806 13.7242 20.6021 14.1419C19.7669 15.3748 18.6334 16.3095 17.2413 16.8862C16.7243 17.1049 16.5453 17.4231 16.5056 17.9402C16.3067 20.0879 16.0879 22.2356 15.8692 24.3833C15.6703 26.3521 15.4913 28.3208 15.2925 30.4089C16.8436 30.4089 18.3351 30.389 19.8067 30.4288C20.4033 30.4487 20.7413 30.2498 21.0794 29.7527C27.105 20.8833 33.1703 12.014 39.1959 3.1447C39.9118 2.09072 40.7073 1.19583 41.98 0.817993C42.4374 0.817993 42.8749 0.817993 43.3323 0.817993C43.7698 1.01686 44.2669 1.17595 44.6646 1.45436C52.0425 6.46572 59.4203 11.4771 66.7783 16.5083C68.4686 17.6617 68.8465 19.71 67.7328 21.4402C66.8379 22.8123 65.8834 24.1447 64.9686 25.5169C64.8294 25.7157 64.7101 25.9146 64.5311 26.2129C64.909 26.2129 65.1476 26.193 65.3862 26.2129C67.1959 26.3123 68.6078 27.4856 68.926 29.176C69.0254 29.7129 68.9459 30.2697 69.0056 30.8066C69.0254 31.0453 69.1249 31.3635 69.284 31.5027C70.5567 32.6163 71.0737 34.0083 71.0538 35.6788C71.034 38.6816 71.0538 41.6845 71.0538 44.7072C71.0538 44.9657 71.0538 45.2441 71.0538 45.5623C71.4118 45.5623 71.6902 45.5623 71.9487 45.5623C73.659 45.5822 74.6334 46.5566 74.6334 48.247C74.6334 51.9657 74.6334 55.7044 74.6334 59.4231C74.6334 61.0339 73.659 62.0083 72.0283 62.0481C71.7101 62.0481 71.4118 62.0481 71.034 62.0481C71.034 62.426 71.034 62.7044 71.034 62.9629C71.034 66.0652 71.0538 69.1674 71.034 72.2896C71.0141 74.5765 69.6021 76.4061 67.4146 77.0226C67.2754 77.0623 67.1561 77.122 67.0169 77.1816ZM2.90328 69.3066C2.90328 70.5993 2.80384 71.8123 2.94305 73.0055C3.00271 73.5424 3.49987 74.1788 3.97714 74.4572C4.55384 74.7953 5.32941 74.9544 6.00555 74.9544C25.8919 74.9743 45.7783 74.9743 65.6646 74.9743C65.9629 74.9743 66.2612 74.9743 66.5595 74.9345C67.6334 74.8152 68.6476 73.9799 68.7669 72.9061C68.8862 71.7328 68.7868 70.5396 68.7868 69.2868C68.4289 69.2868 68.1107 69.2868 67.7925 69.2868C50.6703 69.2868 33.5283 69.2868 16.4061 69.2868C16.1078 69.2868 15.8095 69.3066 15.5112 69.2669C14.8948 69.1873 14.5766 68.7896 14.5766 68.193C14.5766 67.6163 14.9146 67.2186 15.5311 67.139C15.8294 67.0993 16.1277 67.1191 16.426 67.1191C33.5482 67.1191 50.6902 67.1191 67.8124 67.1191C68.1306 67.1191 68.4487 67.1191 68.7868 67.1191C68.7868 65.389 68.7868 63.7385 68.7868 62.0083C68.4487 62.0083 68.1504 62.0083 67.8521 62.0083C64.8095 62.0083 61.7868 62.0282 58.7442 62.0083C53.6533 61.9686 50.0141 58.1703 50.2726 53.1788C50.4715 49.1021 54.0112 45.6021 58.1078 45.5225C61.3891 45.4629 64.6703 45.5027 67.9516 45.5027C68.2101 45.5027 68.4885 45.5027 68.8266 45.5027C68.8266 44.6078 68.8266 43.7924 68.8266 42.9771C68.8266 42.1419 68.8266 41.3066 68.8266 40.4714C46.7527 40.4714 24.7982 40.4714 2.8635 40.4714C2.8635 49.3606 2.8635 58.21 2.8635 67.0993C3.18169 67.0993 3.46009 67.0993 3.71862 67.0993C5.30953 67.0993 6.90044 67.0993 8.49134 67.0993C9.2868 67.0993 9.7243 67.5169 9.7243 68.1731C9.7243 68.8493 9.2868 69.2072 8.47146 69.247C8.15328 69.247 7.83509 69.247 7.49703 69.247C5.98566 69.3066 4.45441 69.3066 2.90328 69.3066ZM68.8465 38.2243C68.8465 37.3493 68.8465 36.5737 68.8465 35.7782C68.8465 33.551 67.8919 32.5964 65.6845 32.5964C45.7982 32.5964 25.9118 32.5964 6.02544 32.5964C5.7868 32.5964 5.52828 32.5765 5.28964 32.5964C4.13623 32.6958 3.04248 33.551 2.94305 34.6447C2.82373 35.818 2.92316 37.0112 2.92316 38.2243C24.8578 38.2243 46.7925 38.2243 68.8465 38.2243ZM50.9686 30.4089C52.1419 30.4089 53.2158 30.4288 54.3095 30.389C54.5283 30.389 54.7868 30.1703 54.926 29.9714C56.1788 28.1617 57.4317 26.3322 58.6448 24.4828C58.8039 24.2441 58.8635 23.7669 58.7243 23.5083C58.0482 22.0964 57.73 20.6447 57.8891 19.0936C57.9288 18.5964 57.7698 18.318 57.372 18.0595C53.7726 15.6333 50.1732 13.1674 46.5936 10.7214C46.2158 10.4629 45.9175 10.4231 45.4999 10.6419C44.1675 11.318 42.7357 11.5964 41.2442 11.4373C40.7073 11.3777 40.3891 11.5169 40.0709 11.9941C36.034 17.9402 31.997 23.8663 27.9601 29.7924C27.8408 29.9714 27.7612 30.1504 27.6021 30.4288C29.2925 30.4288 30.8436 30.4089 32.4146 30.4487C32.9317 30.4487 33.0709 30.2498 33.1504 29.7725C34.0254 23.21 41.7612 19.8691 47.1306 23.7072C49.4175 25.318 50.6504 27.5453 50.9686 30.4089ZM64.9288 59.8805C67.1362 59.8805 69.3436 59.8606 71.551 59.9004C72.2271 59.9203 72.4459 59.7413 72.4459 59.0254C72.4061 55.5453 72.4061 52.0652 72.4459 48.6049C72.4459 47.8493 72.1874 47.71 71.5112 47.71C67.3351 47.7299 63.159 47.71 59.0027 47.7299C58.3862 47.7299 57.7499 47.7697 57.1533 47.9089C54.1902 48.585 52.1419 51.4089 52.4601 54.2924C52.7982 57.4941 55.284 59.8407 58.4658 59.9004C60.6135 59.9004 62.7612 59.8805 64.9288 59.8805ZM23.3067 30.3095C24.3209 30.5481 24.997 30.389 25.5737 29.4941C27.3436 26.7299 29.2328 24.0652 31.0823 21.3407C33.5283 17.7413 35.9743 14.1617 38.4203 10.5623C39.0169 9.66743 39.8124 9.11061 40.9061 9.24981C42.3181 9.4089 43.6107 9.17027 44.8635 8.5339C45.7385 8.0964 46.6135 8.11629 47.409 8.67311C51.2669 11.2981 55.1448 13.9231 58.9828 16.568C59.7783 17.1248 60.1561 17.9402 60.0368 18.8947C59.8777 20.247 60.1362 21.5197 60.7527 22.7129C61.2499 23.6873 61.1902 24.622 60.5737 25.5169C59.8578 26.5708 59.1419 27.6049 58.4459 28.6589C58.0681 29.1958 57.7101 29.7527 57.3124 30.3294C58.3266 30.5481 58.9828 30.4089 59.5794 29.4941C61.5084 26.5112 63.5567 23.6078 65.5453 20.6646C66.3806 19.4316 66.2811 18.8549 65.0681 18.0197C58.0283 13.2072 50.9487 8.37481 43.8692 3.54243C42.5965 2.68731 42.0595 2.78674 41.1845 4.07936C35.9146 11.8152 30.6448 19.551 25.3749 27.2867C24.6987 28.2811 24.0226 29.2555 23.3067 30.3095ZM35.2783 30.3492C39.7925 30.3492 44.247 30.3492 48.6817 30.3492C48.5425 27.068 45.4999 24.264 42.0993 24.2441C38.5794 24.2044 35.5169 26.9288 35.2783 30.3492ZM66.7584 30.389C66.8578 29.4146 66.6192 28.7186 65.9232 28.5794C64.9885 28.4004 64.0141 28.46 63.0595 28.4203C62.98 28.4203 62.9004 28.5197 62.8408 28.5992C62.4629 29.1561 62.0652 29.7328 61.6277 30.389C63.3976 30.389 65.0482 30.389 66.7584 30.389ZM9.68453 28.4402C9.54532 28.4203 9.44589 28.4004 9.34646 28.4004C8.61066 28.4004 7.85498 28.3805 7.11919 28.4004C6.04532 28.4402 5.4885 29.2555 5.76691 30.4089C6.40328 30.4089 7.07941 30.4089 7.73566 30.4089C9.56521 30.4089 9.56521 30.4089 9.68453 28.4402Z" fill="#B5121B"/>
<path d="M63.1588 53.7952C63.1588 56.2213 61.1701 58.2099 58.7639 58.2099C56.3378 58.2099 54.3491 56.2014 54.3491 53.7952C54.3491 51.369 56.3378 49.4003 58.7639 49.4003C61.2298 49.4003 63.1588 51.3491 63.1588 53.7952ZM58.7639 56.0224C59.9968 56.0224 61.0111 55.0281 61.0111 53.7952C61.0111 52.602 59.977 51.548 58.7639 51.548C57.5508 51.548 56.5366 52.5622 56.5366 53.7952C56.5366 55.0281 57.5309 56.0224 58.7639 56.0224Z" fill="#B5121B"/>
</svg>
