<svg width="18" height="18" viewBox="0 0 18 18" fill="none" xmlns="http://www.w3.org/2000/svg">
<path d="M1 4.20007H2.77778H17" stroke="#A1A1A5" stroke-linecap="round" stroke-linejoin="round"/>
<path d="M5.44401 4.2V2.6C5.44401 2.17565 5.63131 1.76869 5.96471 1.46863C6.29811 1.16857 6.75029 1 7.22179 1H10.7773C11.2488 1 11.701 1.16857 12.0344 1.46863C12.3678 1.76869 12.5551 2.17565 12.5551 2.6V4.2M15.2218 4.2V15.4C15.2218 15.8243 15.0345 16.2313 14.7011 16.5314C14.3677 16.8314 13.9155 17 13.444 17H4.55512C4.08363 17 3.63144 16.8314 3.29804 16.5314C2.96464 16.2313 2.77734 15.8243 2.77734 15.4V4.2H15.2218Z" stroke="#A1A1A5" stroke-linecap="round" stroke-linejoin="round"/>
<path d="M7.22266 8.19983V12.9998" stroke="#A1A1A5" stroke-linecap="round" stroke-linejoin="round"/>
<path d="M10.7773 8.19983V12.9998" stroke="#A1A1A5" stroke-linecap="round" stroke-linejoin="round"/>
</svg>
