<svg width="12" height="12" viewBox="0 0 12 12" fill="none" xmlns="http://www.w3.org/2000/svg">
<path d="M10.5 2.98999C8.835 2.82499 7.16 2.73999 5.49 2.73999C4.5 2.73999 3.51 2.78999 2.52 2.88999L1.5 2.98999" stroke="#626262" stroke-linecap="round" stroke-linejoin="round"/>
<path d="M4.25 2.485L4.36 1.83C4.44 1.355 4.5 1 5.345 1H6.655C7.5 1 7.565 1.375 7.64 1.835L7.75 2.485" stroke="#626262" stroke-linecap="round" stroke-linejoin="round"/>
<path d="M9.42495 4.57007L9.09995 9.60507C9.04495 10.3901 8.99995 11.0001 7.60495 11.0001H4.39495C2.99995 11.0001 2.95495 10.3901 2.89995 9.60507L2.57495 4.57007" stroke="#626262" stroke-linecap="round" stroke-linejoin="round"/>
<path d="M5.16504 8.25H6.83004" stroke="#626262" stroke-linecap="round" stroke-linejoin="round"/>
<path d="M4.75 6.25H7.25" stroke="#626262" stroke-linecap="round" stroke-linejoin="round"/>
</svg>
